<svg width="126" height="126" viewBox="0 0 126 126" fill="none" xmlns="http://www.w3.org/2000/svg">
<path d="M32.4062 88.6583L40.0548 94.5784C41.0486 95.5722 43.2524 96.0476 44.7649 96.0476H54.1418C57.1235 96.0476 60.3211 93.8438 61.0558 90.8621L66.9758 72.8428C68.2289 69.3858 65.9819 66.4042 62.2657 66.4042H52.3702C52.0005 66.4045 51.6354 66.3231 51.301 66.1658C50.9665 66.0084 50.671 65.7791 50.4356 65.4941C50.2002 65.2092 50.0308 64.8757 49.9394 64.5175C49.848 64.1594 49.837 63.7855 49.9071 63.4226L51.1602 55.5148C51.6356 53.311 50.1663 50.8047 47.9625 50.0701C45.9748 49.3355 43.5117 50.3294 42.5178 51.7986L32.4062 66.8795" stroke="#F9FAFE" stroke-width="5" stroke-miterlimit="10"/>
<path d="M19.7891 88.6588V64.4601C19.7891 61.0031 21.2583 59.75 24.7152 59.75H27.1783C30.6353 59.75 32.1045 61.0031 32.1045 64.4601V88.6588C32.1045 92.1157 30.6353 93.3689 27.1783 93.3689H24.7152C21.2583 93.3689 19.7891 92.1589 19.7891 88.6588Z" stroke="#F9FAFE" stroke-width="5" stroke-linecap="round" stroke-linejoin="round"/>
<path d="M93.5945 37.0992L85.946 31.1792C84.9521 30.1853 82.7483 29.71 81.2359 29.71H71.8589C68.8773 29.71 65.6796 31.9138 64.945 34.8954L59.0249 52.9148C57.7718 56.3717 60.0188 59.3533 63.735 59.3533H73.6306C75.0998 59.3533 76.3529 60.6065 76.0936 62.335L74.8405 70.2427C74.3652 72.4465 75.8344 74.9528 78.0382 75.6874C80.0259 76.422 82.489 75.4282 83.4829 73.959L93.5945 58.878" stroke="#F9FAFE" stroke-width="5" stroke-miterlimit="10"/>
<path d="M106.214 37.0997V61.2984C106.214 64.7554 104.745 66.0085 101.288 66.0085H98.8246C95.3676 66.0085 93.8984 64.7554 93.8984 61.2984V37.0997C93.8984 33.6428 95.3676 32.3896 98.8246 32.3896H101.288C104.745 32.3896 106.214 33.5996 106.214 37.0997V37.0997Z" stroke="#F9FAFE" stroke-width="5" stroke-linecap="round" stroke-linejoin="round"/>
<path d="M45.002 2.87891H81.002C111.002 2.87891 123.002 14.8789 123.002 44.8789V80.8789C123.002 110.879 111.002 122.879 81.002 122.879H45.002C15.002 122.879 3.00195 110.879 3.00195 80.8789V44.8789C3.00195 14.8789 15.002 2.87891 45.002 2.87891Z" stroke="#F9FAFE" stroke-width="5" stroke-linecap="round" stroke-linejoin="round"/>
</svg>
