<svg width="22" height="22" viewBox="0 0 22 22" fill="none" xmlns="http://www.w3.org/2000/svg">
<path d="M8 21H14C19 21 21 19 21 14V8C21 3 19 1 14 1H8C3 1 1 3 1 8V14C1 19 3 21 8 21Z" stroke="#18204C" stroke-width="2" stroke-linecap="round" stroke-linejoin="round"/>
<path d="M8.1001 10.9995V9.5195C8.1001 7.6095 9.4501 6.8395 11.1001 7.7895L12.3801 8.5295L13.6601 9.2695C15.3101 10.2195 15.3101 11.7795 13.6601 12.7295L12.3801 13.4695L11.1001 14.2095C9.4501 15.1595 8.1001 14.3795 8.1001 12.4795V10.9995Z" stroke="#18204C" stroke-width="2" stroke-miterlimit="10" stroke-linecap="round" stroke-linejoin="round"/>
</svg>
