<svg width="165" height="29" viewBox="0 0 165 29" fill="none" xmlns="http://www.w3.org/2000/svg">
<path d="M41.3475 23V4.8H49.2255C50.8548 4.8 52.2588 5.06867 53.4375 5.606C54.6161 6.126 55.5261 6.88 56.1675 7.868C56.8088 8.856 57.1295 10.0347 57.1295 11.404C57.1295 12.756 56.8088 13.926 56.1675 14.914C55.5261 15.8847 54.6161 16.63 53.4375 17.15C52.2588 17.67 50.8548 17.93 49.2255 17.93H43.6875L45.5595 16.084V23H41.3475ZM52.9175 23L48.3675 16.396H52.8655L57.4675 23H52.9175ZM45.5595 16.552L43.6875 14.576H48.9915C50.2915 14.576 51.2621 14.2987 51.9035 13.744C52.5448 13.172 52.8655 12.392 52.8655 11.404C52.8655 10.3987 52.5448 9.61867 51.9035 9.064C51.2621 8.50933 50.2915 8.232 48.9915 8.232H43.6875L45.5595 6.23V16.552ZM68.6336 23V20.27L68.3736 19.672V14.784C68.3736 13.9173 68.105 13.2413 67.5676 12.756C67.0476 12.2707 66.2416 12.028 65.1496 12.028C64.4043 12.028 63.6676 12.1493 62.9396 12.392C62.229 12.6173 61.6223 12.9293 61.1196 13.328L59.6636 10.494C60.4263 9.95667 61.345 9.54067 62.4196 9.246C63.4943 8.95133 64.5863 8.804 65.6956 8.804C67.8276 8.804 69.483 9.30667 70.6616 10.312C71.8403 11.3173 72.4296 12.886 72.4296 15.018V23H68.6336ZM64.3696 23.208C63.2776 23.208 62.3416 23.026 61.5616 22.662C60.7816 22.2807 60.1836 21.7693 59.7676 21.128C59.3516 20.4867 59.1436 19.7673 59.1436 18.97C59.1436 18.138 59.343 17.41 59.7416 16.786C60.1576 16.162 60.8076 15.6767 61.6916 15.33C62.5756 14.966 63.7283 14.784 65.1496 14.784H68.8676V17.15H65.5916C64.6383 17.15 63.9796 17.306 63.6156 17.618C63.269 17.93 63.0956 18.32 63.0956 18.788C63.0956 19.308 63.295 19.724 63.6936 20.036C64.1096 20.3307 64.673 20.478 65.3836 20.478C66.0596 20.478 66.6663 20.322 67.2036 20.01C67.741 19.6807 68.131 19.204 68.3736 18.58L68.9976 20.452C68.703 21.3533 68.1656 22.038 67.3856 22.506C66.6056 22.974 65.6003 23.208 64.3696 23.208ZM75.1385 23V20.556L83.4065 10.78L84.1085 12.132H75.3205V9.012H87.3845V11.456L79.1165 21.232L78.3885 19.88H87.6185V23H75.1385ZM96.696 23.208C95.2053 23.208 93.8793 22.896 92.718 22.272C91.574 21.648 90.664 20.7987 89.988 19.724C89.3293 18.632 89 17.3927 89 16.006C89 14.602 89.3293 13.3627 89.988 12.288C90.664 11.196 91.574 10.3467 92.718 9.74C93.8793 9.116 95.2053 8.804 96.696 8.804C98.1693 8.804 99.4866 9.116 100.648 9.74C101.809 10.3467 102.719 11.1873 103.378 12.262C104.037 13.3367 104.366 14.5847 104.366 16.006C104.366 17.3927 104.037 18.632 103.378 19.724C102.719 20.7987 101.809 21.648 100.648 22.272C99.4866 22.896 98.1693 23.208 96.696 23.208ZM96.696 19.88C97.372 19.88 97.9786 19.724 98.516 19.412C99.0533 19.1 99.478 18.658 99.79 18.086C100.102 17.4967 100.258 16.8033 100.258 16.006C100.258 15.1913 100.102 14.498 99.79 13.926C99.478 13.354 99.0533 12.912 98.516 12.6C97.9786 12.288 97.372 12.132 96.696 12.132C96.02 12.132 95.4133 12.288 94.876 12.6C94.3386 12.912 93.9053 13.354 93.576 13.926C93.264 14.498 93.108 15.1913 93.108 16.006C93.108 16.8033 93.264 17.4967 93.576 18.086C93.9053 18.658 94.3386 19.1 94.876 19.412C95.4133 19.724 96.02 19.88 96.696 19.88ZM107.077 23V9.012H110.951V12.964L110.405 11.82C110.821 10.832 111.488 10.0867 112.407 9.584C113.326 9.064 114.444 8.804 115.761 8.804V12.548C115.588 12.5307 115.432 12.522 115.293 12.522C115.154 12.5047 115.007 12.496 114.851 12.496C113.742 12.496 112.84 12.8167 112.147 13.458C111.471 14.082 111.133 15.0613 111.133 16.396V23H107.077ZM124.727 23.208C123.237 23.208 121.911 22.896 120.749 22.272C119.605 21.648 118.695 20.7987 118.019 19.724C117.361 18.632 117.031 17.3927 117.031 16.006C117.031 14.602 117.361 13.3627 118.019 12.288C118.695 11.196 119.605 10.3467 120.749 9.74C121.911 9.116 123.237 8.804 124.727 8.804C126.201 8.804 127.518 9.116 128.679 9.74C129.841 10.3467 130.751 11.1873 131.409 12.262C132.068 13.3367 132.397 14.5847 132.397 16.006C132.397 17.3927 132.068 18.632 131.409 19.724C130.751 20.7987 129.841 21.648 128.679 22.272C127.518 22.896 126.201 23.208 124.727 23.208ZM124.727 19.88C125.403 19.88 126.01 19.724 126.547 19.412C127.085 19.1 127.509 18.658 127.821 18.086C128.133 17.4967 128.289 16.8033 128.289 16.006C128.289 15.1913 128.133 14.498 127.821 13.926C127.509 13.354 127.085 12.912 126.547 12.6C126.01 12.288 125.403 12.132 124.727 12.132C124.051 12.132 123.445 12.288 122.907 12.6C122.37 12.912 121.937 13.354 121.607 13.926C121.295 14.498 121.139 15.1913 121.139 16.006C121.139 16.8033 121.295 17.4967 121.607 18.086C121.937 18.658 122.37 19.1 122.907 19.412C123.445 19.724 124.051 19.88 124.727 19.88ZM143.376 23.208C142.198 23.208 141.166 22.948 140.282 22.428C139.398 21.908 138.705 21.1193 138.202 20.062C137.717 18.9873 137.474 17.6353 137.474 16.006C137.474 14.3593 137.708 13.0073 138.176 11.95C138.644 10.8927 139.32 10.104 140.204 9.584C141.088 9.064 142.146 8.804 143.376 8.804C144.694 8.804 145.872 9.10733 146.912 9.714C147.97 10.3033 148.802 11.1353 149.408 12.21C150.032 13.2847 150.344 14.55 150.344 16.006C150.344 17.4793 150.032 18.7533 149.408 19.828C148.802 20.9027 147.97 21.7347 146.912 22.324C145.872 22.9133 144.694 23.208 143.376 23.208ZM135.108 28.044V9.012H138.982V11.872L138.904 16.032L139.164 20.166V28.044H135.108ZM142.674 19.88C143.35 19.88 143.948 19.724 144.468 19.412C145.006 19.1 145.43 18.658 145.742 18.086C146.072 17.4967 146.236 16.8033 146.236 16.006C146.236 15.1913 146.072 14.498 145.742 13.926C145.43 13.354 145.006 12.912 144.468 12.6C143.948 12.288 143.35 12.132 142.674 12.132C141.998 12.132 141.392 12.288 140.854 12.6C140.317 12.912 139.892 13.354 139.58 13.926C139.268 14.498 139.112 15.1913 139.112 16.006C139.112 16.8033 139.268 17.4967 139.58 18.086C139.892 18.658 140.317 19.1 140.854 19.412C141.392 19.724 141.998 19.88 142.674 19.88ZM157.766 23.208C156.57 23.208 155.417 23.0693 154.308 22.792C153.216 22.4973 152.349 22.1333 151.708 21.7L153.06 18.788C153.701 19.1867 154.455 19.516 155.322 19.776C156.206 20.0187 157.072 20.14 157.922 20.14C158.858 20.14 159.516 20.0273 159.898 19.802C160.296 19.5767 160.496 19.2647 160.496 18.866C160.496 18.5367 160.34 18.294 160.028 18.138C159.733 17.9647 159.334 17.8347 158.831 17.748C158.329 17.6613 157.774 17.5747 157.168 17.488C156.578 17.4013 155.98 17.2887 155.374 17.15C154.767 16.994 154.212 16.7687 153.71 16.474C153.207 16.1793 152.8 15.7807 152.488 15.278C152.193 14.7753 152.045 14.1253 152.045 13.328C152.045 12.444 152.297 11.664 152.8 10.988C153.32 10.312 154.065 9.78333 155.036 9.402C156.006 9.00333 157.168 8.804 158.52 8.804C159.473 8.804 160.444 8.908 161.432 9.116C162.42 9.324 163.243 9.62733 163.902 10.026L162.55 12.912C161.874 12.5133 161.189 12.2447 160.496 12.106C159.82 11.95 159.161 11.872 158.52 11.872C157.618 11.872 156.96 11.9933 156.544 12.236C156.128 12.4787 155.92 12.7907 155.92 13.172C155.92 13.5187 156.067 13.7787 156.362 13.952C156.674 14.1253 157.081 14.264 157.584 14.368C158.086 14.472 158.632 14.5673 159.222 14.654C159.828 14.7233 160.435 14.836 161.042 14.992C161.648 15.148 162.194 15.3733 162.68 15.668C163.182 15.9453 163.59 16.3353 163.902 16.838C164.214 17.3233 164.37 17.9647 164.37 18.762C164.37 19.6287 164.11 20.4 163.59 21.076C163.07 21.7347 162.316 22.2547 161.328 22.636C160.357 23.0173 159.17 23.208 157.766 23.208Z" fill="#18204C"/>
<path d="M14.9212 2.57061C15.5489 2.21794 16.3178 2.22992 16.9342 2.60198L18.081 3.29414C19.3886 4.08336 19.3648 5.98781 18.0378 6.74406L6.30003 13.4335C5.6842 13.7845 4.9286 13.7833 4.31389 13.4303L3.05373 12.7068C1.70765 11.9339 1.71674 9.98894 3.06998 9.22868L14.9212 2.57061Z" fill="#345EEF"/>
<path d="M20.1593 8.67465C20.9581 8.23995 21.9234 8.24187 22.7205 8.67975C24.5704 9.69592 24.5651 12.3556 22.7112 13.3643L11.8407 19.2795C11.0419 19.7142 10.0766 19.7122 9.27951 19.2744C7.42965 18.2582 7.43495 15.5986 9.28884 14.5898L20.1593 8.67465Z" fill="#345EEF"/>
<path d="M25.6988 13.5252C26.3152 13.1738 27.0718 13.1753 27.6868 13.5293L28.9735 14.2697C30.3133 15.0407 30.3093 16.9752 28.9665 17.7407L17.3012 24.3906C16.6848 24.742 15.9282 24.7405 15.3132 24.3865L14.0265 23.646C12.6867 22.875 12.6907 20.9406 14.0335 20.1751L25.6988 13.5252Z" fill="#345EEF"/>
</svg>
