<svg width="32" height="31" viewBox="0 0 32 31" fill="none" xmlns="http://www.w3.org/2000/svg">
<path fill-rule="evenodd" clip-rule="evenodd" d="M17.5127 0V5H22.5127C24.7218 5 26.5127 6.79086 26.5127 9V22C26.5127 24.2091 24.7218 26 22.5127 26H17.5127V31H23.5127C27.931 31 31.5127 27.4183 31.5127 23V8C31.5127 3.58172 27.931 0 23.5127 0H17.5127Z" fill="#313EE7"/>
<path fill-rule="evenodd" clip-rule="evenodd" d="M5.61332 23H0.487305V7C0.487305 3.13401 3.62131 4.72663e-06 7.48731 5.07997e-06L14.5125 0L14.5125 5.00001L9.48731 5.00001C7.27817 5.00001 5.48731 6.79087 5.48731 9L5.4873 22C5.4873 22.3453 5.53106 22.6804 5.61332 23Z" fill="#313EE7"/>
<path fill-rule="evenodd" clip-rule="evenodd" d="M1.06836 26C2.25513 28.9318 5.12946 31 8.48684 31L14.4868 31V26H9.48684H1.06836Z" fill="#313EE7"/>
<path d="M5.4873 11.25H8.4873L9.4873 10.25" stroke="#1717D2" stroke-width="0.35"/>
<path d="M5.4873 12.75H9.4873L10.4873 11.75H14.4873M5.4873 14.25H10.4873M5.4873 15.75H13.4873M5.4873 17.25H7.4873L8.4873 18.25H10.9873M5.4873 19.25H8.4873L9.4873 20.25M5.4873 21.25H6.4873" stroke="#1717D2" stroke-width="0.35"/>
<circle r="0.375" transform="matrix(1 0 0 -1 10.7871 14.25)" stroke="#1717D2" stroke-width="0.25"/>
<circle r="0.375" transform="matrix(1 0 0 -1 6.78711 21.25)" stroke="#1717D2" stroke-width="0.25"/>
<circle r="0.575" transform="matrix(1 0 0 -1 14.0371 15.75)" stroke="#1717D2" stroke-width="0.35"/>
<circle r="0.575" transform="matrix(1 0 0 -1 14.9873 11.75)" stroke="#1717D2" stroke-width="0.35"/>
<circle r="0.575" transform="matrix(1 0 0 -1 11.3877 18.25)" stroke="#1717D2" stroke-width="0.35"/>
<circle r="0.575" transform="matrix(1 0 0 -1 9.7373 20.6504)" stroke="#1717D2" stroke-width="0.35"/>
<circle r="0.575" transform="matrix(1 0 0 -1 9.7373 9.75)" stroke="#1717D2" stroke-width="0.35"/>
</svg>
