<svg width="127" height="128" viewBox="0 0 127 128" fill="none" xmlns="http://www.w3.org/2000/svg">
<path d="M83.7836 73.7794C89.2732 74.7051 95.3237 73.7391 99.5712 70.8814C105.221 67.0978 105.221 60.8993 99.5712 57.1158C95.2837 54.258 89.153 53.292 83.6633 54.258M43.8336 73.7794C38.344 74.7051 32.2934 73.7391 28.046 70.8814C22.3961 67.0978 22.3961 60.8993 28.046 57.1158C32.3335 54.258 38.4642 53.292 43.9538 54.258M87.9108 44.4772C87.6586 44.4369 87.4016 44.4369 87.1494 44.4772C84.4753 44.38 81.9435 43.2423 80.0891 41.3045C78.2347 39.3666 77.203 36.7805 77.2121 34.0926C77.2121 28.3368 81.8201 23.708 87.5501 23.708C90.292 23.708 92.9215 24.8021 94.8603 26.7496C96.799 28.6971 97.8882 31.3384 97.8882 34.0926C97.8809 36.7824 96.8384 39.3652 94.9788 41.3007C93.1192 43.2361 90.5866 44.3743 87.9108 44.4772ZM39.7064 44.4772C39.9468 44.4369 40.2273 44.4369 40.4677 44.4772C43.1419 44.38 45.6737 43.2423 47.5281 41.3045C49.3825 39.3666 50.4142 36.7805 50.4051 34.0926C50.4051 28.3368 45.7971 23.708 40.067 23.708C37.3252 23.708 34.6957 24.8021 32.7569 26.7496C30.8181 28.6971 29.729 31.3384 29.729 34.0926C29.769 39.7276 34.1767 44.2759 39.7064 44.4772ZM63.8687 74.5442C63.6165 74.5039 63.3596 74.5039 63.1074 74.5442C60.4332 74.447 57.9014 73.3093 56.047 71.3715C54.1927 69.4336 53.1609 66.8475 53.17 64.1596C53.17 58.4038 57.778 53.775 63.5081 53.775C66.2499 53.775 68.8794 54.8691 70.8182 56.8166C72.757 58.764 73.8462 61.4054 73.8462 64.1596C73.8061 69.7946 69.3984 74.3832 63.8687 74.5442ZM52.2083 87.223C46.5584 91.0065 46.5584 97.2051 52.2083 100.989C58.6195 105.295 69.1179 105.295 75.5291 100.989C81.179 97.2051 81.179 91.0065 75.5291 87.223C69.158 82.9565 58.6195 82.9565 52.2083 87.223Z" stroke="#F9FAFE" stroke-width="5" stroke-linecap="round" stroke-linejoin="round"/>
<path d="M45.6019 3H82.0157C112.361 3 124.498 15.1925 124.498 45.6738V82.2513C124.498 112.733 112.361 124.925 82.0157 124.925H45.6019C15.2571 124.925 3.11914 112.733 3.11914 82.2513V45.6738C3.11914 15.1925 15.2571 3 45.6019 3Z" stroke="#F9FAFE" stroke-width="5" stroke-linecap="round" stroke-linejoin="round"/>
</svg>
