<svg width="148" height="17" viewBox="0 0 148 17" fill="none" xmlns="http://www.w3.org/2000/svg">
<path d="M146.427 7.47875C146.317 7.47864 146.207 7.50074 146.105 7.54371C146.004 7.58668 145.912 7.64963 145.835 7.72883L139.017 14.7558C138.94 14.832 138.88 14.9224 138.838 15.0219C138.797 15.1215 138.775 15.2282 138.775 15.336C138.775 15.4437 138.797 15.5504 138.838 15.65C138.88 15.7495 138.94 15.8399 139.017 15.9161C139.095 15.991 139.186 16.0499 139.287 16.0894C139.388 16.1289 139.495 16.1483 139.603 16.1464C139.711 16.1445 139.818 16.1213 139.917 16.0783C140.016 16.0353 140.106 15.9732 140.181 15.8956L146.999 8.86858C147.076 8.79242 147.136 8.702 147.178 8.60246C147.219 8.50292 147.241 8.39622 147.241 8.28847C147.241 8.18071 147.219 8.074 147.178 7.97446C147.136 7.87492 147.076 7.78449 146.999 7.70834C146.846 7.56084 146.641 7.47853 146.427 7.47875Z" fill="#191E27"/>
<path d="M145.724 7.32496H1.40354C1.11832 7.32496 0.844801 7.42855 0.643122 7.6129C0.441443 7.79725 0.328125 8.04727 0.328125 8.30799C0.328125 8.5687 0.441443 8.81873 0.643122 9.00308C0.844801 9.18743 1.11832 9.29102 1.40354 9.29102H145.724C146.009 9.29102 146.282 9.18743 146.484 9.00308C146.686 8.81873 146.799 8.5687 146.799 8.30799C146.799 8.04727 146.686 7.79725 146.484 7.6129C146.282 7.42855 146.009 7.32496 145.724 7.32496Z" fill="#191E27"/>
<path d="M139.622 0.56473C139.407 0.564542 139.2 0.648439 139.046 0.798419C138.97 0.874571 138.909 0.964998 138.867 1.06454C138.826 1.16408 138.805 1.27077 138.805 1.37853C138.805 1.48628 138.826 1.59297 138.867 1.69252C138.909 1.79206 138.97 1.88251 139.046 1.95866L145.852 8.87086C145.928 8.94709 146.019 9.00756 146.119 9.04882C146.219 9.09008 146.326 9.11133 146.434 9.11133C146.542 9.11133 146.649 9.09008 146.749 9.04882C146.849 9.00756 146.94 8.94709 147.016 8.87086C147.169 8.71723 147.255 8.5094 147.255 8.29278C147.255 8.07616 147.169 7.86835 147.016 7.71472L140.211 0.802523C140.133 0.726037 140.041 0.66563 139.94 0.62481C139.839 0.58399 139.731 0.563563 139.622 0.56473Z" fill="#191E27"/>
</svg>
