<svg width="105" height="106" viewBox="0 0 105 106" fill="none" xmlns="http://www.w3.org/2000/svg">
<path d="M92.4974 53.8973V62.397C92.4974 78.1466 83.4977 84.8964 69.9981 84.8964H24.9994C11.4997 84.8964 2.5 78.1466 2.5 62.397V35.3978C2.5 19.6482 11.4997 12.8984 24.9994 12.8984H38.499C37.849 14.7984 37.499 16.8983 37.499 19.1483V38.6477C37.499 43.4976 39.099 47.5974 41.9489 50.4474C44.7988 53.2973 48.8987 54.8972 53.7485 54.8972V61.847C53.7485 64.397 56.6485 65.9469 58.7984 64.547L73.248 54.8972H86.2476C88.4975 54.8972 90.5975 54.5472 92.4974 53.8973V53.8973Z" stroke="#F9FAFE" stroke-width="5" stroke-miterlimit="10" stroke-linecap="round" stroke-linejoin="round"/>
<path d="M29.502 102.895H65.5009M47.5014 84.8951V102.895M102.5 19.147V38.6464C102.5 46.0962 98.7 51.6961 92.5002 53.896C90.6002 54.546 88.5003 54.896 86.2503 54.896H73.2507L58.8011 64.5457C56.6512 65.9457 53.7513 64.3957 53.7513 61.8458V54.896C48.9014 54.896 44.8015 53.296 41.9516 50.4461C39.1017 47.5962 37.5017 43.4963 37.5017 38.6464V19.147C37.5017 16.8971 37.8517 14.7971 38.5017 12.8972C40.7016 6.69735 46.3015 2.89746 53.7513 2.89746H86.2503C96.0001 2.89746 102.5 9.39728 102.5 19.147Z" stroke="#F9FAFE" stroke-width="5" stroke-miterlimit="10" stroke-linecap="round" stroke-linejoin="round"/>
<path d="M84.9719 29.1465H85.0218M70.9773 29.1465H71.0223M56.9727 29.1465H57.0227" stroke="#F9FAFE" stroke-width="10" stroke-linecap="round" stroke-linejoin="round"/>
</svg>
