<svg width="126" height="126" viewBox="0 0 126 126" fill="none" xmlns="http://www.w3.org/2000/svg">
<path d="M81.8356 29.8143C89.9506 29.8143 96.4761 36.3817 96.4761 44.4549C96.4761 52.3608 90.2016 58.8026 82.3794 59.0954C82.0181 59.0535 81.6531 59.0535 81.2918 59.0954M30.5938 73.9869C42.1388 66.332 61.0042 66.332 72.4657 73.9869C82.5885 80.7215 82.5885 91.7647 72.4657 98.5411C63.5378 104.515 50.1752 105.852 39.2617 102.553M89.9088 96.7424C92.9206 96.115 95.765 94.9019 98.1075 93.1032C104.633 88.2091 104.633 80.1359 98.1075 75.2418C95.8068 73.4849 93.0042 72.3137 90.0343 71.6444M51.5088 58.5516C51.0905 58.5098 50.5885 58.5098 50.1284 58.5516C45.3272 58.3886 40.7779 56.3632 37.444 52.9044C34.1101 49.4455 32.2533 44.8249 32.267 40.0209C32.267 29.7725 40.5493 21.4483 50.8395 21.4483C55.7597 21.3596 60.5136 23.229 64.0555 26.6454C67.5974 30.0617 69.637 34.7451 69.7258 39.6653C69.8145 44.5855 67.9451 49.3395 64.5288 52.8813C61.1124 56.4232 56.429 58.4628 51.5088 58.5516Z" stroke="#F9FAFE" stroke-width="5" stroke-linecap="round" stroke-linejoin="round"/>
<path d="M45.002 2.87891H81.002C111.002 2.87891 123.002 14.8789 123.002 44.8789V80.8789C123.002 110.879 111.002 122.879 81.002 122.879H45.002C15.002 122.879 3.00195 110.879 3.00195 80.8789V44.8789C3.00195 14.8789 15.002 2.87891 45.002 2.87891Z" stroke="#F9FAFE" stroke-width="5" stroke-linecap="round" stroke-linejoin="round"/>
<path d="M39.7871 94.1148L31.4684 94.541C29.8084 94.541 28.4684 93.201 28.4684 91.541L28.4684 88.221" stroke="#F9FAFE" stroke-width="5" stroke-miterlimit="10" stroke-linecap="round" stroke-linejoin="round"/>
<path d="M31.4489 85.7939L28.2889 82.6339L25.1289 85.7939" stroke="#F9FAFE" stroke-width="5" stroke-miterlimit="10" stroke-linecap="round" stroke-linejoin="round"/>
</svg>
