<svg width="99" height="30" viewBox="0 0 99 30" fill="none" xmlns="http://www.w3.org/2000/svg">
<g clip-path="url(#clip0_238_1272)">
<path d="M36.2488 5.37646L41.1229 18.0957L38.2254 18.4361L37.1899 15.4648H32.5424L31.5453 18.247H28.6094L33.5023 5.37714H36.2488V5.37646ZM34.819 9.12418L33.3884 13.1173H36.3243L34.819 9.12418Z" fill="#462E52"/>
<path d="M50.5148 10.9513C50.1258 10.2386 49.5865 9.6989 48.8969 9.33274C48.2065 8.96726 47.3976 8.78418 46.4693 8.78418C46.0176 8.78418 45.5848 8.86012 45.1709 9.01133C44.7569 9.16254 44.3774 9.368 44.0322 9.62634C44.0181 9.63651 44.0053 9.64736 43.9911 9.65821L43.4767 9.08727H41.9902V22.3924L44.9255 22.2032V18.1537C45.0151 18.1917 45.1061 18.2263 45.1978 18.2568C45.5936 18.389 45.9724 18.4555 46.3365 18.4555C47.3275 18.4555 48.1742 18.2629 48.8767 17.8784C49.5791 17.494 50.1252 16.9386 50.5142 16.2131C50.9025 15.4876 51.0973 14.6074 51.0973 13.5727C51.098 12.5379 50.9031 11.6639 50.5148 10.9513ZM47.8425 14.897C47.6922 15.2753 47.4785 15.5689 47.2027 15.7771C46.9263 15.9853 46.6001 16.089 46.2239 16.089C45.8477 16.089 45.4742 15.9975 45.1041 15.8144C45.0448 15.7852 44.9855 15.752 44.9255 15.7167V11.5954C44.9794 11.5588 45.0327 11.5235 45.0852 11.4903C45.4297 11.2761 45.7843 11.1689 46.1484 11.1689C46.5623 11.1689 46.9108 11.2666 47.1926 11.4625C47.4751 11.6585 47.6915 11.9358 47.8418 12.2952C47.9922 12.6546 48.0677 13.0872 48.0677 13.5917C48.0684 14.0833 47.9928 14.5186 47.8425 14.897Z" fill="#462E52"/>
<path d="M60.7602 10.9513C60.3713 10.2386 59.8319 9.6989 59.1423 9.33274C58.4526 8.96726 57.643 8.78418 56.7147 8.78418C56.263 8.78418 55.8302 8.86012 55.4163 9.01133C55.0024 9.16254 54.6228 9.368 54.2776 9.62634C54.2635 9.63651 54.2507 9.64736 54.2365 9.65821L53.7228 9.0866H52.2363V22.3917L55.1716 22.2025V18.1531C55.2612 18.191 55.3522 18.2256 55.4446 18.2561C55.8396 18.3884 56.2192 18.4548 56.5832 18.4548C57.5736 18.4548 58.421 18.2622 59.1234 17.8778C59.8259 17.4933 60.3713 16.938 60.7602 16.2124C61.1492 15.4869 61.3434 14.6067 61.3434 13.572C61.3434 12.5379 61.1492 11.6639 60.7602 10.9513ZM58.0879 14.897C57.9376 15.2753 57.7239 15.5689 57.4482 15.7771C57.1718 15.9853 56.8461 16.089 56.47 16.089C56.0931 16.089 55.7203 15.9975 55.3502 15.8144C55.2909 15.7852 55.2316 15.752 55.1716 15.7167V11.5954C55.2255 11.5588 55.2788 11.5229 55.332 11.4903C55.6765 11.2761 56.0311 11.1689 56.3951 11.1689C56.8091 11.1689 57.1569 11.2666 57.4394 11.4625C57.7219 11.6585 57.9383 11.9358 58.0886 12.2952C58.2389 12.6546 58.3144 13.0872 58.3144 13.5917C58.3138 14.0833 58.2389 14.5186 58.0879 14.897Z" fill="#462E52"/>
<path d="M62.4941 18.2469V5.09294L65.4293 4.88477V18.2469H62.4941Z" fill="#462E52"/>
<path d="M71.6608 18.4555C70.6698 18.4555 69.7981 18.2724 69.0451 17.9062C68.2928 17.5408 67.7056 16.9949 67.2856 16.2694C66.8649 15.5438 66.6553 14.6705 66.6553 13.6479C66.6674 12.6261 66.8906 11.7554 67.3234 11.036C67.7562 10.3166 68.3521 9.76128 69.1112 9.37071C69.8696 8.97946 70.7325 8.78418 71.6986 8.78418C72.6896 8.78418 73.5612 8.97336 74.3143 9.35172C75.0673 9.73009 75.6565 10.2827 76.0832 11.0082C76.51 11.7338 76.723 12.62 76.723 13.6676C76.723 14.6644 76.5032 15.5221 76.0644 16.2416C75.6248 16.961 75.0262 17.5096 74.2678 17.8879C73.508 18.2663 72.639 18.4555 71.6608 18.4555ZM71.679 16.0137C72.0936 16.0137 72.4476 15.9161 72.7422 15.7201C73.0368 15.5249 73.266 15.2502 73.4291 14.897C73.5916 14.5437 73.6738 14.1334 73.6738 13.6669C73.6738 13.2004 73.5956 12.7841 73.4385 12.4179C73.2821 12.0518 73.0563 11.7649 72.761 11.5568C72.4658 11.3486 72.1179 11.2449 71.7168 11.2449C71.3157 11.2449 70.9611 11.3459 70.6543 11.548C70.3462 11.75 70.1116 12.0274 69.9485 12.3806C69.786 12.7339 69.7044 13.1563 69.7044 13.6486C69.7044 14.1029 69.786 14.5098 69.9485 14.8692C70.1116 15.2285 70.3408 15.5099 70.6354 15.7113C70.93 15.9134 71.2779 16.0137 71.679 16.0137Z" fill="#462E52"/>
<path d="M84.8725 10.7325L80.7521 15.8994H84.8725L85.1361 18.2462H77.4777L77.1016 16.6941L81.2415 11.4322H77.835L77.44 9.06641H84.7221L84.8725 10.7325Z" fill="#462E52"/>
<path d="M86.9412 7.3172C86.6217 6.99512 86.4619 6.61404 86.4619 6.17194C86.4619 5.71763 86.6217 5.32977 86.9412 5.00769C87.2615 4.68561 87.6403 4.5249 88.0799 4.5249C88.5194 4.5249 88.9017 4.68561 89.2279 5.00769C89.5542 5.3291 89.7174 5.71763 89.7174 6.17194C89.7174 6.61337 89.5569 6.99512 89.2374 7.3172C88.9178 7.63861 88.5316 7.79999 88.0799 7.79999C87.6403 7.79931 87.2615 7.63861 86.9412 7.3172ZM86.6122 18.2471V9.06731H89.5664V18.2471H86.6122Z" fill="#462E52"/>
<path d="M99 17.5279C98.6865 17.7808 98.3326 17.9761 97.9369 18.1144C97.5418 18.2527 97.1623 18.3443 96.7982 18.389C96.4342 18.4331 96.1207 18.4555 95.8578 18.4555C94.8796 18.4555 94.0201 18.2663 93.2798 17.8873C92.5396 17.5089 91.9626 16.9603 91.5486 16.2409C91.1347 15.5215 90.9277 14.6637 90.9277 13.6669C90.9399 12.658 91.1502 11.79 91.5581 11.0645C91.9652 10.339 92.5396 9.77755 93.2798 9.3802C94.0194 8.98285 94.8796 8.78418 95.8578 8.78418C96.1086 8.78418 96.416 8.81266 96.78 8.86961C97.1434 8.92657 97.5229 9.02082 97.9187 9.15373C98.313 9.28595 98.6737 9.47852 99 9.73077L98.1721 11.7934C97.7704 11.6042 97.4097 11.4652 97.0901 11.3771C96.7706 11.2889 96.4221 11.2449 96.0459 11.2449C95.6697 11.2449 95.3212 11.3459 95.0016 11.548C94.6821 11.75 94.4306 12.0307 94.2493 12.3901C94.0673 12.7495 93.9762 13.1753 93.9762 13.6676C93.9762 14.147 94.0673 14.5606 94.2493 14.9071C94.4306 15.2543 94.6821 15.5255 95.0016 15.7208C95.3212 15.9161 95.6697 16.0144 96.0459 16.0144C96.3971 16.0144 96.7389 15.9703 97.0713 15.8822C97.4036 15.794 97.7704 15.6489 98.1721 15.4469L99 17.5279Z" fill="#462E52"/>
<path d="M8.21113 0H5.69655C2.55502 0 0 2.56989 0 5.72903V8.22163C0 9.01633 0.643137 9.66321 1.43324 9.66321C2.22334 9.66321 2.86648 9.01633 2.86648 8.22163V5.72903C2.86648 4.15998 4.1359 2.88316 5.69588 2.88316H8.21045C9.00055 2.88316 9.64369 2.23628 9.64369 1.44158C9.64369 0.646881 9.00123 0 8.21113 0Z" fill="#39D0FF"/>
<path d="M17.656 0H15.1852C14.3951 0 13.752 0.646881 13.752 1.44158C13.752 2.23628 14.3951 2.88316 15.1852 2.88316H17.656C19.2166 2.88316 20.4854 4.15998 20.4854 5.72903V8.22163C20.4854 9.01633 21.1285 9.66321 21.9186 9.66321C22.7087 9.66321 23.3518 9.01633 23.3518 8.22163V5.72903C23.3525 2.56989 20.7968 0 17.656 0Z" fill="#FFCD4D"/>
<path d="M21.9193 13.7959C21.1292 13.7959 20.486 14.4427 20.486 15.2374V17.7592C20.486 19.3282 19.2166 20.6051 17.6566 20.6051H15.1393C14.7611 20.6051 14.4045 20.7522 14.1349 21.0187L10.5437 24.5691V22.0466C10.5437 21.2519 9.90054 20.6051 9.11044 20.6051H5.69588C4.1359 20.6051 2.86648 19.3282 2.86648 17.7592V15.2374C2.86648 14.4427 2.22334 13.7959 1.43324 13.7959C0.643137 13.7959 0 14.4427 0 15.2374V17.7592C0 20.9183 2.55502 23.4882 5.69588 23.4882H7.67653V27.9805C7.67653 28.4971 7.93877 28.9786 8.36146 29.2369C8.58797 29.3753 8.84685 29.4492 9.10976 29.4492C9.48796 29.4492 9.84526 29.302 10.1149 29.0355L15.7259 23.4882H17.6566C20.7975 23.4882 23.3525 20.9183 23.3525 17.7592V15.2374C23.3525 14.4427 22.7094 13.7959 21.9193 13.7959Z" fill="#EB366E"/>
<path d="M7.70163 6.58789C6.49018 6.58789 5.50391 7.57924 5.50391 8.79841C5.50391 10.0169 6.48951 11.009 7.70163 11.009C8.91375 11.009 9.89935 10.0176 9.89935 8.79841C9.89935 7.57924 8.91307 6.58789 7.70163 6.58789Z" fill="#39D0FF"/>
<path d="M15.6469 6.58789C14.4355 6.58789 13.4492 7.57924 13.4492 8.79841C13.4492 10.0169 14.4348 11.009 15.6469 11.009C16.8591 11.009 17.8447 10.0176 17.8447 8.79841C17.8447 7.57924 16.8591 6.58789 15.6469 6.58789Z" fill="#FFCD4D"/>
<path d="M11.6743 13.4434C10.4628 13.4434 9.47656 14.4347 9.47656 15.6539C9.47656 16.8724 10.4622 17.8644 11.6743 17.8644C12.8864 17.8644 13.872 16.8731 13.872 15.6539C13.872 14.4347 12.8864 13.4434 11.6743 13.4434Z" fill="#EB366E"/>
</g>
<defs>
<clipPath id="clip0_238_1272">
<rect width="99" height="30" fill="white"/>
</clipPath>
</defs>
</svg>
