<svg width="99" height="49" viewBox="0 0 99 49" fill="none" xmlns="http://www.w3.org/2000/svg">
<path d="M8.115 10.3401C6.945 10.3401 5.98 10.7241 5.22 11.4941C4.461 12.2641 4.04 13.2811 3.955 14.5471H12.102C12.06 13.2601 11.68 12.2371 10.962 11.4781C10.246 10.7181 9.297 10.3391 8.115 10.3391V10.3401ZM12.133 20.1161H15.851C15.481 21.6971 14.611 22.9471 13.241 23.8651C11.881 24.7721 10.188 25.2251 8.163 25.2251C5.621 25.2251 3.623 24.4351 2.167 22.8521C0.722 21.2601 0 19.0721 0 16.2871C0 13.5031 0.728 11.2991 2.183 9.67505C3.638 8.04005 5.621 7.22305 8.131 7.22305C10.599 7.22305 12.529 7.99805 13.921 9.54805C15.324 11.0881 16.025 13.2231 16.025 15.9551V17.2211H3.939V17.4261C3.992 18.8711 4.403 20.0161 5.173 20.8591C5.953 21.6921 6.987 22.1091 8.273 22.1091C10.256 22.1091 11.543 21.4441 12.133 20.1151V20.1161ZM24.235 19.9891C24.985 20.9491 26.039 21.4291 27.399 21.4291C28.759 21.4291 29.83 20.9431 30.61 19.9731C31.39 19.0031 31.781 17.6901 31.781 16.0341C31.781 14.3781 31.391 13.0651 30.611 12.0951C29.831 11.1151 28.76 10.6241 27.399 10.6241C26.049 10.6241 24.995 11.1091 24.235 12.0791C23.487 13.0491 23.112 14.3681 23.112 16.0341C23.112 17.7001 23.487 19.0191 24.235 19.9891ZM27.4 31.4581C25.196 31.4581 23.403 31.0101 22.022 30.1131C20.651 29.2171 19.886 28.0201 19.728 26.5231H23.667C23.793 27.1231 24.189 27.5981 24.853 27.9461C25.528 28.2941 26.398 28.4681 27.463 28.4681C28.803 28.4681 29.847 28.1681 30.596 27.5661C31.344 26.9661 31.719 26.1221 31.719 25.0361V21.7601H31.449C30.9729 22.6682 30.2345 23.4121 29.33 23.8951C28.423 24.3801 27.368 24.6231 26.166 24.6231C23.994 24.6231 22.269 23.8481 20.993 22.2981C19.717 20.7371 19.079 18.6481 19.079 16.0331C19.079 13.3751 19.722 11.2561 21.009 9.67305C22.296 8.08105 24.036 7.28505 26.229 7.28505C27.411 7.28505 28.481 7.55905 29.441 8.10805C30.401 8.65605 31.118 9.39905 31.592 10.3381H31.862V7.57105H35.642V24.9411C35.642 26.9441 34.899 28.5311 33.412 29.7021C31.924 30.8721 29.921 31.4581 27.4 31.4581ZM40.466 24.8771V7.57105H44.246V10.3391H44.516C44.938 9.34805 45.581 8.58306 46.446 8.04505C47.321 7.49706 48.392 7.22305 49.657 7.22305C51.577 7.22305 53.047 7.78205 54.071 8.90005C55.104 10.0171 55.621 11.6101 55.621 13.6771V24.8771H51.698V14.6101C51.698 11.9631 50.532 10.6401 48.202 10.6401C47.031 10.6401 46.103 11.0141 45.417 11.7631C44.732 12.5121 44.389 13.5241 44.389 14.8001V24.8771H40.466ZM60.32 24.8771V7.57105H64.227V24.8771H60.319H60.32ZM70.365 24.8771V10.8141H67.533V7.68005H70.365V5.86205C70.365 4.13205 70.818 2.84105 71.725 1.98605C72.643 1.13205 74.055 0.706055 75.965 0.706055C76.755 0.706055 77.483 0.763055 78.148 0.879055V3.75905C77.7022 3.69987 77.2527 3.67313 76.803 3.67905C75.896 3.67905 75.237 3.87906 74.826 4.28006C74.425 4.67005 74.225 5.28205 74.225 6.11505V7.68106H77.99V10.8141H74.272V24.8771H70.365ZM83.685 31.1571C82.872 31.1571 82.355 31.1371 82.135 31.0941V27.8831C82.335 27.9251 82.693 27.9461 83.21 27.9461C84.043 27.9461 84.702 27.7721 85.187 27.4241C85.683 27.0761 86.057 26.5061 86.311 25.7151L86.516 24.9561L80.331 7.57105H84.634L88.684 21.0811H88.952L92.986 7.57105H97.131L90.882 25.4311C90.155 27.5711 89.258 29.0591 88.193 29.8911C87.138 30.7361 85.636 31.1571 83.685 31.1571Z" fill="#25282B"/>
<path d="M62.3779 5.206C63.8155 5.206 64.9809 4.0406 64.9809 2.603C64.9809 1.1654 63.8155 0 62.3779 0C60.9403 0 59.7749 1.1654 59.7749 2.603C59.7749 4.0406 60.9403 5.206 62.3779 5.206Z" fill="#FF3366"/>
<path d="M3.53008 44.4239H2.51008L4.01508 37.3379H1.45508L1.64308 36.4419H7.78308L7.59508 37.3379H5.03408L3.52908 44.4239H3.53008ZM7.33508 41.0049H10.4151C10.4197 40.9534 10.4217 40.9016 10.4211 40.8499C10.4211 40.4489 10.3091 40.1099 10.0841 39.8329C9.85908 39.5529 9.52008 39.4129 9.06608 39.4129C8.63508 39.4129 8.26808 39.5599 7.96608 39.8549C7.66608 40.1499 7.45608 40.5329 7.33508 41.0049ZM8.59508 44.5349C7.83608 44.5349 7.25208 44.3019 6.84208 43.8379C6.43308 43.3689 6.22808 42.7569 6.22808 42.0009C6.22808 41.3739 6.34808 40.8009 6.58808 40.2809C6.82808 39.7569 7.16508 39.3419 7.60008 39.0359C8.03079 38.7285 8.54794 38.5657 9.07708 38.5709C9.79308 38.5709 10.3591 38.7889 10.7751 39.2239C11.1921 39.6589 11.4001 40.2509 11.4001 40.9999C11.4001 41.3019 11.3841 41.5599 11.3501 41.7739H7.21408C7.21008 41.8179 7.20908 41.8839 7.20908 41.9739C7.20908 42.5009 7.33408 42.9189 7.58508 43.2289C7.83908 43.5349 8.18008 43.6889 8.60808 43.6889C8.98408 43.6889 9.30808 43.5959 9.58208 43.4119C9.85408 43.2269 10.0571 42.9749 10.1901 42.6539H11.1361C10.9855 43.1951 10.6581 43.6703 10.2061 44.0039C9.74375 44.3556 9.1769 44.5422 8.59608 44.5339L8.59508 44.5349ZM13.9391 43.7049C14.3521 43.7049 14.7171 43.5849 15.0351 43.3449C15.3551 43.1019 15.5581 42.7879 15.6431 42.4049L15.7871 41.7629L14.2161 41.8459C13.7841 41.8679 13.4491 41.9639 13.2091 42.1339C13.0967 42.21 13.0054 42.3132 12.9435 42.434C12.8816 42.5548 12.8512 42.6892 12.8551 42.8249C12.8551 43.0909 12.9551 43.3049 13.1541 43.4669C13.3531 43.6259 13.6141 43.7049 13.9391 43.7049ZM13.6851 44.5229C13.1801 44.5229 12.7521 44.3739 12.4021 44.0749C12.2349 43.9343 12.1014 43.758 12.0114 43.559C11.9214 43.36 11.8772 43.1433 11.8821 42.9249C11.8821 42.3679 12.0861 41.9329 12.4961 41.6189C12.9051 41.3019 13.4821 41.1229 14.2271 41.0829L15.9471 40.9939L16.0251 40.6339C16.0391 40.5719 16.0471 40.4779 16.0471 40.3529C16.0471 40.0609 15.9471 39.8329 15.7481 39.6669C15.5491 39.5009 15.2671 39.4169 14.9021 39.4169C14.5221 39.4169 14.2161 39.5029 13.9841 39.6719C13.7511 39.8379 13.6061 40.0629 13.5471 40.3469H12.5401C12.6281 39.8199 12.8921 39.3919 13.3301 39.0639C13.7701 38.7359 14.3201 38.5719 14.9801 38.5719C15.5911 38.5719 16.0841 38.7249 16.4561 39.0309C16.8291 39.3329 17.0151 39.7279 17.0151 40.2139C17.0151 40.3839 17.0021 40.5459 16.9761 40.7009L16.1861 44.4239H15.2611L15.4111 43.7209H15.3941C15.1951 43.9719 14.9461 44.1689 14.6471 44.3129C14.3521 44.4529 14.0311 44.5229 13.6851 44.5229ZM20.6821 38.5709C21.0511 38.5709 21.3821 38.6269 21.6781 38.7369C21.9359 38.8259 22.1716 38.9693 22.3691 39.1574C22.5667 39.3454 22.7215 39.5738 22.8231 39.8269C22.9231 40.0629 22.9731 40.3119 22.9731 40.5739V40.6129H22.0371C22.0331 40.4522 21.9968 40.2939 21.9303 40.1475C21.8638 40.0011 21.7685 39.8696 21.6501 39.7609C21.4071 39.5319 21.0801 39.4179 20.6711 39.4179C20.0991 39.4179 19.6311 39.6579 19.2661 40.1369C18.9011 40.6129 18.7191 41.2249 18.7191 41.9729C18.7191 42.5009 18.8441 42.9169 19.0951 43.2229C19.3491 43.5259 19.6881 43.6769 20.1131 43.6769C20.4811 43.6769 20.8001 43.5809 21.0691 43.3889C21.3421 43.1939 21.5411 42.9299 21.6671 42.5989H22.6131C22.475 43.1487 22.1528 43.6347 21.7001 43.9759C21.2455 44.3361 20.681 44.5292 20.1011 44.5229C19.3451 44.5229 18.7611 44.2929 18.3481 43.8319C17.9381 43.3709 17.7341 42.7619 17.7341 42.0069C17.7341 41.3689 17.8571 40.7869 18.1041 40.2639C18.3551 39.7399 18.7061 39.3269 19.1561 39.0249C19.6074 38.7235 20.1394 38.5655 20.6821 38.5719V38.5709ZM23.1221 44.4239L24.8201 36.4419H25.7881L25.1241 39.5669H25.1461C25.3288 39.2704 25.5838 39.0251 25.8871 38.8539C26.2278 38.6616 26.6139 38.5642 27.0051 38.5719C27.5511 38.5719 27.9931 38.7419 28.3321 39.0799C28.6751 39.4199 28.8471 39.8249 28.8471 40.2969C28.8471 40.4969 28.8211 40.7199 28.7691 40.9669L28.0111 44.4239H27.0431L27.7681 41.1329C27.8161 40.9039 27.8401 40.7159 27.8401 40.5679C27.8401 40.2249 27.7271 39.9479 27.5031 39.7379C27.2811 39.5279 26.9791 39.4229 26.5951 39.4229C26.1739 39.4161 25.766 39.5706 25.4551 39.8549C25.1351 40.1389 24.9251 40.5109 24.8251 40.9719L24.0901 44.4239H23.1221ZM29.2841 44.4239L30.5061 38.6709H31.4801L30.2571 44.4239H29.2841ZM31.7511 37.5259C31.696 37.583 31.6297 37.6281 31.5564 37.6586C31.4832 37.689 31.4044 37.7041 31.3251 37.7029C31.2457 37.7041 31.167 37.689 31.0937 37.6586C31.0204 37.6281 30.9542 37.583 30.8991 37.5259C30.842 37.4708 30.7968 37.4045 30.7664 37.3312C30.736 37.258 30.7209 37.1792 30.7221 37.0999C30.7209 37.0206 30.736 36.9418 30.7664 36.8685C30.7968 36.7953 30.842 36.729 30.8991 36.6739C30.9542 36.6168 31.0204 36.5717 31.0937 36.5412C31.167 36.5108 31.2457 36.4957 31.3251 36.4969C31.4044 36.4957 31.4832 36.5108 31.5564 36.5412C31.6297 36.5717 31.696 36.6168 31.7511 36.6739C31.8082 36.729 31.8533 36.7953 31.8838 36.8685C31.9142 36.9418 31.9293 37.0206 31.9281 37.0999C31.9293 37.1792 31.9142 37.258 31.8838 37.3312C31.8533 37.4045 31.8082 37.4708 31.7511 37.5259ZM31.5411 44.4239L32.7631 38.6709H33.6811L33.4931 39.5669H33.5151C33.7111 39.2539 33.9671 39.0099 34.2851 38.8369C34.6011 38.6599 34.9651 38.5709 35.3741 38.5709C35.8901 38.5709 36.3241 38.7309 36.6741 39.0529C37.0241 39.3729 37.1991 39.7769 37.1991 40.2639C37.1991 40.4819 37.1731 40.7159 37.1221 40.9669L36.3861 44.4239H35.4181L36.1211 41.1329C36.1681 40.9079 36.1931 40.7079 36.1931 40.5349C36.1931 40.1919 36.0821 39.9209 35.8611 39.7219C35.6391 39.5219 35.3431 39.4229 34.9701 39.4229C34.5634 39.418 34.17 39.5682 33.8701 39.8429C33.5561 40.1239 33.3471 40.4999 33.2441 40.9729L32.5081 44.4229H31.5401L31.5411 44.4239ZM39.8601 46.5919C39.1961 46.5919 38.6411 46.4319 38.1951 46.1109C37.7491 45.7939 37.5251 45.3899 37.5251 44.8999H38.5151C38.5561 45.1649 38.6961 45.3769 38.9361 45.5359C39.1791 45.6939 39.4871 45.7729 39.8601 45.7729C40.8601 45.7729 41.4921 45.2299 41.7571 44.1419L41.9341 43.4119H41.9121C41.7256 43.7196 41.4601 43.9717 41.1431 44.1419C40.8272 44.3256 40.4685 44.4229 40.1031 44.4239C39.4501 44.4239 38.9271 44.2029 38.5331 43.7599C38.1381 43.3139 37.9401 42.7179 37.9401 41.9729C37.9401 41.5459 38.0031 41.1309 38.1291 40.7289C38.2581 40.3269 38.4401 39.9649 38.6761 39.6449C38.9121 39.3199 39.2161 39.0599 39.5891 38.8649C39.9697 38.6672 40.3932 38.5662 40.8221 38.5709C41.2761 38.5709 41.6691 38.6969 42.0001 38.9479C42.3361 39.1979 42.5561 39.5159 42.6591 39.8989H42.6861L42.9301 38.6709H43.8761L42.7261 44.1249C42.5561 44.9329 42.2181 45.5449 41.7131 45.9619C41.2111 46.3819 40.5931 46.5919 39.8601 46.5919ZM40.3191 43.5779C40.7211 43.5779 41.0751 43.4609 41.3811 43.2289C41.6911 42.9929 41.9231 42.6849 42.0781 42.3049C42.2361 41.9219 42.3161 41.4989 42.3161 41.0389C42.3161 40.5699 42.1741 40.1849 41.8901 39.8819C41.6101 39.5759 41.2601 39.4229 40.8391 39.4229C40.2591 39.4229 39.7921 39.6629 39.4341 40.1429C39.0801 40.6219 38.9031 41.2249 38.9031 41.9509C38.9031 42.4449 39.0251 42.8399 39.2681 43.1349C39.5151 43.4299 39.8651 43.5779 40.3181 43.5779H40.3191Z" fill="#FF3366"/>
<path d="M46.6199 44.4239L47.8419 38.6709H48.7599L48.5659 39.5949H48.5889C48.7359 39.3069 48.9609 39.0649 49.2629 38.8699C49.5659 38.6709 49.8929 38.5719 50.2479 38.5719C50.6379 38.5719 50.9709 38.6749 51.2439 38.8819C51.5199 39.0839 51.6939 39.3239 51.7639 39.5999H51.7799C51.9884 39.3033 52.256 39.0531 52.5659 38.8649C52.8859 38.6689 53.2609 38.5709 53.6879 38.5709C54.1569 38.5709 54.5439 38.7189 54.8499 39.0139C55.1599 39.3049 55.3149 39.6799 55.3149 40.1369C55.3149 40.3509 55.2909 40.5699 55.2429 40.7949L54.4739 44.4239H53.5059L54.2419 40.9609C54.2859 40.7579 54.3079 40.5739 54.3079 40.4079C54.3079 40.1279 54.2179 39.8939 54.0369 39.7049C53.8569 39.5169 53.6129 39.4229 53.3069 39.4229C52.9639 39.4229 52.6489 39.5509 52.3609 39.8049C52.0729 40.0549 51.8849 40.3909 51.7969 40.8119L51.0269 44.4239H50.0599L50.7959 40.9609C50.8429 40.7399 50.8679 40.5559 50.8679 40.4079C50.8679 40.1279 50.7779 39.8939 50.5959 39.7049C50.4159 39.5169 50.1709 39.4229 49.8609 39.4229C49.5249 39.4229 49.2099 39.5539 48.9149 39.8159C48.6239 40.0779 48.4369 40.4059 48.3559 40.8009L47.5869 44.4239H46.6189H46.6199ZM57.8599 43.7039C58.2719 43.7039 58.6369 43.5839 58.9549 43.3449C59.2749 43.1019 59.4779 42.7879 59.5629 42.4049L59.7069 41.7629L58.1359 41.8459C57.7039 41.8679 57.3689 41.9639 57.1289 42.1339C57.0166 42.21 56.9252 42.3132 56.8633 42.434C56.8015 42.5548 56.771 42.6892 56.7749 42.8249C56.7749 43.0909 56.8749 43.3049 57.0739 43.4669C57.2729 43.6259 57.5339 43.7049 57.8589 43.7049L57.8599 43.7039ZM57.6049 44.5239C57.0999 44.5239 56.6719 44.3739 56.3219 44.0749C56.1547 43.9343 56.0212 43.758 55.9312 43.559C55.8412 43.36 55.797 43.1433 55.8019 42.9249C55.8019 42.3679 56.0059 41.9329 56.4159 41.6189C56.8249 41.3019 57.4019 41.1229 58.1459 41.0829L59.8669 40.9939L59.9449 40.6339C59.9589 40.5719 59.9669 40.4779 59.9669 40.3529C59.9669 40.0609 59.8669 39.8329 59.6679 39.6669C59.4679 39.5009 59.1869 39.4169 58.8219 39.4169C58.4419 39.4169 58.1359 39.5029 57.9029 39.6719C57.6709 39.8379 57.5259 40.0629 57.4669 40.3469H56.4599C56.5479 39.8199 56.8119 39.3919 57.2499 39.0639C57.6899 38.7359 58.2399 38.5719 58.8999 38.5719C59.5109 38.5719 60.0039 38.7249 60.3759 39.0309C60.7489 39.3329 60.9349 39.7279 60.9349 40.2139C60.9349 40.3839 60.9219 40.5459 60.8959 40.7009L60.1049 44.4239H59.1809L59.3309 43.7209H59.3139C59.1139 43.9719 58.8659 44.1689 58.5669 44.3129C58.2719 44.4529 57.9519 44.5229 57.6049 44.5229V44.5239ZM63.7999 44.5239C63.1439 44.5239 62.6219 44.2979 62.2349 43.8489C61.8509 43.3949 61.6589 42.7939 61.6589 42.0449C61.6589 41.3929 61.7849 40.8009 62.0359 40.2699C62.2899 39.7389 62.6359 39.3239 63.0759 39.0249C63.506 38.7267 64.0176 38.5685 64.5409 38.5719C64.9909 38.5719 65.3879 38.6949 65.7309 38.9419C66.0769 39.1889 66.2969 39.4929 66.3889 39.8549H66.4169L67.1519 36.4419H68.1149L66.4169 44.4239H65.4479L65.6419 43.5059H65.6199C65.4313 43.8119 65.1663 44.0635 64.8509 44.2359C64.5328 44.4235 64.1702 44.5226 63.8009 44.5229L63.7999 44.5239ZM64.0209 43.6769C64.6009 43.6769 65.0799 43.4269 65.4599 42.9249C65.8429 42.4229 66.0349 41.7949 66.0349 41.0389C66.0349 40.5589 65.8999 40.1699 65.6309 39.8709C65.3609 39.5729 65.0019 39.4229 64.5519 39.4229C63.9989 39.4229 63.5379 39.6649 63.1689 40.1479C62.8039 40.6309 62.6219 41.2479 62.6219 42.0009C62.6219 42.5209 62.7449 42.9309 62.9919 43.2289C63.2399 43.5279 63.5819 43.6769 64.0219 43.6769H64.0209ZM69.1319 41.0049H72.2129C72.2169 40.9719 72.2189 40.9209 72.2189 40.8499C72.2189 40.4489 72.1069 40.1099 71.8819 39.8329C71.6569 39.5529 71.3169 39.4129 70.8639 39.4129C70.4319 39.4129 70.0649 39.5599 69.7629 39.8549C69.4639 40.1499 69.2539 40.5329 69.1329 41.0049H69.1319ZM70.3939 44.5349C69.6339 44.5349 69.0489 44.3019 68.6399 43.8379C68.2299 43.3689 68.0259 42.7569 68.0259 42.0009C68.0259 41.3739 68.1459 40.8009 68.3859 40.2809C68.6259 39.7569 68.9629 39.3419 69.3979 39.0359C69.8286 38.7285 70.3458 38.5657 70.8749 38.5709C71.5899 38.5709 72.1559 38.7889 72.5729 39.2239C72.9899 39.6589 73.1979 40.2509 73.1979 40.9999C73.1979 41.3019 73.1819 41.5599 73.1479 41.7739H69.0109C69.0069 41.8179 69.0049 41.8839 69.0049 41.9739C69.0049 42.5009 69.1309 42.9189 69.3809 43.2289C69.6359 43.5349 69.9769 43.6889 70.4049 43.6889C70.7809 43.6889 71.1049 43.5959 71.3779 43.4119C71.6509 43.2269 71.8539 42.9749 71.9869 42.6539H72.9329C72.7809 43.1959 72.4719 43.6459 72.0029 44.0039C71.5406 44.3556 70.9737 44.5422 70.3929 44.5339L70.3939 44.5349ZM77.7279 41.0049H80.8089C80.8135 40.9534 80.8155 40.9016 80.8149 40.8499C80.8149 40.4489 80.7019 40.1099 80.4779 39.8329C80.2529 39.5529 79.9129 39.4129 79.4599 39.4129C79.0279 39.4129 78.6609 39.5599 78.3589 39.8549C78.0599 40.1499 77.8499 40.5329 77.7289 41.0049H77.7279ZM78.9899 44.5349C78.2299 44.5349 77.6449 44.3019 77.2359 43.8379C76.8259 43.3689 76.6219 42.7569 76.6219 42.0009C76.6219 41.3739 76.7419 40.8009 76.9819 40.2809C77.2219 39.7569 77.5589 39.3419 77.9939 39.0359C78.4246 38.7285 78.9418 38.5657 79.4709 38.5709C80.1859 38.5709 80.7519 38.7889 81.1689 39.2239C81.5859 39.6589 81.7939 40.2509 81.7939 40.9999C81.7939 41.3019 81.7769 41.5599 81.7439 41.7739H77.6069C77.6029 41.8179 77.6009 41.8839 77.6009 41.9739C77.6009 42.5009 77.7269 42.9189 77.9769 43.2289C78.2319 43.5349 78.5729 43.6889 79.0009 43.6889C79.3769 43.6889 79.7009 43.5959 79.9739 43.4119C80.2469 43.2269 80.4499 42.9749 80.5829 42.6539H81.5279C81.3776 43.195 81.0505 43.6702 80.5989 44.0039C80.1366 44.3556 79.5697 44.5422 78.9889 44.5339L78.9899 44.5349ZM84.3329 43.7049C84.7459 43.7049 85.1109 43.5849 85.4279 43.3449C85.7489 43.1019 85.9519 42.7879 86.0369 42.4049L86.1799 41.7629L84.6099 41.8459C84.1779 41.8679 83.8429 41.9639 83.6029 42.1339C83.4905 42.21 83.3992 42.3132 83.3373 42.434C83.2755 42.5548 83.245 42.6892 83.2489 42.8249C83.2489 43.0909 83.3489 43.3049 83.5469 43.4669C83.7469 43.6259 84.0079 43.7049 84.3329 43.7049ZM84.0789 44.5229C83.5729 44.5229 83.1459 44.3739 82.7949 44.0749C82.6277 43.9343 82.4942 43.758 82.4042 43.559C82.3142 43.36 82.27 43.1433 82.2749 42.9249C82.2749 42.3679 82.4799 41.9329 82.8889 41.6189C83.2989 41.3019 83.8759 41.1229 84.6209 41.0829L86.3409 40.9939L86.4179 40.6339C86.4329 40.5719 86.4399 40.4779 86.4399 40.3529C86.4399 40.0609 86.3399 39.8329 86.1419 39.6669C85.9419 39.5009 85.6609 39.4169 85.2949 39.4169C84.9149 39.4169 84.6089 39.5029 84.3769 39.6719C84.1449 39.8379 83.9989 40.0629 83.9399 40.3469H82.9329C83.0219 39.8199 83.2859 39.3919 83.7239 39.0639C84.1639 38.7359 84.7129 38.5719 85.3729 38.5719C85.9849 38.5719 86.4769 38.7249 86.8499 39.0309C87.2219 39.3329 87.4079 39.7279 87.4079 40.2139C87.4079 40.3839 87.3949 40.5459 87.3699 40.7009L86.5789 44.4239H85.6549L85.8049 43.7209H85.7879C85.5879 43.9719 85.3399 44.1689 85.0409 44.3129C84.7459 44.4529 84.4249 44.5229 84.0789 44.5229ZM88.5259 40.2859C88.5259 39.7879 88.7229 39.3789 89.1179 39.0579C89.5159 38.7379 90.0299 38.5779 90.6609 38.5779C91.2809 38.5779 91.7859 38.7409 92.1769 39.0689C92.5709 39.3939 92.7719 39.8139 92.7789 40.3299H91.8609C91.8504 40.194 91.8115 40.0619 91.7467 39.942C91.682 39.8221 91.5928 39.7171 91.4849 39.6339C91.2599 39.4529 90.9819 39.3619 90.6499 39.3619C90.2919 39.3619 90.0059 39.4419 89.7919 39.5999C89.5789 39.7549 89.4719 39.9539 89.4719 40.1979C89.4719 40.4009 89.5419 40.5649 89.6819 40.6899C89.8259 40.8159 90.0779 40.9339 90.4399 41.0439L90.9379 41.1989C91.4499 41.3579 91.8209 41.5569 92.0489 41.7959C92.2779 42.0359 92.3919 42.3459 92.3919 42.7259C92.3919 43.2419 92.1799 43.6719 91.7559 44.0139C91.3359 44.3539 90.8049 44.5239 90.1629 44.5239C89.4919 44.5239 88.9439 44.3559 88.5199 44.0199C88.0999 43.6839 87.8799 43.2579 87.8619 42.7419H88.8249C88.8689 43.0409 89.0129 43.2809 89.2549 43.4619C89.4989 43.6419 89.8169 43.7319 90.2069 43.7319C90.5539 43.7319 90.8439 43.6399 91.0759 43.4559C91.3079 43.2709 91.4239 43.0459 91.4239 42.7809C91.428 42.6994 91.4131 42.6181 91.3805 42.5433C91.3479 42.4685 91.2984 42.4023 91.2359 42.3499C91.1109 42.2459 90.8659 42.1379 90.4999 42.0229L90.0029 41.8679C89.4789 41.7059 89.1009 41.5009 88.8689 41.2539C88.6399 41.0039 88.5259 40.6809 88.5259 40.2859ZM93.0279 46.5199C92.7809 46.5199 92.5639 46.4889 92.3759 46.4259L92.5189 45.6239C92.6629 45.6839 92.8369 45.7129 93.0389 45.7129C93.4889 45.7129 93.8729 45.3969 94.1899 44.7669L94.3779 44.3909L93.4379 38.6709H94.3889L95.0809 43.3609H95.0969L97.5969 38.6709H98.6589L95.0639 45.0539C94.7469 45.6139 94.4339 45.9979 94.1239 46.2049C93.8139 46.4149 93.4489 46.5199 93.0279 46.5199Z" fill="#25282B"/>
</svg>
