<svg width="126" height="134" viewBox="0 0 126 134" fill="none" xmlns="http://www.w3.org/2000/svg">
<path d="M40.4872 118.042C28.4804 113.264 17.9745 104.602 11.0106 92.5963C4.43717 81.3171 1.79868 68.191 3.50642 55.2638M26.0791 15.5421C36.6093 7.31867 49.6135 2.85845 62.9998 2.87898C76.6275 2.87898 89.1745 7.47833 99.2602 15.124M85.5125 118.042C97.5192 113.264 108.025 104.602 114.989 92.5963C121.562 81.3171 124.201 68.191 122.493 55.2638" stroke="#F9FAFE" stroke-width="5" stroke-linecap="round" stroke-linejoin="round"/>
<path d="M78.2903 75.2051C82.4919 75.9004 87.1229 75.1749 90.3738 73.0286C94.6981 70.187 94.6981 65.5316 90.3738 62.6901C87.0923 60.5438 82.3999 59.8183 78.1983 60.5438M47.7135 75.2051C43.5118 75.9004 38.8808 75.1749 35.6299 73.0286C31.3056 70.187 31.3056 65.5316 35.6299 62.6901C38.9115 60.5438 43.6038 59.8183 47.8055 60.5438M81.4492 53.198C81.2562 53.1678 81.0595 53.1678 80.8665 53.198C78.8198 53.1251 76.882 52.2706 75.4627 50.8152C74.0434 49.3598 73.2537 47.4175 73.2606 45.3988C73.2606 41.076 76.7875 37.5996 81.1732 37.5996C83.2717 37.5996 85.2843 38.4213 86.7682 39.8839C88.2521 41.3466 89.0857 43.3303 89.0857 45.3988C89.0801 47.419 88.2822 49.3587 86.8589 50.8123C85.4356 52.2659 83.4972 53.1208 81.4492 53.198V53.198ZM44.5546 53.198C44.7386 53.1678 44.9533 53.1678 45.1373 53.198C47.184 53.1251 49.1218 52.2706 50.5411 50.8152C51.9604 49.3598 52.7501 47.4175 52.7432 45.3988C52.7432 41.076 49.2162 37.5996 44.8306 37.5996C42.7321 37.5996 40.7195 38.4213 39.2356 39.8839C37.7517 41.3466 36.918 43.3303 36.918 45.3988C36.9487 49.6309 40.3223 53.0469 44.5546 53.198ZM63.0479 75.7794C62.8549 75.7492 62.6582 75.7492 62.4652 75.7794C60.4185 75.7065 58.4807 74.852 57.0614 73.3966C55.642 71.9413 54.8524 69.999 54.8593 67.9802C54.8593 63.6574 58.3862 60.181 62.7719 60.181C64.8704 60.181 66.883 61.0027 68.3669 62.4654C69.8508 63.928 70.6844 65.9118 70.6844 67.9802C70.6538 72.2124 67.2802 75.6585 63.0479 75.7794ZM54.1233 85.3017C49.799 88.1433 49.799 92.7986 54.1233 95.6402C59.0303 98.8748 67.0655 98.8748 71.9725 95.6402C76.2968 92.7986 76.2968 88.1433 71.9725 85.3017C67.0962 82.0974 59.0303 82.0974 54.1233 85.3017Z" stroke="#F9FAFE" stroke-width="3.5" stroke-linecap="round" stroke-linejoin="round"/>
<path d="M13.2915 42.4834C16.021 42.4834 18.6386 41.4046 20.5687 39.4843C22.4987 37.5639 23.583 34.9594 23.583 32.2437C23.583 29.5279 22.4987 26.9234 20.5687 25.0031C18.6386 23.0827 16.021 22.0039 13.2915 22.0039C10.562 22.0039 7.94434 23.0827 6.01431 25.0031C4.08428 26.9234 3 29.5279 3 32.2437C3 34.9594 4.08428 37.5639 6.01431 39.4843C7.94434 41.4046 10.562 42.4834 13.2915 42.4834Z" stroke="#F9FAFE" stroke-width="3.5" stroke-miterlimit="10" stroke-linecap="round" stroke-linejoin="round"/>
<path d="M112.709 42.4834C115.439 42.4834 118.057 41.4046 119.987 39.4843C121.917 37.5639 123.001 34.9594 123.001 32.2437C123.001 29.5279 121.917 26.9234 119.987 25.0031C118.057 23.0827 115.439 22.0039 112.709 22.0039C109.98 22.0039 107.362 23.0827 105.432 25.0031C103.502 26.9234 102.418 29.5279 102.418 32.2437C102.418 34.9594 103.502 37.5639 105.432 39.4843C107.362 41.4046 109.98 42.4834 112.709 42.4834Z" stroke="#F9FAFE" stroke-width="3.5" stroke-miterlimit="10" stroke-linecap="round" stroke-linejoin="round"/>
<path d="M63.0024 132.139C65.7319 132.139 68.3496 131.06 70.2796 129.14C72.2096 127.219 73.2939 124.615 73.2939 121.899C73.2939 119.183 72.2096 116.579 70.2796 114.658C68.3496 112.738 65.7319 111.659 63.0024 111.659C60.273 111.659 57.6553 112.738 55.7252 114.658C53.7952 116.579 52.7109 119.183 52.7109 121.899C52.7109 124.615 53.7952 127.219 55.7252 129.14C57.6553 131.06 60.273 132.139 63.0024 132.139Z" stroke="#F9FAFE" stroke-width="3.5" stroke-miterlimit="10" stroke-linecap="round" stroke-linejoin="round"/>
</svg>
