<svg width="126" height="126" viewBox="0 0 126 126" fill="none" xmlns="http://www.w3.org/2000/svg">
<path d="M111 64.0789V74.2787C111 93.1784 100.2 101.278 84.0004 101.278H30.0014C13.8017 101.278 3.00195 93.1784 3.00195 74.2787V41.8794C3.00195 22.9797 13.8017 14.8799 30.0014 14.8799H46.2011C45.4211 17.1598 45.0011 19.6798 45.0011 22.3797V45.7793C45.0011 51.5992 46.9211 56.5191 50.341 59.939C53.761 63.3589 58.6809 65.2789 64.5008 65.2789V73.6187C64.5008 76.6787 67.9807 78.5386 70.5606 76.8587L87.9003 65.2789H103.5C106.2 65.2789 108.72 64.8589 111 64.0789V64.0789Z" stroke="#F9FAFE" stroke-width="5" stroke-miterlimit="10" stroke-linecap="round" stroke-linejoin="round"/>
<path d="M35.4043 122.877H78.6035M57.0039 101.277V122.877M123.003 22.3785V45.7781C123.003 54.7179 118.443 61.4378 111.003 64.0777C108.723 64.8577 106.203 65.2777 103.503 65.2777H87.9033L70.5636 76.8575C67.9837 78.5374 64.5037 76.6775 64.5037 73.6175V65.2777C58.6838 65.2777 53.7639 63.3577 50.344 59.9378C46.9241 56.5179 45.0041 51.598 45.0041 45.7781V22.3785C45.0041 19.6786 45.4241 17.1586 46.2041 14.8787C48.844 7.43882 55.5639 2.87891 64.5037 2.87891H103.503C115.203 2.87891 123.003 10.6788 123.003 22.3785Z" stroke="#F9FAFE" stroke-width="5" stroke-miterlimit="10" stroke-linecap="round" stroke-linejoin="round"/>
<path d="M101.968 34.3779H102.028M85.1748 34.3779H85.2288M68.3691 34.3779H68.4291" stroke="#F9FAFE" stroke-width="10" stroke-linecap="round" stroke-linejoin="round"/>
</svg>
