<svg width="126" height="126" viewBox="0 0 126 126" fill="none" xmlns="http://www.w3.org/2000/svg">
<path d="M81.8359 29.9354C89.951 29.9354 96.4765 36.5028 96.4765 44.576C96.4765 52.4818 90.202 58.9237 82.3797 59.2165C82.0184 59.1746 81.6535 59.1746 81.2922 59.2165M89.9091 96.8635C92.9209 96.2361 95.7654 95.023 98.1078 93.2243C104.633 88.3302 104.633 80.257 98.1078 75.3629C95.8072 73.606 93.0046 72.4348 90.0346 71.7655M51.5091 58.6727C51.0908 58.6309 50.5889 58.6309 50.1288 58.6727C45.3275 58.5097 40.7782 56.4843 37.4443 53.0255C34.1104 49.5666 32.2537 44.946 32.2673 40.142C32.2673 29.8936 40.5497 21.5694 50.8399 21.5694C55.7601 21.4807 60.514 23.3501 64.0559 26.7664C67.5977 30.1828 69.6374 34.8662 69.7261 39.7864C69.8149 44.7066 67.9455 49.4606 64.5291 53.0024C61.1128 56.5443 56.4293 58.5839 51.5091 58.6727ZM30.5941 74.108C20.4712 80.8845 20.4712 91.9276 30.5941 98.6622C42.0974 106.359 60.9627 106.359 72.466 98.6622C82.5889 91.8858 82.5889 80.8426 72.466 74.108C61.0046 66.4531 42.1392 66.4531 30.5941 74.108Z" stroke="#F9FAFE" stroke-width="5" stroke-linecap="round" stroke-linejoin="round"/>
<path d="M45.002 3H81.002C111.002 3 123.002 15 123.002 45V81C123.002 111 111.002 123 81.002 123H45.002C15.002 123 3.00195 111 3.00195 81V45C3.00195 15 15.002 3 45.002 3Z" stroke="#F9FAFE" stroke-width="5" stroke-linecap="round" stroke-linejoin="round"/>
</svg>
