<svg width="21" height="21" viewBox="0 0 21 21" fill="none" xmlns="http://www.w3.org/2000/svg">
<path d="M5.02401 20.2745H0.822988V6.73825H5.02401V20.2745ZM2.92124 4.89178C1.57789 4.89178 0.488281 3.77847 0.488281 2.43435C0.488281 1.78872 0.74461 1.16953 1.20088 0.713005C1.65715 0.256475 2.27598 0 2.92124 0C3.5665 0 4.18533 0.256475 4.6416 0.713005C5.09787 1.16953 5.35419 1.78872 5.35419 2.43435C5.35419 3.77847 4.26414 4.89178 2.92124 4.89178ZM20.7471 20.2745H16.5551V13.6851C16.5551 12.1147 16.5235 10.1008 14.3709 10.1008C12.1867 10.1008 11.852 11.807 11.852 13.572V20.2745H7.65553V6.73825H11.6847V8.58471H11.7435C12.3043 7.52119 13.6744 6.39882 15.7183 6.39882C19.97 6.39882 20.7516 9.2002 20.7516 12.8388V20.2745H20.7471Z" fill="black"/>
</svg>
