<svg width="299" height="32" viewBox="0 0 299 32" fill="none" xmlns="http://www.w3.org/2000/svg">
<g opacity="0.5">
<path d="M297.246 17.6348C297.021 17.635 296.798 17.5901 296.591 17.5026C296.384 17.4152 296.197 17.2871 296.04 17.126L282.169 2.82933C282.013 2.6744 281.89 2.49042 281.805 2.2879C281.721 2.08539 281.678 1.86826 281.678 1.64903C281.678 1.4298 281.721 1.21273 281.805 1.01021C281.89 0.807696 282.013 0.623719 282.169 0.468786C282.327 0.316386 282.514 0.196576 282.719 0.116182C282.923 0.035789 283.142 -0.00361326 283.362 0.000260234C283.582 0.00413373 283.799 0.051186 284.001 0.138736C284.203 0.226285 284.385 0.352608 284.538 0.510481L298.409 14.8072C298.565 14.9621 298.689 15.1461 298.773 15.3486C298.857 15.5511 298.9 15.7682 298.9 15.9874C298.9 16.2066 298.857 16.4238 298.773 16.6263C298.689 16.8288 298.565 17.0128 298.409 17.1677C298.097 17.4678 297.68 17.6352 297.246 17.6348Z" fill="white"/>
<path d="M295.812 17.9473H2.18796C1.60768 17.9473 1.05119 17.7365 0.640871 17.3615C0.230548 16.9864 0 16.4777 0 15.9473C0 15.4168 0.230548 14.9082 0.640871 14.5331C1.05119 14.158 1.60768 13.9473 2.18796 13.9473H295.812C296.392 13.9473 296.949 14.158 297.359 14.5331C297.769 14.9082 298 15.4168 298 15.9473C298 16.4777 297.769 16.9864 297.359 17.3615C296.949 17.7365 296.392 17.9473 295.812 17.9473Z" fill="white"/>
<path d="M283.399 31.6999C282.961 31.7002 282.541 31.5296 282.228 31.2244C282.072 31.0695 281.948 30.8855 281.864 30.683C281.78 30.4805 281.736 30.2634 281.736 30.0442C281.736 29.8249 281.78 29.6079 281.864 29.4053C281.948 29.2028 282.072 29.0188 282.228 28.8639L296.074 14.8008C296.229 14.6457 296.414 14.5226 296.617 14.4387C296.821 14.3547 297.038 14.3115 297.258 14.3115C297.478 14.3115 297.696 14.3547 297.9 14.4387C298.103 14.5226 298.288 14.6457 298.443 14.8008C298.755 15.1133 298.93 15.5362 298.93 15.9769C298.93 16.4176 298.755 16.8404 298.443 17.153L284.597 31.2161C284.439 31.3717 284.252 31.4946 284.047 31.5776C283.841 31.6607 283.621 31.7022 283.399 31.6999Z" fill="white"/>
</g>
</svg>
