<svg width="125" height="126" viewBox="0 0 125 126" fill="none" xmlns="http://www.w3.org/2000/svg">
<path d="M47.5 73.5C47.5 79.32 52 84 57.52 84H68.8C73.6 84 77.5 79.92 77.5 74.82C77.5 69.36 75.1 67.38 71.56 66.12L53.5 59.82C49.96 58.56 47.56 56.64 47.56 51.12C47.56 46.08 51.46 41.94 56.26 41.94H67.54C73.06 41.94 77.56 46.62 77.56 52.44M62.5 36V90" stroke="#F9FAFE" stroke-width="5" stroke-linecap="round" stroke-linejoin="round"/>
<path d="M122.5 63C122.5 96.12 95.62 123 62.5 123C29.38 123 2.5 96.12 2.5 63C2.5 29.88 29.38 3 62.5 3" stroke="#F9FAFE" stroke-width="5" stroke-linecap="round" stroke-linejoin="round"/>
<path d="M92.5 9V33H116.5M122.5 3L92.5 33" stroke="#F9FAFE" stroke-width="5" stroke-linecap="round" stroke-linejoin="round"/>
</svg>
