<svg width="38" height="39" viewBox="0 0 38 39" fill="none" xmlns="http://www.w3.org/2000/svg">
<rect y="0.994141" width="38" height="38" rx="8" fill="white" fill-opacity="0.3"/>
<path d="M21.7811 19.1034C21.7811 19.7071 21.3357 20.2019 20.7717 20.2019C20.2175 20.2019 19.7623 19.7071 19.7623 19.1034C19.7623 18.4998 20.2076 18.005 20.7717 18.005C21.3357 18.005 21.7811 18.4998 21.7811 19.1034ZM17.1597 18.005C16.5956 18.005 16.1503 18.4998 16.1503 19.1034C16.1503 19.7071 16.6055 20.2019 17.1597 20.2019C17.7238 20.2019 18.1691 19.7071 18.1691 19.1034C18.179 18.4998 17.7238 18.005 17.1597 18.005ZM27.6097 11.7409V29.4941C25.1166 27.2909 25.914 28.0202 23.018 25.3279L23.5425 27.1586H12.3206C11.2024 27.1586 10.292 26.2482 10.292 25.1201V11.7409C10.292 10.6128 11.2024 9.70239 12.3206 9.70239H25.5811C26.6993 9.70239 27.6097 10.6128 27.6097 11.7409ZM24.7894 21.1222C24.7894 17.9357 23.3644 15.3529 23.3644 15.3529C21.9394 14.2842 20.5837 14.3139 20.5837 14.3139L20.4451 14.4722C22.1274 14.9868 22.9092 15.729 22.9092 15.729C20.5585 14.4406 17.7972 14.4404 15.517 15.442C15.1508 15.6102 14.9331 15.729 14.9331 15.729C14.9331 15.729 15.7545 14.9472 17.5357 14.4326L17.4368 14.3139C17.4368 14.3139 16.0811 14.2842 14.6561 15.3529C14.6561 15.3529 13.2311 17.9357 13.2311 21.1222C13.2311 21.1222 14.0623 22.5571 16.2493 22.6264C16.2493 22.6264 16.6154 22.181 16.9123 21.805C15.6555 21.429 15.1805 20.6373 15.1805 20.6373C15.3261 20.7392 15.5662 20.8713 15.5863 20.8847C17.2566 21.8201 19.6292 22.1265 21.7613 21.231C22.1076 21.1024 22.4936 20.9144 22.8993 20.6472C22.8993 20.6472 22.4045 21.4586 21.1081 21.8248C21.405 22.2008 21.7613 22.6264 21.7613 22.6264C23.9482 22.5571 24.7894 21.1222 24.7894 21.1222Z" fill="#F9FAFE"/>
</svg>
