<svg width="126" height="126" viewBox="0 0 126 126" fill="none" xmlns="http://www.w3.org/2000/svg">
<path d="M123.303 28.3799V58.9799C123.303 66.5999 120.783 73.0199 116.283 77.4599C111.843 81.9599 105.423 84.4799 97.8027 84.4799V95.3399C97.8027 99.4199 93.2427 101.88 89.8827 99.5999L84.0627 95.7599C84.6027 93.8999 84.8427 91.8599 84.8427 89.6999V65.2799C84.8427 53.0399 76.6827 44.8799 64.4427 44.8799H23.7027C22.8627 44.8799 22.0827 44.9399 21.3027 44.9999V28.3799C21.3027 13.0799 31.5027 2.87988 46.8027 2.87988H97.8027C113.103 2.87988 123.303 13.0799 123.303 28.3799Z" stroke="#F9FAFE" stroke-width="5" stroke-miterlimit="10" stroke-linecap="round" stroke-linejoin="round"/>
<path d="M84.8427 65.2799V89.6999C84.8427 91.8599 84.6027 93.8999 84.0627 95.7599C81.8427 104.58 74.5227 110.1 64.4427 110.1H48.1227L30.0027 122.16C29.3953 122.576 28.6855 122.817 27.9505 122.858C27.2155 122.898 26.4835 122.736 25.834 122.39C25.1845 122.044 24.6424 121.526 24.2666 120.893C23.8908 120.26 23.6958 119.536 23.7027 118.8V110.1C17.5827 110.1 12.4827 108.06 8.94273 104.52C5.34273 100.92 3.30273 95.8199 3.30273 89.6999V65.2799C3.30273 53.8799 10.3827 46.0199 21.3027 44.9999C22.0827 44.9399 22.8627 44.8799 23.7027 44.8799H64.4427C76.6827 44.8799 84.8427 53.0399 84.8427 65.2799V65.2799Z" stroke="#F9FAFE" stroke-width="5" stroke-miterlimit="10" stroke-linecap="round" stroke-linejoin="round"/>
<path d="M41.1298 84.1625C41.1298 82.8452 41.4211 81.7558 42.0038 80.8945C42.6118 80.0332 43.4858 79.0832 44.6258 78.0445C45.4618 77.2845 46.0698 76.6512 46.4498 76.1445C46.8551 75.6125 47.0578 75.0171 47.0578 74.3585C47.0578 73.4211 46.6778 72.6865 45.9178 72.1545C45.1831 71.5972 44.1951 71.3185 42.9538 71.3185C41.7631 71.3185 40.6991 71.5718 39.7618 72.0785C38.8498 72.5598 38.0771 73.2438 37.4438 74.1305L32.8458 71.4325C33.9098 69.8112 35.3411 68.5571 37.1398 67.6705C38.9638 66.7838 41.1171 66.3405 43.5998 66.3405C46.5131 66.3405 48.8438 66.9612 50.5918 68.2025C52.3651 69.4438 53.2518 71.1665 53.2518 73.3705C53.2518 74.4092 53.0745 75.3212 52.7198 76.1065C52.3905 76.8918 51.9725 77.5632 51.4658 78.1205C50.9845 78.6525 50.3511 79.2732 49.5658 79.9825C48.6285 80.8185 47.9445 81.5278 47.5138 82.1105C47.0831 82.6678 46.8678 83.3518 46.8678 84.1625H41.1298ZM44.0178 93.7005C42.9791 93.7005 42.1051 93.3712 41.3958 92.7125C40.7118 92.0285 40.3698 91.2052 40.3698 90.2425C40.3698 89.2798 40.7118 88.4818 41.3958 87.8485C42.0798 87.1898 42.9538 86.8605 44.0178 86.8605C45.0818 86.8605 45.9558 87.1898 46.6398 87.8485C47.3238 88.4818 47.6658 89.2798 47.6658 90.2425C47.6658 91.2052 47.3111 92.0285 46.6018 92.7125C45.9178 93.3712 45.0565 93.7005 44.0178 93.7005Z" fill="white"/>
</svg>
