<svg width="38" height="39" viewBox="0 0 38 39" fill="none" xmlns="http://www.w3.org/2000/svg">
<rect y="0.994141" width="38" height="38" rx="8" fill="white" fill-opacity="0.3"/>
<path d="M15.4985 25.6386C15.4985 25.7205 15.4043 25.7859 15.2856 25.7859C15.1506 25.7982 15.0565 25.7327 15.0565 25.6386C15.0565 25.5568 15.1506 25.4913 15.2693 25.4913C15.392 25.479 15.4985 25.5445 15.4985 25.6386ZM14.2257 25.4544C14.197 25.5363 14.2789 25.6304 14.4017 25.655C14.5081 25.6959 14.6308 25.655 14.6554 25.5731C14.68 25.4913 14.6022 25.3972 14.4794 25.3603C14.373 25.3317 14.2543 25.3726 14.2257 25.4544ZM16.0346 25.3849C15.9159 25.4135 15.834 25.4913 15.8463 25.5854C15.8586 25.6673 15.965 25.7205 16.0878 25.6918C16.2065 25.6632 16.2883 25.5854 16.276 25.5036C16.2638 25.4258 16.1533 25.3726 16.0346 25.3849ZM18.7274 9.70239C13.0511 9.70239 8.70898 14.0118 8.70898 19.6881C8.70898 24.2267 11.5656 28.1105 15.6458 29.4774C16.1696 29.5715 16.3538 29.2482 16.3538 28.9822C16.3538 28.7285 16.3415 27.3288 16.3415 26.4694C16.3415 26.4694 13.4768 27.0833 12.8752 25.2498C12.8752 25.2498 12.4086 24.0589 11.7374 23.752C11.7374 23.752 10.8003 23.1094 11.8029 23.1217C11.8029 23.1217 12.822 23.2036 13.3826 24.1776C14.2789 25.7573 15.7808 25.303 16.3661 25.0329C16.4602 24.3781 16.7262 23.9239 17.0209 23.6537C14.7332 23.4 12.425 23.0685 12.425 19.1315C12.425 18.0061 12.736 17.4413 13.3908 16.721C13.2844 16.455 12.9365 15.3582 13.4972 13.9422C14.3526 13.6762 16.321 15.0472 16.321 15.0472C17.1395 14.818 18.0194 14.6993 18.8911 14.6993C19.7628 14.6993 20.6427 14.818 21.4612 15.0472C21.4612 15.0472 23.4297 13.6721 24.2851 13.9422C24.8457 15.3623 24.4979 16.455 24.3915 16.721C25.0463 17.4454 25.4473 18.0102 25.4473 19.1315C25.4473 23.0808 23.0368 23.3959 20.7491 23.6537C21.1256 23.9771 21.4449 24.5909 21.4449 25.5527C21.4449 26.9318 21.4326 28.6384 21.4326 28.974C21.4326 29.24 21.6208 29.5633 22.1406 29.4692C26.2331 28.1105 29.0078 24.2267 29.0078 19.6881C29.0078 14.0118 24.4037 9.70239 18.7274 9.70239ZM12.6869 23.8174C12.6337 23.8584 12.646 23.9525 12.7155 24.0303C12.781 24.0957 12.8752 24.1244 12.9284 24.0712C12.9816 24.0303 12.9693 23.9361 12.8997 23.8584C12.8342 23.7929 12.7401 23.7642 12.6869 23.8174ZM12.2449 23.486C12.2163 23.5392 12.2572 23.6046 12.339 23.6456C12.4045 23.6865 12.4864 23.6742 12.515 23.6169C12.5437 23.5637 12.5027 23.4982 12.4209 23.4573C12.339 23.4328 12.2736 23.445 12.2449 23.486ZM13.5709 24.9429C13.5054 24.9961 13.53 25.1189 13.6241 25.1966C13.7182 25.2907 13.8369 25.303 13.8901 25.2375C13.9433 25.1843 13.9187 25.0616 13.8369 24.9838C13.7469 24.8897 13.6241 24.8774 13.5709 24.9429ZM13.1043 24.3413C13.0389 24.3822 13.0389 24.4886 13.1043 24.5827C13.1698 24.6769 13.2803 24.7178 13.3335 24.6769C13.399 24.6237 13.399 24.5173 13.3335 24.4231C13.2762 24.329 13.1698 24.2881 13.1043 24.3413Z" fill="#F9FAFE"/>
</svg>
