<svg width="38" height="39" viewBox="0 0 38 39" fill="none" xmlns="http://www.w3.org/2000/svg">
<rect y="0.994141" width="38" height="38" rx="8" fill="white" fill-opacity="0.3"/>
<path d="M13.1392 29.4941H9.03591V16.2802H13.1392V29.4941ZM11.0854 14.4777C9.77325 14.4777 8.70898 13.3909 8.70898 12.0788C8.70898 11.4485 8.95935 10.8441 9.40501 10.3984C9.85067 9.95276 10.4551 9.70239 11.0854 9.70239C11.7156 9.70239 12.3201 9.95276 12.7657 10.3984C13.2114 10.8441 13.4617 11.4485 13.4617 12.0788C13.4617 13.3909 12.397 14.4777 11.0854 14.4777ZM28.4967 29.4941H24.4022V23.0616C24.4022 21.5286 24.3713 19.5627 22.2688 19.5627C20.1354 19.5627 19.8085 21.2282 19.8085 22.9512V29.4941H15.7096V16.2802H19.645V18.0827H19.7024C20.2503 17.0445 21.5884 15.9488 23.5849 15.9488C27.7377 15.9488 28.5011 18.6835 28.5011 22.2355V29.4941H28.4967Z" fill="#F9FAFE"/>
</svg>
