<svg width="38" height="39" viewBox="0 0 38 39" fill="none" xmlns="http://www.w3.org/2000/svg">
<rect y="0.994141" width="38" height="38" rx="8" fill="white" fill-opacity="0.3"/>
<path d="M28.6378 25.3723H27.3434C27.2772 25.9687 26.8796 26.7329 25.8856 26.7329C24.9799 26.7329 24.3261 26.1056 23.6988 25.1514C25.6514 23.6405 26.9988 21.2858 26.9988 18.3922C27.0033 13.2013 22.7313 9.70239 18.234 9.70239C13.8294 9.70239 9.5 13.2234 9.5 18.3922C9.5 24.3164 15.3005 28.182 20.5003 26.7418C21.3706 28.2262 22.5192 29.4941 24.706 29.4941C28.3198 29.4941 28.7174 26.1675 28.6378 25.3723ZM22.2983 22.832C21.4369 21.5421 20.3677 20.526 18.256 20.526C16.9086 20.526 15.8572 20.9677 15.2078 21.5332L15.7467 22.6067C16.0206 22.4742 16.3211 22.43 16.6215 22.43C18.1898 22.43 18.9938 23.7907 19.6786 25.1381C19.2368 25.2707 18.7641 25.3237 18.234 25.3237C14.9206 25.3237 13.4848 22.9822 13.4848 18.401C13.4848 13.7888 14.9206 11.4253 18.234 11.4253C21.6003 11.4253 23.0361 13.7888 23.0361 18.3922C23.0405 20.2388 22.7975 21.732 22.2983 22.832Z" fill="#F9FAFE"/>
</svg>
