<svg width="126" height="140" viewBox="0 0 126 140" fill="none" xmlns="http://www.w3.org/2000/svg">
<path d="M122.935 64.0607C122.935 96.9715 99.0423 127.796 66.4007 136.814C64.1797 137.42 61.7569 137.42 59.5359 136.814C26.8943 127.796 3.00195 96.9715 3.00195 64.0607V34.515C3.00195 28.9962 7.1747 22.7371 12.357 20.6507L49.8444 5.30576C58.2571 1.87334 67.7468 1.87334 76.1596 5.30576L113.647 20.6507C118.762 22.7371 123.002 28.9962 123.002 34.515L122.935 64.0607V64.0607Z" stroke="#F9FAFE" stroke-width="5" stroke-linecap="round" stroke-linejoin="round"/>
<path d="M62.9692 73.3467C66.5392 73.3467 69.9629 71.9285 72.4872 69.4042C75.0116 66.8799 76.4297 63.4562 76.4297 59.8862C76.4297 56.3163 75.0116 52.8926 72.4872 50.3683C69.9629 47.8439 66.5392 46.4258 62.9692 46.4258C59.3993 46.4258 55.9756 47.8439 53.4513 50.3683C50.9269 52.8926 49.5088 56.3163 49.5088 59.8862C49.5088 63.4562 50.9269 66.8799 53.4513 69.4042C55.9756 71.9285 59.3993 73.3467 62.9692 73.3467ZM62.9692 73.3467V93.5374" stroke="#F9FAFE" stroke-width="5" stroke-miterlimit="10" stroke-linecap="round" stroke-linejoin="round"/>
</svg>
