<svg width="126" height="126" viewBox="0 0 126 126" fill="none" xmlns="http://www.w3.org/2000/svg">
<path d="M5.90209 32.2H114.245M40.1878 3.62857V31.4M79.9592 3.62857V28.8286M117.216 43V77.2857C117.216 78.5429 117.216 79.8 117.102 81C114.703 78.0424 111.671 75.6603 108.229 74.0286C104.788 72.397 101.025 71.5573 97.2164 71.5714C91.1592 71.5714 85.5592 73.6857 81.1592 77.2286C78.1333 79.62 75.6912 82.6687 74.0181 86.1437C72.3449 89.6187 71.4845 93.4289 71.5021 97.2857C71.5111 101.096 72.3668 104.857 74.0073 108.296C75.6478 111.735 78.0321 114.767 80.9878 117.171C79.7878 117.286 78.5307 117.286 77.2164 117.286H42.9307C14.3592 117.286 2.93066 105.857 2.93066 77.2857V43C2.93066 14.4286 14.3592 3 42.9307 3H77.2164C105.788 3 117.216 14.4286 117.216 43Z" stroke="#F9FAFE" stroke-width="5" stroke-linecap="round" stroke-linejoin="round"/>
<path d="M122.931 97.2856C122.923 100.946 122.134 104.562 120.616 107.893C119.099 111.224 116.887 114.192 114.131 116.6C109.616 120.6 103.731 123 97.2162 123C91.102 123 85.4448 120.828 81.0448 117.171H80.9877C78.032 114.767 75.6477 111.735 74.0072 108.296C72.3666 104.857 71.511 101.096 71.502 97.2856C71.502 89.1713 75.2162 81.9142 81.1591 77.2284C85.7071 73.562 91.3744 71.5653 97.2162 71.5713C105.273 71.5713 112.416 75.2284 117.102 80.9999C120.759 85.3999 122.931 91.1142 122.931 97.2856Z" stroke="#F9FAFE" stroke-width="5" stroke-miterlimit="10" stroke-linecap="round" stroke-linejoin="round"/>
<path d="M87.2163 97.2852L93.5592 103.628L107.273 90.9424" stroke="#F9FAFE" stroke-width="5" stroke-linecap="round" stroke-linejoin="round"/>
</svg>
