<svg width="38" height="39" viewBox="0 0 38 39" fill="none" xmlns="http://www.w3.org/2000/svg">
<rect y="0.994141" width="38" height="38" rx="8" fill="white" fill-opacity="0.3"/>
<path d="M26.4653 16.0834C26.4779 16.2592 26.4779 16.4351 26.4779 16.6109C26.4779 21.9732 22.3965 28.1519 14.9369 28.1519C12.6387 28.1519 10.5038 27.4863 8.70801 26.331C9.03453 26.3686 9.34846 26.3812 9.68754 26.3812C11.5838 26.3812 13.3294 25.7407 14.7234 24.6482C12.9401 24.6105 11.4457 23.4426 10.9308 21.8351C11.182 21.8728 11.4331 21.8979 11.6969 21.8979C12.061 21.8979 12.4253 21.8476 12.7643 21.7598C10.9057 21.383 9.5117 19.7504 9.5117 17.7788V17.7286C10.0517 18.03 10.6796 18.2184 11.3452 18.2434C10.2526 17.5151 9.53683 16.2718 9.53683 14.8653C9.53683 14.1118 9.73772 13.4211 10.0894 12.8183C12.0861 15.2797 15.0876 16.8871 18.4531 17.063C18.3903 16.7616 18.3527 16.4477 18.3527 16.1337C18.3527 13.8983 20.161 12.0774 22.409 12.0774C23.5769 12.0774 24.6317 12.5672 25.3727 13.3583C26.2894 13.1825 27.1685 12.8434 27.9471 12.3788C27.6457 13.3207 27.0052 14.1118 26.1639 14.6141C26.9802 14.5263 27.7713 14.3002 28.4997 13.9863C27.9472 14.7899 27.2565 15.5057 26.4653 16.0834Z" fill="#F9FAFE"/>
</svg>
