<svg width="38" height="39" viewBox="0 0 38 39" fill="none" xmlns="http://www.w3.org/2000/svg">
<rect y="0.994141" width="38" height="38" rx="8" fill="white" fill-opacity="0.3"/>
<path d="M25.5353 12.5784C23.6843 10.7229 21.2192 9.70239 18.5994 9.70239C13.1921 9.70239 8.79195 14.1025 8.79195 19.5099C8.79195 21.2372 9.24256 22.9248 10.0996 24.4136L8.70801 29.4941L13.9077 28.129C15.3391 28.9109 16.9516 29.3218 18.595 29.3218H18.5994C24.0024 29.3218 28.4997 24.9217 28.4997 19.5143C28.4997 16.8945 27.3864 14.4338 25.5353 12.5784ZM18.5994 27.6695C17.1327 27.6695 15.6969 27.2763 14.4467 26.5341L14.1507 26.3574L11.0671 27.1659L11.8888 24.1574L11.6944 23.8481C10.8771 22.5493 10.4486 21.0517 10.4486 19.5099C10.4486 15.017 14.1065 11.3591 18.6038 11.3591C20.7818 11.3591 22.8272 12.2073 24.3646 13.7491C25.902 15.2909 26.8474 17.3363 26.843 19.5143C26.843 24.0116 23.0923 27.6695 18.5994 27.6695ZM23.0702 21.5641C22.8272 21.4404 21.6212 20.8485 21.3959 20.7689C21.1706 20.685 21.0071 20.6452 20.8437 20.8926C20.6802 21.14 20.2119 21.6878 20.0661 21.8557C19.9248 22.0192 19.779 22.0413 19.536 21.9176C18.0958 21.1975 17.1504 20.632 16.2006 19.0018C15.9488 18.5689 16.4524 18.5998 16.9207 17.6632C17.0002 17.4998 16.9604 17.3584 16.8986 17.2347C16.8367 17.111 16.3464 15.905 16.1431 15.4146C15.9443 14.9375 15.7411 15.0037 15.5909 14.9949C15.4495 14.9861 15.2861 14.9861 15.1226 14.9861C14.9592 14.9861 14.6941 15.0479 14.4688 15.2909C14.2435 15.5383 13.6117 16.1303 13.6117 17.3363C13.6117 18.5424 14.4909 19.7087 14.6102 19.8721C14.7339 20.0356 16.3375 22.5095 18.7982 23.5742C20.3533 24.2457 20.9629 24.3032 21.7405 24.1883C22.2132 24.1176 23.1895 23.5963 23.3927 23.022C23.5959 22.4477 23.5959 21.9573 23.5341 21.8557C23.4767 21.7453 23.3132 21.6834 23.0702 21.5641Z" fill="#F9FAFE"/>
</svg>
