<svg width="114" height="126" viewBox="0 0 114 126" fill="none" xmlns="http://www.w3.org/2000/svg">
<path d="M27 83.9169H57.4778M27 63.8444H75M45 3H81C100.98 4.08 111 11.46 111 38.94V87M3 45.06V86.88C3 110.94 9 123 39 123H75M52.1173 43.5596H75" stroke="#F9FAFE" stroke-width="5" stroke-miterlimit="10" stroke-linecap="round" stroke-linejoin="round"/>
<path d="M19.8373 6.44559L41.1956 27.8038C42.0087 28.617 42.8219 30.2161 42.9845 31.3816L44.15 39.54C44.5836 42.4944 42.4966 44.5543 39.5422 44.1478L31.3838 42.9823C30.2454 42.8197 28.6463 42.0065 27.806 41.1934L6.44778 19.8351C2.76159 16.149 1.02691 11.8665 6.44778 6.44559C11.8687 1.02471 16.1511 2.75939 19.8373 6.44559Z" stroke="#F9FAFE" stroke-width="5" stroke-miterlimit="10" stroke-linecap="round" stroke-linejoin="round"/>
<path d="M22.8984 9.50879C21.9997 12.7002 20.2965 15.6075 17.952 17.9519C15.6075 20.2964 12.7003 21.9996 9.50887 22.8984" stroke="#F9FAFE" stroke-width="5" stroke-miterlimit="10" stroke-linecap="round" stroke-linejoin="round"/>
<path d="M111 87L75 123V105C75 93 81 87 93 87H111Z" stroke="#F9FAFE" stroke-width="5" stroke-linecap="round" stroke-linejoin="round"/>
</svg>
