<svg width="38" height="39" viewBox="0 0 38 39" fill="none" xmlns="http://www.w3.org/2000/svg">
<rect y="0.994141" width="38" height="38" rx="8" fill="white" fill-opacity="0.3"/>
<path d="M28.0861 15.0465C27.8585 14.1895 27.1878 13.5145 26.3363 13.2854C24.7929 12.8691 18.6038 12.8691 18.6038 12.8691C18.6038 12.8691 12.4148 12.8691 10.8714 13.2854C10.0198 13.5145 9.34919 14.1895 9.12157 15.0465C8.70801 16.6 8.70801 19.8412 8.70801 19.8412C8.70801 19.8412 8.70801 23.0824 9.12157 24.6359C9.34919 25.4929 10.0198 26.1398 10.8714 26.3689C12.4148 26.7851 18.6038 26.7851 18.6038 26.7851C18.6038 26.7851 24.7928 26.7851 26.3363 26.3689C27.1878 26.1398 27.8585 25.4929 28.0861 24.6359C28.4997 23.0824 28.4997 19.8412 28.4997 19.8412C28.4997 19.8412 28.4997 16.6 28.0861 15.0465ZM16.5797 22.784V16.8984L21.7525 19.8413L16.5797 22.784Z" fill="#F9FAFE"/>
</svg>
