<svg width="414" height="357" viewBox="0 0 414 357" fill="none" xmlns="http://www.w3.org/2000/svg">
<g clip-path="url(#clip0_2910_8971)">
<path fill-rule="evenodd" clip-rule="evenodd" d="M120.427 239.719C64.7546 252.697 32.902 234.577 24.8691 185.359C12.8199 111.532 53.6373 33.971 109.643 26.5359C165.649 19.1008 189.192 40.3096 228.556 66.9428C267.919 93.576 382.008 156.242 394.97 166.878C407.932 177.513 435.666 219.073 380.193 245.398C343.212 262.947 297.205 259.642 242.175 235.482C222.829 227.024 205.213 222.548 189.325 222.054C173.437 221.56 150.471 227.449 120.427 239.719Z" fill="#1681FE"/>
<path d="M183.889 145.99C188.893 149.256 190.905 153.481 189.925 158.665C185.239 165.69 182.895 171.773 182.895 176.914C182.895 182.056 182.543 188.744 181.837 196.978L142.887 197.801L142.804 197.751C141.763 197.771 140.74 197.788 139.734 197.801C131.065 197.913 123.374 199.062 123.011 199.118C120.173 199.558 115.058 194.292 113.638 192.508C111.357 189.641 110.273 186.248 109.791 182.556C109.336 179.073 109.977 175.835 111.237 172.73C112.708 169.103 115.011 165.964 117.931 163.199C121.133 160.264 124.581 157.868 128.446 156.101C128.596 156.032 131.37 154.667 131.503 154.685C131.592 154.697 136.027 156.118 142.195 158.999C149.196 154.023 156.768 148.758 164.912 143.203C172.56 141.795 178.885 142.724 183.889 145.99Z" fill="white"/>
<path fill-rule="evenodd" clip-rule="evenodd" d="M133.487 230.76C139.612 232.021 143.304 229.618 144.564 223.55C146.454 214.449 135.036 216.075 131.541 211.391C128.047 206.707 135.798 205.768 144.564 208.58C153.338 208.195 155.87 208.697 156.374 206.278C156.878 203.858 152.307 202.334 140.097 202.733C127.888 203.132 129.684 203.148 130.612 213.349C131.232 220.15 132.19 225.954 133.487 230.76Z" fill="white"/>
<path d="M285.698 250.198C280.991 246.304 277.676 243.855 275.899 242.289C271.655 238.548 267.308 234.926 263.027 231.228C262.147 230.468 261.292 229.65 260.567 228.744C259.658 227.608 259.866 226.824 261.301 226.27C262.433 225.833 263.671 225.633 264.879 225.439C268.484 224.863 272.095 224.325 275.708 223.807C277.295 223.58 278.896 223.446 280.488 223.248C280.772 223.213 281.044 223.071 281.321 222.978C281.183 222.754 281.078 222.5 280.903 222.311C279.509 220.806 278.102 219.312 276.698 217.815C276.574 217.684 276.443 217.559 276.315 217.431C276.515 217.383 276.712 217.319 276.914 217.289C280.614 216.743 284.313 216.194 288.014 215.661C290.445 215.311 292.874 214.95 295.312 214.663C297.807 214.37 300.31 214.132 302.813 213.925C305.052 213.74 307.3 213.662 309.539 213.476C310.974 213.357 312.395 213.074 313.829 212.958C315.622 212.813 317.425 212.79 319.221 212.667C321.464 212.513 323.702 212.288 325.945 212.138C327.83 212.012 329.722 211.978 331.608 211.85C333.129 211.748 334.642 211.524 336.163 211.432C337.65 211.342 339.142 211.351 340.632 211.317C344.489 211.226 348.346 211.116 352.203 211.052C354.564 211.013 356.944 210.867 359.278 211.118C360.495 211.25 361.886 211.878 362.754 212.735C364.946 214.899 366.889 217.317 368.926 219.638C370.175 221.061 371.427 222.482 372.656 223.922C375.248 226.957 377.819 230.009 380.412 233.043C381.218 233.985 382.08 234.879 382.889 235.818C383.12 236.087 383.256 236.44 383.436 236.754C383.181 236.545 382.421 235.895 382.674 236.125C407.69 258.884 302.34 263.722 285.698 250.198Z" fill="white"/>
<path d="M0.735269 166.103C0.820552 163.759 0.893054 161.415 0.984041 159.072C1.01344 158.315 1.09906 157.561 1.1458 156.804C1.53389 150.522 2.2803 144.279 3.88802 138.189C5.17099 133.329 6.86507 128.601 8.92407 123.984C11.2727 118.716 14.1282 113.763 17.4183 109.054C19.0946 106.654 20.9254 104.342 22.8735 102.155C25.2173 99.5239 27.6254 96.9186 30.2521 94.5751C33.2509 91.8995 36.4735 89.4611 39.7097 87.0678C40.4303 86.535 41.704 86.2752 42.5639 86.4977C44.0738 86.8884 44.2921 88.2009 43.1371 89.2032C40.5146 91.4792 39.2667 94.3848 39.0746 97.7592C38.9684 99.623 39.143 101.503 39.0395 103.367C38.6984 109.512 40.4929 115.169 43.1504 120.565C45.691 125.723 49.3905 129.972 54.6988 132.454C57.7446 133.878 61.0018 134.877 64.2094 135.931C66.9956 136.846 69.8505 137.552 72.6663 138.38C75.4287 139.192 78.1499 139.929 81.0768 138.953C82.5784 138.452 83.7049 139.795 83.1299 141.251C80.9556 146.754 79.1029 152.465 75.2834 157.105C72.9924 159.889 70.3416 162.465 67.5061 164.699C63.3433 167.98 58.5566 170.319 53.7754 172.623C49.112 174.871 44.5536 177.336 39.8695 179.538C34.5927 182.019 29.2452 184.355 23.8941 186.675C19.5771 188.547 15.219 190.328 10.8565 192.093C9.81335 192.516 8.69597 192.812 7.58425 192.996C6.47035 193.181 4.02324 191.434 3.58608 190.28C2.47668 187.35 1.72256 184.337 1.41113 181.215C1.22161 179.315 0.966504 177.421 0.673164 175.525C0.605469 175.39 0.605469 175.255 0.673163 175.053C0.785986 172.455 0.833305 169.923 0.864739 167.392C0.865604 167.322 0.695727 167.25 0.605469 167.18C0.605469 166.865 0.605469 166.551 0.605469 166.17C0.650589 166.103 0.735269 166.103 0.735269 166.103Z" fill="white"/>
<path fill-rule="evenodd" clip-rule="evenodd" d="M181.367 196.894L263.339 194.805H266.702C271.603 198.456 276.981 200.03 282.835 199.526C291.616 198.769 299.37 189.077 301.181 175.565C301.448 174.512 302.095 174.258 303.123 174.806C304.254 177.011 306.261 177.974 309.145 177.692C310.397 177.557 311.094 177.85 311.8 179.209C312.507 180.568 316.244 182.277 318.586 180.905C320.928 179.534 331.727 162.043 331.727 159.1C331.727 156.157 332.333 149.729 332.809 149.314C333.286 148.899 334.182 149.236 335.923 148.684C337.663 148.132 339.153 148.681 344.732 134.034C350.312 119.387 358.85 97.4902 359.759 82.1578C360.669 66.8253 349.838 72.2444 344.732 78.6426C339.627 85.0407 325.393 101.515 312.22 110.461C310.608 111.665 309.292 112.231 308.273 112.159C307.662 108.351 305.158 106.933 300.762 107.903C299.053 108.21 297.655 106.859 296.567 103.851C293.748 88.2325 287.323 76.9312 277.291 69.9468C262.243 59.4702 236.602 53.483 230.433 75.3881C226.32 89.9915 228.792 107.733 237.851 128.614L234.079 131.878C219.24 137.012 207.117 143.349 197.71 150.89C183.601 162.201 183.331 173.235 182.583 182.335C182.083 188.403 181.678 193.255 181.367 196.894Z" fill="white"/>
<path d="M151.039 133.826C151.164 132.64 151.221 131.446 151.358 130.261C151.366 130.197 151.968 130.061 152.142 130.18C153.755 131.288 155.351 132.424 156.914 133.602C157.338 133.921 157.371 134.239 157.564 133.403C157.864 132.098 159.722 131.733 160.834 132.661C163.385 134.789 164.672 137.65 165.606 140.76C166.416 143.459 166.095 146.201 166.174 148.928C166.224 150.677 167.863 151.997 169.583 152.068C170.855 152.12 172.193 152.678 173.337 153.309C176.105 154.836 177.885 157.245 178.76 160.28C179.702 163.548 178.825 166.458 176.931 169.173C175.208 171.643 173.639 174.23 171.139 176.041C169.756 177.043 168.162 177.874 167.08 179.139C165.917 180.498 164.582 181.384 162.998 181.995C159.098 183.5 154.836 181.548 152.926 178.296C150.908 174.005 143.707 177.502 140.917 171.172C139.509 169.082 138.961 167.331 139.264 167.156C139.635 166.942 139.122 166.401 138.466 165.712C135.601 162.702 133.056 159.443 131.314 155.626C131.039 155.023 130.756 154.402 130.636 153.76C130.562 153.365 130.672 152.802 130.928 152.529C131.089 152.358 131.729 152.481 132.053 152.658C132.539 152.923 132.924 153.367 133.372 153.708C134.136 154.289 134.561 154.042 134.354 153.136C133.765 150.561 134.306 148.117 135.212 145.755C135.7 144.481 136.494 143.319 137.232 142.158C137.302 142.048 138.011 142.215 138.32 142.414C138.893 142.785 139.388 143.274 139.916 143.714C139.952 143.01 139.963 142.304 140.032 141.603C140.073 141.187 140.175 140.771 140.301 140.371C140.933 138.366 141.272 138.264 142.946 139.521C143.171 139.69 143.439 139.8 143.687 139.937C143.721 139.682 143.766 139.427 143.788 139.171C143.972 136.967 143.531 134.968 141.92 133.332C141.901 133.312 142.251 132.737 142.452 132.722C144.772 132.539 147.093 132.443 149.216 133.683C149.65 133.936 150.083 134.191 150.584 134.513C150.785 134.33 151.011 134.089 151.039 133.826Z" fill="white"/>
<path fill-rule="evenodd" clip-rule="evenodd" d="M185.445 52.7676C178.592 58.4471 175.485 66.6696 176.122 77.435C177.078 93.5831 195.864 105.087 204.951 100.218C214.038 95.3486 224.071 88.2549 225.269 73.1553C225.778 87.5236 227.284 94.5166 207.912 104.937C188.54 115.357 168.287 99.1884 165.358 92.5242C162.429 85.86 155.377 71.1483 169.69 54.0807C171.648 51.8234 176.9 51.3857 185.445 52.7676Z" fill="white"/>
<path fill-rule="evenodd" clip-rule="evenodd" d="M348.725 241.705C350.383 241.524 351.91 241.378 353.426 241.153C356.869 240.642 360.304 240.08 363.746 239.562C365.795 239.254 367.874 239.104 369.893 238.669C371.31 238.363 372.594 238.562 373.899 238.991C374.108 239.06 374.269 239.279 374.453 239.428C374.232 239.551 374.022 239.756 373.79 239.785C370.764 240.167 367.729 240.486 364.708 240.899C361.669 241.314 358.645 241.84 355.609 242.274C353.494 242.577 351.365 242.791 349.247 243.074C348.142 243.222 347.05 243.459 345.946 243.606C344.382 243.815 342.809 243.954 341.246 244.164C339.412 244.411 337.586 244.718 335.753 244.971C334.279 245.175 332.798 245.324 331.323 245.525C329.445 245.781 327.572 246.073 325.695 246.336C324.311 246.53 322.923 246.706 321.536 246.883C320.075 247.069 318.609 247.215 317.154 247.441C316.274 247.578 315.464 247.571 315.202 246.558C314.964 245.634 315.435 244.91 316.335 244.711C317.567 244.438 318.832 244.289 320.091 244.17C321.585 244.029 323.087 243.969 324.586 243.888C326.432 243.788 328.28 243.737 330.123 243.604C332.084 243.463 334.04 243.237 335.999 243.071C338.304 242.876 340.613 242.733 342.915 242.511C344.111 242.396 345.295 242.154 346.487 241.98C347.186 241.878 347.889 241.796 348.725 241.705Z" fill="#E7EAEE"/>
<path fill-rule="evenodd" clip-rule="evenodd" d="M312.767 228.941C314.425 228.851 315.951 228.788 317.471 228.665C319.086 228.534 320.694 228.316 322.309 228.191C324.122 228.05 325.942 227.994 327.755 227.859C329.812 227.705 331.865 227.49 333.922 227.332C335.443 227.215 336.97 227.173 338.49 227.051C340.397 226.898 342.299 226.678 344.206 226.526C345.726 226.404 347.254 226.365 348.774 226.244C350.784 226.083 352.786 225.784 354.798 225.717C357.093 225.64 359.397 224.926 361.69 225.717C361.963 225.811 362.212 225.977 362.471 226.11C362.224 226.157 361.979 226.221 361.73 226.247C359.99 226.432 358.247 226.589 356.51 226.793C354.399 227.041 352.297 227.366 350.184 227.581C348.638 227.739 347.076 227.729 345.529 227.876C343.407 228.078 341.295 228.383 339.175 228.596C337.636 228.751 336.088 228.816 334.546 228.944C332.535 229.111 330.525 229.293 328.515 229.481C326.684 229.652 324.853 229.823 323.024 230.021C320.69 230.274 318.361 230.585 316.024 230.816C313.807 231.035 311.581 231.157 309.363 231.372C307.821 231.521 306.29 231.804 304.746 231.925C304.143 231.972 303.472 231.842 302.919 231.597C302.524 231.421 302.275 230.92 301.961 230.563C302.36 230.292 302.74 229.821 303.161 229.781C305.72 229.536 308.289 229.398 310.854 229.203C311.45 229.158 312.04 229.031 312.767 228.941Z" fill="#E7EAEE"/>
<path fill-rule="evenodd" clip-rule="evenodd" d="M171.735 262.879C171.597 262.99 171.524 263.075 171.454 263.073C170.821 263.055 170.188 263.021 169.555 262.992C170.159 262.575 170.712 261.933 171.378 261.78C174 261.18 176.361 260.122 178.549 258.56C181.407 256.52 183.172 253.845 183.814 250.427C183.913 249.9 183.765 249.664 183.129 249.667C182.222 249.672 181.313 249.524 180.407 249.421C178.634 249.221 177.223 247.967 177.067 246.473C176.967 245.514 178.406 243.507 179.469 242.989C181.942 241.784 184.689 244.163 185.392 246.223C185.675 247.052 185.81 246.751 186.183 246.41C187.948 244.797 188.526 242.726 188.385 240.451C188.235 238.02 187.164 236.065 185.055 234.697C184.324 234.223 184.044 233.549 184.61 232.687C185.228 231.747 186.943 231.684 187.613 232.515C188.518 233.638 189.313 234.932 189.812 236.278C191.024 239.542 190.714 242.715 188.675 245.635C188.529 245.844 188.409 246.086 188.221 246.249C186.621 247.638 185.758 249.367 185.108 251.405C183.178 257.447 178.749 261.014 172.745 262.801C172.456 262.887 172.118 262.812 171.735 262.879ZM179.902 244.604C178.743 245.29 178.427 247.26 179.524 247.603C180.791 247.998 182.255 247.78 183.634 247.793C183.693 247.794 183.792 247.447 183.811 247.256C183.991 245.404 182.253 244.125 179.902 244.604Z" fill="#FFB61D"/>
<path fill-rule="evenodd" clip-rule="evenodd" d="M333.478 234.848C337.303 234.484 340.991 234.093 344.684 233.768C347.301 233.537 349.928 233.42 352.547 233.205C354.163 233.072 355.772 232.859 357.383 232.667C359.607 232.402 361.831 231.91 364.05 231.935C365.316 231.949 366.788 232.36 367.65 233.642C367.717 233.742 367.792 233.835 367.863 233.932C367.696 233.965 367.517 234.055 367.364 234.022C364.47 233.409 361.623 234.003 358.751 234.267C356.75 234.452 354.714 234.232 352.7 234.323C350.677 234.414 348.662 234.673 346.643 234.846C344.413 235.036 342.18 235.183 339.953 235.403C338.757 235.522 337.576 235.788 336.381 235.929C334.606 236.14 332.822 236.275 331.047 236.488C329.017 236.732 326.985 236.976 324.969 237.312C322.573 237.71 320.198 238.239 317.802 238.65C315.43 239.056 313.053 239.492 310.66 239.702C309.569 239.798 308.416 239.459 307.326 239.179C306.488 238.963 306.678 238.373 307.212 237.986C307.643 237.673 308.171 237.402 308.688 237.321C310.245 237.077 311.818 236.931 313.385 236.755C315.042 236.569 316.697 236.362 318.358 236.216C320.721 236.008 323.091 235.871 325.454 235.655C326.89 235.524 328.315 235.278 329.749 235.127C330.944 235.001 332.144 234.938 333.478 234.848Z" fill="#E7EAEE"/>
<path fill-rule="evenodd" clip-rule="evenodd" d="M308.108 223.591C311.263 223.23 314.282 222.851 317.305 222.517C319.27 222.3 321.245 222.175 323.209 221.96C324.357 221.834 325.493 221.597 326.637 221.433C327.423 221.321 328.216 221.258 329.004 221.157C331.414 220.849 333.818 220.496 336.232 220.228C338.688 219.956 341.155 219.789 343.612 219.531C345.862 219.294 348.101 218.926 350.356 218.766C351.165 218.708 352.02 219.042 352.825 219.294C353.093 219.377 353.267 219.76 353.484 220.005C353.176 220.107 352.873 220.276 352.56 220.299C350.805 220.425 349.046 220.488 347.292 220.626C345.441 220.773 343.592 220.963 341.746 221.164C340.33 221.318 338.922 221.533 337.507 221.696C335.811 221.891 334.107 222.025 332.414 222.248C329.93 222.576 327.455 222.972 324.973 223.317C322.285 223.691 319.588 224.002 316.906 224.413C314.59 224.768 312.292 225.244 309.98 225.631C306.942 226.14 303.895 226.6 300.857 227.11C299.747 227.297 299.073 226.664 298.973 225.783C298.882 224.984 299.585 224.693 300.484 224.633C302.844 224.476 305.192 224.135 307.542 223.851C307.694 223.833 307.829 223.681 308.108 223.591Z" fill="#E7EAEE"/>
<path fill-rule="evenodd" clip-rule="evenodd" d="M343.36 251.896C340.416 252.264 337.606 252.624 334.799 253.004C333.604 253.166 332.415 253.476 331.22 253.491C330.832 253.496 330.06 252.698 330.121 252.408C330.243 251.818 330.748 250.939 331.21 250.859C333.177 250.517 335.186 250.431 337.179 250.238C338.976 250.063 340.772 249.864 342.569 249.69C344.562 249.497 346.555 249.311 348.55 249.138C350.783 248.944 353.017 248.755 355.252 248.587C356.783 248.473 358.32 248.428 359.85 248.299C361.649 248.148 363.442 247.918 365.241 247.761C366.681 247.636 368.129 247.605 369.567 247.469C371.051 247.328 372.528 247.108 374.008 246.929C374.187 246.908 374.383 246.883 374.549 246.934C375.121 247.11 375.683 247.318 376.249 247.514C375.75 247.687 375.263 247.949 374.751 248.016C371.72 248.414 368.682 248.756 365.649 249.139C363.631 249.394 361.62 249.715 359.601 249.956C357.748 250.177 355.883 250.305 354.03 250.527C353.054 250.644 352.098 250.932 351.122 251.039C349.044 251.269 346.959 251.422 344.879 251.627C344.414 251.673 343.957 251.804 343.36 251.896Z" fill="#E7EAEE"/>
<path fill-rule="evenodd" clip-rule="evenodd" d="M117.931 163.199C121.133 160.264 124.581 157.868 128.446 156.101C128.596 156.032 128.75 155.865 128.883 155.884C129.463 155.963 130.037 156.094 130.613 156.207C130.196 156.492 129.808 156.839 129.358 157.052C124.885 159.172 120.72 161.743 117.332 165.427C114.038 169.008 111.677 173.027 111.156 178.043C110.677 182.655 111.263 186.968 113.871 190.858C115.272 192.946 117.162 194.504 119.459 195.538C119.641 195.62 119.813 195.726 119.99 195.821C119.785 195.862 119.581 195.912 119.374 195.944C116.536 196.385 115.058 194.292 113.638 192.508C111.357 189.641 110.273 186.248 109.791 182.555C109.336 179.072 109.977 175.834 111.237 172.73C112.708 169.103 115.011 165.964 117.931 163.199Z" fill="#2A323C"/>
<path fill-rule="evenodd" clip-rule="evenodd" d="M295.522 222.782C295.04 221.722 295.739 220.546 296.848 220.557C298.744 220.575 300.639 220.701 302.533 220.797C303.983 220.87 305.431 220.966 306.88 221.051C307.055 221.061 307.275 221.007 307.396 221.088C307.799 221.36 308.166 221.68 308.548 221.982C308.18 222.163 307.823 222.472 307.443 222.501C306.269 222.588 305.075 222.673 303.908 222.567C301.841 222.38 299.888 222.844 297.98 223.428C296.941 223.746 296.285 223.415 295.522 222.782Z" fill="#E7EAEE"/>
<path fill-rule="evenodd" clip-rule="evenodd" d="M21.7845 135.36C21.5143 137 21.215 138.502 20.9842 140.014C20.8379 140.972 20.8052 141.947 20.7008 142.912C20.5304 144.487 20.2309 146.057 20.1852 147.635C20.0744 151.455 20.1092 155.28 20.0277 159.101C19.949 162.787 20.6594 166.355 21.5186 169.905C21.6855 170.595 21.736 171.408 22.1451 171.922C22.773 172.712 22.19 173.094 21.7492 173.215C21.3281 173.331 20.5065 173.125 20.3377 172.807C19.875 171.938 19.5616 170.955 19.3719 169.982C18.8914 167.516 18.3089 165.045 18.1399 162.55C17.9112 159.176 18.0698 155.776 17.9906 152.389C17.8946 148.283 18.4995 144.252 19.0635 140.204C19.9945 133.523 21.3257 126.937 23.4369 120.525C23.6918 119.751 24.264 119.003 24.8733 118.443C25.6175 117.758 26.764 118.384 26.928 119.417C27.1221 120.64 26.5649 121.576 25.8931 122.5C23.8706 125.283 22.8595 128.456 22.3253 131.808C22.1439 132.947 21.9647 134.086 21.7845 135.36Z" fill="#E7EAEE"/>
<path fill-rule="evenodd" clip-rule="evenodd" d="M35.4201 164.492C35.3248 165.331 36.8345 166.338 35.1513 166.654C34.6961 166.74 33.7002 165.831 33.4908 165.214C32.8565 163.346 32.2424 161.417 32.0719 159.477C31.8365 156.796 32.0129 154.084 32.0129 151.385C32.0129 151.072 32.0129 150.759 32.0129 150.445C32.0129 146.196 32.0322 141.947 31.9999 137.698C31.9913 136.572 31.7278 135.444 31.7607 134.321C31.7849 133.495 31.9562 132.61 32.3362 131.878C32.6077 131.356 33.3093 130.777 33.8656 130.731C34.2478 130.7 35.0146 131.505 35.0769 131.997C35.24 133.285 35.1743 134.609 35.0781 135.911C35.0033 136.922 34.6483 137.916 34.5873 138.926C34.4349 141.451 34.3684 143.98 34.287 146.508C34.1815 149.781 33.8833 153.064 34.0662 156.323C34.2174 159.017 34.9468 161.681 35.4201 164.492Z" fill="#E7EAEE"/>
<path fill-rule="evenodd" clip-rule="evenodd" d="M48.3036 159.04C45.746 155.086 43.8396 150.909 42.6467 146.426C42.4062 145.522 42.6152 144.376 42.9543 143.476C43.1171 143.043 44.2484 142.558 44.6147 142.75C45.1115 143.012 45.507 143.877 45.5756 144.525C45.8403 147.026 46.0107 149.502 46.8355 151.935C47.8377 154.892 49.5566 157.36 51.2215 159.894C51.568 160.422 52.6045 160.943 51.8735 161.613C51.145 162.28 50.4048 161.506 49.8555 160.894C49.3391 160.318 48.8631 159.704 48.3036 159.04Z" fill="#E7EAEE"/>
<path fill-rule="evenodd" clip-rule="evenodd" d="M60.0428 150.568C58.5046 149.071 56.9643 147.707 55.5871 146.186C54.8708 145.395 55.0051 144.389 55.8661 143.634C56.7247 142.882 57.2618 143.584 57.7564 144.157C59.6278 146.325 61.4729 148.516 63.3196 150.706C63.4242 150.831 63.5351 151.143 63.5086 151.161C63.2067 151.371 62.8164 151.756 62.5688 151.68C61.723 151.422 60.9248 150.997 60.0428 150.568Z" fill="#E7EAEE"/>
<path fill-rule="evenodd" clip-rule="evenodd" d="M141.074 332.521C144.553 333.392 147.91 334.216 151.224 335.176C151.832 335.353 152.264 336.087 152.777 336.564C152.057 336.61 151.291 336.831 150.624 336.671C147.182 335.847 143.735 335.02 140.349 334.01C137.026 333.019 133.775 331.809 130.495 330.689C130.338 330.635 130.208 330.515 130.058 330.44C129.255 330.038 128.399 329.63 129.032 328.552C129.616 327.558 130.524 327.582 131.422 328.091C132.74 328.836 133.954 329.775 135.326 330.4C137.139 331.225 139.062 331.825 141.074 332.521Z" fill="#E7EAEE"/>
<path fill-rule="evenodd" clip-rule="evenodd" d="M145.623 322.279C147.036 323.094 148.392 323.821 149.717 324.602C149.998 324.768 150.166 325.135 150.386 325.409C149.916 325.596 149.345 326.059 148.994 325.926C146.182 324.853 143.404 323.687 140.633 322.509C139.11 321.862 137.605 321.167 136.121 320.433C135.291 320.022 134.345 319.592 135.063 318.32C135.512 317.527 136.577 317.33 137.567 317.87C140.226 319.323 142.891 320.763 145.623 322.279Z" fill="#E7EAEE"/>
<path fill-rule="evenodd" clip-rule="evenodd" d="M137.806 307.207C137.752 305.255 139.003 304.43 140.627 305.394C143.39 307.033 146.082 308.793 148.781 310.538C149.585 311.058 150.346 311.66 151.062 312.298C151.33 312.536 151.416 312.982 151.584 313.333C151.117 313.324 150.584 313.46 150.192 313.282C147.881 312.239 145.595 311.139 143.316 310.025C141.491 309.133 139.688 308.194 137.806 307.207Z" fill="#E7EAEE"/>
<path fill-rule="evenodd" clip-rule="evenodd" d="M147.168 293.613C149.542 293.644 150.8 295.223 152.156 296.62C152.546 297.022 152.861 297.523 153.095 298.03C153.326 298.533 153.64 299.22 152.996 299.56C152.706 299.713 152.064 299.41 151.676 299.168C150.563 298.474 149.515 297.682 148.406 296.98C148.008 296.727 147.452 296.704 147.077 296.432C146.529 296.034 146.081 295.506 145.59 295.033C146.072 294.56 146.555 294.087 147.168 293.613Z" fill="#E7EAEE"/>
<path fill-rule="evenodd" clip-rule="evenodd" d="M154.759 255.058C156.717 259.121 158.287 263.312 158.81 267.832C159.091 270.256 159.412 272.678 159.604 275.109C159.779 277.317 159.913 279.539 159.864 281.75C159.805 284.395 159.519 287.035 159.357 289.679C159.244 291.517 159.225 293.363 159.069 295.197C158.85 297.777 158.499 300.346 158.286 302.927C158.125 304.88 158.018 306.845 158.022 308.804C158.027 311.034 158.187 313.263 158.271 315.493C158.367 318.038 158.152 320.639 158.613 323.115C159.303 326.82 160.249 330.511 161.476 334.073C163.282 339.311 166.405 343.863 169.851 348.149C171.979 350.796 174.435 353.146 177.894 354.059C177.939 354.071 177.978 354.487 177.889 354.565C176.613 355.681 175.025 355.227 173.68 355.047C170.671 354.646 167.695 353.935 164.739 353.212C157.229 351.376 149.729 349.495 142.242 347.568C138.594 346.628 134.986 345.534 131.353 344.535C130.819 344.389 130.13 344.145 129.71 344.35C127.592 345.389 125.956 344.248 124.399 343.192C120.986 340.879 119.051 337.52 118.047 333.573C116.663 328.129 117.776 322.932 119.785 317.896C121.11 314.575 122.69 311.35 124.277 308.142C125.887 304.886 127.908 301.876 130.358 299.186C131.186 298.277 132.193 297.532 133.092 296.686C134.326 295.524 134.391 293.931 134.492 292.414C134.61 290.655 134.344 288.854 134.596 287.123C135.454 281.241 138.049 275.96 140.779 270.79C142.139 268.212 143.868 265.762 145.787 263.568C147.211 261.94 149.083 260.622 151.289 259.997C151.965 259.805 152.156 259.65 151.652 258.807C150.922 257.586 149.895 256.167 151.186 254.533C152.73 252.987 153.845 253.161 154.759 255.058ZM156.811 267.324C156.758 267.376 156.67 267.422 156.658 267.483C156.559 267.999 156.547 268.545 156.37 269.032C155.59 271.183 154.986 273.439 153.906 275.433C151.74 279.432 148.975 283.034 145.709 286.222C142.861 289.002 139.972 291.739 137.149 294.543C135.539 296.141 133.882 297.725 132.496 299.509C130.271 302.37 127.934 305.22 126.231 308.391C124.253 312.075 122.771 316.048 121.339 319.992C120.44 322.47 119.83 325.096 119.453 327.708C119.048 330.515 119.589 333.315 120.859 335.873C121.794 337.759 123.112 339.322 125.27 340.002C127.851 340.815 130.386 341.776 132.961 342.609C138.675 344.458 144.37 346.379 150.135 348.057C154.451 349.313 158.853 350.283 163.239 351.285C165.723 351.852 168.249 352.236 170.763 352.668C170.961 352.702 171.207 352.463 171.43 352.352C171.318 352.193 171.22 352.02 171.091 351.876C170.173 350.859 169.15 349.919 168.345 348.82C166.127 345.795 163.698 342.869 161.904 339.601C158.72 333.801 156.586 327.583 156.108 320.894C155.96 318.834 155.753 316.779 155.573 314.452C155.573 311.87 155.469 309.282 155.605 306.707C155.721 304.499 156.118 302.306 156.381 300.105C156.57 298.515 156.634 296.901 156.946 295.336C157.542 292.345 157.261 291.137 154.717 289.431C153.535 288.638 152.049 287.873 151.991 286.212C151.967 285.51 152.53 284.676 153.061 284.132C153.222 283.968 154.356 284.425 154.726 284.866C155.564 285.865 156.196 287.034 156.929 288.123C157.047 288.298 157.25 288.416 157.414 288.561C157.52 288.379 157.703 288.205 157.72 288.016C157.834 286.75 157.99 285.48 157.983 284.212C157.973 282.583 157.811 280.955 157.735 279.326C157.634 277.142 157.562 274.957 157.459 272.773C157.386 271.219 157.298 269.664 157.178 268.112C157.156 267.842 156.938 267.586 156.811 267.324ZM151.254 261.761C148.36 262.759 146.37 264.884 144.804 267.341C141.68 272.246 139.192 277.49 137.567 283.081C136.81 285.685 136.488 288.423 137.501 291.098C137.561 291.255 137.978 291.451 138.007 291.42C141.881 287.326 145.773 283.247 149.579 279.089C153.463 274.847 154.929 269.785 154.204 264.113C153.875 261.539 153.693 261.474 151.254 261.761ZM359.279 211.118C360.496 211.249 361.887 211.878 362.755 212.735C364.947 214.899 366.89 217.317 368.927 219.637C370.177 221.06 371.428 222.482 372.657 223.922C375.249 226.957 377.82 230.009 380.414 233.043C381.219 233.985 382.081 234.878 382.89 235.818C383.121 236.087 383.257 236.44 383.437 236.754C383.182 236.545 382.907 236.357 382.675 236.125C376.548 229.99 370.444 223.83 364.29 217.723C362.275 215.723 359.985 214.031 357.22 213.242C354.307 212.411 351.338 212.129 348.286 212.629C346.748 212.881 345.134 212.621 343.557 212.684C340.049 212.824 336.545 213.055 333.037 213.184C330.981 213.26 328.918 213.14 326.864 213.235C324.666 213.337 322.475 213.585 320.281 213.774C318.263 213.947 316.244 214.11 314.229 214.307C312.632 214.463 311.042 214.682 309.446 214.84C307.417 215.04 305.379 215.161 303.355 215.401C301.639 215.605 299.94 215.941 298.23 216.198C296.329 216.483 294.422 216.731 292.521 217.018C289.594 217.459 286.669 217.914 283.748 218.394C283.639 218.411 283.46 218.834 283.522 218.923C284.062 219.702 284.619 220.476 285.23 221.201C288.28 224.823 291.371 228.41 294.404 232.046C297.842 236.169 301.172 240.385 304.669 244.457C307.124 247.314 309.543 250.261 313.007 252.022C313.118 252.079 313.217 252.159 313.321 252.228C313.195 252.249 313.055 252.318 312.944 252.285C310.828 251.664 308.62 251.409 307.075 249.408C304.222 245.714 301.15 242.191 298.216 238.558C294.585 234.065 291.133 229.417 286.82 225.525C286.469 225.209 286.102 224.88 285.685 224.672C284.761 224.211 283.911 224.057 283.191 225.149C281.756 227.325 280.191 229.414 278.758 231.591C277.802 233.043 278.112 233.754 279.841 234.93C284.393 238.027 289.336 240.232 294.625 241.734C296.828 242.36 299.012 243.153 300.577 245.007C300.688 245.138 300.807 245.263 300.922 245.391C300.736 245.373 300.537 245.392 300.366 245.332C293.243 242.813 286.112 240.317 279.013 237.732C277.846 237.307 276.773 236.555 275.754 235.818C275.104 235.348 275.134 234.643 275.559 233.886C277.018 231.288 278.413 228.653 279.819 226.025C279.914 225.847 279.955 225.435 279.922 225.423C279.564 225.301 279.169 225.122 278.816 225.176C277.342 225.4 275.857 225.612 274.418 225.988C271.169 226.836 267.942 227.773 264.714 228.699C264.525 228.754 264.402 229.036 264.248 229.213C265.065 229.851 265.881 230.488 266.765 231.194C270.187 234.171 273.543 237.077 276.892 239.991C278.686 241.552 280.469 243.126 282.257 244.694C282.33 244.758 282.407 244.819 282.482 244.882C282.313 244.909 282.129 244.995 281.977 244.957C279.805 244.408 277.677 243.855 275.9 242.288C271.656 238.548 267.309 234.926 263.028 231.228C262.148 230.468 261.293 229.65 260.568 228.744C259.66 227.608 259.867 226.823 261.302 226.27C262.434 225.833 263.672 225.633 264.881 225.439C268.485 224.863 272.096 224.325 275.709 223.807C277.296 223.579 278.897 223.446 280.489 223.248C280.774 223.213 281.045 223.071 281.322 222.978C281.185 222.754 281.079 222.5 280.904 222.311C279.51 220.806 278.103 219.312 276.699 217.815C276.575 217.684 276.444 217.559 276.316 217.431C276.516 217.383 276.713 217.319 276.916 217.289C280.615 216.743 284.314 216.193 288.015 215.661C290.446 215.311 292.875 214.949 295.313 214.663C297.808 214.37 300.311 214.132 302.814 213.925C305.054 213.74 307.302 213.662 309.54 213.476C310.975 213.356 312.396 213.074 313.83 212.958C315.623 212.813 317.426 212.79 319.222 212.667C321.465 212.513 323.703 212.288 325.946 212.138C327.832 212.012 329.723 211.978 331.609 211.85C333.13 211.748 334.643 211.524 336.164 211.431C337.651 211.342 339.143 211.351 340.633 211.316C344.49 211.226 348.347 211.116 352.204 211.052C354.565 211.013 356.945 210.867 359.279 211.118ZM134.919 202.013C135.949 202.121 137 201.981 138.037 202.043C140.564 202.192 143.087 202.425 145.614 202.566C147.967 202.698 150.331 202.671 152.677 202.87C155.079 203.074 156.517 204.077 156.363 206.956C156.224 209.552 156.177 212.153 156.084 214.752C155.999 217.171 155.904 219.589 155.82 222.007C155.808 222.365 155.821 222.725 155.844 223.082C155.864 223.392 155.915 223.7 155.952 224.008C155.863 224.009 155.707 224.035 155.695 224.005C155.568 223.671 155.404 223.336 155.364 222.987C155.223 221.767 155.132 220.541 155.014 219.318C154.839 217.493 154.662 215.669 154.479 213.845C154.385 212.923 154.279 212.002 154.171 211.081C154.104 210.509 154.038 209.935 153.937 209.369C153.894 209.128 153.761 208.903 153.668 208.67C153.479 208.778 153.252 208.848 153.107 208.999C151.334 210.841 150.122 212.99 149.657 215.547C149.606 215.827 149.437 216.085 149.322 216.353C149.228 216.116 149.15 215.87 149.037 215.643C146.966 211.498 143.703 208.745 139.248 207.803C137.212 207.373 135.014 207.739 132.89 207.726C131.82 207.72 131.643 208.334 131.736 209.247C131.939 211.234 132.091 213.227 132.281 215.215C132.539 217.921 132.817 220.625 133.08 223.33C133.264 225.229 133.415 227.131 133.631 229.026C133.691 229.559 133.934 230.07 134.086 230.593C134.157 230.837 134.212 231.087 134.274 231.335C134.002 231.146 133.56 231.008 133.487 230.759C133.121 229.505 132.852 228.222 132.546 226.949C132.191 225.471 131.833 223.994 131.476 222.381C131.119 219.865 130.629 217.495 130.438 215.1C130.169 211.716 129.652 208.294 130.405 204.925C130.832 203.017 133.009 201.815 134.919 202.013ZM127.665 208.663C128.222 208.859 128.642 209.453 129.121 209.873C128.79 210.258 128.515 210.72 128.117 211.011C127.245 211.647 126.207 212.079 125.425 212.804C123.567 214.524 124.446 217.944 126.374 218.847C127.263 219.263 128.152 219.688 129.011 220.164C129.321 220.336 129.545 220.669 129.808 220.929C129.488 220.938 129.167 220.946 128.847 220.954C126.789 221.008 125.245 220.057 124.092 218.402C122.355 215.908 123.277 213.471 125.323 211.52C125.515 211.336 125.69 211.132 125.887 210.954C126.141 210.723 126.408 210.509 126.67 210.288C126.161 210.223 125.6 209.985 125.153 210.124C123.483 210.642 122.535 212.037 122.028 213.564C120.287 218.807 124.403 223.054 129.072 222.507C129.566 222.45 130.098 222.739 130.613 222.868C130.489 222.946 130.375 223.053 130.24 223.097C126.33 224.371 122.999 222.926 121.111 219.15C120.98 218.889 120.802 218.653 120.646 218.271C119.743 213.64 121.672 210.186 125.907 208.805C126.462 208.624 127.154 208.482 127.665 208.663ZM132.426 203.406C131.597 203.596 131.306 204.491 131.745 205.286C132.345 206.374 133.271 206.415 134.387 206.304C136.147 206.13 137.941 205.994 139.696 206.144C141.921 206.334 144.111 206.942 146.335 207.152C148.188 207.327 150.07 207.188 152.073 207.052C152.855 207.007 153.637 206.948 154.421 206.92C155.362 206.885 155.9 206.131 155.393 205.325C155.081 204.83 154.44 204.316 153.893 204.247C151.606 203.962 149.302 203.794 146.999 203.676C145.37 203.593 143.732 203.726 142.103 203.645C139.638 203.523 137.179 203.265 134.713 203.138C133.956 203.099 133.172 203.235 132.426 203.406ZM254.446 193.613C257.17 193.667 259.886 194.108 262.604 194.39C262.807 194.411 263.025 194.474 263.195 194.585C263.549 194.816 263.876 195.092 264.214 195.35C263.782 195.393 263.351 195.447 262.919 195.476C260.207 195.662 257.497 195.859 254.784 196.009C254.333 196.034 253.866 195.744 253.415 195.768C250.612 195.918 247.812 196.14 245.009 196.281C244.379 196.312 243.731 196.011 243.101 196.043C240.387 196.183 237.678 196.408 234.965 196.555C234.469 196.582 233.957 196.289 233.461 196.315C230.658 196.463 227.859 196.685 225.056 196.828C224.47 196.858 223.868 196.559 223.282 196.59C220.569 196.732 217.86 196.957 215.146 197.102C214.606 197.131 214.048 196.835 213.507 196.863C210.704 197.009 207.905 197.228 205.102 197.376C204.606 197.402 204.094 197.11 203.598 197.136C200.795 197.284 197.996 197.5 195.193 197.65C194.742 197.674 194.275 197.385 193.823 197.409C191.021 197.559 188.221 197.781 185.418 197.922C184.788 197.954 184.14 197.652 183.51 197.685C180.796 197.824 178.087 198.05 175.374 198.197C174.878 198.224 174.366 197.931 173.87 197.957C171.067 198.105 168.268 198.324 165.465 198.47C164.924 198.498 164.367 198.202 163.826 198.231C161.068 198.376 158.313 198.598 155.555 198.743C155.015 198.772 154.457 198.476 153.916 198.504C151.113 198.65 148.314 198.872 145.511 199.017C144.97 199.045 144.413 198.749 143.872 198.778C141.159 198.923 138.45 199.144 135.737 199.291C135.241 199.318 134.728 199.025 134.232 199.051C131.43 199.199 128.63 199.413 125.827 199.566C125.421 199.588 124.998 199.299 124.593 199.324C122.281 199.466 119.974 199.682 117.662 199.827C116.089 199.925 114.506 199.883 112.936 200.019C110.694 200.213 108.448 200.428 106.229 200.796C104.493 201.084 102.811 201.71 101.075 201.984C100.585 202.062 99.8643 201.532 99.4968 201.075C99.3413 200.882 99.6914 199.995 100.04 199.708C101.469 198.532 103.188 198.333 105.102 198.487C106.294 198.396 107.351 198.31 108.407 198.212C110.325 198.034 112.239 197.792 114.161 197.68C116.697 197.533 119.239 197.399 121.778 197.412C126.041 197.434 130.302 197.635 134.565 197.647C137.733 197.656 140.901 197.49 144.07 197.391C146.744 197.308 149.418 197.209 152.092 197.12C154.901 197.026 157.71 196.939 160.518 196.845C163.193 196.756 165.868 196.692 168.54 196.565C171.718 196.414 174.892 196.185 178.069 196.043C178.746 196.013 179.436 196.307 180.113 196.282C184.144 196.133 188.173 195.929 192.203 195.756C192.936 195.725 193.674 195.793 194.405 195.744C196.803 195.582 199.198 195.363 201.597 195.223C202.137 195.191 202.696 195.491 203.236 195.46C205.68 195.319 208.119 195.095 210.563 194.948C211.013 194.921 211.482 195.215 211.932 195.188C214.331 195.041 216.725 194.816 219.124 194.676C219.664 194.644 220.223 194.944 220.763 194.913C223.207 194.772 225.646 194.543 228.09 194.402C228.63 194.371 229.189 194.671 229.729 194.639C232.083 194.499 234.432 194.266 236.786 194.129C237.371 194.095 237.975 194.399 238.56 194.365C240.914 194.228 243.263 194.002 245.617 193.853C246.022 193.828 246.446 194.118 246.852 194.094C249.385 193.944 251.919 193.563 254.446 193.613ZM254.401 59.5539C260.338 60.1031 265.931 62.0054 271.079 64.9443C274.106 66.6716 276.919 68.8077 279.675 70.9551C283.95 74.2861 287.308 78.4597 290.208 83.0106C292.37 86.4046 294.261 89.9492 295.383 93.8086C296.404 97.3174 297.317 100.885 297.887 104.487C298.298 107.089 298.055 109.792 298.131 112.449C298.21 115.165 297.925 117.843 297.636 120.544C296.93 127.138 295.692 133.597 293.84 139.968C293.036 142.733 293.616 145.594 294.143 148.393C294.605 150.846 295.456 153.137 296.761 155.268C296.919 155.525 296.906 155.885 296.972 156.197C296.638 156.176 296.285 156.214 295.972 156.123C293.708 155.461 292.974 153.616 292.434 151.594C292.046 150.144 291.696 148.664 291.105 147.293C290.429 145.725 290.166 145.874 288.682 146.613C285.625 148.134 282.519 149.579 279.347 150.841C275.05 152.55 270.531 153.436 265.96 154.152C263.479 154.541 260.973 155.297 259.105 157.108C258.236 157.95 257.563 159.145 257.193 160.304C256.729 161.756 256.623 163.286 257.486 164.788C257.998 165.678 258.535 165.829 259.386 165.595C263.515 164.46 267.614 163.199 271.782 162.23C274.984 161.487 278.284 161.175 281.517 160.555C284.873 159.911 288.252 159.753 291.651 159.769C291.907 159.77 292.162 159.837 292.418 159.873C292.186 159.927 291.956 159.985 291.723 160.033C288.563 160.679 285.401 161.314 282.244 161.973C279.383 162.57 276.53 163.205 273.669 163.804C270.472 164.474 267.264 165.092 264.074 165.794C262.517 166.137 260.961 166.533 259.46 167.062C257.366 167.801 256.708 169.099 256.593 171.474C256.463 174.146 256.925 176.647 257.568 179.127C258.722 183.58 260.7 187.639 263.899 191.072C266.588 193.958 269.619 196.295 273.474 197.291C275.552 197.828 277.725 198.166 279.869 198.247C282.541 198.349 285.14 197.849 287.674 196.783C290.85 195.448 293.304 193.35 295.124 190.542C297.124 187.458 298.44 184.047 298.914 180.394C299.307 177.362 299.718 174.299 299.694 171.254C299.66 166.861 298.75 162.576 297.051 158.486C296.946 158.232 296.534 157.874 297.343 157.85C299.486 157.788 301.612 159.741 301.64 161.967C301.666 164.003 301.734 166.045 301.626 168.076C301.431 171.756 305.362 176.567 308.603 177.397C309.311 177.579 309.375 177.328 309.202 176.962C307.226 172.783 308.438 168.698 309.612 164.66C311.877 156.865 314.982 149.374 318.091 141.883C321.132 134.557 324.051 127.181 327.003 119.82C329.507 113.575 331.971 107.315 334.474 101.07C336.883 95.0561 339.318 89.0529 341.745 83.0464C341.823 82.8541 341.951 82.6816 342.027 82.4888C342.171 82.1232 342.295 81.7496 342.427 81.3794C342.049 81.6344 341.583 81.8173 341.309 82.1553C338.066 86.1549 335.047 90.3547 331.577 94.1459C327.868 98.1978 323.842 101.98 319.763 105.671C316.85 108.308 313.624 110.602 310.531 113.041C310.241 113.27 309.907 113.441 309.593 113.639C309.623 113.275 309.69 112.909 309.677 112.545C309.583 109.757 312.172 109.507 313.729 108.289C316.074 106.456 318.512 104.733 320.778 102.81C325.002 99.2256 328.363 94.8517 331.788 90.5427C332.714 89.3778 333.705 88.2647 334.734 87.0604C337.736 83.8013 340.561 80.4999 343.638 77.4508C346.337 74.7769 349.335 72.4392 353.124 71.339C354.813 70.8483 357.883 71.9743 359.02 73.7549C360.205 75.6128 360.677 77.6502 360.671 79.8652C360.659 84.4632 359.722 88.9179 358.75 93.371C357.69 98.2298 356.661 103.098 355.48 107.928C354.787 110.761 353.972 113.584 352.952 116.315C350.524 122.811 348.06 129.299 345.376 135.693C343.849 139.332 341.961 142.833 340.04 146.289C338.975 148.205 337.402 149.665 334.872 149.55C333.835 149.503 333.169 150.709 333.026 152.181C332.819 154.322 332.642 156.481 332.201 158.58C331.306 162.829 329.401 166.692 327.116 170.353C325.39 173.118 323.471 175.764 321.689 178.497C320.455 180.389 318.821 181.916 316.582 182.034C315.179 182.108 313.721 181.219 312.298 180.732C312.066 180.652 311.862 180.437 311.693 180.243C310.996 179.445 310.459 178.267 309.589 177.929C308.776 177.613 307.592 178.409 306.613 178.31C304.938 178.142 303.538 177.274 302.515 175.875C302.315 175.603 302.088 174.968 301.871 176.012C301.281 178.841 300.534 181.642 299.738 184.422C298.286 189.489 295.597 193.846 291.489 197.163C288.942 199.219 286.008 200.581 282.57 200.77C279.084 200.961 275.958 200.016 272.839 198.63C268.424 196.668 264.544 193.994 260.918 190.821C255.718 186.268 251.775 180.814 249.068 174.554C247.554 171.053 246.666 167.27 245.641 163.575C244.608 159.85 243.308 156.279 241.171 153.013C239.234 150.053 237.822 146.818 237.286 143.315C237.108 142.147 237.505 140.848 237.824 139.658C238.458 137.29 238.807 134.9 238.272 132.502C238.005 131.307 237.274 130.223 236.85 129.053C235.151 124.362 233.364 119.698 231.858 114.945C230.82 111.668 230.102 108.28 229.411 104.907C228.969 102.747 228.831 100.524 228.569 98.3284C228.378 96.7267 228.144 95.1266 228.04 93.5187C227.892 91.2084 227.923 88.8853 227.735 86.5791C227.493 83.6046 227.934 80.6589 228.666 77.8632C229.382 75.1289 230.78 72.5365 232.12 70.0086C233.673 67.0796 235.798 64.565 238.674 62.7845C241.242 61.1944 243.983 60.0131 247.029 59.7896C249.482 59.6097 251.971 59.3291 254.401 59.5539ZM234.858 131.33C234.687 131.612 234.585 132.016 234.335 132.154C232.875 132.961 231.415 133.781 229.892 134.454C227.308 135.597 224.677 136.635 221.931 137.717C217.639 139.628 213.397 141.375 209.349 143.496C205.318 145.608 201.569 148.201 198.07 151.168C192.948 155.51 188.815 160.606 186.145 166.758C185.054 169.272 184.306 172.026 183.942 174.743C183.46 178.338 183.519 182.005 183.325 185.64C183.161 188.69 182.981 191.74 182.782 194.789C182.707 195.939 181.812 195.086 181.343 195.294C181.305 195.311 180.915 194.848 180.939 194.636C181.165 192.608 181.571 190.593 181.676 188.561C181.809 185.999 181.688 183.426 181.713 180.858C181.76 175.936 182.699 171.211 184.746 166.708C186.652 162.514 189.224 158.799 192.276 155.362C196.882 150.173 202.397 146.202 208.41 142.856C214.097 139.692 219.992 136.989 226.095 134.725C228.743 133.742 231.321 132.572 233.937 131.504C234.221 131.388 234.55 131.385 234.858 131.33ZM307.057 190.89C309.395 191.219 311.722 191.628 314.058 191.978C315.483 192.191 316.91 192.458 318.343 192.522C320.444 192.614 322.552 192.51 324.656 192.557C326.198 192.591 327.738 192.723 329.277 192.83C330.368 192.906 331.456 193.078 332.546 193.095C335.07 193.136 337.596 193.135 340.12 193.103C346.033 193.026 351.946 192.86 357.859 192.869C359.37 192.871 360.881 193.39 362.392 193.669C362.479 193.685 362.607 193.631 362.656 193.677C363.002 194.007 363.332 194.354 363.667 194.695C363.23 194.729 362.792 194.791 362.355 194.792C359.364 194.801 356.373 194.823 353.383 194.784C352.202 194.769 351.025 194.557 349.843 194.525C345.508 194.407 341.173 194.319 336.837 194.238C335.29 194.21 333.741 194.234 332.057 194.234C330.119 194.234 328.315 194.268 326.513 194.226C323.755 194.162 320.998 194.001 318.24 193.964C314.754 193.917 311.265 194.019 307.781 193.923C306.149 193.878 304.52 193.562 302.901 193.289C301.997 193.136 301.786 192.299 302.086 191.617C302.293 191.147 302.986 190.653 303.484 190.628C304.669 190.567 305.873 190.724 307.057 190.89ZM237.853 134.432C237.757 134.486 237.633 134.516 237.57 134.595C235.601 137.083 233.411 139.432 231.731 142.101C229.473 145.686 227.608 149.526 226.492 153.653C225.889 155.885 225.454 158.161 224.929 160.414C224.585 161.892 223.806 163.112 222.529 163.931C220.834 165.018 219.037 165.952 217.367 167.075C213.207 169.869 210.573 173.824 209.037 178.517C208.178 181.142 207.636 183.83 208.133 186.642C208.436 188.352 208.562 190.093 208.75 191.821C208.78 192.096 208.723 192.381 208.707 192.661C208.342 192.628 207.802 192.733 207.645 192.536C207.217 191.994 206.753 191.355 206.655 190.702C206.363 188.753 206.248 186.778 206.045 184.815C206.002 184.405 205.88 184.004 205.794 183.599C205.43 184.003 205.013 184.372 204.711 184.818C202.692 187.793 200.703 190.789 198.68 193.762C198.532 193.979 198.185 194.062 197.931 194.207C197.865 193.753 197.598 193.194 197.77 192.863C198.411 191.638 199.111 190.423 199.944 189.321C201.894 186.744 204.103 184.345 205.875 181.656C207.042 179.882 207.674 177.746 208.466 175.741C209.277 173.689 210.557 172.009 212.211 170.58C214.299 168.777 216.376 166.963 218.526 165.087C219.986 163.539 221.549 162.181 222.731 160.548C224.29 158.394 224.844 155.769 225.475 153.213C226.81 147.805 229.186 142.903 232.693 138.562C233.566 137.481 234.395 136.345 235.391 135.387C235.932 134.867 236.78 134.659 237.499 134.333C237.584 134.294 237.734 134.396 237.853 134.432ZM42.5639 86.4975C44.0738 86.8881 44.2921 88.2007 43.1371 89.203C40.5147 91.479 39.2667 94.3846 39.0746 97.7589C38.9684 99.6228 39.143 101.503 39.0395 103.367C38.6984 109.512 40.4929 115.169 43.1504 120.565C45.691 125.723 49.3905 129.972 54.6988 132.454C57.7446 133.878 61.0018 134.877 64.2094 135.931C66.9956 136.846 69.8505 137.553 72.6663 138.38C75.4288 139.193 78.1499 139.929 81.0768 138.953C82.5784 138.452 83.7049 139.796 83.1299 141.251C80.9556 146.754 79.1029 152.465 75.2834 157.106C72.9924 159.889 70.3416 162.465 67.5061 164.7C63.3433 167.98 58.5566 170.319 53.7755 172.624C49.112 174.871 44.5536 177.336 39.8695 179.538C34.5927 182.019 29.2452 184.355 23.8941 186.675C19.5771 188.548 15.219 190.328 10.8565 192.094C9.81335 192.516 8.69597 192.812 7.58425 192.996C6.47035 193.181 4.02324 191.434 3.58608 190.28C2.47668 187.35 1.72256 184.337 1.41113 181.215C1.22161 179.315 0.966504 177.421 0.673164 175.525C0.605469 175.39 0.605469 175.256 0.673163 175.054C0.785986 172.455 0.833305 169.923 0.864739 167.392C0.865604 167.322 0.695727 167.25 0.605469 167.18V166.17C0.650589 166.103 0.735269 166.103 0.735269 166.103C0.820552 163.759 0.893054 161.416 0.984041 159.073C1.01344 158.316 1.09906 157.561 1.1458 156.804C1.53389 150.522 2.2803 144.279 3.88802 138.189C5.17099 133.329 6.86507 128.601 8.92407 123.984C11.2727 118.716 14.1282 113.763 17.4183 109.054C19.0946 106.655 20.9254 104.342 22.8735 102.155C25.2173 99.5237 27.6254 96.9184 30.2521 94.5748C33.2509 91.8993 36.4735 89.4609 39.7097 87.0676C40.4303 86.5347 41.704 86.275 42.5639 86.4975ZM38.6287 90.1899C38.4767 90.2582 38.3047 90.3005 38.1755 90.3985C34.1066 93.4828 30.0623 96.5981 26.693 100.468C24.5999 102.872 22.4603 105.243 20.4841 107.74C15.6814 113.809 11.9647 120.497 9.13488 127.877C9.03882 128.152 8.92733 128.423 8.849 128.703C7.63301 133.047 6.34638 137.374 5.24295 141.747C4.75344 143.686 4.61291 145.716 4.35609 147.71C4.07348 149.905 3.75871 152.1 3.60908 154.305C3.48581 156.122 3.65188 157.956 3.5654 159.777C3.45798 162.039 3.14522 164.292 3.06942 166.554C3.01821 168.082 3.26485 169.618 3.30246 171.152C3.34789 173.006 3.27861 174.862 3.32402 176.715C3.36127 178.235 3.39774 179.766 3.60852 181.268C3.86663 183.108 4.32645 184.918 4.66224 186.748C5.14709 189.39 6.23248 190.412 8.81927 190.6C10.6323 190.731 12.0102 189.659 12.2639 187.961C12.2948 187.755 12.6198 187.395 12.6621 187.415C14.9476 188.488 16.9316 187.407 18.9346 186.557C23.1908 184.751 27.4661 182.986 31.6796 181.086C37.949 178.258 44.1924 175.372 50.4051 172.424C53.3117 171.044 56.1662 169.541 58.9643 167.954C64.425 164.857 69.4168 161.185 73.4596 156.301C76.5929 152.516 78.5297 148.213 79.6522 143.504C79.8654 142.61 79.5514 141.834 78.4823 141.604C75.5842 140.982 72.693 140.328 69.7905 139.727C63.8913 138.506 58.1888 136.804 52.8871 133.826C46.0796 130.002 41.7188 124.227 39.0999 117.093C37.8576 113.709 36.8597 110.202 36.8855 106.517C36.9049 103.75 36.6612 100.958 36.9561 98.222C37.2286 95.6937 38.0642 93.2256 38.6417 90.7287C38.6809 90.5591 38.635 90.37 38.6287 90.1899ZM152.141 130.18C153.754 131.288 155.35 132.424 156.914 133.602C157.337 133.921 157.371 134.239 157.563 133.403C157.863 132.098 159.721 131.733 160.833 132.661C163.384 134.789 164.672 137.649 165.605 140.76C166.415 143.459 166.094 146.201 166.173 148.928C166.224 150.677 167.862 151.997 169.583 152.068C170.854 152.12 172.192 152.678 173.336 153.309C176.105 154.836 177.885 157.245 178.759 160.28C179.701 163.548 178.825 166.458 176.93 169.173C175.208 171.643 173.639 174.23 171.138 176.041C169.755 177.043 168.162 177.874 167.079 179.139C165.916 180.498 164.581 181.384 162.998 181.995C159.097 183.5 154.835 181.548 152.925 178.296C151.204 175.365 147.061 176.009 145.455 178.384C144.754 179.42 144.562 180.788 144.038 181.961C143.717 182.68 144.029 182.571 144.51 182.499C146.894 182.145 149.28 181.806 151.666 181.469C151.789 181.451 151.92 181.499 152.048 181.517C151.953 181.589 151.866 181.674 151.763 181.732C149.397 183.069 146.835 183.824 144.157 184.144C142.127 184.386 140.053 184.773 138.052 184.568C136.476 184.407 134.872 183.624 133.479 182.785C131.837 181.797 131.344 180.118 131.376 178.156C131.437 174.346 132.899 171.131 135.312 168.345C136.007 167.542 137.234 167.204 138.21 166.642C138.581 166.428 139.122 166.401 138.466 165.712C135.6 162.702 133.055 159.442 131.314 155.626C131.039 155.023 130.755 154.402 130.635 153.76C130.561 153.365 130.671 152.801 130.927 152.529C131.088 152.358 131.729 152.481 132.053 152.658C132.538 152.923 132.923 153.367 133.371 153.708C134.136 154.289 134.56 154.041 134.353 153.136C133.765 150.561 134.305 148.117 135.211 145.755C135.699 144.481 136.494 143.319 137.231 142.158C137.301 142.048 138.011 142.215 138.319 142.414C138.892 142.784 139.388 143.274 139.915 143.713C139.951 143.01 139.962 142.304 140.031 141.603C140.072 141.187 140.174 140.771 140.3 140.37C140.933 138.365 141.272 138.264 142.945 139.521C143.17 139.69 143.438 139.8 143.687 139.937L143.759 139.427C143.77 139.342 143.78 139.256 143.787 139.171C143.972 136.967 143.531 134.968 141.92 133.332C141.901 133.312 142.25 132.737 142.451 132.721C144.772 132.539 147.093 132.443 149.215 133.683C149.649 133.936 150.082 134.191 150.583 134.513C150.785 134.33 151.01 134.088 151.038 133.826C151.164 132.64 151.22 131.446 151.358 130.261C151.365 130.197 151.967 130.061 152.141 130.18ZM136.681 168.553C136.628 168.651 136.595 168.767 136.521 168.845C133.881 171.632 132.65 174.943 132.747 178.782C132.8 180.867 133.912 182.403 135.997 182.783C137.322 183.025 138.697 183.014 140.052 183.051C140.215 183.055 140.482 182.674 140.545 182.43C140.944 180.879 140.916 179.15 142.578 177.961C143.042 177.782 143.506 177.604 143.969 177.422C144.18 177.339 144.553 177.264 144.562 177.16C144.581 176.939 144.475 176.596 144.305 176.49C143.85 176.209 143.353 175.899 142.84 175.828C140.478 175.5 138.803 174.255 137.842 172.112C137.384 171.093 137.136 169.981 136.793 168.911C136.755 168.792 136.718 168.672 136.681 168.553ZM142.982 178.905C142.802 179.584 142.597 180.258 142.469 180.946C142.448 181.062 142.81 181.393 142.915 181.361C143.344 181.231 143.481 179.171 142.982 178.905ZM152.773 131.646C152.917 132.141 153.122 132.627 153.194 133.132C153.359 134.278 153.26 135.374 152.135 136.049C151.235 136.588 150.561 135.94 149.949 135.467C148.56 134.392 146.918 134.252 145.287 134.047C144.396 133.936 144.355 134.302 144.646 135.069C145.075 136.196 145.608 137.394 145.574 138.547C145.553 139.27 144.629 140.016 144.012 140.658C143.438 141.257 142.887 140.974 142.432 140.383C142.362 140.292 142.137 140.321 141.984 140.294C141.995 140.537 141.963 140.791 142.023 141.022C142.38 142.391 141.869 143.715 140.433 144.502C139.439 145.047 138.738 144.216 138.134 143.572C137.679 143.088 137.637 143.382 137.445 143.751C135.767 146.961 135.575 150.32 136.465 153.771C136.687 154.629 136.292 155.056 135.584 155.023C134.759 154.985 133.95 154.66 133.127 154.495C132.746 154.419 132.348 154.425 131.958 154.393C132.064 154.769 132.113 155.173 132.285 155.515C133.709 158.348 135.539 160.91 137.915 162.992C139.317 164.221 140.177 165.298 140.135 167.417C140.08 170.185 141.553 172.448 144.108 173.953C146.143 175.152 148.307 174.902 150.453 174.976C151.552 175.013 152.351 175.393 153.004 176.264L153.264 176.612C154.605 178.41 155.931 180.201 158.33 180.83C161.036 181.539 163.509 181.255 165.595 179.349C166.03 178.951 166.034 178.002 166.053 177.302C166.057 177.175 165.176 176.951 164.69 176.897C162.747 176.679 160.793 177.172 158.831 176.641C156.06 175.892 153.513 174.787 151.413 172.787C151.017 172.41 150.684 171.967 150.321 171.554C150.96 171.705 151.6 171.851 152.236 172.01C152.395 172.049 152.577 172.096 152.691 172.202C155.661 174.938 159.146 176.131 163.174 175.813C167.262 175.49 169.368 173.344 169.579 169.757C169.796 166.052 169.081 162.463 167.376 159.104C167.129 158.618 167.132 157.944 167.191 157.375C167.423 155.166 167.977 152.935 165.605 151.364C165.207 151.1 165.096 150.216 165.069 149.609C164.988 147.809 164.421 147.137 162.664 146.973C161.592 146.874 160.991 146.232 160.746 145.226C160.676 144.934 160.679 144.624 160.648 144.323C160.363 144.58 160.001 144.79 159.805 145.103C158.811 146.694 157.328 147.679 155.769 148.631C154.979 149.113 154.724 149.058 154.528 148.164C154.436 147.744 154.095 147.378 153.866 146.988C153.646 147.301 153.418 147.608 153.208 147.928C152.931 148.349 152.736 148.849 152.387 149.196C151.143 150.433 149.885 151.665 148.544 152.793C148.252 153.038 147.376 153.042 147.154 152.801C146.861 152.484 146.9 151.816 146.886 151.297C146.872 150.78 147 150.26 147.002 149.741C147.003 149.538 146.843 149.17 146.74 149.164C146.517 149.151 146.174 149.259 146.072 149.432L145.545 150.321C145.017 151.211 144.499 152.107 144.075 153.045C142.939 155.559 142.473 158.229 142.41 160.987C142.401 161.376 141.987 161.794 141.675 162.115C141.569 162.225 141.018 162.143 140.985 162.043C140.839 161.608 140.726 161.128 140.756 160.675C140.805 159.957 140.99 159.249 141.096 158.534C141.734 154.214 143.604 150.54 146.832 147.585C146.95 147.476 147.363 147.468 147.37 147.492C147.663 148.494 147.937 149.502 148.184 150.516C148.239 150.745 148.188 151 148.186 151.243C148.402 151.145 148.644 151.081 148.831 150.943C150.873 149.432 152.507 147.571 153.678 145.304C153.961 144.757 154.356 144.269 154.699 143.754L155.301 144.851C155.501 145.217 155.698 145.585 155.887 145.956C155.959 146.099 155.845 146.335 155.914 146.482C155.966 146.59 156.268 146.713 156.302 146.678C157.345 145.601 158.347 144.483 159.406 143.423C159.812 143.017 160.577 142.347 160.77 142.465C161.4 142.851 161.862 143.528 162.339 144.133C162.448 144.271 162.272 144.621 162.373 144.782C162.557 145.077 162.951 145.564 163.08 145.514C163.735 145.26 164.393 144.929 164.921 144.476C165.132 144.294 165.014 143.728 164.911 143.203C164.368 139.767 163.012 136.73 160.536 134.241C160.38 134.085 160.219 133.933 160.06 133.779C160.018 133.986 159.976 134.193 159.933 134.4C159.697 135.54 158.47 136.227 157.584 135.536C156.467 134.665 155.58 133.503 154.513 132.56C154.036 132.138 153.359 131.944 152.773 131.646ZM247.356 159.785C247.261 159.881 247.099 159.965 247.081 160.073C247.018 160.459 246.924 160.866 246.985 161.242C247.318 163.298 247.737 165.342 248.045 167.402C248.583 170.995 249.482 174.483 251.339 177.628C251.997 178.743 253.066 179.62 253.962 180.591C254.064 180.701 254.263 180.722 254.417 180.785C254.41 180.69 254.413 180.592 254.395 180.499C254.178 179.377 254.093 178.207 253.712 177.142C252.802 174.602 251.754 172.112 250.626 169.467C249.949 167.635 249.234 165.816 248.609 163.966C248.179 162.693 247.876 161.378 247.51 160.083C247.481 159.978 247.409 159.884 247.356 159.785ZM319.762 153.751C319.757 153.873 319.501 153.975 319.381 154.106C319.057 154.462 318.679 154.789 318.437 155.195C315.772 159.667 314.371 164.592 313.287 169.626C312.999 170.962 312.743 172.305 312.472 173.914C312.382 174.684 312.2 175.458 312.225 176.224C312.255 177.116 312.246 178.114 312.638 178.868C313.738 180.979 316.689 180.919 318.5 179.807C320.175 178.778 320.98 177.119 321.887 175.553C323.434 172.884 324.725 170.064 326.332 167.434C328.517 163.857 330.673 160.294 331.658 156.163C331.954 154.92 331.321 154.073 329.995 154.111C326.873 154.201 323.839 153.586 320.801 153.016C319.779 152.824 319.803 152.771 319.762 153.751ZM168.775 153.191C168.236 155.514 168.582 157.732 169.25 159.924C170.224 163.118 171.287 166.288 170.961 169.701C170.732 172.09 169.66 173.976 167.608 175.294C167.292 175.497 167.151 175.971 166.929 176.319C167.345 176.406 167.763 176.567 168.175 176.551C168.428 176.541 168.702 176.295 168.914 176.098C170.432 174.687 172.133 173.415 173.39 171.797C174.653 170.171 175.469 168.197 176.616 166.24C176.878 164.989 177.189 163.746 177.394 162.485C177.855 159.657 176.439 156.936 173.859 155.975C172.169 155.346 170.319 155.112 169.601 153.06C169.484 152.725 169.047 152.021 168.775 153.191ZM87.0445 91.8439C90.3424 92.2356 93.6634 92.8469 96.8275 93.8375C100.219 94.8993 103.19 96.9199 105.594 99.5816C108.873 103.211 111.011 107.428 111.962 112.271C112.364 114.322 112.491 116.359 112.452 118.42C112.427 119.728 112.292 121.035 112.193 122.342C111.982 125.136 112.683 127.794 113.376 130.456C114.087 133.183 113.828 135.916 113.578 138.685C113.208 142.777 111.669 146.479 109.999 150.119C108.924 152.463 107.469 154.638 106.112 156.844C104.964 158.711 103.714 160.515 102.442 162.414C100.726 165.114 99.0512 167.732 97.4409 170.389C96.731 171.56 96.1534 172.811 95.5123 174.024C95.434 174.172 95.3558 174.33 95.241 174.448C94.8431 174.855 94.4291 175.246 94.0212 175.644C93.9827 175.063 93.7534 174.413 93.9358 173.914C95.3951 169.914 97.6441 166.345 100.083 162.881C103.036 158.686 106.173 154.604 108.267 149.869C109.642 146.758 110.728 143.557 111.111 140.16C111.333 138.192 111.582 136.217 111.627 134.241C111.672 132.279 111.48 130.311 111.38 128.346C111.375 128.249 111.205 128.07 111.196 128.076C110.976 128.201 110.723 128.309 110.565 128.495C109.725 129.485 108.923 130.507 108.082 131.496C105.945 134.008 103.342 135.699 100.058 136.43C96.8133 137.153 94.0857 136.208 91.7806 134.094C88.8595 131.414 88.9035 128.137 90.9132 125.035C92.7517 122.197 95.416 120.692 98.8428 120.21C102.193 119.739 105.234 120.67 108.276 121.662C109.4 122.029 110.092 122.423 110.145 120.833C110.206 119.033 110.095 117.209 110.352 115.438C110.683 113.161 109.889 111.173 109.247 109.106C107.977 105.015 105.522 101.814 102.238 99.1053C99.7188 97.0276 96.8923 95.5993 93.8102 94.7621C90.6285 93.8977 87.3994 93.5018 84.0146 93.8452C78.5309 94.4015 73.7659 96.5004 69.4364 99.7106C66.3695 101.985 63.9828 104.929 61.8676 108.098C61.5524 108.57 61.032 108.905 60.6083 109.305C60.0789 109.805 59.3728 109.949 58.9948 109.364C58.7079 108.92 58.6036 107.973 58.8844 107.612L59.537 106.77C60.8447 105.085 62.1785 103.402 63.7322 101.968C65.6353 100.211 67.8166 98.7323 69.9775 97.2829C73.5894 94.8603 77.547 93.2303 81.8735 92.5681C83.601 92.3037 85.3732 91.6454 87.0445 91.8439ZM139.008 170.489C138.987 170.66 138.931 170.835 138.951 171.001C139.134 172.546 140.146 173.569 141.292 174.426C141.675 174.712 142.346 174.612 142.886 174.689C142.601 174.25 142.335 173.798 142.025 173.378C141.841 173.129 141.589 172.929 141.367 172.438C140.707 171.867 140.05 171.294 139.386 170.728C139.274 170.632 139.135 170.568 139.008 170.489ZM351.741 74.7171C350.297 75.9193 348.86 77.1363 347.489 78.4197C345.24 80.525 343.815 83.2191 342.637 85.979C340.16 91.7825 337.871 97.6655 335.526 103.525C332.072 112.16 328.637 120.803 325.193 129.712C325.013 129.998 324.781 130.263 324.659 130.572C322.47 136.136 320.301 141.708 318.111 147.272C316.424 151.561 314.633 155.811 313.037 160.133C311.561 164.131 310.606 168.278 310.05 172.506C309.996 172.914 310.134 173.346 310.184 173.767C310.225 173.409 310.21 173.032 310.326 172.701C310.404 172.478 310.762 172.35 310.834 172.127C312.206 167.886 313.466 163.607 314.939 159.401C315.952 156.506 317.226 153.699 318.439 150.877C319.006 149.558 319.512 149.431 320.785 150.061C321.645 150.487 322.52 150.886 323.361 151.347C324.69 152.075 326.098 152.352 327.6 152.219C328.671 152.124 330.01 150.888 330.036 149.738C330.061 148.613 329.562 147.711 328.258 147.593C327.443 147.518 326.609 147.558 325.812 147.403C325.223 147.289 324.681 146.942 324.118 146.699C324.485 146.419 324.826 146.09 325.228 145.876C325.477 145.744 325.82 145.784 326.12 145.749C328.136 145.516 329.846 146.48 331.618 147.17C334.808 148.413 336.606 148.177 338.227 146.048C339.098 144.905 339.682 143.518 340.258 142.182C342.872 136.12 345.647 130.115 347.962 123.94C350.357 117.552 352.589 111.071 354.343 104.486C356.231 97.4012 358.298 90.3066 358.663 82.9024C358.764 80.8635 358.589 78.8898 358.006 76.8763C357.067 73.6352 354.007 72.8316 351.741 74.7171ZM240.822 139.61C240.707 139.832 240.56 140.043 240.481 140.277C239.467 143.279 239.626 146.286 241.029 149.066C242.497 151.977 244.296 154.724 245.966 157.532C246.037 157.651 246.274 157.673 246.433 157.74C246.484 157.523 246.627 157.28 246.573 157.094C246.094 155.455 245.55 153.834 245.102 152.186C245.01 151.847 245.11 151.279 245.348 151.068C245.699 150.755 246.288 150.453 246.712 150.524C247.937 150.728 248.955 152.184 249.076 153.638C249.275 156.039 249.346 158.459 249.708 160.835C250.292 164.656 251.8 168.195 253.474 171.659C253.564 171.847 253.741 171.993 253.878 172.158C254.012 171.944 254.209 171.746 254.268 171.513C254.478 170.697 254.517 169.817 254.843 169.056C255.994 166.376 255.975 163.799 254.567 161.203C253.797 159.783 253.197 158.27 252.385 156.664C251.812 155.016 251.54 153.166 250.597 151.765C249.141 149.606 247.18 147.79 245.518 145.759C244.052 143.967 242.701 142.08 241.3 140.235L240.822 139.61ZM163.996 165.193C164.305 165.721 164.543 166.21 164.934 166.496C166.404 167.57 166.239 170.463 164.793 171.354C164.469 171.554 163.91 171.385 163.459 171.387C163.459 171.021 163.347 170.61 163.478 170.297C164.393 168.094 163.443 166.289 161.043 165.711C160.668 165.62 160.326 165.391 159.969 165.227C160.297 165.025 160.619 164.811 160.956 164.624C161.316 164.425 161.689 164.248 162.058 164.064C163.446 163.372 163.668 163.487 163.996 165.193ZM166.426 153.672C166.644 154.926 166.577 156.281 166.352 157.542C166.176 158.526 163.596 159.067 162.193 158.884C160.711 158.692 159.798 157.807 158.877 156.864C158.075 156.042 157.16 155.396 156.028 155.853C154.879 156.317 154.835 157.459 154.889 158.674C154.566 160.812 153.945 162.541 152.079 163.807C149.608 165.482 146.762 164.255 145.651 162.224C145.526 161.994 145.303 161.817 145.126 161.616C144.991 161.813 144.815 161.994 144.729 162.21C144.062 163.896 143.338 165.565 142.785 167.287C142.441 168.361 142.932 168.849 144.029 168.838C144.763 168.831 145.497 168.825 146.23 168.845C146.422 168.85 146.611 168.956 146.802 169.016C146.696 169.195 146.631 169.473 146.477 169.536C145.784 169.821 144.964 170.393 144.378 170.223C142.841 169.778 141.493 168.935 141.405 167.029C141.262 163.925 142.928 161.583 144.701 159.299C146.719 156.699 149.699 155.781 152.703 154.93C156.476 153.861 160.248 152.788 164.023 151.723C164.809 151.501 166.211 152.434 166.426 153.672ZM151.996 156.087C150.65 156.621 149.319 157.209 148.033 157.871C145.812 159.015 145.579 161.036 147.428 162.639C149.351 164.306 151.82 163.741 152.546 161.359C152.953 160.023 153.04 158.592 153.271 156.936C153.334 155.933 152.702 155.807 151.996 156.087ZM157.573 157.08C157.691 157.127 157.806 157.188 157.928 157.219C159.754 157.685 161.175 160.659 160.307 162.27C160.135 162.588 159.784 162.805 159.516 163.068C159.449 162.806 159.374 162.545 159.316 162.28C159.145 161.497 158.98 160.713 158.749 159.864C158.333 159.009 157.976 158.22 157.629 157.426C157.584 157.322 157.59 157.196 157.573 157.08ZM163.249 152.55C161.735 153.078 160.278 153.771 158.528 154.395C158.483 154.598 158.339 154.846 158.408 154.998C159.281 156.912 162.559 158.261 164.523 157.54C165.682 157.115 166.323 155.646 165.941 154.293C165.676 153.355 164.122 152.245 163.249 152.55ZM302.43 106.193C305.039 106.447 307.121 107.587 308.709 109.832C309.581 111.066 308.918 112.088 308.713 113.124C307.974 116.86 307.08 120.564 306.232 124.277C305.534 127.334 304.823 130.388 304.109 133.441C303.156 137.51 302.2 141.577 301.236 145.643C300.543 148.569 299.841 151.492 299.125 154.412C299.051 154.718 298.861 154.994 298.724 155.283C298.598 154.979 298.34 154.663 298.365 154.372C298.563 152.067 298.763 149.76 299.063 147.468C299.379 145.055 299.765 142.649 300.196 140.254C300.711 137.397 301.251 134.542 301.877 131.708C303.293 125.29 305.122 118.996 307.213 112.77C308.044 110.297 305.683 108.665 303.774 108.708C302.553 108.735 301.5 109.013 300.379 109.287C300.194 109.333 299.902 108.922 299.66 108.588C299.66 108.365 299.631 108.262 299.664 108.188C299.924 107.597 298.981 106.514 300.371 106.385C301.058 106.321 301.756 106.127 302.43 106.193ZM168.607 142.11C170.244 142.134 171.881 142.352 173.516 142.336C175.855 142.314 178.087 142.812 180.176 143.733C182.013 144.542 183.71 145.662 185.537 146.712C187.668 148.609 189.29 150.732 189.913 153.45C189.995 153.807 189.602 154.27 189.429 154.685C189.15 154.435 188.695 154.23 188.617 153.93C187.132 148.175 182.951 145.374 177.491 143.969C174.508 143.201 171.49 143.39 168.463 143.66C168.071 143.695 167.192 144.214 167.159 143.18C167.129 142.231 167.932 142.1 168.607 142.11ZM246.432 61.4581C241.114 62.2129 237.181 65.2649 234.2 69.6467C230.951 74.4221 229.864 79.8496 229.722 85.427C229.62 89.409 230.096 93.4173 230.493 97.3964C230.789 100.37 231.209 103.35 231.863 106.263C232.686 109.934 233.82 113.536 234.788 117.176C236.408 123.262 238.447 129.206 241.032 134.949C243.787 141.071 247.409 146.617 252.499 151.102C254.142 152.55 256.047 153.596 258.262 153.816C261.021 154.089 263.701 153.57 266.339 152.763C271.984 151.036 277.687 149.485 283.275 147.594C288.377 145.867 291.555 142.164 292.688 136.907C293.538 132.965 294.255 128.987 294.849 124.999C295.355 121.605 295.765 118.18 295.908 114.756C296.018 112.137 295.675 109.496 295.476 106.869C295.324 104.867 295.081 102.872 294.879 100.604C294.221 96.6191 293.028 92.8054 291.457 89.0766C289.069 83.4108 285.779 78.4258 281.332 74.124C276.485 69.4347 270.691 66.4517 264.39 64.4C260.834 63.2421 257.154 62.3901 253.471 61.719C251.178 61.3011 248.726 61.1325 246.432 61.4581ZM88.0757 97.9224C87.9175 98.1695 87.7767 98.4301 87.5985 98.6618C84.2898 102.965 80.7867 107.134 77.7137 111.599C74.0878 116.868 71.0583 122.511 68.7062 128.586C67.7902 130.49 66.952 132.332 66.088 134.162C65.6306 135.131 64.6795 135.01 64.0314 134.697C63.3295 134.359 63.4162 133.644 63.8365 132.892C67.2995 126.694 70.6235 120.416 74.1667 114.265C76.3401 110.492 78.6881 106.801 81.2244 103.264C82.5812 101.372 84.4947 99.8779 86.1801 98.228C86.4041 98.0088 86.7536 97.8539 87.0656 97.807C87.3892 97.7583 87.7379 97.8769 88.0757 97.9224ZM96.9536 122.663C93.2434 123.647 91.3992 126.363 91.7206 129.935C91.9232 132.186 92.8141 133.627 94.9479 134.234C97.394 134.929 99.8362 134.611 102.14 133.684C105.444 132.356 108.146 130.347 108.966 126.315C109.052 125.229 108.739 124.435 107.772 123.728C104.342 121.221 100.722 121.663 96.9536 122.663ZM174.296 51.9491C174.206 52.0614 174.116 52.1063 174.025 52.2186C173.735 52.3494 173.376 52.325 173.166 52.4892C167.92 56.5874 164.63 61.9415 162.901 68.3028C162.08 71.3237 161.708 74.4046 161.844 77.5123C162.084 82.9813 163.8 87.9796 166.911 92.5281C170.309 97.4976 174.824 101.155 180.215 103.721C183.304 105.191 186.583 106.25 190.056 106.435C191.619 106.518 193.218 106.261 194.751 106.489C197.696 106.927 200.437 106.134 203.157 105.343C208.636 103.75 213.457 100.997 217.587 97.0172C220.633 94.0816 223.269 90.8903 225.009 87.019C225.043 86.9431 225.085 86.871 225.124 86.7971C225.176 86.8974 225.283 87.0049 225.271 87.0969C225.012 89.0621 225.138 91.0521 223.74 92.8061C219.414 98.2349 214.397 102.809 207.897 105.465C205.116 106.601 202.147 107.33 199.211 108.022C197.444 108.438 195.57 108.615 193.754 108.567C189.157 108.446 184.723 107.476 180.479 105.65C175.949 103.701 171.983 100.963 168.603 97.4074C164.672 93.2721 161.928 88.459 160.768 82.8629C160.307 80.6339 159.94 78.3299 159.971 76.066C160.069 68.9938 162.148 62.4735 166.266 56.6843C167.388 55.1067 168.897 53.796 170.267 52.3993C170.912 51.7411 173.778 51.4237 174.296 51.9491ZM180.076 52.0174C180.144 52.0253 180.204 52.1085 180.267 52.1567C180.15 52.1985 180.034 52.245 179.915 52.2813C175.3 53.6905 172.012 56.7207 169.815 60.9163C168.469 63.4876 167.74 66.2818 167.329 69.1961C166.494 75.1203 167.861 80.575 170.705 85.6582C174.219 91.9385 179.188 96.7181 186.066 99.1925C188.26 99.9817 190.527 100.829 192.815 101.036C198.311 101.532 203.589 100.548 208.482 97.7934C212.129 95.7407 215.126 92.9936 217.814 89.8047C220.931 86.106 222.704 81.795 223.807 77.1874C224.193 75.5722 224.028 73.8253 224.129 72.1394C224.147 71.8235 224.235 71.5118 224.292 71.1981C224.661 71.3888 225.231 71.4894 225.364 71.7866C225.838 72.8454 226.568 74.0135 226.459 75.0627C226.235 77.2196 225.694 79.3821 224.994 81.4431C223.175 86.792 219.962 91.254 215.792 95.0108C211.912 98.5063 207.438 100.949 202.348 102.174C200.625 102.589 198.881 103.066 197.127 103.167C195.503 103.261 193.838 102.977 192.217 102.703C190.057 102.34 187.851 102.036 185.79 101.335C180.099 99.3994 175.325 96.1102 171.476 91.3938C168.401 87.6256 166.625 83.3446 165.773 78.6498C164.77 73.1256 165.668 67.7732 167.712 62.6056C169.095 59.109 171.112 56.0103 173.875 53.4275C174.084 53.2321 174.2 52.936 174.359 52.5518C174.448 52.3719 174.538 52.327 174.628 52.282C176.399 51.2713 178.246 51.8046 180.076 52.0174ZM382.92 100.191C384.771 100.211 386.619 100.463 388.469 100.608C390.721 100.784 392.972 101.006 395.228 101.093C397.386 101.176 399.553 101.058 401.712 101.133C402.776 101.171 403.86 101.359 404.871 101.659C405.216 101.762 405.366 102.418 405.605 102.822C405.276 102.919 404.954 103.045 404.617 103.107C404.227 103.18 403.825 103.198 403.36 103.177C398.871 103.031 394.45 102.915 390.028 102.88C388.238 102.866 386.445 103.097 384.654 103.086C383.776 103.081 382.896 102.795 382.024 102.61C381.114 102.417 380.843 101.662 381.182 101.111C381.473 100.637 382.323 100.185 382.92 100.191ZM193.404 55.7507C194.416 60.576 195.353 65.4178 196.345 70.2476C196.854 72.7271 196.249 73.7562 194.117 74.9602C191.3 76.5508 188.574 78.3228 185.881 80.13C184.533 81.0352 183.426 81.3503 182.687 80.635C181.99 79.9596 181.875 79.3649 182.806 78.7314C185.719 76.7487 188.644 74.7799 191.46 72.6596C192.073 72.1979 192.625 71.0958 192.562 70.3456C192.331 67.6058 191.843 64.8878 191.421 62.1665C191.245 61.031 190.992 59.908 190.774 58.6435C190.67 57.528 190.371 56.5127 190.533 55.5815C190.634 54.9978 191.37 54.2008 191.924 54.1009C192.907 53.9236 193.239 54.965 193.404 55.7507ZM379.053 44.4761C379.217 44.6477 379.307 45.1153 379.192 45.2859C378.637 46.1044 378 46.8678 377.324 47.7182C375.144 50.6898 373.059 53.614 370.888 56.4739C370.604 56.8484 369.684 57.2053 369.394 57.0285C368.657 56.579 369.321 56.0994 369.627 55.5899C371.656 52.2091 373.619 48.7898 375.63 45.3983C376.556 43.8366 378.062 43.4401 379.053 44.4761ZM317.219 0.786226C317.575 0.815963 317.973 1.24466 318.213 1.5983C319.092 2.89574 318.63 4.35416 318.455 5.70207C318.15 8.0539 317.597 10.3721 317.167 12.708C316.965 13.7989 316.808 14.898 316.63 16.1285C316.275 17.9592 315.889 19.6489 315.572 21.3519C314.996 24.4451 314.482 27.5501 313.903 30.6428C313.421 33.2229 312.899 35.7957 312.367 38.3656C311.492 42.5851 310.624 46.8063 309.689 51.0121C309.432 52.1659 308.533 52.5982 307.797 52.046C307.548 51.8598 307.3 51.3827 307.359 51.1064C308.738 44.6732 310.215 38.2614 311.553 31.8196C312.536 27.0835 313.239 22.2865 314.265 17.5607C315.242 13.0586 315.745 8.54511 315.601 3.93803C315.576 3.14115 315.949 2.29952 316.273 1.53768C316.42 1.19255 316.916 0.760837 317.219 0.786226ZM244.197 32.7347C244.457 33.173 244.723 33.6069 244.986 34.1805C245.424 36.5112 245.876 38.7013 246.295 40.8984C246.507 42.0058 246.669 43.124 246.827 44.2414C246.867 44.519 246.804 44.8124 246.788 45.0985C246.402 45.0336 245.777 45.0995 245.668 44.8819C245.105 43.7613 244.598 42.5943 244.216 41.393C243.779 40.0169 243.597 38.5471 243.104 37.1979C242.834 36.4595 242.099 35.9217 241.672 35.2278C241.302 34.6276 240.867 33.9405 240.849 33.2804C240.838 32.8568 241.472 32.1451 241.921 32.0366C242.707 31.8469 243.64 31.7943 244.197 32.7347Z" fill="#2A323C"/>
<path d="M154.588 167.22C156.186 166.791 157.342 165.926 157.171 165.287C157 164.648 155.566 164.478 153.968 164.906C152.37 165.334 151.213 166.199 151.384 166.838C151.555 167.477 152.99 167.648 154.588 167.22Z" fill="#FFB61D"/>
<path fill-rule="evenodd" clip-rule="evenodd" d="M165.588 162.025C166.729 161.597 167.386 160.733 167.151 160.094C166.93 159.455 166.086 159.284 165.171 159.712C164.166 160.14 163.271 161.005 163.266 161.644C163.275 162.282 164.357 162.453 165.588 162.025Z" fill="#FFB61D"/>
</g>
<defs>
<clipPath id="clip0_2910_8971">
<rect width="414" height="356" fill="white" transform="translate(0 0.0390625)"/>
</clipPath>
</defs>
</svg>
