<svg width="460" height="461" viewBox="0 0 460 461" fill="none" xmlns="http://www.w3.org/2000/svg">
<path fill-rule="evenodd" clip-rule="evenodd" d="M335.904 283.93C329.215 286.546 321.475 290.472 320.758 297.619C329.845 290.628 341.071 286.455 352.518 285.814C344.61 295.779 334.624 304.086 323.387 310.049C313.295 315.404 300.519 321.115 299.653 332.507C310.491 319.601 327.154 311.788 344.007 311.71C333.225 327.502 315.937 338.702 297.117 342.089C297.763 346.941 318.629 357.335 324.707 359.335C329.035 377.929 330.91 402.044 335.238 420.638C336.303 425.214 337.241 430.472 334.439 434.243C331.659 437.983 326.409 438.627 321.761 438.958C303.438 440.26 278.369 441.563 260.047 442.865C257.853 432.927 255.659 422.988 253.465 413.049C222.559 415.919 90.0626 446.281 65.7475 430.353C-28.1165 368.864 91.5765 347.918 94.1488 273.055C94.7386 255.89 43.1288 225.884 43.9482 208.344C44.4832 196.891 46.2563 185.703 51.9229 175.868C57.5896 166.034 66.5689 158.458 76.3284 152.663C62.892 149.209 52.7145 135.816 52.9868 121.945C53.2591 108.075 63.9544 95.0906 77.516 92.1669C71.122 84.5473 61.0538 81.0549 53.6996 74.3573C45.1326 66.5552 40.8276 53.9694 43.9482 42.8101C47.0688 31.6508 58.0563 22.8708 69.6331 23.3656C79.1425 23.7719 87.511 29.7864 94.1488 36.6079C104.443 47.1873 112.099 60.3147 116.239 74.4839C118.998 83.9281 129.109 88.7327 137.648 93.6202C146.188 98.5077 155.055 107.021 152.649 116.562C149.469 103.507 196.743 119.057 239.618 122.863C245.31 123.369 251.437 124.104 255.645 127.971C261.692 133.528 270.771 135.555 278.607 133.097C281.1 139.278 282.935 146.22 280.815 152.539C278.696 158.857 271.189 163.68 265.188 160.781C266.754 168.84 268.321 176.899 269.887 184.958C285.23 185.142 300.572 185.456 315.91 185.898C324.039 186.132 332.536 186.502 339.601 190.529C346.666 194.557 356.123 188.851 363.104 174.192C358.586 198.112 363.939 207.67 373.171 210.268C373.19 210.087 373.908 210.173 373.929 209.993C376.677 186.355 392.717 165.367 415.039 157.064C413.065 161.613 398.941 170.598 389.134 182.071C379.553 193.279 374.968 208.283 374.493 210.977C389.705 206.988 394.776 218.321 420.584 208.344C408.791 222.522 386.066 226.014 370.561 216.029C363.246 224.187 363.655 233.22 358.473 242.874C367.275 231.934 378.964 241.633 369.691 248.724C374.613 249.197 379.934 249.845 383.504 253.266C387.074 256.686 387.163 263.886 382.558 265.686C367.007 271.768 351.455 277.849 335.904 283.93Z" fill="#1681FE"/>
<path fill-rule="evenodd" clip-rule="evenodd" d="M310.66 230.019C311.223 228.949 311.834 227.826 312.87 227.203C313.906 226.579 315.496 226.708 316.053 227.781C316.647 228.923 315.764 230.299 314.727 231.061C313.69 231.823 312.415 232.36 311.741 233.457C315.382 235.856 319.024 238.256 322.665 240.655C325.517 242.535 328.744 245.219 328.161 248.584C327.818 250.557 326.146 252.091 324.283 252.827C322.421 253.563 320.373 253.64 318.371 253.698C304.918 254.085 291.451 254.017 278.002 253.493C277.069 253.457 276.028 253.37 275.406 252.673C274.925 252.133 274.825 251.363 274.748 250.644C273.973 243.486 273.199 236.327 272.425 229.169C272.397 228.905 272.369 228.628 272.464 228.38C272.862 227.335 274.426 227.979 275.3 228.676C281.491 233.618 291.389 233.037 296.96 227.406C298.306 226.045 300.597 226.221 302.327 227.041C304.056 227.862 305.503 229.197 307.238 230.005C307.053 229.002 307.937 227.944 308.957 227.948C309.977 227.952 310.853 229.017 310.66 230.019Z" fill="white"/>
<path fill-rule="evenodd" clip-rule="evenodd" d="M94.0105 151.013C94.0105 151.013 92.5077 133.012 96.2905 127.225C100.073 121.438 114.482 119.696 114.482 119.696C114.482 119.696 153.975 119.18 175.313 119.996C196.651 120.811 239.327 124.468 239.327 124.468C239.327 124.468 244.872 125.678 247.365 127.225C249.857 128.772 253.335 133.162 253.335 133.162C253.335 133.162 260.901 134.265 264.665 134.415C268.428 134.565 271.877 133.901 271.877 133.901C271.877 133.901 276.673 147.89 273.282 154.558C269.891 161.226 258.506 160.192 258.506 160.192L262.536 185.145C262.536 185.145 257.745 187.41 255.126 190.249C252.507 193.089 251.454 197.16 251.454 197.16L259.239 273.054C259.239 273.054 261.528 276.999 266.446 278.497C271.364 279.995 282.446 280.123 282.446 280.123C282.446 280.123 282.051 287.776 282.446 291.069C282.841 294.362 283.193 296.167 283.193 296.167L291.536 355.892C291.536 355.892 283.427 357.367 275.403 359.313C267.379 361.26 251.454 365.615 251.454 365.615C251.454 365.615 245.842 368.175 245.115 372.307C244.387 376.44 247.365 388.858 247.365 388.858L157.966 395.672C157.966 395.672 149.267 395.836 146.275 393.951C143.282 392.065 142.462 385.903 142.462 385.903L130.37 277.147C130.37 277.147 111.047 277.619 105.404 274.397C99.761 271.175 99.0785 259.28 99.0785 259.28C99.0785 259.28 100.016 252.538 99.0785 247.859C98.7656 246.297 94.6788 229.373 93.3059 213.27C92.529 204.158 103.251 197.16 103.251 197.16L94.0105 151.013Z" fill="white"/>
<path fill-rule="evenodd" clip-rule="evenodd" d="M157.093 125.977C156.398 126.957 156.98 128.419 157.984 129.078C158.989 129.737 160.255 129.812 161.455 129.866C174.497 130.453 187.538 131.04 200.58 131.626C201.851 131.684 203.258 131.696 204.221 130.865C205.184 130.034 205.057 128.051 203.8 127.851C189.298 125.545 174.582 124.588 159.903 124.995C158.873 125.023 157.69 125.136 157.093 125.977Z" fill="#E7EAEE"/>
<path fill-rule="evenodd" clip-rule="evenodd" d="M215.113 219.453L211.724 203.548C211.724 203.548 211.566 206.828 209.771 208.162C207.977 209.496 204.429 208.971 204.429 208.971C204.429 208.971 203.867 197.865 206.365 194.484C208.862 191.102 211.322 194.296 216.065 193.214C220.805 192.133 219.823 188.573 225.33 190.158C230.837 191.744 234.906 203.529 234.906 203.529C234.906 203.529 230.588 204.976 228.751 204.605C226.914 204.234 227.362 202.006 227.362 202.006C227.362 202.006 226.059 201.451 226.391 205.359C226.553 207.257 227.989 210.112 228.751 213.846C229.034 215.237 228.751 218.362 228.751 218.362C228.751 218.362 223.851 218.862 219.616 219.768C215.381 220.674 215.113 219.453 215.113 219.453Z" fill="#E7EAEE"/>
<path fill-rule="evenodd" clip-rule="evenodd" d="M94.7924 179.891C93.1613 179.013 91.8349 177.673 90.5348 176.353C87.1812 172.949 83.7858 169.49 81.4589 165.316C81.2373 164.919 81.0195 164.463 81.1473 164.026C81.275 163.59 81.9418 163.342 82.1911 163.722C86.2356 169.897 91.3432 175.373 97.2214 179.837C96.6929 180.548 95.5723 180.311 94.7924 179.891Z" fill="#2A323C"/>
<path fill-rule="evenodd" clip-rule="evenodd" d="M99.6783 101.744C100.642 100.751 101.156 99.4152 101.599 98.1048C102.983 94.0187 103.926 89.7834 104.406 85.4962C104.493 84.724 104.634 83.8349 105.304 83.4414C106.058 87.1174 105.125 90.9057 104.197 94.5415C103.381 97.738 102.478 101.094 100.164 103.446C99.9297 103.684 99.6307 103.926 99.3015 103.871C98.8577 103.797 98.6798 103.207 98.8382 102.786C98.9967 102.365 99.3649 102.066 99.6783 101.744Z" fill="#2A323C"/>
<path fill-rule="evenodd" clip-rule="evenodd" d="M332.257 133.805C332.715 133.683 333.183 134.044 333.383 134.475C333.582 134.905 333.597 135.395 333.686 135.861C334.034 137.683 335.677 139.178 337.523 139.354C337.753 139.889 337.244 140.424 336.842 140.846C335.925 141.804 335.347 143.079 335.229 144.4C335.153 145.257 334.973 146.45 334.112 146.439C333.421 146.43 333.117 145.593 332.868 144.948C332.26 143.373 330.888 142.112 329.266 141.64C328.925 141.541 328.782 141.106 328.876 140.764C328.97 140.422 329.229 140.154 329.476 139.9C330.542 138.807 331.623 137.513 331.612 135.987C331.606 135.161 331.459 134.019 332.257 133.805Z" fill="#FFB61D"/>
<path fill-rule="evenodd" clip-rule="evenodd" d="M364.554 277.205C363.124 278.675 362.617 280.976 363.298 282.911C362.544 283.248 361.98 282.209 361.607 281.472C361.047 280.366 359.989 279.525 358.785 279.229C360.529 278.129 361.614 276.06 361.527 274C362.227 273.543 363.012 274.495 363.213 275.307C363.415 276.12 363.718 277.176 364.554 277.205Z" fill="#E7EAEE"/>
<path fill-rule="evenodd" clip-rule="evenodd" d="M352.345 279.963C353.175 281.279 354.355 282.373 355.731 283.101C356.225 283.362 355.777 284.09 355.368 284.472C354.34 285.433 353.689 286.787 353.58 288.191C352.681 287.29 351.782 286.388 350.882 285.487C350.524 285.127 350.145 284.569 350.454 284.166C351.397 282.936 352.051 281.485 352.345 279.963Z" fill="#E7EAEE"/>
<path fill-rule="evenodd" clip-rule="evenodd" d="M292.267 121.444C293.086 116.232 295.064 111.11 298.54 107.14C302.016 103.171 307.089 100.461 312.365 100.465C317.642 100.47 322.97 103.458 325.162 108.257C326.297 110.74 326.575 113.535 326.498 116.264C326.351 121.454 324.957 126.604 322.466 131.159C320.22 135.267 316.991 138.962 312.798 141.046C308.606 143.13 303.381 143.41 299.305 141.106C296.078 139.282 293.82 136.008 292.744 132.46C291.669 128.913 291.692 125.106 292.267 121.444ZM324.514 117.5C324.61 114.268 324.076 110.931 322.377 108.181C321.344 106.509 319.897 105.094 318.201 104.1C312.733 100.893 305.291 102.616 300.75 107.038C296.208 111.46 294.24 117.996 294.037 124.331C293.928 127.711 294.292 131.176 295.729 134.237C297.165 137.297 299.794 139.915 303.069 140.756C307.354 141.856 311.876 139.785 315.236 136.907C320.842 132.104 324.297 124.879 324.514 117.5Z" fill="#FFB61D"/>
<path fill-rule="evenodd" clip-rule="evenodd" d="M346.259 117.825C345.387 118.966 344.474 120.464 345.144 121.734C345.384 122.189 344.764 122.718 344.271 122.574C343.777 122.431 343.497 121.91 343.366 121.413C343.234 120.917 343.192 120.384 342.928 119.943C342.665 119.502 342.066 119.195 341.63 119.467C341.01 119.393 340.946 118.459 341.306 117.948C341.667 117.438 342.26 117.087 342.481 116.503C342.657 116.041 342.563 115.522 342.646 115.034C342.729 114.546 343.144 114.025 343.623 114.15C343.606 115.007 343.706 115.896 344.141 116.635C344.576 117.374 345.408 117.927 346.259 117.825Z" fill="#FFB61D"/>
<path fill-rule="evenodd" clip-rule="evenodd" d="M268.213 116.136C268.896 115.342 269.752 114.664 270.758 114.375C271.763 114.086 272.929 114.238 273.715 114.93C274.569 115.682 274.837 116.938 274.655 118.062C274.473 119.186 273.907 120.207 273.31 121.176C272.537 122.434 271.697 123.651 270.795 124.821C270.513 125.186 270.204 125.563 269.772 125.725C269.202 125.94 268.567 125.731 268.004 125.496C266.029 124.671 264.193 123.512 262.598 122.085C261.137 120.778 259.789 118.862 260.381 116.993C260.758 115.803 261.91 114.941 263.146 114.757C264.381 114.574 265.661 115.009 266.644 115.78C267.114 116.149 267.824 116.589 268.213 116.136ZM261.973 116.827C261.041 118.111 262.053 119.908 263.229 120.974C264.695 122.304 266.437 123.286 268.162 124.257C268.384 124.381 268.631 124.511 268.88 124.457C269.102 124.409 269.266 124.227 269.412 124.054C270.581 122.67 271.627 121.182 272.536 119.615C273.236 118.409 273.749 116.637 272.622 115.816C271.731 115.167 270.432 115.69 269.676 116.493C268.921 117.297 268.445 118.345 267.619 119.076C266.974 118.06 266.289 117.004 265.243 116.407C264.198 115.811 262.681 115.854 261.973 116.827Z" fill="#FFB61D"/>
<path fill-rule="evenodd" clip-rule="evenodd" d="M254.855 81.0616C256.994 79.3942 259.371 78.034 261.893 77.0356C263.439 76.4235 265.203 75.9523 266.73 76.6078C269.178 77.6581 269.655 81.1734 268.367 83.5051C267.079 85.8367 264.636 87.2503 262.311 88.5492C257.75 91.0966 253.19 93.644 248.629 96.1913C249.527 94.3988 248.514 92.2947 247.684 90.4695C245.815 86.3589 244.837 81.8459 244.836 77.3304C244.836 75.904 244.943 74.4347 245.568 73.1528C246.194 71.8709 247.443 70.8078 248.869 70.7743C251.151 70.7206 252.668 73.097 253.438 75.2459C254.112 77.1277 254.588 79.0806 254.855 81.0616ZM264.521 77.7935C260.832 78.5429 257.396 80.4835 254.849 83.2548C254.598 83.5277 254.11 83.4074 253.881 83.116C253.652 82.8245 253.608 82.4337 253.565 82.0655C253.277 79.6277 252.64 77.2314 251.678 74.973C251.142 73.714 250.244 72.3236 248.875 72.3015C247.861 72.2851 246.979 73.0972 246.605 74.0399C246.231 74.9827 246.262 76.0322 246.334 77.0439C246.734 82.6863 248.219 88.25 250.683 93.3417C254.717 91.0808 258.752 88.8199 262.786 86.559C264.045 85.8536 265.326 85.1307 266.305 84.0704C267.284 83.0101 267.928 81.5368 267.643 80.1221C267.359 78.7074 265.935 77.5062 264.521 77.7935Z" fill="#FFB61D"/>
<path fill-rule="evenodd" clip-rule="evenodd" d="M226.623 360.535C238.399 359.193 250.25 358.518 262.102 358.513C264.276 358.512 266.168 356.823 267.051 354.836C267.934 352.85 268.005 350.609 268.006 348.435C268.01 340.357 267.251 332.301 266.492 324.259C266.184 320.998 265.876 317.736 265.569 314.475C265.382 312.496 265.184 310.473 264.35 308.668C262.904 305.537 259.702 303.5 256.366 302.623C253.03 301.746 249.524 301.866 246.077 301.992C234.632 302.412 223.187 302.831 211.742 303.25C218.34 300.83 225.525 300.717 232.551 300.631C237.938 300.565 243.325 300.499 248.712 300.434C254.218 300.366 260.51 300.642 264.023 304.883C266.292 307.623 266.792 311.375 267.172 314.912C268.366 326.049 269.241 337.22 269.795 348.407C269.978 352.115 269.83 356.472 266.811 358.632C265.123 359.84 262.933 360.021 260.861 360.161C248.249 361.016 235.636 361.87 223.024 362.724C220.062 362.925 216.942 363.096 214.277 361.787C213.352 361.332 212.401 360.304 212.898 359.401C216.998 361.634 221.985 361.064 226.623 360.535Z" fill="#2A323C"/>
<path fill-rule="evenodd" clip-rule="evenodd" d="M176.743 181.882C176.979 182.235 177.033 182.676 177.081 183.098C177.191 184.081 177.301 185.064 177.412 186.047C177.543 187.213 177.57 188.624 176.603 189.289C176.088 189.643 175.423 189.673 174.797 189.689C161.641 190.045 148.484 190.4 135.327 190.756C134.481 190.779 133.501 190.742 132.982 190.073C132.657 189.653 132.607 189.088 132.576 188.558C132.48 186.891 132.454 185.22 132.496 183.552C132.503 183.297 132.518 183.024 132.675 182.825C132.864 182.586 133.197 182.527 133.499 182.486C147.093 180.645 160.871 180.159 174.561 181.037C175.369 181.089 176.293 181.209 176.743 181.882ZM176.203 188.277C174.866 187.555 176.213 185.439 175.727 184C175.309 182.764 173.723 182.472 172.421 182.398C160.015 181.691 147.545 182.132 135.22 183.712C134.766 183.77 134.263 183.857 133.987 184.223C133.715 184.584 133.764 185.085 133.826 185.533C133.922 186.226 134.018 186.919 134.114 187.613C134.189 188.159 134.305 188.772 134.764 189.077C135.097 189.299 135.525 189.297 135.925 189.287C149.351 188.95 162.777 188.613 176.203 188.277Z" fill="#2A323C"/>
<path fill-rule="evenodd" clip-rule="evenodd" d="M201.489 205.174C201.552 203.714 201.614 202.254 201.677 200.793C201.799 197.946 201.948 194.992 203.272 192.468C204.595 189.944 207.452 187.982 210.226 188.638C211.961 189.049 213.56 190.412 215.305 190.046C216.825 189.727 217.757 188.225 219.04 187.352C222.1 185.27 226.365 187.204 228.895 189.905C231.622 192.815 233.395 196.606 233.88 200.565C233.921 200.901 233.942 201.278 233.726 201.539C233.547 201.754 233.253 201.829 232.98 201.892C231.927 202.133 230.873 202.374 229.82 202.615C228.923 202.821 227.993 203.027 227.092 202.841C226.19 202.654 225.325 201.959 225.253 201.042C224.984 206.168 228.822 211.065 227.753 216.086C227.355 215.868 226.957 215.651 226.56 215.434C227.498 210.399 223.011 205.525 223.948 200.49C224.072 199.823 224.339 199.114 224.935 198.791C225.531 198.467 226.473 198.835 226.449 199.512C226.412 200.597 227.583 201.408 228.669 201.399C229.755 201.39 230.742 200.807 231.67 200.243C232.001 200.042 231.91 199.545 231.772 199.184C230.746 196.49 229.396 193.921 227.762 191.547C226.657 189.942 225.326 188.356 223.49 187.704C221.654 187.053 219.229 187.718 218.553 189.545C217.762 191.683 214.773 191.828 212.578 191.211C210.383 190.594 207.919 189.631 205.96 190.799C204.323 191.775 203.774 193.855 203.468 195.737C202.941 198.966 202.698 202.24 202.742 205.511C202.831 206.01 203.467 206.171 203.974 206.158C206.645 206.089 209.124 203.983 209.624 201.359C210.344 202.186 210.601 203.308 210.833 204.379C211.639 208.091 212.445 211.802 213.251 215.513C213.499 216.656 213.21 218.411 212.059 218.204C211.538 214.156 210.766 210.141 209.749 206.188C207.825 206.626 205.902 207.063 203.979 207.5C203.389 207.634 202.729 207.758 202.213 207.443C201.5 207.007 201.453 206.009 201.489 205.174Z" fill="#2A323C"/>
<path fill-rule="evenodd" clip-rule="evenodd" d="M257.753 305.972C258.734 307.036 257.21 308.999 258.109 310.133C258.575 310.721 258.243 311.654 257.625 312.081C257.007 312.507 256.215 312.564 255.466 312.608C242.581 313.357 229.697 314.105 216.813 314.854C215.937 314.905 214.891 314.875 214.412 314.14C214.203 313.819 214.152 313.423 214.107 313.043C213.989 312.053 213.872 311.063 213.754 310.073C213.717 309.762 213.684 309.429 213.83 309.152C214.071 308.696 214.67 308.597 215.184 308.551C228.725 307.356 242.282 306.346 255.85 305.521C256.524 305.48 257.295 305.476 257.753 305.972ZM256.274 307.645C256.233 307.4 256.177 307.133 255.982 306.98C255.787 306.828 255.515 306.839 255.269 306.857C243.255 307.733 231.241 308.609 219.227 309.484C218.256 309.555 217.249 309.636 216.401 310.115C215.552 310.593 214.913 311.59 215.168 312.53C215.246 312.82 215.415 313.097 215.672 313.253C215.989 313.445 216.383 313.431 216.753 313.411C229.437 312.723 242.121 312.035 254.805 311.347C256.313 311.265 256.529 309.133 256.274 307.645Z" fill="#2A323C"/>
<path fill-rule="evenodd" clip-rule="evenodd" d="M267.918 294.434C270.198 300.435 270.926 306.895 271.634 313.276C273.28 328.099 274.926 342.922 276.572 357.746C275.347 357.847 274.783 356.274 274.63 355.055C272.137 335.11 271.334 314.908 267.117 295.255C267.384 294.981 267.651 294.708 267.918 294.434Z" fill="#2A323C"/>
<path fill-rule="evenodd" clip-rule="evenodd" d="M194.356 191.177C194.001 191.025 194.008 190.472 194.28 190.198C194.552 189.925 194.964 189.859 195.347 189.81C198.212 189.446 201.1 189.269 203.988 189.28C203.835 190.512 202.244 190.872 201.003 190.929C198.92 191.026 196.836 191.122 194.752 191.218C194.618 191.224 194.479 191.23 194.356 191.177Z" fill="#2A323C"/>
<path fill-rule="evenodd" clip-rule="evenodd" d="M210.52 341.923C210.282 337.511 210.044 333.099 209.806 328.687C209.165 316.811 208.505 304.815 205.199 293.391C204.777 291.932 204.295 290.452 203.36 289.256C201.019 286.261 196.686 285.916 192.886 285.917C178.231 285.917 163.576 287.311 149.184 290.073C147.721 290.353 146.201 290.675 145.034 291.6C143.18 293.07 142.691 295.654 142.519 298.014C142.204 302.323 142.516 306.677 143.44 310.897C142.911 310.808 142.382 310.72 141.853 310.632C139.914 306.593 139.03 302.052 139.313 297.581C139.436 295.639 139.794 293.662 140.794 291.993C143.283 287.843 148.761 286.847 153.572 286.332C165.781 285.024 178.035 284.143 190.304 283.692C195.243 283.51 200.824 283.649 204.213 287.245C205.918 289.054 206.781 291.485 207.459 293.877C209.814 302.186 210.463 310.868 211.101 319.48C211.724 327.895 212.348 336.31 212.971 344.724C213.117 346.702 213.262 348.711 212.862 350.653C211.558 356.982 204.817 360.832 198.401 361.598C191.984 362.363 185.524 360.897 179.063 360.789C170.374 360.644 161.633 362.955 153.064 361.512C150.596 361.096 147.971 360.221 146.614 358.118C145.673 356.659 145.503 354.85 145.359 353.12C144.343 340.915 143.327 328.71 142.31 316.505C142.242 315.688 142.85 314.47 143.478 314.997C144.598 326.754 145.719 338.51 146.84 350.266C146.991 351.857 147.156 353.495 147.896 354.912C148.97 356.969 151.136 358.277 153.383 358.86C155.629 359.442 157.984 359.395 160.305 359.365C170.122 359.236 179.945 359.481 189.744 360.097C193.022 360.304 196.334 360.55 199.571 360C202.808 359.45 206.02 358.007 208.03 355.41C210.892 351.712 210.772 346.592 210.52 341.923Z" fill="#2A323C"/>
<path fill-rule="evenodd" clip-rule="evenodd" d="M193.859 186.405C194.773 185.692 194.005 184.231 194.185 183.086C194.44 181.467 196.455 180.911 198.084 180.722C208.544 179.513 219.079 178.942 229.609 179.011C230.485 179.017 231.521 179.115 231.962 179.872C232.492 180.781 231.998 182.367 233.001 182.686C233.472 182.835 234.076 182.559 234.432 182.9C235.022 183.465 233.923 184.228 233.11 184.301C220.787 185.407 208.437 186.216 196.075 186.728C195.319 186.759 194.517 186.779 193.859 186.405ZM230.669 181.301C230.381 180.578 229.418 180.472 228.639 180.483C218.711 180.635 208.788 181.125 198.894 181.955C197.734 182.052 196.365 182.294 195.881 183.353C195.649 183.955 196.092 184.647 196.677 184.92C197.261 185.194 197.937 185.158 198.581 185.118C208.465 184.491 218.349 183.864 228.233 183.237C228.841 183.198 229.475 183.152 230 182.841C230.524 182.53 230.894 181.868 230.669 181.301Z" fill="#2A323C"/>
<path fill-rule="evenodd" clip-rule="evenodd" d="M243.992 326.341C245.516 327.552 244.864 330.206 246.19 331.631C246.807 332.294 247.731 332.553 248.6 332.807C249.158 332.971 249.848 333.381 249.671 333.935C249.489 334.502 248.662 334.411 248.108 334.193C246.296 333.484 244.253 332.304 244.153 330.361C244.08 328.943 243.66 327.544 242.938 326.321C243.14 325.977 243.679 326.092 243.992 326.341Z" fill="#2A323C"/>
<path fill-rule="evenodd" clip-rule="evenodd" d="M251.199 346.432C250.702 340.038 250.206 333.645 249.709 327.251C249.637 326.311 249.553 325.337 249.088 324.517C248.623 323.697 247.658 323.08 246.748 323.324C242.629 324.429 238.352 324.941 234.089 324.84C230.361 324.752 226.547 324.207 222.961 325.228C223.027 327.004 223.094 328.78 223.161 330.556C223.18 331.074 223.21 331.624 223.505 332.051C224.332 333.248 226.385 332.336 226.851 330.958C227.318 329.58 226.897 328.073 226.977 326.62C226.991 326.363 227.042 326.07 227.261 325.934C227.726 325.645 228.173 326.336 228.293 326.87C228.635 328.403 228.976 330.007 228.572 331.524C228.169 333.041 226.761 334.416 225.204 334.215C223.591 334.007 222.931 336.212 222.892 337.838C222.814 341.084 222.736 344.33 222.658 347.575C222.633 348.597 223.001 350.008 224.016 349.893C226.637 349.596 229.259 349.299 231.88 349.002C232.513 348.93 233.195 348.867 233.752 349.177C234.309 349.487 234.603 350.33 234.147 350.775C231.068 351.045 227.99 351.315 224.911 351.585C224.012 351.663 223.079 351.738 222.23 351.43C221.382 351.122 220.643 350.314 220.72 349.415C221.478 340.586 221.647 331.706 221.227 322.855C221.138 320.971 223.432 320.015 225.285 319.668C231.166 318.565 237.164 318.087 243.146 318.244C245.152 318.296 247.338 318.495 248.792 319.877C250.273 321.284 250.563 323.501 250.768 325.533C251.533 333.149 252.298 340.766 253.063 348.383C253.104 348.793 253.114 349.282 252.785 349.532C252.589 349.681 252.326 349.697 252.08 349.707C249.527 349.813 246.974 349.92 244.422 350.026C243.069 350.082 241.613 350.111 240.487 349.36C239.715 348.844 239.204 348.026 238.756 347.213C237.679 345.263 236.819 343.193 236.196 341.055C235.22 343.5 234.602 346.087 234.368 348.709C233.134 348.842 232.905 346.991 233.191 345.784C233.783 343.293 234.375 340.801 234.967 338.31C235.057 337.931 235.201 337.491 235.573 337.374C236.12 337.202 236.54 337.857 236.74 338.395C237.574 340.635 238.408 342.876 239.241 345.117C239.959 347.045 242.029 348.204 244.072 348.442C246.116 348.679 248.164 348.164 250.158 347.654C250.552 347.553 251 347.408 251.153 347.031C251.229 346.844 251.215 346.634 251.199 346.432ZM223.426 323.022C225.275 323.046 227.123 323.07 228.972 323.094C230.361 323.112 231.75 323.13 233.139 323.103C238.153 323.009 243.155 322.336 248.016 321.104C246.932 319.991 245.192 319.928 243.639 319.956C238.079 320.055 232.523 320.379 226.989 320.925C225.508 321.071 223.668 321.554 223.426 323.022Z" fill="#2A323C"/>
<path fill-rule="evenodd" clip-rule="evenodd" d="M215.151 318.234C215.045 317.656 215.795 317.34 216.375 317.25C223.082 316.21 229.879 315.751 236.665 315.878C236.763 315.88 236.863 315.882 236.953 315.92C237.271 316.053 237.256 316.554 237.004 316.789C236.751 317.024 236.379 317.064 236.035 317.09C229.573 317.574 223.016 317.325 216.685 318.707C216.097 318.835 215.259 318.825 215.151 318.234Z" fill="#2A323C"/>
<path fill-rule="evenodd" clip-rule="evenodd" d="M365.144 304.347C365.513 303.473 365.922 302.551 366.709 302.02C367.372 301.572 368.203 301.473 368.998 301.386C371.36 301.13 373.721 300.874 376.083 300.617C377.25 300.49 378.758 299.998 378.713 298.824C378.57 295.033 378.864 290.667 381.875 288.36C384.63 286.249 388.755 286.828 391.582 288.842C394.408 290.855 396.199 293.991 397.744 297.099C398.428 298.475 400.301 298.726 401.815 298.461C403.329 298.195 404.863 297.6 406.357 297.963C408.656 298.521 409.818 301.032 410.609 303.263C414.574 314.456 417.266 326.125 422.198 336.927C424.043 340.967 423.459 346.009 420.74 349.52C420.404 346.732 420.872 343.851 422.072 341.312C422.637 340.115 420.755 339.329 419.432 339.332C405.947 339.367 392.405 339.405 379.07 341.406C378.663 341.467 378.23 341.542 377.926 341.82C377.631 342.09 377.516 342.5 377.414 342.887C377.001 344.457 376.587 346.028 376.174 347.598C375.915 348.582 376.077 350.11 377.09 350.007C390.288 348.671 403.556 348.034 416.821 348.099C418.217 348.106 420.121 348.659 419.94 350.043C405.809 350.209 391.625 350.38 377.647 352.46C375.421 352.791 373.884 350.035 374.137 347.799C374.389 345.563 375.672 343.557 376.033 341.336C376.345 339.421 375.955 337.469 375.535 335.575C374.869 332.565 374.124 329.572 373.302 326.6C372.499 323.7 371.624 320.821 370.748 317.942C369.424 313.588 368.099 309.233 366.775 304.879C364.953 307.546 364.141 310.885 364.536 314.091C364.811 316.323 365.638 318.443 366.258 320.604C367.144 323.694 367.61 326.887 368.073 330.068C368.984 336.334 369.896 342.6 370.807 348.866C370.942 349.788 370.677 351.146 369.755 351.01C365.657 338.332 366.782 324.315 361.945 311.9C363.011 309.382 364.077 306.865 365.144 304.347ZM395.667 306.647C397.003 305.904 397.694 304.17 397.236 302.712C396.778 301.254 395.22 300.226 393.699 300.381C389.97 300.758 386.242 301.136 382.513 301.514C382.169 301.549 381.784 301.606 381.577 301.883C381.414 302.102 381.41 302.398 381.426 302.67C381.525 304.374 382.117 306.046 383.11 307.434C383.882 308.512 384.95 309.802 384.348 310.983C383.594 312.459 381.118 311.632 380.504 310.093C379.89 308.554 380.327 306.817 380.213 305.164C380.099 303.511 378.91 301.608 377.276 301.883C374.597 302.334 371.917 302.785 369.237 303.237C368.852 303.301 368.35 303.539 368.463 303.912C371.726 314.714 374.989 325.516 378.252 336.317C378.659 337.663 379.576 339.33 380.945 339.01C393.515 336.074 406.768 338.851 419.53 336.922C415.707 324.934 411.751 312.988 407.664 301.087C407.543 300.736 407.407 300.363 407.107 300.143C406.775 299.901 406.329 299.908 405.918 299.925C404.004 300.007 402.089 300.088 400.175 300.169C399.417 300.201 398.385 300.562 398.551 301.302C399.071 303.621 399.591 305.94 400.112 308.259C400.201 308.658 400.289 309.086 400.14 309.466C399.735 310.503 398.209 310.241 397.191 309.793C396.522 309.498 395.82 309.176 395.407 308.574C394.994 307.972 395.029 307.002 395.667 306.647ZM390.733 289.821C389.265 288.743 387.334 287.967 385.639 288.634C385.049 288.866 384.536 289.257 384.032 289.643C383.134 290.33 382.21 291.049 381.68 292.048C381.187 292.977 381.086 294.057 380.994 295.105C380.913 296.021 380.833 296.937 380.752 297.852C380.702 298.42 380.682 299.073 381.094 299.467C381.489 299.845 382.109 299.818 382.653 299.766C386.553 299.395 390.453 299.024 394.352 298.653C394.908 298.601 395.587 298.45 395.734 297.911C395.791 297.698 395.745 297.472 395.693 297.258C394.974 294.303 393.185 291.62 390.733 289.821ZM389.272 299.509C388.88 299.62 389.316 300.356 389.602 300.064C389.967 299.915 389.562 299.229 389.255 299.476L389.272 299.509Z" fill="#FFB61D"/>
<path fill-rule="evenodd" clip-rule="evenodd" d="M265.631 211.842C265.563 211.614 265.699 211.375 265.859 211.199C266.645 210.333 267.96 210.269 269.129 210.266C276.215 210.25 283.301 210.233 290.386 210.217C290.885 210.216 291.42 210.225 291.827 210.514C292.234 210.802 292.393 211.481 292.002 211.791C291.794 211.955 291.507 211.966 291.241 211.968C283.009 212.06 274.777 212.151 266.545 212.243C266.187 212.247 265.734 212.186 265.631 211.842Z" fill="#2A323C"/>
<path fill-rule="evenodd" clip-rule="evenodd" d="M268.26 219.157C267.833 218.912 267.893 218.223 268.252 217.886C268.611 217.549 269.134 217.47 269.623 217.411C272.556 217.057 275.506 216.863 278.454 216.669C280.078 216.562 281.702 216.455 283.326 216.348C285.438 216.209 287.55 216.069 289.661 215.93C290.332 215.886 291.081 215.867 291.586 216.31C292.091 216.754 291.968 217.821 291.297 217.862C283.844 218.324 276.392 218.786 268.939 219.247C268.708 219.262 268.461 219.273 268.26 219.157Z" fill="#2A323C"/>
<path fill-rule="evenodd" clip-rule="evenodd" d="M308.211 228.792C308.774 227.722 309.385 226.6 310.421 225.976C311.457 225.352 313.047 225.481 313.604 226.554C314.198 227.696 313.315 229.072 312.278 229.835C311.241 230.597 309.966 231.134 309.292 232.23C312.933 234.63 316.575 237.029 320.216 239.429C323.068 241.308 326.295 243.992 325.711 247.358C325.369 249.331 323.697 250.865 321.834 251.601C319.972 252.337 317.924 252.414 315.922 252.471C302.469 252.859 289.002 252.791 275.553 252.267C274.62 252.23 273.579 252.144 272.957 251.447C272.476 250.907 272.376 250.137 272.298 249.418C271.524 242.259 270.75 235.101 269.976 227.942C269.948 227.678 269.92 227.402 270.015 227.153C270.413 226.108 271.977 226.752 272.851 227.45C279.042 232.391 288.94 231.811 294.511 226.179C295.857 224.819 298.148 224.994 299.878 225.815C301.607 226.635 303.054 227.97 304.789 228.779C304.604 227.776 305.488 226.717 306.508 226.721C307.528 226.725 308.404 227.791 308.211 228.792ZM308.972 233.404C308.531 231.78 306.129 231.439 304.805 232.479C303.481 233.518 303.052 235.329 302.937 237.009C302.894 237.635 301.863 237.698 301.51 237.178C301.158 236.659 301.301 235.959 301.497 235.363C302.014 233.788 302.81 232.306 303.837 231.005C304.346 230.361 303.6 229.49 302.929 229.018C300.56 227.353 297.206 225.71 295.033 227.624C289.079 232.868 279.581 233.567 272.924 229.25C273.003 234.624 273.399 239.992 274.109 245.319C274.18 245.856 274.272 246.429 274.643 246.824C275.133 247.346 275.937 247.382 276.653 247.383C288.219 247.398 299.784 247.413 311.35 247.427C312.475 247.429 314.005 247.027 313.917 245.905C313.713 243.294 314.869 240.613 316.908 238.97C315.304 237.805 313.7 236.639 312.096 235.474C311.607 235.119 311.095 234.753 310.499 234.651C308.699 234.343 307.497 236.406 306.861 238.117C305.885 236.373 307.022 233.837 308.972 233.404ZM278.745 251.234C290.789 251.328 302.834 251.308 314.877 251.173C318.296 251.135 322.288 250.788 324.142 247.915C307.511 248.646 290.857 248.826 274.214 248.457C274.007 250.455 276.737 251.218 278.745 251.234ZM319.963 240.498C319.604 240.271 319.234 240.039 318.815 239.968C317.554 239.751 316.56 241.011 316.012 242.167C315.695 242.836 315.42 243.524 315.188 244.227C315.011 244.762 314.859 245.331 314.97 245.884C315.081 246.437 315.534 246.959 316.098 246.966C318.145 246.989 320.194 246.967 322.241 246.9C322.724 246.885 323.249 246.85 323.61 246.53C324.036 246.153 324.088 245.502 323.981 244.944C323.596 242.922 321.701 241.6 319.963 240.498ZM312.728 227.424C312.706 226.8 311.873 226.483 311.297 226.724C310.721 226.965 310.367 227.537 310.051 228.075C309.669 228.726 309.287 229.376 308.905 230.027C308.704 230.368 308.596 230.948 308.982 231.033C309.999 230.188 311.015 229.343 312.032 228.498C312.372 228.215 312.744 227.866 312.728 227.424ZM306.139 228.441C305.966 229.282 306.397 230.211 307.151 230.622C307.412 229.756 307.259 228.774 306.746 228.029C306.715 227.818 306.429 227.696 306.255 227.819C306.121 227.989 306.073 228.223 306.129 228.432L306.139 228.441Z" fill="#2A323C"/>
<path fill-rule="evenodd" clip-rule="evenodd" d="M264.725 203.642C264.42 202.162 264.114 200.682 263.809 199.203C263.69 198.628 263.581 197.989 263.882 197.485C264.293 196.798 265.235 196.707 266.035 196.693C285.694 196.351 305.359 196.426 325.015 196.917C326.356 196.951 327.457 198.109 327.865 199.387C328.273 200.665 328.139 202.044 328 203.378C327.925 204.099 327.806 204.903 327.232 205.344C326.761 205.706 326.118 205.715 325.524 205.709C305.782 205.493 286.04 205.278 266.298 205.062C265.972 205.058 265.629 205.05 265.353 204.876C264.951 204.623 264.822 204.107 264.725 203.642ZM267.441 197.991C265.988 197.98 264.957 199.706 265.32 201.114C265.683 202.521 267.043 203.489 268.455 203.831C269.868 204.173 271.346 204.008 272.793 203.873C290.622 202.206 308.65 205.392 326.466 203.594C326.559 202.51 326.648 201.39 326.299 200.359C325.95 199.329 325.041 198.406 323.953 198.398C305.115 198.262 286.278 198.127 267.441 197.991Z" fill="#2A323C"/>
<path fill-rule="evenodd" clip-rule="evenodd" d="M146.189 246.503C145.531 247.75 144.623 249.017 143.263 249.388C140.672 250.095 138.529 247.218 137.822 244.627C136.718 240.582 136.998 236.173 138.603 232.3C139.462 230.228 138.746 227.778 137.399 225.984C134.86 222.601 130.122 221.119 126.051 222.27C121.98 223.421 118.768 227.043 117.916 231.186C117.783 231.835 117.877 232.746 118.533 232.838C121.805 233.296 123.307 237.136 123.805 240.402C124.185 242.896 124.351 245.508 123.505 247.885C122.659 250.261 120.589 252.349 118.073 252.54C115.816 251.02 114.117 248.69 113.359 246.077C111.949 241.216 113.78 236.063 115.671 231.369C116.825 228.504 118.064 225.57 120.256 223.394C124.942 218.743 133.691 219.295 137.755 224.498C139.318 226.5 140.215 228.987 141.947 230.844C143.253 232.244 144.98 233.224 146.171 234.722C148.758 237.977 148.129 242.825 146.189 246.503ZM114.792 237.517C113.606 240.787 113.936 244.573 115.671 247.587C115.956 248.083 116.295 248.575 116.794 248.855C117.292 249.136 117.986 249.14 118.38 248.726C119.559 247.485 119.707 245.609 119.703 243.897C119.699 241.873 119.574 239.848 119.329 237.838C119.23 237.016 119.059 236.106 118.394 235.612C117.728 235.118 116.479 235.531 116.584 236.353C116.888 238.746 117.192 241.138 117.496 243.53C117.565 244.075 117.626 244.663 117.353 245.139C117.081 245.615 116.327 245.837 115.982 245.411C115.087 243.585 114.818 241.46 115.228 239.469C115.375 238.753 115.477 237.773 114.792 237.517ZM142.18 247.004C142.482 246.768 142.623 246.385 142.736 246.018C143.623 243.138 143.633 239.994 142.763 237.108C142.433 236.011 141.537 234.728 140.451 235.095C139.824 235.308 139.506 235.994 139.307 236.626C138.399 239.494 138.52 242.676 139.642 245.468C139.857 246.002 140.123 246.543 140.578 246.896C141.034 247.25 141.726 247.358 142.18 247.004ZM120.886 236.652C121.676 240.658 121.508 244.851 120.399 248.781C120.297 249.142 120.707 249.424 121.051 249.577C122.714 245.543 122.925 240.927 121.636 236.758C121.422 236.606 121.133 236.565 120.886 236.652ZM143.962 235.57C143.716 235.962 143.47 236.354 143.224 236.747C144.034 236.61 144.405 237.715 144.448 238.535C144.549 240.431 144.649 242.327 144.749 244.223C145.503 243.94 145.64 242.95 145.654 242.144C145.686 240.33 145.717 238.516 145.749 236.702C145.477 236.67 145.206 236.638 144.934 236.607C144.906 236.093 144.473 235.631 143.962 235.57Z" fill="#2A323C"/>
<path fill-rule="evenodd" clip-rule="evenodd" d="M232.894 239.01C227.489 238.753 222.061 238.987 216.698 239.71C216.224 239.774 215.693 239.828 215.311 239.538C214.93 239.249 214.972 238.481 215.448 238.428C220.811 237.839 226.197 237.46 231.589 237.292C232.175 237.274 232.832 237.284 233.25 237.696C233.668 238.108 233.48 239.038 232.894 239.01Z" fill="#2A323C"/>
<path fill-rule="evenodd" clip-rule="evenodd" d="M107.344 217.429C108.878 217.285 110.413 217.141 111.947 216.997C112.72 216.924 113.493 216.852 114.266 216.779C119.182 216.317 124.099 215.855 129.02 215.445C129.213 215.429 129.415 215.414 129.594 215.488C130.126 215.709 130.044 216.57 129.58 216.912C129.116 217.254 128.489 217.235 127.912 217.215C120.665 216.974 113.443 219.152 106.229 218.415C105.761 218.368 105.147 218.126 105.23 217.662C105.932 217.562 106.638 217.496 107.344 217.429Z" fill="#2A323C"/>
<path fill-rule="evenodd" clip-rule="evenodd" d="M272.61 376.688C272.369 374.578 272.196 372.281 270.777 370.7C269.688 369.487 270.251 367.233 271.783 366.675C273.314 366.116 275.196 367.48 275.143 369.109C275.125 369.668 274.921 370.202 274.763 370.739C273.68 374.404 274.685 378.348 276.009 381.934C277.349 385.565 279.4 389.43 283.082 390.624C287.341 392.004 292.055 388.949 293.943 384.889C295.831 380.829 295.543 376.115 294.884 371.686C294.818 371.242 294.699 370.729 294.291 370.54C292.634 369.776 292.383 367.088 293.869 366.029C295.355 364.97 297.813 366.085 297.995 367.901C298.057 368.517 297.9 369.13 297.782 369.738C296.968 373.956 298.045 378.377 297.153 382.579C296.594 385.21 295.255 387.67 293.349 389.567C291.328 391.579 288.599 392.967 285.747 393.015C281.908 393.08 278.317 390.699 276.147 387.531C273.977 384.363 273.046 380.504 272.61 376.688Z" fill="#2A323C"/>
<path fill-rule="evenodd" clip-rule="evenodd" d="M160.64 203.41C160.746 204.856 160.848 206.345 160.398 207.723C159.947 209.101 158.803 210.356 157.358 210.48C149.913 211.12 142.467 211.76 135.007 212.202C124.835 212.804 114.646 213.036 104.459 213.268C104.095 213.276 103.706 213.277 103.403 213.077C102.948 212.776 102.863 212.155 102.821 211.611C102.71 210.187 102.6 208.763 102.49 207.339C102.457 206.906 102.431 206.438 102.665 206.072C103.007 205.535 103.738 205.443 104.374 205.406C123.11 204.295 141.872 203.63 160.64 203.41ZM157.505 208.405C158.702 208.325 158.944 206.442 158.067 205.624C157.189 204.806 155.856 204.788 154.657 204.818C139.237 205.201 123.812 205.584 108.423 206.631C107.315 206.706 106.162 206.798 105.204 207.361C104.246 207.923 103.554 209.105 103.92 210.154C104.44 211.644 106.45 211.807 108.025 211.703C124.518 210.603 141.012 209.504 157.505 208.405Z" fill="#2A323C"/>
<path fill-rule="evenodd" clip-rule="evenodd" d="M141.498 239.395C141.513 239.787 141.528 240.179 141.543 240.57C141.573 241.386 141.604 242.206 141.486 243.013C140.464 242.905 140.147 241.59 140.087 240.564C140.059 240.075 140.049 239.53 140.376 239.166C140.703 238.803 141.48 238.907 141.498 239.395Z" fill="#2A323C"/>
<path fill-rule="evenodd" clip-rule="evenodd" d="M215.117 242.734C216.12 241.807 217.645 241.836 219.01 241.875C223.327 241.998 227.657 241.664 231.905 240.881C232.405 240.789 232.675 241.568 232.363 241.97C232.051 242.373 231.487 242.457 230.981 242.508C226.193 242.995 221.386 243.284 216.575 243.373C216.002 243.384 215.275 243.285 215.117 242.734Z" fill="#2A323C"/>
<path fill-rule="evenodd" clip-rule="evenodd" d="M376.285 258.92C375.812 260.521 374.239 261.512 372.739 262.245C365.232 265.917 356.407 266.816 348.313 264.733C345.595 264.034 342.498 262.415 342.382 259.611C342.297 257.549 343.942 255.822 345.685 254.717C348.358 253.022 351.475 252.166 354.582 251.562C360.577 250.397 367.075 250.157 372.501 252.958C374.775 254.131 377.01 256.467 376.285 258.92ZM344.235 259.299C344.24 261.564 346.767 262.89 348.958 263.465C356.566 265.461 364.889 264.6 371.927 261.088C373.057 260.525 374.249 259.782 374.608 258.572C375.09 256.946 373.83 255.309 372.433 254.349C368.227 251.459 362.664 251.854 357.59 252.397C353.506 252.835 349.155 253.406 346.043 256.084C345.081 256.912 344.233 258.03 344.235 259.299Z" fill="#2A323C"/>
<path fill-rule="evenodd" clip-rule="evenodd" d="M155.403 126.247C155.147 124.791 156.152 123.344 157.446 122.629C158.74 121.914 160.265 121.776 161.741 121.689C174.899 120.915 188.037 123.028 201.2 123.723C202.894 123.812 204.68 123.906 206.106 124.826C207.531 125.746 208.367 127.812 207.381 129.193C206.905 129.86 206.116 130.231 205.334 130.479C203.077 131.191 200.656 131.097 198.291 130.995C185.985 130.466 173.68 129.937 161.374 129.408C158.931 129.303 155.827 128.656 155.403 126.247ZM157.092 124.137C156.397 125.117 156.979 126.579 157.984 127.238C158.988 127.897 160.254 127.972 161.454 128.026C174.496 128.613 187.538 129.199 200.579 129.786C201.85 129.844 203.257 129.856 204.22 129.025C205.183 128.194 205.056 126.211 203.8 126.011C189.297 123.705 174.581 122.748 159.903 123.155C158.872 123.183 157.689 123.296 157.092 124.137Z" fill="#2A323C"/>
<path fill-rule="evenodd" clip-rule="evenodd" d="M299.697 113.611C301.699 109.44 304.945 105.14 309.558 104.785C312.63 104.548 315.89 105.085 318.322 106.978C322.733 110.412 323.04 117.07 321.464 122.433C319.606 128.754 315.46 134.608 309.513 137.443C308.095 138.119 306.552 138.625 304.982 138.563C300.809 138.399 297.771 134.3 296.872 130.222C295.641 124.633 297.221 118.77 299.697 113.611ZM304.886 137.036C307.97 137.456 310.877 135.492 313.052 133.266C317.13 129.094 319.868 123.632 320.77 117.868C321.03 116.207 321.138 114.483 320.686 112.864C319.797 109.679 316.778 107.377 313.538 106.715C310.422 106.078 306.998 106.838 304.597 108.922C303.442 109.924 302.546 111.189 301.763 112.502C299.21 116.784 297.759 121.767 297.937 126.749C298.017 129 298.443 131.288 299.583 133.23C300.722 135.173 302.655 136.733 304.886 137.036Z" fill="#FFB61D"/>
<path fill-rule="evenodd" clip-rule="evenodd" d="M198.555 290.629C198.965 290.607 199.405 290.593 199.752 290.812C200.181 291.083 200.338 291.623 200.461 292.115C200.732 293.193 201.004 294.314 200.786 295.404C200.568 296.494 199.708 297.54 198.598 297.589C195.766 297.713 192.934 297.836 190.103 297.96C188.992 298.009 187.691 298.167 187.139 299.132C186.765 299.786 186.876 300.598 186.999 301.341C187.346 303.448 188.327 306.112 190.461 306.034C191.88 305.983 193.146 307.06 193.757 308.342C194.368 309.624 194.459 311.084 194.54 312.501C194.617 313.836 194.276 315.66 192.939 315.694C191.862 315.721 191.564 317.177 191.598 318.255C191.837 325.75 192.075 333.245 192.313 340.74C192.351 341.948 190.803 342.456 189.601 342.577C179.527 343.594 169.348 343.567 159.279 342.497C158.918 342.459 158.457 342.317 158.449 341.954C158.263 333.485 158.076 325.016 157.89 316.548C157.879 316.054 157.637 315.372 157.161 315.502C155.66 315.912 154.151 314.519 153.841 312.995C153.53 311.471 154.063 309.915 154.588 308.451C154.831 307.774 155.103 307.056 155.684 306.632C156.924 305.726 159.217 306.371 159.772 304.94C159.864 304.703 159.882 304.444 159.873 304.19C159.795 301.978 157.736 300.233 155.566 299.796C153.397 299.358 151.161 299.934 149.048 300.593C148.564 298.766 148.44 296.844 148.685 294.97C148.743 294.528 148.833 294.063 149.13 293.73C149.554 293.256 150.26 293.19 150.895 293.156C166.781 292.314 182.668 291.472 198.555 290.629ZM156.198 307.787C155.892 308.142 155.824 308.637 155.769 309.102C155.626 310.313 155.483 311.525 155.339 312.737C155.309 312.992 155.281 313.261 155.383 313.496C155.603 314 156.268 314.086 156.818 314.1C159.734 314.173 162.651 314.245 165.567 314.317C166.059 314.33 166.575 314.337 167.012 314.11C167.714 313.746 168.003 312.757 167.606 312.072C167.963 312.036 168.32 311.999 168.677 311.962C168.52 313.019 169.596 313.904 170.653 314.059C171.71 314.215 172.773 313.892 173.838 313.808C176.071 313.631 178.3 314.507 180.525 314.244C180.759 314.217 181.009 314.168 181.173 313.998C181.387 313.777 181.383 313.43 181.365 313.122C181.281 311.646 181.197 310.169 181.112 308.692C181.086 308.227 181.046 307.727 180.747 307.37C180.32 306.86 179.556 306.844 178.891 306.869C175.681 306.994 172.47 307.118 169.259 307.242C169.035 307.251 168.787 307.27 168.631 307.432C168.457 307.613 168.469 307.898 168.493 308.148C168.601 309.297 168.709 310.446 168.817 311.595C168.391 311.637 167.973 311.761 167.594 311.96C167.499 311.055 167.404 310.149 167.309 309.244C167.223 308.418 166.899 307.361 166.07 307.35C163.42 307.314 160.77 307.279 158.12 307.244C157.431 307.234 156.647 307.265 156.198 307.787ZM171.465 316.696C171.421 316.086 171.157 315.279 170.549 315.344C166.77 315.751 162.946 315.727 159.172 315.275C159.265 323.498 159.418 331.719 159.632 339.94C159.659 340.998 160.995 341.421 162.047 341.529C165.175 341.85 168.324 341.959 171.466 341.856C171.724 341.848 172.002 341.83 172.199 341.663C172.457 341.444 172.474 341.058 172.47 340.72C172.38 332.704 172.045 324.691 171.465 316.696ZM190.362 316.243C190.259 316.065 190.023 316.029 189.819 316.011C186.568 315.736 183.301 315.659 180.041 315.78C179.745 315.791 179.429 315.811 179.195 315.991C178.84 316.266 178.818 316.785 178.828 317.235C179.007 325.441 179.187 333.648 179.367 341.854C182.956 342.201 186.61 341.862 190.074 340.861C190.289 340.799 190.518 340.725 190.657 340.549C190.808 340.36 190.818 340.098 190.821 339.856C190.889 334.576 190.752 329.296 190.616 324.018C190.552 321.531 190.488 319.044 190.423 316.557C190.421 316.449 190.416 316.336 190.362 316.243ZM150.055 295.439C149.432 296.419 150.102 297.802 151.126 298.349C152.151 298.897 153.378 298.844 154.538 298.776C161.553 298.37 168.567 297.963 175.582 297.557C182.272 297.169 188.962 296.782 195.641 296.238C196.619 296.158 197.647 296.058 198.455 295.501C199.264 294.945 199.733 293.768 199.191 292.95C198.647 292.129 197.478 292.091 196.495 292.142C181.919 292.894 167.343 293.646 152.767 294.397C151.76 294.449 150.597 294.588 150.055 295.439ZM178.093 341.663C177.601 333.652 177.503 325.617 177.801 317.596C177.818 317.135 177.833 316.656 177.649 316.233C177.113 314.998 175.386 315.002 174.055 315.208C173.447 315.302 172.67 315.593 172.715 316.207C173.286 323.879 173.857 331.564 173.729 339.256C173.712 340.274 174.295 341.281 175.187 341.773C176.079 342.265 177.241 342.221 178.093 341.663ZM193.147 312.088C192.974 311.03 192.793 309.948 192.277 309.008C191.761 308.067 190.836 307.279 189.765 307.226C187.73 307.125 185.694 307.023 183.659 306.922C183.129 306.896 182.397 307.055 182.422 307.585C182.5 309.196 182.577 310.807 182.655 312.417C182.689 313.121 182.82 313.97 183.471 314.236C183.681 314.322 183.914 314.329 184.141 314.334C186.795 314.395 189.449 314.455 192.103 314.516C192.609 314.527 193.034 314.082 193.172 313.595C193.31 313.107 193.229 312.588 193.147 312.088ZM180.298 304.151C180.033 303.032 179.756 301.887 179.12 300.93C178.484 299.972 177.405 299.224 176.259 299.308C174.492 299.438 172.725 299.568 170.958 299.698C169.857 299.779 168.61 299.937 167.965 300.833C167.185 301.916 167.72 303.427 167.509 304.745C167.435 305.208 167.797 305.652 168.23 305.832C168.663 306.012 169.15 305.991 169.618 305.967C172.781 305.804 175.944 305.641 179.107 305.478C179.572 305.454 180.129 305.37 180.314 304.943C180.421 304.696 180.361 304.412 180.298 304.151ZM185.842 302.125C185.24 301.3 185.255 300.079 185.876 299.27C184.768 298.581 183.215 298.708 182.233 299.568C181.251 300.428 180.921 301.951 181.457 303.141C181.646 303.56 181.538 304.057 181.671 304.497C181.861 305.123 182.515 305.515 183.164 305.596C183.812 305.676 184.463 305.506 185.094 305.337C185.923 305.116 186.931 304.673 186.923 303.816C186.916 303.132 186.245 302.677 185.842 302.125ZM166.074 305.06C166.442 303.858 165.948 302.488 165.005 301.658C164.061 300.828 162.74 300.505 161.489 300.617C160.986 300.662 160.462 300.787 160.098 301.137C159.734 301.487 159.604 302.116 159.932 302.5C160.174 302.784 160.589 302.867 160.842 303.14C161.229 303.558 161.098 304.225 161.276 304.766C161.676 305.987 163.335 306.102 164.616 305.986C165.054 305.946 165.538 305.884 165.826 305.551C165.947 305.412 166.02 305.237 166.074 305.06ZM166.282 301.018C166.579 300.73 166.632 300.226 166.403 299.882C165.892 299.73 165.32 300.034 165.051 300.495C165.251 300.953 165.813 301.217 166.293 301.08M180.87 299.742C180.944 299.541 180.9 299.301 180.759 299.14C180.274 298.987 179.709 299.124 179.349 299.483C179.72 299.904 180.394 300.017 180.883 299.741L180.87 299.742Z" fill="#2A323C"/>
<path fill-rule="evenodd" clip-rule="evenodd" d="M376.426 265.686C360.874 271.768 345.323 277.849 329.772 283.93C323.082 286.546 315.343 290.472 314.626 297.619C323.713 290.628 334.939 286.455 346.386 285.814C338.478 295.778 328.491 304.086 317.254 310.049C307.163 315.404 294.386 321.115 293.521 332.507C304.359 319.601 321.022 311.788 337.875 311.71C327.093 327.501 309.804 338.702 290.985 342.088C291.631 346.941 292.277 351.794 292.923 356.647C299.317 356.42 305.75 357.335 311.828 359.335C316.156 377.929 320.484 396.524 324.812 415.118C325.877 419.694 326.815 424.952 324.013 428.723C321.233 432.463 315.984 433.107 311.335 433.438C293.013 434.74 274.69 436.043 256.368 437.345C254.174 427.406 251.98 417.468 249.786 407.529C218.88 410.399 187.974 413.269 157.068 416.138C150.56 416.743 143.676 417.285 137.787 414.449C116.425 404.165 90.5226 424.071 67.9602 416.789C87.7837 416.415 107.546 412.957 126.319 406.578C133.127 404.264 141.279 397.927 137.721 391.678C120.312 403.825 97.9744 408.674 77.0953 404.839C78.3212 384.563 77.5329 364.165 74.7456 344.044C89.6017 341.919 104.243 338.292 118.373 333.236C122.303 331.829 126.347 330.211 129.146 327.114C131.944 324.017 133.076 319.013 130.617 315.64C109.125 327.092 84.3109 332.217 60.0408 330.217C61.3072 357.679 62.5736 385.14 63.8401 412.602C60.2527 385.16 58.3502 357.498 58.1468 329.823C70.64 328.716 83.1332 327.608 95.6265 326.5C93.6177 317.582 91.5962 308.461 92.6281 299.378C93.66 290.296 98.3346 281.098 106.551 277.092C100.335 263.834 90.9403 252.079 79.3785 243.092C65.8246 232.558 48.3985 224.616 42.209 208.604C38.1166 198.017 40.1239 185.703 45.7906 175.868C51.4573 166.034 60.4366 158.458 70.1961 152.663C56.7596 149.209 46.5822 135.816 46.8545 121.945C47.1268 108.075 57.8221 95.0906 71.3837 92.1669C64.9897 84.5473 54.9215 81.0549 47.5673 74.3573C39.0003 66.5552 34.6953 53.9694 37.8159 42.8101C40.9365 31.6508 51.924 22.8708 63.5008 23.3656C73.0102 23.7719 81.3786 29.7864 88.0165 36.6079C98.3109 47.1873 105.967 60.3147 110.106 74.4839C112.865 83.9281 122.977 88.7327 131.516 93.6202C140.055 98.5077 148.923 107.021 146.517 116.562C143.336 103.507 132.656 92.5638 119.682 89.0676C112.921 87.2458 110.458 79.2011 108.283 72.5459C104.051 59.5951 96.8277 47.6322 87.3367 37.8573C80.2041 30.5113 70.8786 24.1011 60.6545 24.6529C50.1293 25.2211 40.8511 33.7827 38.4448 44.0449C36.0385 54.307 40.073 65.5517 47.7528 72.7712C55.5753 80.1248 66.766 83.7269 73.0725 92.4156C59.3946 95.1953 48.5809 108.358 48.5091 122.316C48.4373 136.273 59.1149 149.547 72.7635 152.467C63.145 158.097 54.1449 165.249 48.2106 174.683C42.2764 184.117 39.7325 196.091 43.2833 206.655C51.496 231.09 85.7269 236.922 97.807 259.695C101.079 248.949 96.2828 237.65 93.8179 226.691C91.353 215.731 92.7463 201.658 102.964 196.991C99.9778 182.598 96.9916 168.206 94.0054 153.813C91.7802 143.088 90.6638 129.5 99.89 123.596C93.3893 121.58 87.6198 117.286 83.8228 111.637C87.9232 117.913 95.8207 121.475 103.239 120.393C93.8644 100.07 83.4697 80.2185 72.1072 60.9369C84.3504 79.3976 95.186 98.7917 104.489 118.895C147.516 117.731 190.611 119.057 233.485 122.863C239.178 123.369 245.304 124.104 249.512 127.971C255.56 133.528 264.639 135.555 272.475 133.097C274.968 139.278 276.802 146.22 274.683 152.539C272.564 158.857 265.057 163.68 259.056 160.781C260.622 168.84 262.188 176.899 263.755 184.958C279.098 185.142 294.44 185.456 309.778 185.898C317.907 186.132 326.403 186.502 333.469 190.529C340.534 194.557 345.52 203.478 342.373 210.977C344.38 204.78 346.387 198.583 348.394 192.385C355.469 203.615 358.944 217.076 358.189 230.328C360.64 226.598 363.09 222.869 365.541 219.14C356.834 205.436 355.725 187.221 362.707 172.562C369.554 183.901 373.411 197.028 373.785 210.268C376.339 186.405 393.245 164.651 415.739 156.284C411.837 165.277 407.934 174.269 404.032 183.261C400.69 190.96 396.446 199.5 388.417 201.946C383.121 203.559 375.453 203.461 374.492 208.914C389.704 204.925 405.894 204.728 421.199 208.344C409.405 222.522 386.68 226.013 371.175 216.029C363.86 224.187 357.523 233.22 352.341 242.874C361.143 231.934 374.842 225.093 388.876 224.628C381.336 233.539 372.832 241.633 363.559 248.724C368.48 249.197 373.802 249.845 377.371 253.266C380.941 256.686 381.03 263.886 376.426 265.686ZM171.148 175.883C175.227 175.836 179.795 175.981 182.643 178.902C184.815 181.13 185.397 184.417 185.87 187.492C188.036 201.557 190.063 215.643 191.952 229.747C192.426 233.285 189.46 236.55 186.072 237.671C182.683 238.793 178.999 238.301 175.465 237.797C178.411 235.254 183.386 237.077 186.557 234.82C189.401 232.796 189.384 228.641 189.044 225.167C187.767 212.143 186.028 199.164 183.832 186.263C183.444 183.982 182.969 181.556 181.353 179.901C179.202 177.696 175.764 177.549 172.684 177.545C160.039 177.529 147.394 177.514 134.749 177.498C132.57 177.495 130.277 177.521 128.384 178.602C122.94 181.715 124.947 189.934 127.654 195.591C135.321 194.037 143.156 193.308 150.978 193.422C157.908 193.522 166.551 195.773 167.719 202.604C170.286 217.613 172.854 232.621 175.421 247.63C176.767 255.499 177.509 265.06 171.22 269.978C168.078 272.436 163.907 273.021 159.95 273.522C150.218 274.752 140.487 275.982 130.755 277.213C134.808 312.701 138.861 348.19 142.915 383.678C143.367 387.636 144.194 392.187 147.675 394.125C149.734 395.272 152.232 395.178 154.585 395.05C185.592 393.359 216.569 391.12 247.497 388.334C246.26 385.515 246.235 382.188 247.431 379.351C250.563 397.69 253.696 416.029 256.828 434.368C262.313 430.588 261.47 422.382 260.014 415.881C256.327 399.424 252.641 382.966 248.954 366.509C247.462 369.247 245.969 371.985 244.477 374.723C243.744 371.304 245.795 367.768 248.64 365.735C251.485 363.703 254.991 362.869 258.41 362.136C268.92 359.883 279.544 358.162 290.228 356.982C287.123 335.08 284.018 313.178 280.913 291.276C261.825 296.519 241.611 294.869 221.888 293.178C216.046 292.677 208.622 290.711 208.065 284.875C206.665 270.203 205.264 255.53 203.864 240.858C203.681 238.945 202.573 236.369 200.749 236.971C196.265 238.452 193.599 232.064 193.232 227.357C192.08 212.591 190.929 197.826 189.778 183.061C189.627 181.124 189.588 178.889 191.032 177.59C192.043 176.681 193.499 176.514 194.853 176.39C204.514 175.507 214.176 174.624 223.837 173.74C229.354 173.236 235.621 172.975 239.636 176.793C242.469 179.488 243.42 183.573 244.018 187.438C245.12 194.559 245.485 201.795 245.105 208.991C244.34 201.957 243.574 194.922 242.808 187.888C242.464 184.723 242.043 181.367 240.044 178.889C236.631 174.661 230.282 174.732 224.866 175.177C215.191 175.973 205.517 176.769 195.843 177.565C194.54 177.672 193.128 177.827 192.181 178.728C190.949 179.9 190.983 181.841 191.107 183.537C192.143 197.806 193.18 212.076 194.216 226.345C194.412 229.039 194.678 231.918 196.381 234.014C198.084 236.11 201.778 236.768 203.369 234.586C201.189 229.794 204.204 223.927 208.667 221.135C213.129 218.342 218.606 217.851 223.853 217.432C232.903 216.71 241.953 215.988 251.003 215.266C250.383 196.535 248.363 177.85 244.966 159.418C241.835 158.543 238.985 156.693 236.911 154.19C235.359 158.188 230.736 160.729 226.529 159.896C222.322 159.063 219.016 154.953 219.105 150.665C218.606 155.6 214.307 159.879 209.371 160.357C204.435 160.834 199.396 157.457 197.961 152.71C195.597 155.346 192.529 157.618 189.003 157.939C185.476 158.26 181.575 156.033 181.002 152.539C176.371 158.547 165.607 157.937 161.684 151.445C157.649 158.104 146.161 157.941 142.317 151.169C140.591 157.429 130.956 157.93 126.331 153.371C121.706 148.812 120.806 141.789 120.162 135.327C112.528 142.683 111.15 154.5 112.599 165.001C114.048 175.503 117.824 185.619 118.74 196.181C120.832 196.707 123.126 196.375 124.982 195.278C122.977 189.217 121.658 181.076 127.102 177.742C129.286 176.405 131.988 176.336 134.548 176.307C146.748 176.166 158.948 176.024 171.148 175.883ZM292.007 277.872C308.01 277.077 324.52 279.163 339.729 274.119C342.082 273.338 344.493 272.31 346.009 270.348C342.124 268.563 337.999 265.484 338.094 261.209C338.156 258.402 340.101 255.975 342.293 254.22C344.594 252.377 347.272 251.009 350.113 250.224C350.344 249.521 349.107 249.369 348.495 249.784C347.882 250.2 346.952 250.714 346.545 250.096C346.436 249.93 346.413 249.724 346.394 249.526C344.867 233.991 342.605 218.53 339.618 203.209C338.72 198.603 337.385 193.471 333.325 191.117C331.133 189.846 328.505 189.633 325.977 189.458C306.946 188.141 287.88 187.335 268.806 187.04C264.299 186.97 259.256 187.137 256.096 190.353C253.699 192.792 253.012 196.414 252.758 199.825C251.972 210.385 254.234 220.898 255.705 231.385C257.467 243.947 258.102 256.637 259.264 269.269C259.419 270.95 259.606 272.702 260.516 274.124C262.074 276.562 265.239 277.327 268.105 277.729C272.339 278.322 276.621 278.573 280.895 278.479C284.604 278.397 288.302 278.055 292.007 277.872ZM160.666 196.384C155.248 194.003 149.043 194.64 143.165 195.323C134.273 196.355 125.38 197.388 116.488 198.42C112.214 198.916 107.936 199.413 103.708 200.21C102.689 200.402 101.666 200.614 100.705 201.003C96.9359 202.526 94.6891 206.59 94.1664 210.621C93.6436 214.652 94.5395 218.716 95.3985 222.688C98.0678 235.036 100.435 247.499 101.078 260.116C101.205 262.614 101.269 265.144 101.955 267.549C102.641 269.954 104.043 272.267 106.235 273.472C107.921 274.399 109.901 274.591 111.821 274.717C129.417 275.874 147.003 273.036 164.408 270.208C166.885 269.805 169.49 269.346 171.42 267.744C174.402 265.269 174.847 260.915 174.826 257.041C174.786 249.885 173.92 242.733 172.25 235.775C170.296 227.636 167.228 219.631 167.147 211.262C167.111 207.57 167.596 203.592 165.67 200.443C164.532 198.582 162.663 197.262 160.666 196.384ZM76.9372 351.358C79.3026 368.353 80.0973 385.566 79.3078 402.707C79.2662 403.611 80.3641 404.071 81.2525 404.241C92.6309 406.416 104.349 403.629 115.39 400.123C121.666 398.13 127.948 395.859 133.376 392.131C135.859 390.425 138.372 387.855 137.908 384.879C134.925 365.756 133.284 346.425 133.001 327.073C122.955 334.923 110.206 338.254 97.8505 341.398C91.9943 342.887 86.0588 344.387 80.0163 344.337C78.5556 344.324 77.3427 345.608 76.9345 347.01C76.5263 348.413 76.7359 349.911 76.9372 351.358ZM307.861 359.949C289.042 358.116 269.845 360.268 251.9 366.222C252.977 374.419 254.449 382.563 256.31 390.619C257.055 393.844 257.862 397.055 258.668 400.266C260.24 406.519 261.811 412.771 263.383 419.024C263.602 419.894 263.876 420.845 264.626 421.338C265.295 421.778 266.162 421.727 266.96 421.661C285.542 420.111 304.113 418.432 322.672 416.624C318.615 398.539 314.558 380.454 310.501 362.368C310.345 361.674 310.157 360.925 309.605 360.476C309.126 360.087 308.474 360.008 307.861 359.949ZM280.12 280.559C276.026 280.767 271.869 280.971 267.871 280.063C263.873 279.154 259.982 276.975 257.929 273.426C256.75 274.782 254.407 274.884 253.115 273.635C251.824 272.386 251.847 270.04 253.163 268.817C247.962 268.864 242.76 268.911 237.558 268.958C239.935 270.358 239.74 274.487 237.282 275.741C234.825 276.996 231.423 274.877 231.366 272.119C231.341 270.881 232.1 269.49 233.334 269.379C232.822 268.503 231.494 269.022 230.484 268.926C228.962 268.782 228.13 267.123 227.596 265.691C225.43 259.88 223.46 253.999 221.49 248.119C222.869 250.377 225.976 251.393 228.423 250.386C229.288 250.031 229.314 248.788 228.946 247.928C228.303 246.428 226.838 245.271 225.211 245.143C223.584 245.016 221.891 246.01 221.341 247.547C220.525 246.937 220.873 245.527 221.728 244.975C222.584 244.422 223.68 244.471 224.696 244.532C234.29 245.112 243.92 245.102 253.514 244.505C253.95 244.478 254.432 244.429 254.729 244.108C255.066 243.746 255.034 243.186 254.98 242.695C254.613 239.32 254.247 235.946 253.88 232.571C253.839 232.197 253.781 231.787 253.502 231.535C253.194 231.258 252.73 231.271 252.316 231.3C240.291 232.157 228.297 233.451 216.365 235.18C215.095 235.364 213.914 234.298 213.513 233.079C213.112 231.86 213.297 230.535 213.487 229.266C213.553 228.82 213.638 228.339 213.968 228.032C214.272 227.749 214.712 227.683 215.123 227.631C227.536 226.046 240.031 225.096 252.541 224.783C252.237 226.019 250.626 226.286 249.353 226.308C237.742 226.514 226.145 227.445 214.65 229.093C213.732 230.663 214.99 232.777 216.684 233.437C218.378 234.097 220.277 233.744 222.063 233.408C231.912 231.554 241.904 230.462 251.921 230.144C253.351 230.098 253.522 228.04 253.221 226.642C252.523 223.393 251.825 220.144 251.127 216.896C244.191 218.209 237.105 218.734 230.05 218.455C225.876 218.29 221.724 219.019 217.611 219.746C214.114 220.363 210.389 221.096 207.862 223.59C204.908 226.505 204.379 231.064 204.559 235.21C204.853 242.012 206.579 248.665 207.431 255.42C208.472 263.673 208.204 272.039 209.003 280.319C209.219 282.55 209.526 284.822 210.526 286.828C211.526 288.834 213.344 290.556 215.561 290.886C233.775 293.602 252.347 293.91 270.642 291.801C272.332 291.606 274.037 291.386 275.632 290.796C278.15 289.865 280.309 287.997 281.594 285.64C282.109 284.694 282.494 283.612 282.306 282.551C282.118 281.489 281.197 280.504 280.12 280.559ZM134.503 327.09C136.409 348.062 138.315 369.033 140.221 390.005C140.564 393.775 140.894 397.668 139.715 401.265C138.537 404.862 135.438 408.113 131.655 408.237C133.876 411.486 137.709 413.344 141.585 414.024C145.461 414.704 149.435 414.344 153.353 413.982C185.64 410.999 217.927 408.016 250.213 405.032C249.52 400.998 248.827 396.963 248.134 392.929C247.979 392.023 247.534 390.875 246.618 390.943C224.419 392.597 202.22 394.252 180.021 395.906C170.905 396.585 161.745 397.265 152.634 396.519C148.024 396.142 142.331 394.31 141.876 389.707C138.236 352.878 134.023 316.106 129.238 279.409C129.164 278.844 129.073 278.241 128.687 277.822C128.172 277.263 127.319 277.221 126.559 277.217C122.02 277.194 117.48 277.171 112.941 277.148C114.267 284.668 115.988 292.119 118.094 299.459C118.484 300.816 119.131 302.399 120.521 302.643C125.513 303.52 129.452 307.626 131.505 312.259C133.559 316.892 134.044 322.043 134.503 327.09ZM117.062 196.55C113.166 176.788 109.869 156.909 107.179 136.947C107.026 135.818 106.879 134.648 107.211 133.558C107.896 131.312 110.353 130.135 112.637 129.593C117.103 128.534 121.768 128.887 126.345 129.225C168.199 132.311 210.19 133.546 252.153 132.925C250.484 129.54 247.128 127.231 243.558 126.006C239.988 124.782 236.173 124.51 232.407 124.25C195.469 121.697 158.474 119.305 121.45 119.751C116.92 119.805 112.338 119.91 107.964 121.089C103.59 122.269 99.3818 124.644 96.8585 128.407C92.8822 134.335 93.8439 142.166 95.0747 149.198C97.9568 165.665 101.463 182.022 105.584 198.223C109.41 197.665 113.236 197.108 117.062 196.55ZM207.182 157.926C209.182 157.947 211.26 157.835 213.03 156.903C216.147 155.262 217.531 151.482 217.737 147.966C217.943 144.449 217.249 140.925 217.472 137.409C217.523 136.608 217.971 135.546 218.748 135.747C219.311 139.794 219.874 143.841 220.437 147.888C220.748 150.122 221.071 152.398 222.05 154.431C223.029 156.463 224.789 158.249 227.004 158.675C228.276 158.919 229.605 158.7 230.818 158.244C233.721 157.153 236.154 154.374 236.044 151.274C235.892 146.995 235.739 142.715 235.587 138.435C235.527 136.741 234.897 134.485 233.205 134.574C221.925 135.165 210.61 135.113 199.336 134.418C198.514 134.367 198.297 135.532 198.384 136.351C198.835 140.596 199.286 144.841 199.738 149.086C200.078 152.291 200.806 156.059 203.747 157.378C204.813 157.856 206.014 157.914 207.182 157.926ZM265.038 424.309C264.498 424.688 264.141 425.27 263.812 425.843C262.101 428.821 260.726 431.992 259.721 435.276C279.468 433.897 299.198 432.294 318.908 430.467C319.649 430.399 320.453 430.302 320.984 429.781C321.329 429.443 321.506 428.974 321.673 428.521C322.411 426.517 323.149 424.513 323.886 422.509C324.246 421.533 324.564 420.32 323.862 419.553C323.279 418.917 322.287 418.937 321.427 419.006C303.406 420.45 285.394 422.004 267.393 423.67C266.573 423.746 265.712 423.836 265.038 424.309ZM299.847 302.651C299.313 296.421 298.225 289.429 293.141 285.79C291.157 291.253 289.154 296.799 288.701 302.593C288.247 308.388 289.527 314.564 293.414 318.885C293.96 319.493 294.568 320.082 294.857 320.846C295.147 321.609 295 322.617 294.291 323.022C289.007 318.425 286.82 311.052 286.944 304.05C287.068 297.048 289.214 290.259 291.34 283.586C291.807 282.12 290.471 280.578 288.971 280.236C287.471 279.894 285.921 280.396 284.465 280.891C284.181 280.987 284.056 281.311 283.966 281.597C282.959 284.807 281.943 288.21 282.723 291.482C286.084 305.582 285.651 320.38 289.072 334.465C289.198 334.985 289.335 335.516 289.638 335.957C291.908 331.52 294.177 327.083 296.446 322.646C297.513 320.561 298.585 318.461 299.251 316.216C300.545 311.85 300.235 307.188 299.847 302.651ZM380.125 200.307C380.564 200.669 381.152 200.783 381.717 200.846C388.134 201.564 394.19 197.196 397.744 191.804C401.298 186.413 402.976 180.043 405.306 174.02C407.492 168.368 410.289 162.952 413.631 157.896C406.939 164.176 398.701 168.573 391.716 174.524C384.731 180.476 378.786 188.823 379.279 197.987C379.325 198.834 379.471 199.767 380.125 200.307ZM123.106 139.583C124.019 143.581 123.641 148.025 125.857 151.477C128.005 154.823 132.535 156.418 136.306 155.155C140.076 153.892 142.731 149.889 142.43 145.925C142.361 145.024 142.158 144.139 141.955 143.258C141.161 139.808 140.366 136.358 139.572 132.908C139.493 132.565 139.405 132.204 139.161 131.949C138.812 131.584 138.253 131.542 137.749 131.523C132.896 131.337 128.043 131.151 123.19 130.965C122.723 130.947 122.211 130.944 121.848 131.238C121.389 131.61 121.362 132.295 121.422 132.883C121.655 135.177 122.594 137.334 123.106 139.583ZM254.471 143.313C254.587 148.836 258.185 153.639 261.981 157.654C262.351 158.046 262.731 158.44 263.194 158.717C263.943 159.164 264.855 159.27 265.724 159.196C268.656 158.944 271.163 156.727 272.401 154.057C273.638 151.387 273.778 148.333 273.512 145.402C273.245 142.472 272.596 139.586 272.335 136.655C272.282 136.067 272.067 135.3 271.476 135.302C266.288 135.322 261.1 135.342 255.912 135.362C255.248 135.364 254.544 135.378 253.984 135.733C253.423 136.088 253.111 136.918 253.526 137.435C254.796 139.015 254.428 141.286 254.471 143.313ZM333.368 314.171C319.153 313.922 306.122 322.348 296.18 332.51C294.504 334.223 292.868 336.02 291.752 338.141C291.555 338.516 291.399 339.039 291.723 339.313C291.895 339.459 292.141 339.468 292.367 339.467C300.637 339.438 308.59 335.944 315.309 331.123C322.028 326.302 327.689 320.183 333.368 314.171ZM157.481 154.152C159.511 152.983 160.818 150.655 160.759 148.313C160.729 147.125 160.378 145.972 160.096 144.818C159.369 141.848 159.087 138.77 159.261 135.717C159.298 135.067 159.354 134.399 159.158 133.777C158.963 133.156 158.444 132.585 157.794 132.549C152.422 132.256 147.051 131.963 141.679 131.67C141.486 131.659 141.275 131.653 141.119 131.768C140.878 131.945 140.891 132.305 140.936 132.601C141.597 136.972 143.712 141.09 143.848 145.508C143.898 147.134 143.68 148.801 144.136 150.362C144.719 152.362 146.384 153.941 148.317 154.719C150.249 155.497 152.417 155.541 154.467 155.171C155.516 154.982 156.557 154.683 157.481 154.152ZM372.415 213.994C376.305 215.092 379.744 217.386 383.518 218.834C391.885 222.043 401.843 220.703 409.064 215.397C412.165 213.118 415.265 210.84 418.366 208.562C414.586 209.456 410.677 209.799 406.799 209.575C400.32 209.202 393.922 207.261 387.451 207.747C381.946 208.161 376.592 210.385 372.415 213.994ZM261.326 184.057C260.561 179.822 259.796 175.586 259.032 171.35C258.007 165.674 256.982 159.997 255.957 154.32C255.885 153.917 255.797 153.485 255.498 153.205C255.2 152.925 254.618 152.924 254.455 153.3C253.431 155.662 251.336 157.534 248.874 158.287C247.38 158.743 247.252 160.782 247.425 162.334C248.65 173.287 250.101 184.214 251.775 195.107C252.262 190.652 256.08 186.783 260.528 186.237C261.393 186.13 261.481 184.915 261.326 184.057ZM179.596 149.606C179.121 145.04 178.521 140.486 177.798 135.953C177.649 135.018 177.251 133.852 176.305 133.811C171.416 133.596 166.527 133.382 161.638 133.167C161.464 133.16 161.28 133.154 161.125 133.236C160.731 133.445 160.795 134.021 160.912 134.452C162.039 138.638 162.638 142.966 162.688 147.301C162.701 148.368 162.688 149.476 163.135 150.445C163.792 151.871 165.288 152.689 166.709 153.355C169.187 154.516 171.896 155.536 174.6 155.115C177.303 154.693 179.879 152.327 179.596 149.606ZM181.71 149.631C182.203 152.02 183.107 154.8 185.448 155.486C187.423 156.066 189.559 156.226 191.54 155.667C193.522 155.109 195.329 153.779 196.215 151.921C196.846 150.598 196.989 149.101 197.071 147.638C197.296 143.63 197.141 139.601 196.609 135.622C196.58 135.409 196.549 135.19 196.441 135.004C196.156 134.51 195.484 134.441 194.913 134.429C189.935 134.32 184.956 134.212 179.978 134.103C179.571 134.094 179.003 134.517 179.347 134.734C179.904 139.733 180.693 144.706 181.71 149.631ZM348.993 199.075C345.104 207.867 343.959 217.85 345.756 227.295C346.473 231.068 347.884 235.072 351.151 237.093C352.112 237.688 353.714 237.864 354.07 236.791C358.201 224.326 356.274 210.003 348.993 199.075ZM96.9177 309.468C98.5675 310.6 100.427 311.425 102.374 311.889C104.833 312.475 107.388 312.482 109.915 312.543C115.822 312.685 121.721 313.138 127.58 313.898C128.397 314.004 129.073 313.119 129.051 312.295C129.03 311.471 128.529 310.744 128.009 310.104C124.884 306.254 120.321 303.601 115.429 302.79C111.964 302.215 108.421 302.537 104.91 302.436C101.399 302.335 97.7345 301.741 94.9347 299.62C94.7865 301.636 94.7746 303.663 94.8994 305.682C94.9498 306.499 95.0323 307.346 95.4487 308.05C95.7977 308.641 96.352 309.08 96.9177 309.468ZM239.022 152.81C239.573 153.81 240.458 154.581 241.365 155.276C242.347 156.028 243.408 156.733 244.614 157.009C247.584 157.689 250.621 155.488 251.873 152.71C253.124 149.932 252.998 146.748 252.708 143.715C252.489 141.421 252.19 139.136 251.813 136.863C251.751 136.484 251.678 136.088 251.44 135.786C251.022 135.258 250.256 135.196 249.583 135.178C245.962 135.082 242.341 134.986 238.72 134.89C237.919 134.868 236.78 135.252 237.018 136.018C238.083 139.446 238.548 143.06 238.384 146.647C238.289 148.74 238.011 150.976 239.022 152.81ZM367.165 216.465C371.01 210.261 372.16 202.45 370.268 195.401C368.596 189.169 364.708 183.648 363.475 177.315C360.602 186.032 357.709 195.417 360.308 204.22C361.64 208.732 364.33 212.711 367.165 216.465ZM303.478 314.068C314.911 311.123 325.465 304.845 333.51 296.203C335.917 293.617 338.381 291.085 340.899 288.607C334.729 289.453 328.706 291.361 323.175 294.223C314.736 298.588 307.331 305.384 303.478 314.068ZM373.138 238.177C377.343 234.225 381.548 230.273 385.753 226.321C371.532 228.133 358.251 236.351 350.282 248.268C352.336 249.85 355.283 248.918 357.679 247.928C361.012 246.55 364.373 245.156 367.34 243.106C369.429 241.662 371.288 239.916 373.138 238.177ZM96.5545 324.551C96.59 324.916 96.6331 325.302 96.8544 325.595C97.3384 326.236 98.3253 326.079 99.0961 325.853C107.921 323.275 116.622 320.272 125.158 316.86C125.774 316.614 126.492 316.224 126.504 315.561C119.955 315.107 113.406 314.653 106.857 314.199C105.255 314.088 103.647 313.976 102.077 313.64C99.7143 313.136 97.4619 312.124 95.5167 310.692C95.6593 315.323 96.107 319.939 96.5545 324.551ZM303.437 280.239C302.908 280.621 302.695 281.294 302.513 281.921C301.89 284.069 301.263 286.348 301.842 288.509C302.137 289.61 302.729 290.604 303.314 291.582C304.933 294.288 306.552 296.994 308.171 299.699C308.321 299.951 308.485 300.215 308.744 300.352C309.518 300.758 310.281 299.804 310.64 299.008C312.969 293.841 315.352 288.377 314.823 282.733C314.742 281.866 314.507 280.881 313.731 280.483C313.375 280.3 312.961 280.277 312.561 280.257C310.162 280.138 307.762 280.019 305.362 279.9C304.698 279.867 303.976 279.85 303.437 280.239ZM340.117 261.109C340.056 264.746 343.228 267.787 346.709 268.846C350.189 269.904 353.923 269.449 357.54 269.06C363.899 268.378 370.625 267.815 375.853 264.13C377.013 263.312 378.109 262.303 378.627 260.982C379.435 258.921 378.623 256.487 377.103 254.877C375.584 253.266 373.477 252.345 371.368 251.67C363.834 249.258 355.468 249.536 348.109 252.443C344.227 253.976 340.187 256.936 340.117 261.109ZM95.9557 298.261C96.6408 298.9 98.0291 299.063 98.2962 298.165C99.2113 295.088 101.269 292.45 103.692 290.345C106.116 288.241 108.91 286.615 111.686 285.003C112.434 284.568 112.387 283.489 112.242 282.635C111.962 280.982 111.682 279.328 111.402 277.675C111.331 277.256 111.191 276.756 110.781 276.644C110.445 276.553 110.114 276.779 109.839 276.994C107.848 278.548 105.857 280.103 103.866 281.658C99.8762 284.774 95.6003 288.349 94.7351 293.336C94.4337 295.074 94.6662 297.058 95.9557 298.261ZM111.488 287.13C107.016 289.922 102.283 293.014 100.251 297.879C100.124 298.182 100.007 298.5 100.017 298.828C100.037 299.476 100.558 300.021 101.156 300.27C101.754 300.519 102.42 300.53 103.068 300.537C106.896 300.583 110.724 300.628 114.553 300.673C114.739 300.675 114.941 300.672 115.088 300.558C115.32 300.377 115.296 300.025 115.25 299.734C114.64 295.875 114.029 292.015 113.418 288.156C113.331 287.607 113.154 286.95 112.618 286.801C112.229 286.692 111.832 286.915 111.488 287.13ZM301.686 280.477C298.868 279.749 295.827 279.908 293.1 280.924C293.628 282.658 294.564 284.265 295.811 285.58C300.013 290.011 301.256 296.443 301.733 302.531C301.988 305.783 302.077 309.047 302.002 312.308C303.848 309.461 305.694 306.613 307.54 303.765C307.723 303.482 307.912 303.182 307.932 302.846C307.952 302.509 307.8 302.188 307.644 301.888C305.823 298.371 303.146 295.337 301.456 291.755C299.766 288.172 299.248 283.598 301.686 280.477ZM112.843 131.417C111.288 131.664 109.515 132.059 108.777 133.449C108.266 134.41 108.417 135.573 108.581 136.649C109.257 141.08 109.932 145.51 110.608 149.941C114.066 143.723 117.304 137.387 120.54 131.051C119.941 130.374 118.88 130.459 117.987 130.601C116.272 130.873 114.557 131.145 112.843 131.417ZM325.669 281.863C326.148 282.498 327.398 281.795 327.103 281.056C331.722 282.382 336.756 281.438 341.118 279.424C345.48 277.409 349.288 274.391 353.036 271.385C351.462 271.165 349.888 270.945 348.314 270.725C347.993 270.68 347.576 270.686 347.454 270.986C346.606 273.061 344.781 274.616 342.766 275.597C340.751 276.578 338.534 277.054 336.342 277.521C334.821 277.845 333.299 278.169 331.778 278.493C329.422 278.995 326.765 279.717 325.669 281.863ZM242.124 249.733C242.419 249.658 242.737 249.569 242.926 249.33C243.22 248.958 243.073 248.424 242.996 247.957C242.919 247.49 243.037 246.868 243.504 246.787C243.929 246.871 244.125 247.376 244.136 247.809C244.146 248.243 244.051 248.695 244.207 249.099C244.556 249.999 245.799 250.035 246.756 249.913C247.323 249.841 247.89 249.768 248.456 249.696C248.634 249.674 248.824 249.645 248.956 249.525C249.375 249.141 248.792 248.514 248.662 247.96C248.561 247.533 248.761 247.07 248.63 246.651C248.407 245.937 247.457 245.828 246.709 245.852C240.99 246.042 235.27 246.232 229.551 246.422C229.649 247.504 229.945 248.568 230.42 249.546C230.522 249.756 230.643 249.974 230.846 250.09C231.052 250.208 231.305 250.201 231.542 250.19C232.964 250.124 234.386 250.058 235.807 249.991C235.928 249.986 236.056 249.978 236.157 249.911C236.416 249.74 236.326 249.344 236.207 249.057C236.002 248.562 235.796 248.068 235.591 247.573C235.413 247.143 236.191 246.888 236.519 247.219C236.847 247.55 236.859 248.069 237.014 248.508C237.335 249.42 238.304 249.977 239.264 250.094C240.223 250.211 241.187 249.971 242.124 249.733ZM325.19 280.011C325.501 279.679 324.814 279.332 324.362 279.388C321.786 279.704 319.211 280.019 316.635 280.335C316.291 280.377 315.836 280.566 315.918 280.903C316.764 284.369 316.447 288.108 315.029 291.381C314.758 292.005 314.581 292.956 315.228 293.166C317.913 288.345 321.277 283.903 325.19 280.011ZM237.435 252.347C237.354 252.067 237.263 251.773 237.05 251.575C236.808 251.349 236.459 251.292 236.13 251.256C234.443 251.071 232.722 251.187 231.075 251.597C231.59 253.268 232.106 254.94 232.621 256.612C232.719 256.928 232.85 257.284 233.158 257.408C233.315 257.472 233.491 257.461 233.66 257.449C235.326 257.332 236.993 257.215 238.659 257.098C238.297 255.503 237.889 253.918 237.435 252.347ZM226.587 258.192C226.773 258.294 226.999 258.263 227.207 258.229C228.716 257.983 230.224 257.737 231.732 257.491C231.188 255.747 230.644 254.002 230.099 252.258C230.02 252.002 229.92 251.722 229.684 251.594C229.498 251.493 229.271 251.515 229.061 251.539C227.716 251.696 226.371 251.852 225.026 252.008C224.773 252.038 224.474 252.101 224.38 252.338C224.317 252.499 224.377 252.679 224.437 252.841C225.029 254.44 225.622 256.039 226.214 257.638C226.293 257.851 226.387 258.083 226.587 258.192ZM243.534 251.224C243.215 250.947 242.744 250.966 242.323 251.001C240.994 251.11 239.666 251.219 238.337 251.329C238.734 253.031 239.234 254.709 239.833 256.351C239.912 256.566 240.001 256.793 240.184 256.931C240.412 257.104 240.725 257.094 241.011 257.077C241.917 257.022 242.824 256.967 243.731 256.913C244.149 256.888 244.657 256.799 244.797 256.404C244.864 256.215 244.82 256.006 244.776 255.81C244.501 254.581 244.225 253.353 243.949 252.124C243.875 251.796 243.788 251.445 243.534 251.224ZM235.61 263.454C235.479 263.474 235.339 263.499 235.243 263.591C235.057 263.771 235.142 264.08 235.24 264.32C235.589 265.174 235.938 266.028 236.287 266.882C236.416 267.199 236.562 267.536 236.851 267.719C237.118 267.888 237.454 267.892 237.771 267.89C238.976 267.883 240.182 267.876 241.387 267.869C241.563 267.867 241.755 267.861 241.891 267.749C242.137 267.545 242.045 267.154 241.932 266.855C241.468 265.632 241.004 264.41 240.541 263.188C240.392 262.795 239.846 262.79 239.431 262.855C238.158 263.054 236.884 263.254 235.61 263.454ZM245.751 250.982C245.498 250.983 245.213 250.997 245.042 251.185C244.836 251.41 244.901 251.764 244.98 252.06C245.322 253.355 245.665 254.651 246.008 255.946C246.068 256.174 246.138 256.418 246.321 256.566C246.564 256.764 246.915 256.727 247.224 256.68C248.367 256.505 249.51 256.331 250.652 256.156C250.53 254.83 250.319 253.512 250.022 252.214C249.93 251.808 249.801 251.365 249.45 251.142C249.187 250.975 248.856 250.971 248.544 250.972C247.613 250.975 246.682 250.979 245.751 250.982ZM248.077 267.716C247.707 266.371 247.337 265.026 246.966 263.682C246.825 263.168 246.624 262.586 246.128 262.392C245.883 262.297 245.611 262.318 245.349 262.341C244.13 262.447 242.91 262.553 241.691 262.659C242.013 263.864 242.393 265.052 242.831 266.219C243.052 266.807 243.386 267.473 244.006 267.573C245.35 267.791 246.721 267.839 248.077 267.716ZM250.2 267.623C251.305 267.713 252.518 267.775 253.412 267.118C253.024 265.611 252.637 264.105 252.249 262.598C252.162 262.259 252.046 261.881 251.735 261.72C251.507 261.601 251.233 261.634 250.978 261.669C249.883 261.822 248.788 261.974 247.692 262.126C247.953 263.721 248.395 265.286 249.007 266.782C249.101 267.011 249.207 267.249 249.403 267.4C249.625 267.571 249.921 267.6 250.2 267.623ZM348.694 246.178C349.538 244.446 350.382 242.713 351.226 240.98C351.315 240.798 351.406 240.601 351.374 240.401C351.342 240.207 351.2 240.051 351.065 239.908C349.863 238.637 348.662 237.366 347.46 236.096C346.96 236.778 347.018 237.705 347.098 238.546C347.359 241.309 347.621 244.071 347.882 246.833C348.25 246.915 348.529 246.517 348.694 246.178ZM251.414 250.782C251.256 250.771 251.077 250.768 250.966 250.881C250.843 251.009 250.87 251.214 250.906 251.388C251.144 252.535 251.382 253.682 251.62 254.829C251.708 255.254 251.812 255.708 252.133 256.001C253.171 256.947 255.17 255.319 256.135 256.34C256.305 254.712 256.183 253.053 255.777 251.467C255.748 251.356 255.714 251.238 255.629 251.161C255.53 251.072 255.387 251.058 255.254 251.049C253.974 250.96 252.694 250.871 251.414 250.782ZM227.536 259.288C227.397 259.307 227.253 259.328 227.139 259.409C226.887 259.588 226.896 259.96 226.933 260.267C227.029 261.087 227.136 261.936 227.565 262.642C227.994 263.348 228.842 263.871 229.639 263.657C230.782 263.35 231.925 263.044 233.069 262.737C233.019 261.645 232.798 260.56 232.416 259.536C232.32 259.28 232.2 259.01 231.965 258.872C231.721 258.728 231.416 258.762 231.136 258.8C229.936 258.963 228.736 259.126 227.536 259.288ZM254.196 249.703C254.54 249.65 254.907 249.588 255.163 249.351C255.924 248.648 255.054 247.219 255.671 246.386C255.912 246.061 255.322 245.77 254.917 245.787C253.112 245.863 251.306 245.939 249.501 246.016C249.57 246.763 249.7 247.504 249.888 248.23C250.098 249.04 250.887 249.594 251.704 249.773C252.521 249.953 253.37 249.828 254.196 249.703ZM239.602 259.428C239.37 258.311 237.875 258.05 236.753 258.259C235.631 258.468 234.379 258.873 233.426 258.246C233.486 259.425 233.761 260.593 234.234 261.675C234.334 261.903 234.454 262.14 234.67 262.262C234.913 262.399 235.215 262.355 235.491 262.308C236.596 262.117 237.702 261.926 238.807 261.735C239.355 261.64 240.078 261.207 239.789 260.731C239.56 260.352 239.693 259.862 239.602 259.428ZM232.772 264.013C231.869 264.166 230.966 264.319 230.062 264.472C229.573 264.555 228.97 264.751 228.918 265.245C228.786 266.492 230.029 267.497 231.258 267.746C232.487 267.994 233.763 267.751 235.011 267.874C234.96 266.814 234.738 265.763 234.357 264.772C234.266 264.536 234.158 264.293 233.958 264.139C233.634 263.889 233.176 263.945 232.772 264.013ZM256.579 261.594C255.38 261.467 254.162 261.53 252.983 261.782C253.634 263.333 254.097 264.964 254.357 266.627C254.477 267.389 255.565 267.404 256.313 267.213C256.592 267.142 256.896 267.054 257.055 266.814C257.193 266.607 257.186 266.341 257.174 266.093C257.11 264.724 257.046 263.355 256.982 261.985C256.978 261.899 256.972 261.808 256.923 261.737C256.849 261.632 256.707 261.607 256.579 261.594ZM237.004 273.861C238.135 272.733 237.555 270.455 236.023 270.004C234.491 269.553 232.77 271.154 233.11 272.715C233.46 274.328 235.836 275.027 237.004 273.861ZM245.889 260.635C246.608 259.696 245.532 258.311 244.367 258.107C243.203 257.903 242.022 258.349 240.84 258.332C240.404 258.325 240.386 258.981 240.528 259.393C240.711 259.926 240.894 260.459 241.077 260.992C241.152 261.21 241.288 261.471 241.518 261.457C242.361 261.404 243.204 261.351 244.047 261.298C244.72 261.256 245.479 261.17 245.889 260.635ZM257.542 269.697C257.455 269.461 257.326 269.231 257.123 269.083C256.941 268.95 256.713 268.894 256.489 268.867C254.72 268.654 253.002 270.418 253.264 272.181C254.017 273.076 255.435 273.324 256.447 272.736C257.458 272.149 257.946 270.794 257.542 269.697ZM246.62 259.039C246.581 259.814 247.263 260.476 248.01 260.685C248.758 260.894 249.553 260.759 250.317 260.623C250.709 260.553 251.147 260.452 251.352 260.112C251.789 259.385 250.922 258.054 251.722 257.775C251.185 257.701 250.648 257.628 250.111 257.554C249.401 257.456 248.668 257.36 247.979 257.557C247.291 257.753 246.656 258.324 246.62 259.039ZM253.04 260.031C253.854 260.738 255.217 260.641 255.973 259.872C256.729 259.103 256.828 257.8 256.257 256.885C254.833 257.149 253.409 257.413 251.984 257.677C252.164 258.535 252.379 259.456 253.04 260.031ZM363.105 246.417C361.996 246.827 360.887 247.238 359.777 247.649C359.226 247.853 358.668 248.061 358.19 248.404C360.005 249.112 362.293 248.187 363.105 246.417ZM260.009 158.385C259.98 157.895 259.462 157.495 258.981 157.59C259.012 158.089 259.509 158.508 260.005 158.454L260.009 158.385Z" fill="#2A323C"/>
</svg>
