<svg width="460" height="461" viewBox="0 0 460 461" fill="none" xmlns="http://www.w3.org/2000/svg">
<path fill-rule="evenodd" clip-rule="evenodd" d="M86.0293 336.722C113.795 366.945 221.166 349.584 291.865 349.584C322.365 349.584 424.718 364.871 382.452 259.889C243.869 -84.326 -1.94623 240.958 86.0293 336.722Z" fill="#1681FE"/>
<path fill-rule="evenodd" clip-rule="evenodd" d="M208.878 339.151C209.013 339.047 209.154 338.935 209.213 338.775C209.402 338.264 208.662 337.923 208.117 337.936C207.326 337.954 206.311 338.487 206.553 339.24C206.693 339.677 207.23 339.878 207.681 339.798C208.132 339.718 208.515 339.43 208.878 339.151ZM211.231 330.176C211.829 330.364 212.419 330.595 212.939 330.944C213.916 331.598 214.581 332.614 215.219 333.602C215.677 334.31 216.141 335.032 216.369 335.844C216.616 336.723 216.572 337.662 216.406 338.56C215.891 341.357 214.164 343.91 211.76 345.43C209.355 346.95 206.309 347.416 203.561 346.682C203.025 346.54 202.487 346.345 202.075 345.974C201.729 345.663 201.496 345.248 201.283 344.835C200.163 342.664 199.409 340.253 199.495 337.812C199.581 335.371 200.585 332.901 202.485 331.367C204.87 329.442 208.306 329.259 211.231 330.176Z" fill="white"/>
<path fill-rule="evenodd" clip-rule="evenodd" d="M337.451 197.398C336.141 197.381 334.912 198.48 334.782 199.784C334.729 200.317 334.955 200.98 335.486 201.053C335.883 201.108 336.232 200.801 336.499 200.502C337.064 199.868 337.55 199.164 337.941 198.41C338.072 198.157 338.187 197.832 338.015 197.605C337.889 197.44 337.659 197.4 337.451 197.398ZM336.884 191.55C338.745 192.199 340.431 193.341 341.725 194.828C342.837 196.106 343.684 197.765 343.45 199.442C343.365 200.058 343.137 200.646 342.878 201.211C341.897 203.352 340.209 205.403 337.89 205.818C336.674 206.035 335.42 205.775 334.251 205.377C332.898 204.917 331.608 204.271 330.429 203.464C329.803 203.036 329.182 202.528 328.908 201.821C328.719 201.334 328.713 200.798 328.72 200.276C328.738 198.984 328.824 197.67 329.274 196.459C329.844 194.927 330.959 193.663 332.141 192.534C332.617 192.08 333.121 191.633 333.732 191.39C334.731 190.992 335.869 191.196 336.884 191.55Z" fill="white"/>
<path fill-rule="evenodd" clip-rule="evenodd" d="M337.456 98.3496C345.156 106.29 351.233 115.785 355.211 126.09C355.485 126.798 355.75 127.584 355.489 128.296C353.482 133.782 349.609 138.355 345.811 142.801C343.384 145.643 340.958 148.484 338.531 151.325C336.214 154.038 333.897 156.751 331.502 159.395C319.308 172.859 304.9 184.631 288.212 191.875C287.583 192.148 286.907 192.421 286.229 192.312C285.551 192.202 284.915 191.547 285.093 190.885C287.156 183.202 289.232 175.17 287.577 167.39C287.177 165.513 286.732 163.15 288.289 162.021C300.892 152.878 309.966 139.81 318.662 126.919C320.849 123.677 323.03 120.427 324.965 117.03C328.4 111 331.046 104.524 332.814 97.8173C333.057 96.897 334.223 96.4826 335.147 96.7238C336.071 96.9649 336.793 97.6653 337.456 98.3496Z" fill="white"/>
<path fill-rule="evenodd" clip-rule="evenodd" d="M97.3331 129.196C98.5849 140.513 102.069 151.578 107.527 161.571C110.906 167.758 115.016 173.511 119.116 179.246C121.968 183.237 125.019 187.397 129.47 189.459C130.653 190.008 130.488 191.714 130.17 192.979C128.797 198.447 128.157 204.099 128.271 209.736C128.282 210.268 128.296 210.82 128.087 211.31C127.376 212.973 124.943 212.696 123.267 212.016C112.901 207.808 104.943 199.345 97.5078 190.985C87.8551 180.131 78.3461 168.799 72.6438 155.44C72.2561 154.532 71.8799 153.576 71.9448 152.591C72.0109 151.587 72.5267 150.674 73.05 149.815C78.2192 141.324 85.4107 134.074 93.8589 128.836C94.4539 128.467 95.0893 128.098 95.789 128.073C96.4887 128.049 97.2561 128.5 97.3331 129.196Z" fill="white"/>
<path fill-rule="evenodd" clip-rule="evenodd" d="M335.946 327.729C336.839 326.215 337.947 324.548 339.681 324.261C340.364 324.148 340.725 323.405 340.957 322.752C343.824 314.712 344.1 305.77 341.736 297.568C341.061 295.227 341.892 292.745 342.714 290.451C344.836 284.532 346.957 278.613 349.079 272.694C347.864 270.592 344.658 270.654 343.016 268.864C340.903 266.561 342.497 262.9 344.152 260.248C353.824 244.76 363.495 229.272 373.166 213.783C374.351 211.886 376.951 211.291 379.13 211.797C381.31 212.302 383.171 213.674 384.963 215.012C392.017 220.281 399.07 225.549 406.124 230.818C409.91 233.645 414.089 237.257 413.871 241.977C413.75 244.589 412.255 246.911 410.81 249.089C405.22 257.513 399.63 265.936 394.039 274.36C390.89 279.105 391.76 285.338 390.808 290.953C389.304 299.826 383.22 307.113 377.586 314.13C371.952 321.147 366.314 328.983 365.998 337.976C365.62 348.695 360.528 359.164 352.328 366.078C354.707 360.308 339.681 362.61 322.492 355.771C325.321 345.765 330.661 336.684 335.946 327.729Z" fill="white"/>
<path fill-rule="evenodd" clip-rule="evenodd" d="M147.207 352.822C146.135 351.945 145.793 350.465 145.604 349.089C143.415 333.174 152.816 317.464 151.141 301.486C150.278 293.252 146.495 285.568 141.734 278.811C138.446 274.144 138.261 267.893 139.488 262.309C140.715 256.726 143.189 251.505 144.858 246.039C152.28 221.73 143.249 195.761 134.32 171.97C152.112 163.366 172.874 165.033 192.584 166.198C212.294 167.364 233.492 167.446 249.92 156.439C252.172 180.252 247.207 204.09 242.27 227.49C267.319 225.05 292.369 222.609 317.418 220.169C318.137 220.099 318.922 220.045 319.519 220.453C320.315 220.997 320.437 222.107 320.483 223.074C321.654 247.838 322.364 272.624 322.612 297.415C322.619 298.037 322.597 298.73 322.161 299.171C321.788 299.549 321.217 299.628 320.691 299.686C285.596 303.597 250.501 307.508 215.406 311.419C212.371 311.757 208.048 310.967 208.226 307.903C209.018 294.244 208.556 280.511 206.846 266.936C197.519 266.583 188.129 268.005 179.32 271.105C177.322 271.808 174.919 273.699 175.996 275.531C183.127 287.649 174.277 305.864 183.962 316.036C187.292 319.533 187.062 325.036 186.402 329.831C184.987 340.109 182.584 350.25 179.236 360.066C180.854 348.768 148.196 358.88 147.207 352.822Z" fill="white"/>
<path fill-rule="evenodd" clip-rule="evenodd" d="M46.8254 96.3485C46.8554 96.5897 46.7248 96.843 46.511 96.9586C46.3406 96.7882 46.1703 96.6178 46 96.4474C46.2553 96.3357 46.5449 96.3039 46.8184 96.3574L46.8254 96.3485Z" fill="#2A323C"/>
<path fill-rule="evenodd" clip-rule="evenodd" d="M210.618 330.176C211.215 330.364 211.805 330.595 212.326 330.944C213.303 331.598 213.968 332.614 214.606 333.602C215.064 334.31 215.527 335.032 215.756 335.844C216.003 336.723 215.959 337.662 215.793 338.56C215.277 341.357 213.551 343.91 211.146 345.43C208.742 346.95 205.696 347.416 202.947 346.682C202.412 346.54 201.873 346.345 201.462 345.974C201.116 345.663 200.883 345.248 200.67 344.835C199.55 342.664 198.795 340.253 198.882 337.812C198.968 335.371 199.971 332.901 201.872 331.367C204.257 329.442 207.693 329.259 210.618 330.176ZM207.266 344.708C208.761 344.481 210.077 343.505 210.936 342.26C211.795 341.016 212.236 339.524 212.448 338.027C212.569 337.172 212.58 336.192 211.976 335.574C211.615 335.205 211.099 335.04 210.604 334.892C208.745 334.335 206.623 333.863 204.958 334.859C203.746 335.584 203.07 336.928 202.457 338.201C201.74 339.692 201.917 341.574 202.9 342.904C203.884 344.235 205.63 344.957 207.266 344.708Z" fill="#2A323C"/>
<path fill-rule="evenodd" clip-rule="evenodd" d="M278.907 263.03C278.933 262.713 278.971 262.372 279.181 262.133C279.386 261.899 279.709 261.815 280.012 261.745C287.822 259.926 295.889 259.215 303.897 259.638C304.917 259.692 306.229 260.038 306.296 261.057C306.683 266.899 307.07 272.742 307.457 278.584C307.476 278.88 307.486 279.207 307.297 279.436C307.143 279.621 306.894 279.693 306.66 279.754C298.331 281.926 289.552 282.354 281.052 281.003C280.833 280.968 280.602 280.927 280.432 280.785C280.227 280.613 280.155 280.333 280.096 280.071C278.843 274.494 278.44 268.727 278.907 263.03ZM280.748 272.722C280.902 274.928 281.365 277.113 282.119 279.192C282.871 279.3 283.616 279.456 284.366 279.583C290.826 280.677 297.433 279.577 303.892 278.477C304.35 278.4 304.853 278.296 305.136 277.927C305.425 277.55 305.386 277.025 305.334 276.553C305.111 274.54 304.889 272.527 304.666 270.514C304.648 270.351 304.625 270.177 304.516 270.056C304.382 269.91 304.164 269.886 303.966 269.873C299.376 269.571 294.771 269.913 290.184 270.256C287.648 270.445 285.113 270.634 282.577 270.823C281.981 270.868 281.305 270.956 280.962 271.446C280.709 271.806 280.718 272.283 280.748 272.722ZM280.82 264.302C280.419 265.588 280.347 266.976 280.612 268.298C280.66 268.535 280.727 268.785 280.908 268.947C281.175 269.187 281.582 269.147 281.937 269.095C286.257 268.463 290.624 268.148 294.989 268.156C295.605 268.157 295.794 267.327 295.788 266.712C295.778 265.809 295.768 264.907 295.758 264.004C295.752 263.482 295.726 262.907 295.369 262.526C294.939 262.069 294.221 262.083 293.596 262.131C292.149 262.242 290.703 262.352 289.256 262.463C288.565 262.515 286.729 262.985 285.886 263.041C284.418 263.275 282.949 263.509 281.481 263.744C281.324 263.769 281.159 263.798 281.038 263.901C280.921 264.001 280.866 264.154 280.82 264.302ZM300.187 268.227C301.334 268.242 302.484 268.127 303.606 267.885C303.873 267.828 304.154 267.755 304.345 267.559C304.625 267.271 304.622 266.82 304.602 266.42C304.542 265.256 304.483 264.093 304.423 262.929C304.402 262.514 304.356 262.047 304.031 261.787C303.746 261.559 303.343 261.572 302.978 261.597C301.702 261.684 300.425 261.771 299.149 261.858C298.947 261.871 298.735 261.888 298.566 262C298.257 262.204 298.21 262.632 298.202 263.003C298.173 264.236 298.224 265.471 298.352 266.698C298.39 267.053 298.441 267.427 298.661 267.708C299.003 268.147 299.63 268.22 300.187 268.227Z" fill="#FFB61D"/>
<path fill-rule="evenodd" clip-rule="evenodd" d="M298.898 237.498C300.604 236.759 302.697 237.007 304.185 238.122C305.672 239.238 306.495 241.179 306.263 243.023C307.309 242.458 308.635 241.902 309.61 242.58C310.712 243.347 310.46 244.997 310.295 246.329C310.006 248.656 310.38 251.061 311.364 253.19C311.77 254.069 312.119 255.403 311.218 255.757C311.066 255.817 310.9 255.831 310.737 255.844C300.17 256.696 289.602 257.548 279.034 258.399C278.745 258.423 278.42 258.435 278.201 258.244C277.977 258.049 277.949 257.718 277.937 257.421C277.836 254.936 277.734 252.45 277.633 249.964C277.606 249.298 277.593 248.579 277.969 248.028C278.593 247.116 279.898 247.119 280.989 246.944C282.079 246.77 283.348 245.849 282.928 244.828C282.46 243.689 284.055 242.857 285.272 242.672C286.489 242.486 288.104 241.761 287.735 240.586C287.332 239.303 289.098 238.507 290.431 238.33C291.372 238.205 292.356 238.084 293.248 238.407C294.141 238.729 294.895 239.648 294.694 240.576C294.464 241.637 295.757 242.627 296.777 242.252C297.796 241.877 298.209 240.483 297.693 239.527C297.272 238.746 298.083 237.85 298.898 237.498ZM304.355 253.878C303.96 253.145 303.957 252.273 303.953 251.44C303.936 247.531 303.696 243.622 303.234 239.74C303.211 239.544 303.174 239.325 303.013 239.21C302.875 239.111 302.689 239.123 302.52 239.139C301.694 239.216 300.716 239.398 300.39 240.161C300.25 240.486 300.267 240.853 300.286 241.207C300.495 245.125 300.704 249.043 300.914 252.962C300.933 253.327 300.982 253.746 301.285 253.949C301.45 254.061 301.659 254.081 301.857 254.092C302.694 254.138 303.538 254.065 304.355 253.878ZM290.141 247.853C290.039 248.506 289.895 249.154 289.857 249.814C289.792 250.916 290.025 252.012 290.256 253.092C290.404 253.784 291.299 254.125 291.954 253.858C292.61 253.591 293.006 252.891 293.115 252.192C293.224 251.492 293.097 250.78 292.985 250.081C292.547 247.334 292.358 244.548 292.419 241.767C292.435 241.063 291.749 240.427 291.048 240.497C290.348 240.566 289.8 241.324 289.953 242.011C290.381 243.924 290.445 245.917 290.141 247.853ZM297.091 244.101C296.679 243.561 295.735 243.849 295.413 244.447C295.092 245.045 295.19 245.77 295.27 246.444C295.478 248.205 295.498 249.988 295.329 251.753C295.279 252.273 295.224 252.841 295.511 253.278C295.953 253.95 296.923 253.944 297.723 253.862C297.974 253.837 298.262 253.788 298.388 253.57C298.476 253.418 298.455 253.229 298.432 253.056C298.063 250.317 297.694 247.579 297.325 244.84C297.29 244.581 297.25 244.309 297.091 244.101ZM306.245 245.278C305.934 245.701 305.869 246.252 305.842 246.776C305.75 248.574 305.988 250.37 306.225 252.154C306.319 252.857 306.64 253.76 307.348 253.712C308.065 253.664 308.252 252.705 308.236 251.986C308.191 250.083 308.147 248.18 308.103 246.277C308.092 245.777 308.039 245.197 307.624 244.918C307.188 244.625 306.555 244.854 306.245 245.278ZM284.584 244.828C284.584 244.828 284.899 247.311 285.009 248.577C285.147 250.165 285.323 251.751 285.536 253.331C285.567 253.56 285.608 253.809 285.777 253.967C286.071 254.241 287.203 254.059 287.412 253.716C287.62 253.373 287.609 252.945 287.591 252.544C287.533 251.275 287.476 250.007 287.418 248.738C287.357 247.379 287.033 244.447 287.033 244.447M280.477 253.821C280.567 254.105 280.674 254.403 280.904 254.593C281.353 254.965 282.081 254.735 282.435 254.272C282.789 253.809 282.869 253.199 282.936 252.621C283.019 251.91 283.1 251.173 282.87 250.496C282.64 249.819 282.003 249.223 281.291 249.286C280.636 249.344 280.129 249.942 279.976 250.582C279.823 251.221 279.952 251.892 280.111 252.53C280.219 252.964 280.341 253.394 280.477 253.821Z" fill="#E7EAEE"/>
<path fill-rule="evenodd" clip-rule="evenodd" d="M323.312 152.123C322.459 153.404 321.534 154.701 320.213 155.492C318.893 156.283 317.071 156.437 315.884 155.456C314.576 154.375 314.495 152.425 314.598 150.73C314.638 150.078 314.69 149.42 314.877 148.794C315.202 147.708 315.91 146.78 316.649 145.921C317.545 144.878 318.539 143.872 319.783 143.285C321.026 142.698 322.572 142.595 323.737 143.325C325.133 144.199 325.649 146.059 325.384 147.684C325.12 149.308 324.225 150.753 323.312 152.123ZM320.602 153.478C321.678 152.332 322.601 151.043 323.338 149.655C323.824 148.741 324.236 147.748 324.217 146.714C324.198 145.68 323.652 144.599 322.692 144.215C321.441 143.715 320.067 144.515 319.022 145.364C318.277 145.969 317.557 146.633 317.079 147.464C316.777 147.99 316.581 148.569 316.387 149.144C316.019 150.23 315.646 151.363 315.786 152.502C315.926 153.64 316.741 154.784 317.882 154.902C318.938 155.011 319.875 154.252 320.602 153.478Z" fill="#FFB61D"/>
<path fill-rule="evenodd" clip-rule="evenodd" d="M103.529 166.596C104.866 167.95 105.969 169.534 106.776 171.256C107.588 172.988 106.77 175.213 105.178 176.272C103.586 177.332 101.434 177.318 99.6884 176.537C97.943 175.756 96.5713 174.299 95.5611 172.676C94.7995 171.452 94.209 170.081 94.1457 168.64C94.0824 167.2 94.6126 165.685 95.7518 164.802C96.9041 163.908 98.5244 163.781 99.9179 164.209C101.311 164.638 102.505 165.559 103.529 166.596ZM98.3143 165.773C97.1578 165.654 96.1305 166.715 95.9321 167.861C95.7337 169.006 96.1704 170.169 96.7355 171.185C97.9608 173.388 100.147 175.345 102.665 175.223C103.96 175.161 105.379 174.264 105.356 172.968C105.346 172.408 105.069 171.891 104.793 171.403C104.06 170.107 103.268 168.825 102.21 167.778C101.152 166.73 99.7953 165.925 98.3143 165.773Z" fill="#FFB61D"/>
<path fill-rule="evenodd" clip-rule="evenodd" d="M204.592 337.036C205.521 336.33 206.675 335.874 207.839 335.949C209.002 336.024 210.154 336.691 210.641 337.751C211.163 338.888 210.838 340.301 210.023 341.251C209.208 342.2 207.98 342.725 206.74 342.898C205.895 343.016 204.886 342.91 204.423 342.192C204.2 341.846 204.149 341.419 204.104 341.01C204.023 340.274 203.943 339.539 203.862 338.804C203.828 338.492 203.795 338.169 203.895 337.872C204.013 337.523 204.299 337.259 204.592 337.036ZM208.265 339.151C208.4 339.047 208.541 338.935 208.6 338.775C208.789 338.263 208.049 337.923 207.504 337.936C206.713 337.953 205.698 338.487 205.94 339.24C206.08 339.676 206.617 339.878 207.068 339.798C207.519 339.718 207.902 339.43 208.265 339.151Z" fill="#2A323C"/>
<path fill-rule="evenodd" clip-rule="evenodd" d="M336.097 101.932C343.331 109.421 349.041 118.375 352.778 128.093C353.035 128.76 353.284 129.502 353.039 130.173C351.153 135.346 347.515 139.659 343.947 143.853L337.107 151.891C334.93 154.449 332.753 157.008 330.503 159.501C319.047 172.198 305.511 183.301 289.833 190.132C289.242 190.39 288.607 190.647 287.97 190.544C287.333 190.441 286.736 189.822 286.902 189.199C288.841 181.953 290.791 174.378 289.236 167.041C288.861 165.271 288.443 163.042 289.905 161.978C301.746 153.355 310.27 141.031 318.44 128.874C320.495 125.817 322.544 122.752 324.362 119.549C327.589 113.862 330.075 107.755 331.736 101.43C331.964 100.562 333.06 100.172 333.928 100.399C334.796 100.626 335.474 101.287 336.097 101.932ZM331.035 111.232C330.3 110.928 329.622 111.75 329.247 112.452C328.842 113.211 328.437 113.972 328.031 114.734C320.537 128.812 312.927 143.106 301.505 154.194C300.426 155.242 299.22 156.507 299.419 157.998C300.057 162.777 297.505 167.824 293.279 170.144C291.36 171.197 291.383 173.915 291.664 176.086C291.777 176.955 292.105 178.044 292.978 178.118C295.539 178.333 297.997 179.594 299.667 181.548C300.194 182.165 301.192 181.78 301.878 181.348C319.157 170.486 332.433 154.441 345.395 138.677C345.842 138.133 346.318 137.448 346.085 136.784C344.123 131.196 344.438 124.846 346.942 119.479C345.464 116.54 343.704 113.742 341.692 111.139C338.344 112.592 334.407 112.626 331.035 111.232ZM290.052 187.262C290.733 187.619 291.559 187.28 292.24 186.924C294.032 185.988 295.759 184.927 297.402 183.749C297.836 183.438 297.965 182.816 297.812 182.305C297.658 181.793 297.274 181.38 296.849 181.058C295.52 180.049 293.663 179.784 292.105 180.38C291.817 180.49 291.531 180.634 291.333 180.87C291.101 181.146 291.016 181.514 290.941 181.867C290.565 183.651 290.268 185.452 290.052 187.262ZM338.574 107.511C337.4 105.215 335.59 103.249 333.398 101.891C332.636 102.563 332.488 103.584 332.337 104.625C332.233 105.339 332.128 106.063 331.822 106.69C331.722 106.894 331.601 107.089 331.479 107.284C331.248 107.655 331.018 108.024 330.943 108.45C330.83 109.099 331.38 109.914 332.003 109.699C332.51 109.525 333.041 109.637 333.577 109.75C333.86 109.81 334.144 109.87 334.426 109.888C336.072 109.994 337.437 108.705 338.574 107.511ZM347.879 121.27C346.622 123.771 346.821 126.726 347.049 129.517L347.377 133.519C347.413 133.959 347.653 134.553 348.077 134.431C348.34 133.694 348.842 133.086 349.345 132.476C349.785 131.942 350.226 131.408 350.51 130.785C351.47 128.674 350.404 126.241 349.354 124.174L347.879 121.27ZM291.581 165.689C291.633 166.472 292.446 167.058 293.23 167.036C294.015 167.014 294.721 166.506 295.179 165.87C295.637 165.233 295.889 164.474 296.134 163.729L296.942 161.267C297.168 160.581 297.182 159.532 296.464 159.451C296.205 159.422 295.957 159.559 295.745 159.71C294.94 160.282 294.355 161.104 293.784 161.909L292.231 164.104C291.894 164.58 291.542 165.107 291.581 165.689ZM106.296 159.119C100.839 149.126 97.3545 138.061 96.1027 126.744C96.0257 126.048 95.2583 125.597 94.5586 125.621C93.8589 125.645 93.2236 126.015 92.6285 126.384C84.1803 131.622 76.9889 138.872 71.8196 147.362C71.2963 148.222 70.7805 149.134 70.7144 150.138C70.6496 151.124 71.0258 152.079 71.4134 152.988C77.1157 166.347 86.6248 177.678 96.2775 188.533C103.712 196.893 111.671 205.355 122.037 209.563C123.712 210.244 126.146 210.521 126.856 208.858C127.063 208.374 127.052 207.83 127.041 207.303L127.04 207.283C126.926 201.647 127.567 195.995 128.94 190.527C129.257 189.262 129.422 187.555 128.239 187.007C123.788 184.944 120.738 180.785 117.885 176.794C113.786 171.059 109.676 165.306 106.296 159.119ZM115.931 202.799C115.318 202.962 114.706 202.576 114.194 202.201C104.759 195.288 97.4478 185.932 90.2642 176.702L77.5872 160.414C79.727 159.051 79.9987 156.09 80.0453 153.554C80.106 150.256 80.1501 146.862 78.9591 143.787C78.6943 143.103 79.0391 142.346 79.4081 141.713C80.991 138.997 83.1861 136.64 85.7829 134.868C86.0343 134.697 86.3005 134.526 86.6018 134.484C87.3971 134.371 88.0072 135.145 88.4321 135.826C90.1105 138.518 92.4172 141.562 95.5814 141.34C96.7861 141.256 97.4544 142.675 97.8058 143.83C102.177 158.199 110.383 171.16 120.006 182.691C121.257 184.189 121.571 186.211 121.882 188.215C122.228 190.45 122.572 192.662 124.206 194.099C125.602 195.325 125.343 197.529 124.966 199.348C124.889 199.721 124.798 200.12 124.515 200.374C124.305 200.563 124.021 200.641 123.748 200.714L115.931 202.799ZM93.5646 138.012C91.8339 136.802 90.3389 135.257 89.1876 133.487C88.9385 133.104 88.6966 132.675 88.7403 132.221C88.7879 131.726 89.1598 131.331 89.5298 131C90.4436 130.182 91.4764 129.497 92.5854 128.974C92.9916 128.782 93.516 128.627 93.8534 128.923C94.052 129.098 94.1147 129.376 94.1666 129.636L95.7651 137.631C95.8596 138.103 95.3639 138.529 94.8821 138.543C94.4003 138.556 93.9598 138.288 93.5646 138.012ZM77.7454 153.475C77.7115 154.979 77.5965 156.667 76.4695 157.663C76.2337 157.691 76.0771 157.432 75.9847 157.213C75.1727 155.291 74.3495 153.323 74.2216 151.24C74.0938 149.157 74.7916 146.902 76.4936 145.695C76.7239 145.531 77.0617 145.396 77.265 145.592C77.3467 145.671 77.3816 145.785 77.4114 145.895C77.8739 147.595 77.8374 149.385 77.7977 151.146L77.7454 153.475ZM123.672 203.496C123.945 203.719 123.974 204.119 123.982 204.472L124.063 208.338C122.477 207.459 120.958 206.46 119.523 205.352C119.251 205.142 118.952 204.802 119.119 204.501C119.201 204.352 119.373 204.28 119.533 204.221C120.559 203.843 121.62 203.559 122.698 203.375C123.031 203.318 123.41 203.281 123.672 203.496ZM123.763 188.27C123.749 188.095 123.749 187.905 123.852 187.764C124.126 187.392 124.72 187.729 124.972 188.117C125.577 189.051 125.71 190.274 125.321 191.317C124.433 190.556 123.86 189.436 123.763 188.27ZM359.944 158.92C361.524 156.93 364.405 156.643 366.946 156.705C367.539 156.72 368.15 156.749 368.691 156.995C370.194 157.68 370.513 159.644 370.564 161.295C370.61 162.797 370.601 164.319 370.236 165.777C369.871 167.235 369.116 168.64 367.908 169.535C367.365 169.937 366.736 170.23 366.069 170.342C365.04 170.514 363.986 170.249 363.008 169.885C361.704 169.4 360.467 168.734 359.345 167.911C358.796 167.51 358.23 166.984 358.213 166.304C358.172 164.737 358.347 163.165 358.732 161.645C358.978 160.674 359.321 159.705 359.944 158.92ZM364.042 168.833C366.071 169.415 368.229 167.845 368.998 165.879C369.767 163.913 369.483 161.705 369.06 159.637C368.898 158.843 368.049 158.399 367.267 158.187C366.056 157.858 364.769 157.814 363.538 158.06C362.927 158.183 362.302 158.392 361.873 158.844C361.639 159.091 361.478 159.395 361.319 159.696L360.13 161.942C359.921 162.338 359.711 162.736 359.588 163.166C359.22 164.452 359.706 165.879 360.603 166.87C361.501 167.861 362.757 168.464 364.042 168.833ZM336.884 191.549C338.745 192.199 340.431 193.34 341.725 194.827C342.837 196.105 343.684 197.764 343.45 199.442C343.364 200.057 343.137 200.645 342.878 201.21C341.897 203.351 340.208 205.403 337.89 205.817C336.674 206.035 335.42 205.774 334.25 205.376C332.898 204.916 331.608 204.27 330.429 203.463C329.803 203.035 329.182 202.527 328.908 201.821C328.719 201.334 328.713 200.797 328.72 200.275C328.738 198.983 328.823 197.67 329.274 196.459C329.844 194.927 330.959 193.662 332.141 192.533C332.616 192.079 333.121 191.632 333.731 191.389C334.73 190.991 335.868 191.195 336.884 191.549ZM338.786 202.809C340.131 201.479 340.914 199.55 340.701 197.67C340.488 195.79 339.215 194.026 337.436 193.384C336.696 193.118 335.876 193.043 335.119 193.253C334.71 193.366 334.326 193.559 333.969 193.786C332.437 194.76 331.362 196.422 331.1 198.218C330.839 200.015 331.397 201.914 332.588 203.284C333.351 204.161 334.595 204.537 335.749 204.392C336.902 204.246 337.96 203.627 338.786 202.809ZM168.961 180.468C168.899 179.582 167.714 179.349 166.826 179.375C162.163 179.513 157.506 179.862 152.875 180.422C152.114 180.514 152.053 181.741 152.663 182.204C153.274 182.667 154.124 182.581 154.883 182.473L168.961 180.468ZM154.055 186.461C154.096 186.005 154.669 185.84 155.124 185.788L182.588 182.678C183.085 182.622 183.614 182.571 184.061 182.794C184.508 183.018 184.796 183.63 184.504 184.036C184.289 184.335 183.877 184.396 183.51 184.431L155.419 187.157C154.835 187.214 154.004 187.046 154.055 186.461ZM215.625 191.087C214.089 191.425 212.512 190.871 211.038 190.32C206.273 188.539 201.527 186.709 196.8 184.83C194.892 184.072 192.798 185.208 191.081 186.335C186.115 189.598 181.333 193.142 176.767 196.944C175.594 197.921 173.789 197.236 172.606 196.271C172.356 196.067 172.109 195.849 171.862 195.631C170.941 194.817 170.008 193.992 168.816 193.823C166.984 193.563 165.372 194.952 164.045 196.241L155.485 204.555C154.333 205.673 153.122 207.463 154.146 208.698C154.822 209.513 156.063 209.472 157.115 209.35C162.607 208.713 168.072 207.821 173.535 206.928C182.563 205.454 191.587 203.98 200.719 203.664C202.743 203.594 204.767 203.581 206.792 203.568C208.06 203.56 209.328 203.552 210.596 203.53C216.314 203.43 222.027 203.045 227.707 202.376C227.981 202.343 228.294 202.287 228.437 202.05C228.544 201.871 228.517 201.645 228.487 201.438L226.081 185.069C225.959 184.237 225.745 183.276 224.985 182.917C224.217 182.554 223.313 183.022 222.682 183.591C221.696 184.482 220.936 185.665 220.187 186.833C218.957 188.747 217.755 190.619 215.625 191.087ZM176.557 200.044C181.695 195.819 187.052 191.862 192.6 188.192C193.74 187.439 195.124 186.667 196.397 187.162L209.85 192.39C212.096 193.262 214.551 194.146 216.856 193.446C219.536 192.633 221.138 189.967 222.487 187.513C222.75 187.036 223.513 187.091 223.891 187.483C224.269 187.875 224.365 188.452 224.443 188.991L225.427 195.818C225.578 196.866 225.727 197.953 225.424 198.968C225.121 199.983 224.231 200.905 223.173 200.884C205.855 200.55 188.505 201.978 171.475 205.139C170.948 205.237 170.42 205.336 169.893 205.436C165.824 206.204 161.741 206.975 157.607 206.989C159.603 204.161 162.133 201.759 164.645 199.378C166.024 198.07 167.749 196.66 169.6 197.088C170.6 197.319 171.367 198.037 172.13 198.752C172.375 198.981 172.619 199.21 172.871 199.422C173.906 200.297 175.51 200.905 176.557 200.044ZM398.721 247.662C398.262 247.833 397.749 247.716 397.282 247.569C394.115 246.574 391.543 244.348 389.016 242.16C388.674 241.863 388.332 241.568 387.99 241.276C383.802 237.704 379.257 234.55 374.445 231.878C373.956 231.606 373.442 231.32 373.142 230.847C372.843 230.374 372.851 229.654 373.314 229.338C375.472 227.865 376.871 225.336 376.974 222.725C377.001 222.03 377.788 221.566 378.482 221.622C379.176 221.677 379.781 222.094 380.349 222.497L402.337 238.106C402.765 238.41 403.226 238.762 403.331 239.277C403.417 239.696 403.241 240.121 403.064 240.511C402.116 242.604 401.025 244.632 399.802 246.577C399.525 247.017 399.209 247.481 398.721 247.662ZM376.723 229.146C376.464 229.602 376.241 230.261 376.659 230.576L394.603 244.087C395.586 244.827 397.113 245.52 397.886 244.564C398.775 243.466 399.605 242.32 400.371 241.134C400.581 240.809 400.795 240.438 400.719 240.059C400.65 239.713 400.359 239.462 400.085 239.24C393.5 233.9 386.528 229.039 379.241 224.705L376.723 229.146ZM367.793 237.408C368.083 236.911 368.434 236.367 368.997 236.245C369.427 236.151 369.864 236.336 370.26 236.528C372.421 237.577 374.4 238.999 376.083 240.713C376.488 241.125 376.539 241.788 376.358 242.338C376.178 242.887 375.806 243.349 375.442 243.797C374.857 244.519 374.233 245.269 373.369 245.611C372.437 245.98 371.353 245.802 370.47 245.327C369.587 244.852 368.879 244.108 368.254 243.324C367.439 242.3 366.71 241.073 366.837 239.771C366.92 238.918 367.361 238.148 367.793 237.408ZM371.572 243.136C372.931 243.665 373.8 243.246 373.836 242.355C373.858 241.792 373.368 241.359 372.922 241.016L371.572 239.978C371.126 239.635 370.634 239.276 370.071 239.279C369.508 239.283 368.936 239.863 369.166 240.377C369.131 240.625 370.213 242.608 371.572 243.136ZM366.208 254.106C366.54 254.288 366.891 254.465 367.269 254.473C367.646 254.481 368.056 254.267 368.149 253.901C368.366 253.042 368.935 252.329 369.492 251.631C369.553 251.555 369.613 251.479 369.673 251.403C370.283 250.631 370.872 249.757 370.888 248.773C370.904 247.79 370.09 246.742 369.115 246.876C368.348 246.982 367.634 246.479 367.076 245.94C366.987 245.854 366.899 245.766 366.81 245.678C366.344 245.213 365.869 244.74 365.25 244.538C364.513 244.298 363.509 244.68 363.451 245.452C363.333 247.009 362.04 248.181 360.84 249.179C360.481 249.478 360.805 250.051 361.141 250.376C362.654 251.838 364.363 253.096 366.208 254.106ZM366.448 251.141L364.085 249.542C363.484 249.136 363.532 248.14 364.068 247.651C364.603 247.161 365.436 247.124 366.119 247.369C366.802 247.614 367.37 248.094 367.922 248.565C368.287 248.877 368.338 249.444 368.171 249.894C368.003 250.345 367.663 250.705 367.332 251.053C367.218 251.172 367.091 251.298 366.928 251.319C366.755 251.341 366.593 251.239 366.448 251.141ZM385.184 251.246L386.339 248.791C386.693 248.039 387.036 247.109 386.558 246.429C386.393 246.193 386.148 246.026 385.909 245.865L381.704 243.032C381.251 242.726 380.759 242.409 380.213 242.417C379.565 242.428 379.022 242.89 378.562 243.346C377.873 244.029 377.229 244.758 376.635 245.525C376.183 246.109 375.811 247.07 376.429 247.476L382.863 251.697C383.37 252.03 384.015 252.372 384.548 252.082C384.861 251.912 385.032 251.569 385.184 251.246ZM383.758 249.508C383.488 249.57 383.206 249.501 382.94 249.421C381.316 248.932 379.83 247.995 378.688 246.74C378.308 246.323 378.523 245.586 379.005 245.294C379.488 245.001 380.115 245.069 380.635 245.287C380.971 245.428 381.279 245.625 381.587 245.821C381.755 245.929 381.924 246.037 382.098 246.136C382.284 246.242 382.479 246.34 382.673 246.437L382.674 246.438C383.227 246.715 383.781 246.992 384.158 247.472C384.668 248.12 384.562 249.323 383.758 249.508ZM385.931 252.25C386.672 252.074 386.899 251.318 387.134 250.532C387.329 249.883 387.53 249.213 388.032 248.833C388.897 248.18 390.122 248.726 391.054 249.281L394.018 251.044C394.49 251.325 394.974 251.615 395.312 252.048C395.651 252.481 395.817 253.094 395.58 253.589C395.422 253.92 395.123 254.14 394.822 254.361C394.575 254.542 394.327 254.725 394.153 254.97C393.93 255.286 393.848 255.682 393.766 256.073C393.663 256.563 393.562 257.047 393.187 257.355C392.505 257.917 391.491 257.467 390.736 257.006L386.561 254.454C386.14 254.197 385.696 253.915 385.489 253.466C385.282 253.018 385.451 252.365 385.931 252.25ZM391.405 254.784C392.003 254.58 392.483 254.136 392.944 253.705C393.279 253.392 392.831 252.877 392.432 252.652L389.874 251.212C389.607 251.062 389.236 250.925 389.029 251.151C388.363 251.878 388.266 253.064 388.806 253.89C389.346 254.715 390.471 255.103 391.405 254.784ZM362.055 254.695C361.482 254.533 360.899 254.369 360.431 254.05C359.705 253.555 358.694 253.674 357.932 254.112C357.169 254.55 356.601 255.252 356.051 255.938C355.746 256.318 355.432 256.715 355.315 257.189C355.199 257.662 355.338 258.237 355.764 258.474L360.225 260.961C360.563 261.149 360.94 261.343 361.317 261.26C361.693 261.176 361.953 260.842 362.179 260.531L363.327 258.952C363.966 258.073 364.633 256.952 364.166 255.971C363.792 255.184 362.936 254.943 362.055 254.695ZM360.643 258.785C360.41 258.847 360.17 258.735 359.955 258.625L356.916 257.078C357.5 256.251 358.611 255.934 359.619 256.034C360.627 256.135 361.562 256.582 362.473 257.023L361.077 258.474C360.952 258.604 360.817 258.739 360.643 258.785ZM339.589 196.941C340.06 197.659 339.912 198.617 339.6 199.417C339.189 200.47 338.493 201.446 337.511 202.006C336.529 202.566 335.239 202.648 334.282 202.046C333.325 201.444 332.844 200.105 333.357 199.097C333.476 198.864 333.637 198.658 333.799 198.451H333.8C333.954 198.253 334.109 198.055 334.226 197.834C334.304 197.689 334.364 197.534 334.424 197.38C334.51 197.158 334.596 196.936 334.733 196.742C335.221 196.052 336.18 195.917 337.025 195.928C337.983 195.942 339.064 196.14 339.589 196.941ZM337.451 197.397C336.141 197.381 334.911 198.479 334.782 199.783C334.729 200.316 334.955 200.979 335.485 201.052C335.883 201.107 336.232 200.8 336.499 200.501C337.064 199.867 337.55 199.163 337.94 198.409C338.071 198.156 338.187 197.832 338.015 197.605C337.889 197.439 337.658 197.4 337.451 197.397ZM368.792 163.22C368.691 162.02 367.889 160.84 366.722 160.539C365.241 160.157 363.806 161.2 362.63 162.178C362.282 162.468 361.919 162.779 361.772 163.207C361.522 163.933 361.971 164.698 362.414 165.325C362.921 166.043 363.463 166.765 364.203 167.24C364.943 167.714 365.93 167.899 366.707 167.486C367.102 167.276 367.41 166.932 367.678 166.573C368.397 165.607 368.893 164.42 368.792 163.22ZM365.507 166.296C365.006 166.371 364.485 166.169 364.115 165.821C363.562 165.299 363.342 164.461 363.536 163.726C363.739 162.952 364.389 162.312 365.167 162.121C365.944 161.93 366.817 162.196 367.356 162.787C367.335 162.949 367.319 163.111 367.302 163.273C367.245 163.825 367.187 164.378 366.996 164.896C366.749 165.567 366.215 166.19 365.507 166.296ZM325.639 353.463C328.37 343.802 333.526 335.034 338.629 326.387C339.491 324.926 340.56 323.316 342.235 323.039C342.895 322.93 343.243 322.213 343.467 321.582C346.235 313.819 346.502 305.186 344.219 297.267C343.567 295.006 344.37 292.61 345.163 290.395L351.309 273.25C350.67 272.145 349.462 271.659 348.237 271.167C347.213 270.755 346.177 270.339 345.455 269.552C343.415 267.329 344.954 263.793 346.552 261.234L374.566 216.37C375.71 214.538 378.22 213.964 380.324 214.452C382.429 214.94 384.226 216.265 385.956 217.557L406.387 232.817C410.042 235.547 414.077 239.035 413.867 243.592C413.751 246.114 412.307 248.356 410.912 250.459L394.719 274.858C392.626 278.013 392.372 281.849 392.117 285.702C392.001 287.445 391.886 289.191 391.599 290.88C390.203 299.118 384.717 305.94 379.461 312.476C379.251 312.737 379.042 312.997 378.833 313.257C373.393 320.033 367.95 327.598 367.645 336.282C367.28 346.631 362.363 356.739 354.446 363.415L361.336 346.701C362.974 342.727 364.491 337.782 361.749 334.47C360.509 332.972 358.634 332.179 356.834 331.441L346.134 327.051C345.396 326.748 344.636 326.441 343.838 326.436C341.352 326.421 339.874 329.117 338.866 331.389C335.379 339.25 330.926 346.681 325.639 353.463ZM360.822 330.765C362.656 331.444 365.239 331.857 366.109 330.104C370.316 321.622 374.639 312.977 381.337 306.285C385.197 302.428 387.564 297.281 388.902 291.99C390.241 286.7 390.62 281.221 390.994 275.776C389.369 276.368 389.227 278.561 389.234 280.291C389.249 284.104 388.583 287.918 387.275 291.5C387.002 292.25 386.634 293.06 385.902 293.376C385.169 293.692 384.089 293.057 384.336 292.298C386.226 286.472 386.93 280.264 386.394 274.162C386.227 272.27 385.875 270.247 384.53 268.906C384.676 271.893 384.822 274.894 384.519 277.869C383.995 283.016 382.149 287.924 380.32 292.764C380.083 293.393 379.795 294.078 379.192 294.373C378.589 294.668 377.652 294.2 377.81 293.547L380.549 282.223C382.056 275.996 383.537 269.298 381.205 263.331C380.031 263.252 379.754 264.932 379.859 266.104C380.577 274.134 378.357 282.104 376.159 289.861C375.903 290.766 374.995 291.899 374.289 291.276C373.985 291.007 373.971 290.545 373.995 290.139C374.134 287.858 374.759 285.65 375.384 283.444C375.578 282.76 375.772 282.075 375.951 281.389C377.602 275.063 378.024 268.418 377.184 261.934C375.737 263.789 375.123 266.142 374.544 268.422L371.105 281.957C369.551 288.075 367.565 294.802 362.175 298.089C361.746 298.35 361.248 298.594 360.758 298.478C360.15 298.334 359.806 297.705 359.552 297.134C356.112 289.386 355.683 280.347 358.372 272.307C358.535 271.819 358.039 271.31 357.526 271.269C357.013 271.229 356.533 271.508 356.113 271.805C351.7 274.919 350.009 280.559 348.605 285.775L346.739 292.71C346.466 293.723 346.192 294.745 346.135 295.792C346.049 297.384 346.464 298.942 346.878 300.491C346.974 300.85 347.07 301.209 347.159 301.567C348.954 308.772 348.143 316.597 344.908 323.28C344.431 324.266 345.691 325.162 346.717 325.542L360.822 330.765ZM367.794 264.581C367.058 264.074 366.27 263.495 366.042 262.631C365.693 261.306 366.955 259.975 368.314 259.797C369.672 259.618 371.001 260.274 372.127 261.055C373.713 262.155 375.72 260.478 376.908 258.956C375.306 257.998 373.778 256.51 373.715 254.645C373.652 252.779 375.92 251.002 377.429 252.1C378.015 252.526 378.724 252.787 379.424 253.045C380.474 253.431 381.506 253.811 382.082 254.73C382.737 255.776 382.504 257.19 381.838 258.228C381.171 259.267 380.145 260.012 379.143 260.732C380.581 260.874 381.981 261.387 383.171 262.207L384.468 258.428C384.569 258.135 384.678 257.828 384.909 257.621C385.353 257.222 386.045 257.346 386.614 257.527C388.108 258 389.572 258.74 390.558 259.958C391.544 261.176 391.955 262.946 391.266 264.353C390.577 265.76 388.633 266.511 387.316 265.662C387.043 265.486 386.768 265.251 386.493 265.015C385.759 264.386 385.025 263.757 384.316 264.261C386.48 265.946 387.967 268.478 388.384 271.189C395.197 260.811 401.937 250.386 408.602 239.913C409.239 238.913 409.752 237.338 408.716 236.763C404.289 234.307 400.376 231.018 396.473 227.737C391.545 223.595 386.633 219.466 380.721 217.041C380.345 216.887 379.935 216.738 379.543 216.842C379.132 216.95 378.843 217.308 378.584 217.645C367.574 232.015 357.693 247.25 349.062 263.162C347.858 265.382 349.469 268.029 351.011 270.029C351.781 271.028 353.269 272.084 354.109 271.143C355.167 269.956 356.903 269.278 358.403 269.808C359.902 270.337 360.835 272.288 360.02 273.653C359.43 274.641 360.585 275.738 361.593 276.291C363.609 277.395 365.677 278.404 367.787 279.314C368.081 279.441 368.422 279.565 368.708 279.422C368.98 279.285 369.09 278.961 369.175 278.669L371.513 270.624C371.898 269.301 372.155 267.584 371.02 266.803L367.794 264.581ZM409.618 242.029C409.307 241.923 409.024 242.234 408.842 242.506L391.335 268.712C390.865 269.416 390.382 270.15 390.245 270.986C390.107 271.823 390.415 272.795 391.176 273.168C392.437 273.785 393.756 272.489 394.565 271.342L410.83 248.289C412.038 246.578 411.016 244.238 409.982 242.416C409.893 242.258 409.789 242.088 409.618 242.029ZM360.33 277.022C360.021 276.798 359.561 276.932 359.303 277.212C359.045 277.493 358.939 277.877 358.842 278.246C358.603 279.153 358.362 280.07 358.327 281.007C358.291 281.945 358.462 282.877 358.631 283.8L360.308 292.913C360.378 293.295 360.46 293.701 360.731 293.979C361.002 294.257 361.53 294.318 361.749 293.997C364.231 290.368 366.747 286.669 368.045 282.469C368.206 281.946 368.253 281.212 367.741 281.02C365.106 280.028 362.606 278.68 360.33 277.022ZM379.689 254.539C378.849 253.738 377.738 253.227 376.584 253.109C375.531 253.002 374.924 254.48 375.404 255.423C375.885 256.365 376.946 256.832 377.928 257.226C378.621 257.504 379.462 257.766 380.066 257.327C380.935 256.696 380.466 255.279 379.689 254.539ZM372.778 265.098C373.12 264.854 373.165 264.356 373.069 263.947C372.708 262.404 371.017 261.616 369.498 261.165C368.911 260.99 368.18 260.868 367.766 261.32C367.42 261.697 367.494 262.322 367.792 262.738C368.09 263.154 368.557 263.41 369.007 263.653L371.352 264.916C371.798 265.156 372.365 265.392 372.778 265.098ZM386.123 259.539C385.626 260.204 385.677 261.17 386.091 261.889C386.506 262.608 387.223 263.108 387.98 263.448C388.24 263.564 388.525 263.667 388.804 263.611C389.043 263.564 389.249 263.402 389.396 263.206C389.937 262.482 389.674 261.391 389.054 260.734C388.433 260.076 387.55 259.747 386.7 259.439C386.553 259.385 386.382 259.334 386.248 259.414C386.197 259.445 386.159 259.491 386.123 259.539ZM150.905 319.809C151.23 317.409 151.685 314.768 153.57 313.248C155.074 312.036 157.138 311.842 159.069 311.805C165.394 311.684 171.739 312.711 177.702 314.822C179.589 315.489 181.563 316.369 182.595 318.084C183.712 319.94 183.439 322.282 183.131 324.426L178.341 357.701C181.643 348.065 184.015 338.109 185.41 328.019C186.062 323.311 186.289 317.909 183.003 314.476C177.874 309.115 178.014 301.48 178.156 293.717C178.279 287.017 178.404 280.222 175.144 274.711C174.081 272.913 176.452 271.056 178.424 270.366C187.115 267.323 196.379 265.927 205.581 266.273C207.268 279.6 207.725 293.082 206.943 306.492C206.767 309.5 211.033 310.276 214.027 309.944L317.903 298.425C318.422 298.368 318.985 298.29 319.353 297.919C319.784 297.486 319.805 296.806 319.799 296.195C319.554 271.857 318.853 247.524 317.698 223.212C317.653 222.263 317.532 221.174 316.747 220.64C316.158 220.239 315.383 220.292 314.674 220.361L240.531 227.548C245.402 204.576 250.3 181.173 248.079 157.795C231.871 168.602 210.957 168.521 191.51 167.376C190.702 167.329 189.892 167.28 189.08 167.232C170.366 166.114 150.85 164.947 134.026 173.043C142.835 196.399 151.745 221.894 144.423 245.758C143.775 247.869 143.004 249.943 142.234 252.016C141.046 255.212 139.859 258.406 139.124 261.731C137.914 267.213 138.096 273.35 141.34 277.931C146.037 284.565 149.77 292.108 150.622 300.192C151.43 307.863 149.624 315.471 147.821 323.071C145.937 331.011 144.055 338.942 145.159 346.925C145.345 348.276 145.682 349.729 146.74 350.59L150.905 319.809ZM158.254 223.41C160.219 223.48 161 225.946 161.251 227.895L163.24 243.333C159.356 241.319 153.893 244.737 154.005 249.109C150.733 242.793 150.236 235.555 149.743 228.39C149.636 226.831 149.53 225.276 149.394 223.734C147.95 207.25 142.982 191.305 138.044 175.511C137.34 173.258 140.381 171.798 142.716 171.456C158.036 169.21 173.542 169.52 189.055 169.83C196.087 169.971 203.12 170.111 210.138 170.014C222.608 169.841 235.803 168.661 245.918 161.366C248.192 176.522 245.102 191.814 242.051 206.914C241.638 208.956 241.226 210.995 240.828 213.03C237.488 230.106 235.215 248.307 241.605 264.491C241.874 265.173 240.956 265.687 240.239 265.837C234.983 266.933 229.549 267.169 224.218 266.533C221.932 266.26 219.669 265.829 217.406 265.397C215.702 265.072 213.997 264.747 212.282 264.49C199.37 262.553 185.892 264.564 174.108 270.186C173.636 270.411 173.074 270.306 172.579 270.135C170.193 269.308 168.49 267.103 167.641 264.725C166.791 262.347 166.67 259.78 166.556 257.257L166.081 246.675C166.064 246.295 166.164 245.778 166.544 245.766C187.187 245.122 207.807 243.73 228.349 241.595C227.481 236.735 227.395 231.735 228.095 226.848C228.537 223.763 225.636 220.949 222.547 220.537C219.457 220.124 216.402 221.523 213.837 223.294C212.877 223.956 211.955 224.675 211.034 225.395C209.494 226.597 207.954 227.799 206.24 228.731C205.118 229.34 203.769 229.832 202.591 229.34C201.149 228.737 200.666 227.022 200.235 225.491C200.207 225.395 200.181 225.299 200.154 225.205C199.591 223.233 198.663 221.27 197.03 220.03C195.397 218.79 192.933 218.481 191.321 219.749C189.943 220.832 189.508 222.709 189.277 224.447C189.256 224.601 189.236 224.757 189.216 224.913C189.012 226.51 188.8 228.162 187.847 229.443C186.8 230.849 184.464 231.452 183.317 230.127C181.046 227.507 177.063 226.957 173.72 227.877C170.377 228.797 167.517 230.921 164.743 233.001C163.07 230.383 162.932 226.857 164.395 224.116L164.419 224.07C164.694 223.555 165.01 222.964 164.767 222.44C164.616 222.116 164.284 221.916 163.955 221.775C161.988 220.932 159.475 221.653 158.254 223.41ZM217.362 267.661C218.461 267.88 219.813 268.37 219.881 269.49C220.53 280.165 229.014 289.759 239.445 292.122C249.876 294.484 261.436 289.706 267.518 280.909C273.6 272.111 274.077 259.89 269.089 250.428C263.741 240.282 250.743 234.893 239.784 238.28C239.276 236.037 239.333 233.669 239.949 231.454C240.064 231.043 240.213 230.613 240.545 230.344C240.869 230.082 241.307 230.022 241.722 229.972L272.592 226.254C275.306 225.927 278.027 225.6 280.76 225.577C292.515 225.481 304.261 224.308 315.804 222.08C317.597 246.163 318.441 270.317 318.333 294.467C318.328 295.612 317.979 297.135 316.834 297.168C297.406 297.734 278.13 300.29 258.847 302.846C245.892 304.564 232.933 306.282 219.922 307.398C217.022 307.646 214.102 307.865 211.205 307.589C210.68 307.539 210.087 307.431 209.802 306.988C209.63 306.72 209.61 306.385 209.596 306.067L207.864 267.441C207.841 266.942 207.871 266.34 208.304 266.089C208.59 265.923 208.948 265.983 209.273 266.048L217.362 267.661ZM164.208 258.718C163.901 260.724 163.555 262.981 164.87 264.499C169.772 270.161 174.865 276.21 176.168 283.585C176.777 287.029 176.515 290.573 176.255 294.103C175.927 298.55 175.601 302.973 177.017 307.145C177.054 307.254 177.092 307.363 177.13 307.472C177.39 308.216 177.655 308.974 177.571 309.75C177.474 310.64 176.701 311.536 175.819 311.384L165.57 309.617C162.176 309.031 158.59 308.462 155.366 309.673C154.743 309.907 154.026 309.496 153.692 308.92C153.358 308.344 153.314 307.651 153.285 306.986C153.25 306.183 153.223 305.374 153.197 304.563C153.032 299.46 152.863 294.263 150.501 289.793L142.967 275.529C141.854 273.424 140.716 271.224 140.639 268.844C140.588 267.255 141.017 265.694 141.443 264.161L145.201 250.622C145.993 247.771 146.83 244.83 148.704 242.541C153.257 250.265 153.706 260.258 149.865 268.359C149.509 269.109 150.595 269.88 151.369 269.581C152.143 269.283 152.535 268.435 152.808 267.652C153.901 264.514 154.284 261.207 154.668 257.894C154.978 255.214 155.289 252.531 155.976 249.932C156.397 248.341 157.005 246.715 158.234 245.62C159.463 244.524 161.468 244.149 162.756 245.175C163.742 245.96 164.063 247.301 164.25 248.547C164.745 251.835 164.742 255.198 164.243 258.485C164.232 258.562 164.22 258.64 164.208 258.718ZM181.891 231.988C183.402 233.144 184.882 234.276 186.694 234.066C188.998 233.8 190.434 231.428 191.103 229.208C191.249 228.722 191.38 228.224 191.51 227.726C191.976 225.946 192.446 224.153 193.667 222.815C194.022 222.426 194.532 222.063 195.036 222.216C195.445 222.34 195.682 222.753 195.872 223.135C196.141 223.676 196.395 224.227 196.649 224.778C197.366 226.331 198.084 227.884 199.125 229.234C200.535 231.062 202.73 232.5 205.025 232.248C207.078 232.023 208.681 230.57 210.244 229.154C210.565 228.863 210.883 228.574 211.204 228.298C214.968 225.051 219.871 223.152 224.841 223.015C224.17 224.69 224.617 226.517 225.056 228.311C225.162 228.742 225.267 229.172 225.356 229.597C226.057 232.951 225.702 236.517 224.354 239.667L191.164 242.223C183.416 242.819 175.648 243.416 167.882 243.143C167.392 243.126 166.888 243.102 166.437 242.909C165.585 242.544 165.078 241.634 164.895 240.726C164.484 238.688 165.423 236.565 166.846 235.05C168.269 233.534 170.128 232.513 171.953 231.518C173.852 230.482 175.961 229.412 178.079 229.854C179.488 230.148 180.7 231.075 181.891 231.988ZM244.741 280.335C239.713 280.231 235.356 276.129 233.863 271.327C233.558 270.346 234.192 269.27 235.067 268.732C235.941 268.194 236.999 268.067 238.019 267.952L245.387 267.124C243.146 262.769 241.55 258.084 240.667 253.267C240.587 252.83 240.514 252.371 240.653 251.949C240.895 251.207 241.694 250.817 242.433 250.569C248.419 248.557 255.606 250.999 259.126 256.242C262.646 261.485 262.185 269.063 258.054 273.839C256.265 275.907 253.921 277.433 251.452 278.607C249.347 279.608 247.072 280.383 244.741 280.335ZM268.601 254.451C269.495 257.406 269.753 260.513 269.876 263.598C267.867 263.293 265.838 263.121 263.807 263.081C263.409 257.893 259.956 253.206 255.417 250.663C250.877 248.12 245.398 247.571 240.268 248.441C240.225 247.71 240.092 246.947 239.958 246.184C239.606 244.17 239.255 242.156 240.557 240.727C241.343 239.864 242.541 239.518 243.689 239.304C248.919 238.33 254.496 239.351 259.041 242.115C263.587 244.879 267.059 249.36 268.601 254.451ZM231.724 270.803C231.716 270.899 231.707 270.993 231.703 271.083C231.669 271.8 232.003 272.458 232.334 273.108C232.423 273.283 232.511 273.457 232.592 273.631C232.975 274.457 233.161 275.544 232.52 276.191C230.971 277.755 229.601 279.498 228.447 281.374C228.162 281.838 227.46 281.876 226.991 281.599C226.521 281.323 226.23 280.829 225.959 280.357C224.245 277.367 222.487 274.239 222.273 270.799C222.246 270.372 222.293 269.854 222.673 269.654C222.84 269.566 223.037 269.564 223.226 269.563L230.895 269.54C231.079 269.539 231.271 269.541 231.431 269.632C231.807 269.846 231.764 270.342 231.724 270.803Z" fill="#2A323C"/>
</svg>
