<svg width="460" height="461" viewBox="0 0 460 461" fill="none" xmlns="http://www.w3.org/2000/svg">
<path fill-rule="evenodd" clip-rule="evenodd" d="M296.187 98.143C335.767 89.2829 372.436 99.7949 392.145 129.821C411.854 159.846 406.698 207.491 402.429 228.522C398.159 249.552 387.329 268.815 373.887 285.537C348.921 316.598 315.182 340.367 277.465 353.198C239.747 366.029 198.796 368.66 159.49 362.169C137.441 358.527 68.4687 340.689 53.5802 286.858C38.6917 233.027 29.2691 187.019 61.5104 168.33C93.7517 149.64 116.084 163.697 132.045 170.609C206.613 202.904 256.607 107.003 296.187 98.143Z" fill="#1681FE"/>
<path fill-rule="evenodd" clip-rule="evenodd" d="M351.92 148.564C358.27 148.074 365.113 148.391 370.287 152.103C375.461 155.816 377.812 163.968 373.563 168.711C378.367 166.834 384.012 170.019 386.418 174.58C388.824 179.142 388.698 184.607 387.974 189.714C386.181 202.359 381.026 214.513 373.18 224.591C372.819 225.653 372.459 226.716 372.098 227.778C381.373 230.169 417.587 244.234 407.802 278.905C398.017 313.577 355.284 326.774 350.909 330.923C343.285 338.156 331.648 338.651 321.145 338.317C295.318 337.498 269.57 334.216 244.364 328.53C242.221 328.046 239.507 327.752 238.272 329.568C229.33 342.715 210.633 343.89 194.775 342.745C174.406 341.276 154.154 338.186 134.273 333.516C122.996 330.868 111.021 327.179 103.996 317.969C95.8061 307.231 96.7519 292.344 98.0808 278.905C92.6978 281.898 83.7698 283.519 71.2967 283.768C63.9529 282.27 59.372 279.608 57.5541 275.782C49.2407 258.284 46.3899 235.737 56.7423 218.49C57.9859 216.418 59.4208 214.377 61.4458 213.058C63.5926 211.661 66.2099 211.201 68.7617 210.975C78.8266 210.084 89.1534 212.433 97.8421 217.591C97.7645 189.351 97.6869 161.111 97.6094 132.872C97.6049 131.254 97.6274 129.538 98.4896 128.17C99.7366 126.191 102.291 125.578 104.591 125.149C125.507 121.244 146.66 118.611 167.895 117.268C174.833 116.829 184.329 118.76 184.36 125.713C184.481 152.337 184.602 178.961 184.723 205.585C184.752 211.922 185.159 211.392 188.128 209.556C186.262 209.749 186.678 206.584 188.093 205.351C193.372 200.748 201.067 200.579 208.071 200.65C223.737 200.811 239.404 200.971 255.071 201.131C270.251 201.287 288.455 203.212 295.327 216.748C295.127 212.725 298.773 208.929 302.801 208.966C307.193 209.006 310.867 205.196 312.149 200.994C313.431 196.793 312.866 192.279 312.289 187.924C305.206 181.066 303.352 169.409 307.958 160.692C312.563 151.975 323.238 146.937 332.894 148.923C339.132 150.205 345.571 149.054 351.92 148.564ZM170.13 279.163C169.922 284.768 169.701 290.449 168.052 295.81L170.13 279.163ZM163.64 210.369C165.098 210.796 166.902 212.089 166.136 213.401C172.471 214.034 170.579 213.741 170.864 206.276C171.153 198.702 171.178 190.327 166.219 184.594C161.831 179.521 154.675 177.934 147.992 177.364C140.192 176.698 132.308 177.018 124.587 178.314C120.82 178.946 116.739 180.035 114.553 183.168C113.33 184.921 112.88 187.086 112.52 189.193C111.106 197.483 110.665 205.938 111.207 214.329C127.447 206.774 146.449 205.338 163.64 210.369ZM304.579 266.02C304.975 265.619 305.577 265.521 306.136 265.444C308.368 265.137 310.6 264.83 312.831 264.523C307.709 262.21 304.605 256.715 303.678 251.172C302.75 245.629 303.656 239.962 304.571 234.417C301.294 238.063 301.531 243.564 301.96 248.447C302.899 259.134 304.182 266.421 304.579 266.02ZM262.441 318.661C262.88 317.233 264.374 316.466 265.468 315.45C267.438 313.619 268.169 310.853 268.811 308.242C271.031 299.22 273.265 290.089 273.237 280.798C273.231 278.83 273.131 276.808 273.783 274.95C274.435 273.093 276.068 271.414 278.036 271.404C280.111 271.394 280.607 268.515 280.422 266.448C279.782 259.32 279.142 252.192 278.502 245.065C278.298 242.788 278.089 240.49 277.398 238.311C274.844 230.256 265.001 225.385 257.048 228.241C256.074 228.591 255.814 229.821 255.703 230.85C254.479 242.251 253.255 253.652 252.031 265.053C251.813 267.078 254.429 268.371 256.404 267.869C258.378 267.368 259.886 265.825 261.593 264.714C263.3 263.602 265.707 262.962 267.275 264.263C269.047 265.734 271.669 264.1 273.209 262.388C274.748 260.675 276.752 258.611 278.941 259.325C276.373 261.781 273.806 264.237 271.238 266.693C270.386 267.508 269.636 269.135 270.712 269.616C273.662 268.57 276.329 266.736 278.362 264.356C279.303 264.326 279.347 265.802 278.822 266.583C276.845 269.525 272.193 270.18 270.995 273.516C268.199 281.302 259.478 286.474 251.305 285.193C249.628 284.931 248.792 287.136 248.59 288.821C247.786 295.539 246.981 302.258 246.177 308.976C245.992 310.522 245.819 312.157 246.455 313.577C247.517 315.948 250.357 316.845 252.875 317.482C256.203 318.325 259.569 319.173 262.971 319.541C264.403 319.696 264.397 319.171 262.441 318.661ZM129.854 306.343C134.609 307.936 139.642 308.475 144.629 309.005C146.744 309.23 148.996 309.431 150.893 308.47C153.126 307.339 154.316 304.887 155.277 302.576C160.633 289.684 163.691 275.841 164.264 261.892C164.346 259.91 161.808 259.035 159.829 258.902C144.028 257.842 128.917 264.787 114.607 271.57C113.921 271.896 113.187 272.266 112.848 272.946C112.595 273.452 112.609 274.045 112.627 274.61C112.884 282.316 113.207 290.298 116.653 297.195C117.584 299.058 118.768 300.851 120.444 302.086C121.46 302.834 122.622 303.354 123.774 303.867C125.774 304.757 127.778 305.648 129.854 306.343ZM232.07 277.824C234.176 266.497 235.661 255.055 236.514 243.565C236.806 239.635 237.02 235.639 236.171 231.791C235.321 227.942 233.271 224.201 229.92 222.127C227.855 220.848 225.437 220.275 223.047 219.848C218.684 219.07 214.245 218.717 209.814 218.796C205.904 218.865 201.8 219.342 198.608 221.601C197.552 222.348 196.593 223.326 196.208 224.561C195.822 225.795 196.147 227.312 197.218 228.037C199.924 229.87 201.027 233.299 201.534 236.528C202.042 239.757 202.164 243.138 203.635 246.057C204.394 247.562 205.482 248.876 206.623 250.116C212.81 256.843 220.88 261.819 229.669 264.327C231.214 264.768 233.179 265.723 232.853 267.296C237.713 270.362 231.989 278.258 232.07 277.824ZM218.675 311.231C220.465 310.143 221.678 308.334 222.746 306.533C227.279 298.891 230.251 290.328 231.427 281.521C215.124 281.448 198.919 275.297 186.674 264.534C186.254 266.217 186.335 267.977 186.392 269.71C186.749 280.526 186.107 291.375 184.477 302.073C184.089 304.624 185.612 307.174 187.707 308.68C189.801 310.186 192.382 310.833 194.915 311.321C200.626 312.421 206.461 312.872 212.273 312.663C214.483 312.583 216.785 312.379 218.675 311.231ZM321.549 217.934C320.599 215.644 319.886 213.062 317.914 211.558C315.943 210.054 312.23 210.79 312.115 213.267C314.066 212.907 315.557 215.316 315.225 217.272C314.892 219.228 313.47 220.783 312.341 222.414C310.78 224.667 309.712 227.218 308.656 229.748C306.143 235.766 305.165 242.419 305.839 248.906C306.236 252.725 307.283 256.648 309.865 259.49C312.448 262.332 316.875 263.753 320.278 261.974C323.2 260.446 324.659 257.079 325.329 253.849C325.999 250.62 326.119 247.24 327.385 244.195C329.721 238.577 335.482 235.183 341.181 233.052C332.614 231.889 324.863 225.919 321.549 217.934ZM297.858 224.011C298.239 225.483 298.767 226.918 299.431 228.287C299.829 226.358 300.469 224.479 301.33 222.708C300.459 222.609 299.581 222.561 298.705 222.566C298.492 222.568 298.267 222.576 298.087 222.69C297.682 222.947 297.738 223.546 297.858 224.011ZM194.593 222.495C194.054 222.929 193.737 223.863 194.307 224.257C195.179 223.384 196.051 222.511 196.923 221.638C196.743 221.414 196.481 221.258 196.199 221.206C195.853 221.806 195.133 222.061 194.593 222.495Z" fill="white"/>
<path d="M345.616 216.239C347.479 216.239 348.989 214.729 348.989 212.866C348.989 211.003 347.479 209.492 345.616 209.492C343.753 209.492 342.242 211.003 342.242 212.866C342.242 214.729 343.753 216.239 345.616 216.239Z" fill="#FFB61D"/>
<path d="M326.293 212.866C327.309 212.866 328.133 212.042 328.133 211.026C328.133 210.01 327.309 209.186 326.293 209.186C325.277 209.186 324.453 210.01 324.453 211.026C324.453 212.042 325.277 212.866 326.293 212.866Z" fill="#FFB61D"/>
<path fill-rule="evenodd" clip-rule="evenodd" d="M152.064 164.459C157.584 164.494 163.104 164.529 168.624 164.564C168.882 164.566 169.16 164.574 169.368 164.727C169.794 165.039 169.624 165.771 169.186 166.066C168.747 166.36 168.179 166.348 167.651 166.33C162.793 166.161 157.921 166.413 153.107 167.083C152.375 167.185 151.602 167.292 150.917 167.013C150.233 166.735 149.709 165.915 150.024 165.246C150.353 164.548 151.292 164.454 152.064 164.459ZM133.605 163.917C133.955 164.266 133.787 164.906 133.399 165.211C133.01 165.516 132.49 165.577 131.998 165.626C127.105 166.122 122.211 166.617 117.317 167.113C116.739 167.171 116.14 167.228 115.586 167.05C115.033 166.872 114.532 166.393 114.519 165.811C114.505 165.211 115.015 164.702 115.583 164.51C116.152 164.319 116.77 164.373 117.368 164.42C122.383 164.814 127.445 164.587 132.404 163.744C132.819 163.674 133.307 163.62 133.605 163.917ZM132.92 154.524C133.285 154.819 133.155 155.451 132.788 155.745C132.421 156.038 131.922 156.087 131.454 156.124L115.738 157.364C115.15 157.41 114.54 157.454 113.985 157.253C113.43 157.052 112.943 156.535 112.975 155.946C113.008 155.349 113.559 154.886 114.14 154.745C114.721 154.604 115.329 154.709 115.921 154.797C121.255 155.585 126.678 154.866 132.048 154.378C132.349 154.351 132.684 154.334 132.92 154.524ZM154.868 151.41C158.147 151.829 161.472 151.893 164.765 151.6C166.074 151.483 167.656 151.428 168.4 152.512C167.517 153.226 166.304 153.327 165.171 153.398C161.416 153.635 157.661 153.872 153.906 154.108C153.049 154.162 151.982 154.098 151.629 153.315C151.312 152.613 151.869 151.769 152.585 151.484C153.301 151.2 154.104 151.312 154.868 151.41ZM126.539 147.395C126.543 147.962 125.832 148.207 125.271 148.289L117.018 149.499C116.429 149.585 115.82 149.671 115.245 149.517C114.67 149.364 114.132 148.906 114.078 148.313C114.012 147.587 114.694 146.975 115.405 146.816C116.117 146.658 116.854 146.824 117.577 146.917C120.07 147.238 122.584 146.69 125.096 146.604C125.711 146.583 126.534 146.78 126.539 147.395ZM166.36 145.42C166.999 145.491 167.654 145.872 167.824 146.492C166.69 147.349 165.192 147.505 163.775 147.631C161.351 147.846 158.927 148.061 156.503 148.275C155.649 148.351 154.795 148.427 153.941 148.502C153.316 148.558 152.667 148.61 152.08 148.388C151.494 148.167 150.993 147.585 151.08 146.964C151.218 145.986 152.502 145.732 153.489 145.753C157.154 145.832 160.864 146.385 164.455 145.647C165.084 145.518 165.721 145.348 166.36 145.42ZM169.579 136.166C151.616 138.588 133.2 137.334 115.484 141.166C114.433 141.393 112.967 141.404 112.695 140.364C112.72 139.139 114.305 138.696 115.527 138.609C132.761 137.38 149.995 136.151 167.228 134.922C168.239 134.85 169.658 135.156 169.579 136.166Z" fill="#E7EAEE"/>
<path fill-rule="evenodd" clip-rule="evenodd" d="M106.393 322.363C106.58 324.536 103.585 325.272 101.403 325.281C90.0669 325.326 78.7419 327.428 68.145 331.456C66.5277 332.07 64.7969 332.845 64.0098 334.385C62.9675 336.425 64.1051 339.036 65.949 340.396C67.7928 341.755 70.1464 342.17 72.4075 342.538C131.182 352.108 190.83 356.303 250.365 355.054L251.322 355.033C258.188 354.874 265.196 354.505 271.486 351.787C266.279 348.137 261.071 344.487 255.864 340.837C264.878 339.037 274.18 340.319 283.328 341.222C304.265 343.289 325.402 343.331 346.348 341.348C344.873 343.704 341.631 344.031 338.852 344.091C312.505 344.658 286.126 343.722 259.885 341.289C263.308 343.542 266.732 345.795 270.156 348.048C271.396 348.865 272.769 349.901 272.841 351.385C272.948 353.614 270.209 354.726 268.007 355.09C260.7 356.298 253.266 356.49 245.861 356.598C188.024 357.444 130.116 353.305 72.9873 344.244C70.1997 343.802 67.3114 343.308 64.9871 341.707C62.6628 340.106 61.0782 337.061 62.0549 334.413C63.0264 331.779 65.9822 330.542 68.6509 329.671C80.8633 325.682 93.5738 323.221 106.393 322.363ZM184.363 125.713C184.484 152.337 184.605 178.961 184.726 205.585C184.755 211.922 186.003 219.941 192.132 221.554C200.599 217.645 210.144 216.101 219.413 217.14C224.719 217.736 230.229 219.34 233.82 223.29C238.748 228.708 238.755 236.869 238.226 244.174C237.154 258.981 235.042 273.712 231.911 288.224C234.398 288.066 236.936 289.065 238.649 290.875C236.01 292.082 232.865 292.132 230.188 291.01C232.027 300.977 223.907 310.81 214.182 313.666C204.458 316.521 193.905 313.829 184.761 309.458C183.903 312.798 188.371 314.76 191.782 315.265C200.441 316.544 209.1 317.824 217.759 319.104C207.065 319.425 196.337 318.55 185.837 316.5C183.903 319.238 188.282 322.002 191.591 322.538C200.367 323.958 209.144 325.378 217.92 326.799C208.007 326.733 198.098 326.072 188.264 324.821C194.519 330.462 203.056 333.496 211.467 333.065C206.723 334.626 201.451 334.532 196.764 332.803C202.627 340.654 214.622 342.109 223.381 337.717C232.141 333.326 237.86 324.342 240.658 314.951C243.456 305.56 243.728 295.635 244.224 285.849C245.139 267.785 246.888 249.745 250.052 231.936C252.183 219.944 257.417 205.645 269.479 203.95C247.991 202.96 226.481 202.426 204.97 202.349C198.433 202.325 190.314 203.394 188.131 209.556C186.265 209.749 186.681 206.584 188.096 205.351C193.375 200.748 201.069 200.579 208.074 200.65L255.074 201.131C270.253 201.287 288.457 203.212 295.33 216.748C295.13 212.725 298.776 208.929 302.804 208.966C307.196 209.006 310.87 205.196 312.152 200.994C313.434 196.793 312.868 192.279 312.291 187.924C305.209 181.066 303.355 169.409 307.96 160.692C309.263 158.226 311.188 152.348 321.937 148.564C329.102 146.041 336.186 146.319 343.187 149.396C356.334 146.854 365.368 147.756 370.29 152.103C377.673 158.624 377.815 163.968 373.566 168.711C378.369 166.834 384.015 170.019 386.421 174.58C388.827 179.142 388.701 184.607 387.977 189.714C386.184 202.359 381.029 214.513 373.183 224.591L372.101 227.778C391.082 232.672 406.436 249.448 409.634 268.787C403.324 254.563 394.781 239.5 380.062 234.45C376.741 237.934 373.326 241.569 371.767 246.122C370.207 250.676 371.049 256.429 375.004 259.172C372.52 259.748 370.036 260.324 367.552 260.899C368.379 262.366 369.206 263.833 370.033 265.299C360.647 272.435 359.567 285.931 359.624 297.721C359.681 309.512 359.466 322.809 350.912 330.923C343.288 338.156 331.651 338.651 321.147 338.317C295.321 337.498 269.573 334.216 244.367 328.53C242.224 328.046 239.51 327.752 238.274 329.568C229.333 342.715 210.635 343.89 194.778 342.745C174.409 341.276 154.157 338.186 134.276 333.516C122.999 330.868 111.024 327.179 103.999 317.969C95.8088 307.231 96.7546 292.344 98.0835 278.905C90.0091 283.395 80.4367 285.133 71.2995 283.768C80.9311 277.471 85.6018 265.425 85.6895 253.918C85.7773 242.41 81.9363 231.257 77.6631 220.572C68.2477 226.033 63.2939 237.544 64.0306 248.404C64.7672 259.263 70.529 269.343 78.2596 277.005C68.7299 270.991 62.424 260.156 61.9021 248.9C61.3802 237.643 66.6564 226.271 75.5887 219.401C74.1613 214.52 66.7975 213.923 62.938 217.235C59.0785 220.547 57.8673 225.922 56.8745 230.91C55.0401 240.126 53.1981 249.557 54.531 258.859C55.8638 268.161 61.0021 277.472 69.6123 281.236C65.5885 284.136 60.2291 279.961 57.5568 275.782C46.7199 258.835 46.3926 235.737 56.745 218.49C57.9886 216.418 59.4235 214.377 61.4485 213.058C63.5953 211.661 66.2126 211.201 68.7644 210.975C78.8294 210.084 89.1562 212.433 97.8448 217.591C97.7673 189.351 97.6897 161.111 97.6121 132.872C97.6076 131.254 97.6302 129.538 98.4923 128.17C99.7394 126.191 102.294 125.578 104.593 125.149C125.509 121.244 146.663 118.611 167.898 117.268C174.836 116.829 184.332 118.76 184.363 125.713ZM170.181 118.97C147.667 120.029 125.234 122.813 103.144 127.287C102.204 127.477 101.208 127.699 100.525 128.373C99.5938 129.289 99.5219 130.742 99.5096 132.049C99.2458 160.168 99.3574 188.291 99.8442 216.407C102.548 215.733 105.251 215.059 107.954 214.385C106.898 208.615 105.836 202.768 106.288 196.92C106.74 191.072 108.886 185.125 113.3 181.262C118.077 177.082 124.744 175.9 131.077 175.456C137.166 175.028 143.293 175.127 149.365 175.751C155.564 176.389 162.094 177.765 166.566 182.105C173.027 188.373 173.131 198.529 172.797 207.524C171.909 231.404 171.021 255.283 170.133 279.163C169.925 284.768 169.704 290.449 168.054 295.81C166.405 301.171 163.13 306.266 158.176 308.897C153.315 311.479 147.498 311.406 142.029 310.784C136.808 310.191 131.637 309.156 126.589 307.693C123.523 306.805 120.455 305.736 117.849 303.892C109.227 297.79 108.207 285.614 107.998 275.053C104.687 274.455 101.451 276.975 100.084 280.049C98.7164 283.123 98.7769 286.616 98.8619 289.979C99.0737 298.369 99.4006 307.177 103.683 314.394C110.291 325.53 124.171 329.644 136.843 332.303C159.336 337.022 182.173 340.1 205.113 341.504C194.875 336.289 185.799 327.365 183.639 316.081C183.053 313.015 182.99 309.877 182.929 306.757C181.733 245.743 180.538 184.73 179.343 123.716C179.267 119.858 174.036 118.788 170.181 118.97ZM257.457 219.142C256.887 220.531 256.473 222.072 256.853 223.524C257.232 224.977 258.643 226.245 260.124 225.998C266.755 224.894 273.904 228.16 277.41 233.897C280.303 238.631 280.704 244.422 281.03 249.96L283.996 300.403C284.313 305.794 284.47 311.726 281.119 315.961C276.772 321.455 268.61 321.638 261.637 320.956C255.884 320.393 249.832 319.437 245.365 315.767C245.523 317.903 244.9 320.088 243.64 321.82C242.085 323.957 244.596 326.77 247.039 327.781C250.022 329.015 253.267 329.445 256.468 329.861C271.134 331.764 285.809 333.6 300.492 335.367C311.793 336.728 323.275 338.045 334.511 336.219C327.403 334.225 320.601 331.142 314.416 327.112C311.33 325.101 308.346 322.804 306.241 319.781C302.806 314.847 302.082 308.577 301.51 302.592C299.81 284.794 298.545 266.955 297.716 249.096C297.104 235.923 292.881 222.935 285.626 211.923C284.329 209.954 282.742 207.911 280.449 207.362C271.33 205.183 261.014 210.468 257.457 219.142ZM215.646 333.136C216.419 333.267 217.213 333.441 217.85 333.898C218.488 334.355 218.933 335.167 218.736 335.927C218.54 336.687 217.537 337.186 216.904 336.723C216.205 336.212 215.276 336.195 214.443 335.959C213.61 335.723 212.736 335.032 212.886 334.179C213.076 333.098 214.564 332.952 215.646 333.136ZM183.533 333.457C184.492 333.656 185.616 334.34 185.419 335.301C185.246 336.147 184.198 336.43 183.341 336.544C182.381 336.672 181.356 336.791 180.484 336.369C179.612 335.947 179.047 334.756 179.619 333.974C180.005 333.446 180.726 333.306 181.379 333.28C182.101 333.25 182.826 333.31 183.533 333.457ZM240.946 322.784C240.035 323.441 239.409 324.409 238.767 325.33C235.837 329.528 232.123 333.177 227.875 336.033C227.981 336.483 228.656 336.369 229.057 336.137C233.976 333.287 237.486 328.578 240.856 323.999C241.131 323.625 241.359 322.997 240.946 322.784ZM284.932 209.382C287.557 212.481 290.202 215.61 292.121 219.188C294.203 223.068 295.372 227.367 296.314 231.668C301.58 255.727 300.175 280.741 303.588 305.133C304.204 309.534 305.018 314.029 307.308 317.837C309.991 322.299 314.443 325.392 318.979 327.948C322.648 330.015 326.477 331.83 330.506 333.055C336.913 335.002 344.609 335.138 349.52 330.586C352.278 328.03 353.729 324.383 354.862 320.798C359.719 305.43 360.253 288.722 356.387 273.075C356.485 282.433 357.7 291.769 357.422 301.123C357.144 310.477 355.223 320.11 349.725 327.682C348.635 329.182 347.373 330.622 345.727 331.474C343.559 332.598 340.983 332.576 338.56 332.28C334.327 331.763 330.188 330.484 326.401 328.522C323.525 327.033 320.863 325.161 318.285 323.2C315.288 320.921 312.345 318.465 310.245 315.34C308.164 312.242 307.004 308.624 306.083 305.007C299.364 278.599 304.169 250.112 296.196 224.055C294.317 217.914 291.053 211.325 284.932 209.382ZM124.639 325.561C140.15 327.955 155.661 330.349 171.172 332.743C170.779 333.769 169.361 333.805 168.272 333.659C155.007 331.887 141.741 330.115 128.476 328.343C126.976 328.143 125.477 327.943 123.977 327.742C123.265 327.647 122.382 327.389 122.292 326.677C122.165 325.673 123.639 325.406 124.639 325.561ZM304.574 234.417C301.297 238.063 301.533 243.564 301.963 248.447C302.902 259.134 303.841 269.821 304.78 280.509C304.824 281.009 304.878 281.536 305.171 281.943C305.65 282.609 306.579 282.725 307.397 282.783C318.549 283.569 329.701 284.354 340.852 285.14C340.019 286.458 338.139 286.478 336.584 286.358C326.085 285.547 315.544 285.285 305.018 285.571C304.837 290.969 305.632 296.399 307.355 301.518C308.101 303.736 310.976 304.209 313.315 304.304C322.235 304.665 331.155 305.026 340.075 305.387C340.485 306.311 339.044 306.888 338.033 306.877C328.864 306.771 319.696 306.666 310.527 306.561C309.271 306.546 308.817 308.325 309.29 309.489C310.527 312.529 314.465 313.184 317.741 313.389L338.24 314.672C338.707 314.702 338.805 315.437 338.463 315.758C338.121 316.079 337.601 316.088 337.132 316.078L313.131 315.569C319.337 322.955 328.041 328.203 337.469 330.244C339.501 330.684 341.655 330.972 343.628 330.321C345.99 329.541 347.732 327.536 349.095 325.455C356.327 314.423 355.846 300.228 355.107 287.057L354.269 272.129C354.562 271.727 355.163 271.587 355.602 271.82C355.772 271.088 354.82 270.654 354.081 270.518C337.768 267.521 321.028 264.52 304.701 267.447C304.179 267.233 304.185 266.421 304.581 266.02C304.978 265.619 305.58 265.521 306.139 265.444C308.371 265.137 310.602 264.83 312.834 264.523C307.712 262.21 304.608 256.715 303.681 251.172C302.753 245.629 303.659 239.962 304.574 234.417ZM224.394 325.169C225.847 325.439 227.525 325.883 228.092 327.248C226.475 328.351 224.35 328.237 222.399 328.081C221.862 328.039 221.275 327.973 220.898 327.589C220.23 326.909 220.728 325.655 221.587 325.242C222.446 324.828 223.458 324.994 224.394 325.169ZM113.73 315.196C130.441 320.447 147.758 323.767 165.226 325.069C166.582 325.17 168.403 325.815 168.143 327.149C149.668 325.06 131.306 321.972 113.165 317.903C112.007 317.643 110.522 316.819 110.953 315.714C111.332 314.742 112.735 314.884 113.73 315.196ZM174.939 323.301C175.792 323.299 176.616 323.591 177.413 323.895C177.819 324.049 178.265 324.248 178.422 324.653C178.758 325.515 177.569 326.131 176.659 326.296C176.046 326.408 175.433 326.519 174.821 326.63C174.304 326.724 173.748 326.813 173.272 326.59C172.499 326.228 172.299 325.113 172.742 324.384C173.185 323.655 174.085 323.303 174.939 323.301ZM253.631 321.459C261.023 322.865 268.595 322.944 276.119 323.02C276.701 323.025 276.858 323.941 276.442 324.349C276.027 324.757 275.377 324.775 274.795 324.763C267.771 324.625 260.738 323.885 253.735 324.437C252.973 324.497 252.181 324.569 251.465 324.3C250.749 324.032 250.138 323.308 250.274 322.556C250.392 321.907 251.024 321.453 251.671 321.327C252.318 321.202 252.984 321.336 253.631 321.459ZM270.331 205.577C261.961 206.827 254.93 214.276 254.165 222.704C253.45 230.575 251.277 238.229 249.731 245.98C244.764 270.87 246.271 296.666 241.88 321.664C243.484 318.743 243.916 315.344 244.32 312.037L254.968 224.84C255.251 222.52 255.541 220.173 256.374 217.989C258.652 212.021 264.539 208.272 270.331 205.577ZM232.276 318.511C232.732 318.656 233.199 318.846 233.503 319.216C233.807 319.585 233.883 320.182 233.551 320.526C233.301 320.786 232.908 320.833 232.549 320.865C231.372 320.968 230.196 321.072 229.019 321.176C228.384 321.232 227.728 321.286 227.123 321.086C226.518 320.885 225.972 320.361 225.955 319.724C225.925 318.644 227.257 318.102 228.334 318.031C229.663 317.944 231.007 318.108 232.276 318.511ZM257.051 228.241C256.077 228.591 255.817 229.821 255.706 230.85L252.034 265.053C251.816 267.078 254.432 268.371 256.406 267.869C258.381 267.368 259.888 265.825 261.596 264.714C263.303 263.602 265.71 262.962 267.278 264.263C269.049 265.734 271.672 264.1 273.211 262.388C274.751 260.675 276.755 258.611 278.944 259.325C276.376 261.781 273.809 264.237 271.241 266.693C270.389 267.508 269.638 269.135 270.714 269.616C273.665 268.569 276.332 266.736 278.365 264.356C279.305 264.326 279.35 265.802 278.825 266.583C276.848 269.525 272.195 270.18 270.998 273.516C268.201 281.302 259.481 286.474 251.307 285.193C249.631 284.931 248.795 287.136 248.593 288.821C247.789 295.539 246.984 302.258 246.18 308.976C245.994 310.522 245.822 312.157 246.458 313.577C247.52 315.948 250.36 316.844 252.878 317.482C257.607 318.68 262.414 319.887 267.29 319.715C272.165 319.543 277.207 317.799 280.294 314.022C279.439 312.912 277.535 314.335 276.289 313.693C275.071 313.064 275.718 310.972 277.026 310.561C278.334 310.149 279.714 310.803 280.929 311.439C281.692 309.95 282.476 308.357 282.319 306.691C282.163 305.026 280.634 303.379 279.004 303.754C277.932 304 277.496 302.143 278.359 301.463C279.223 300.783 280.464 301.003 281.534 301.257C281.593 297.238 281.652 293.219 281.712 289.2C281.724 288.379 281.727 287.518 281.338 286.796C280.949 286.073 280.027 285.568 279.288 285.924C278.281 286.409 277.407 284.694 278.081 283.802C278.755 282.91 280.028 282.794 281.145 282.755C281.232 279.186 281.001 275.608 280.457 272.079C276.25 274.187 275.514 279.75 275.089 284.436C274.276 293.424 272.639 302.337 270.205 311.027C269.66 312.974 269.047 314.965 267.773 316.535C266.499 318.105 264.4 319.171 262.444 318.661C262.883 317.233 264.377 316.466 265.471 315.45C267.44 313.619 268.172 310.853 268.814 308.242C271.034 299.22 273.268 290.089 273.24 280.798L273.236 280.175C273.221 278.406 273.203 276.612 273.786 274.95C274.437 273.093 276.071 271.414 278.039 271.404C280.114 271.394 280.61 268.515 280.424 266.448C279.785 259.32 279.145 252.192 278.505 245.065C278.301 242.788 278.092 240.49 277.401 238.311C274.847 230.256 265.004 225.385 257.051 228.241ZM288.369 315.172C289.344 315.434 290.291 316.437 289.886 317.362C289.498 318.246 288.283 318.295 287.322 318.204C286.852 318.159 286.352 318.103 285.985 317.806C285.342 317.286 285.433 316.183 286.035 315.616C286.638 315.049 287.57 314.958 288.369 315.172ZM171.142 314.184C171.783 314.323 172.452 314.51 172.913 314.977C173.375 315.444 173.527 316.277 173.069 316.747C172.694 317.131 172.09 317.138 171.554 317.119C170.783 317.092 170.012 317.065 169.241 317.038C168.794 317.023 168.317 316.997 167.959 316.73C167.193 316.16 167.529 314.826 168.351 314.342C169.174 313.857 170.209 313.982 171.142 314.184ZM111.741 307.19C116.057 309.197 120.798 310.072 125.487 310.889C134.979 312.543 144.5 314.032 154.043 315.356C155.379 315.542 156.858 315.804 157.671 316.879C153.976 317.132 150.282 316.516 146.629 315.903C134.586 313.88 122.544 311.858 110.501 309.836C109.239 309.624 107.609 308.923 107.855 307.667C108.146 306.178 110.365 306.55 111.741 307.19ZM186.676 264.534C186.257 266.217 186.337 267.977 186.395 269.71C186.752 280.526 186.11 291.375 184.48 302.073C184.091 304.624 185.615 307.174 187.71 308.68C189.804 310.186 192.384 310.833 194.918 311.321C200.628 312.421 206.464 312.872 212.276 312.663C214.486 312.583 216.788 312.379 218.678 311.231C220.467 310.143 221.681 308.334 222.749 306.533C227.281 298.891 230.253 290.328 231.43 281.521C215.127 281.448 198.922 275.297 186.676 264.534ZM229.315 307.418C230.428 307.786 231.541 308.153 232.654 308.52C233.025 308.643 233.423 308.785 233.644 309.108C234.016 309.654 233.654 310.452 233.079 310.776C232.503 311.1 231.804 311.082 231.144 311.056C229.942 311.008 228.615 310.907 227.776 310.046C226.938 309.184 227.225 307.325 228.425 307.247C228.729 307.227 229.026 307.323 229.315 307.418ZM287.661 307.58C288.323 307.686 289.021 307.808 289.532 308.242C290.042 308.677 290.251 309.538 289.781 310.016C289.591 310.209 289.329 310.308 289.074 310.397C288.088 310.74 286.994 311.014 286.02 310.64C285.045 310.267 284.381 308.979 284.994 308.134C285.556 307.358 286.714 307.428 287.661 307.58ZM114.61 271.57C113.924 271.896 113.19 272.266 112.851 272.946C112.598 273.452 112.611 274.045 112.63 274.61C112.887 282.316 113.21 290.298 116.656 297.195C117.587 299.058 118.771 300.851 120.447 302.086C121.462 302.834 122.625 303.354 123.777 303.867C125.777 304.757 127.781 305.648 129.857 306.343C134.612 307.935 139.645 308.475 144.632 309.005C146.747 309.23 148.999 309.431 150.896 308.47C153.129 307.339 154.319 304.887 155.28 302.576C160.636 289.684 163.694 275.841 164.267 261.892C164.348 259.91 161.811 259.035 159.832 258.902C144.031 257.842 128.92 264.787 114.61 271.57ZM166.721 261.333C166.315 261.866 166.265 262.58 166.225 263.248C165.279 279.023 161.353 294.613 154.715 308.954C161.039 305.754 165.752 299.538 167.126 292.584C167.598 290.193 167.695 287.746 167.79 285.311C168.091 277.633 168.392 269.954 168.692 262.275C168.708 261.87 168.711 261.425 168.453 261.113C168.027 260.596 167.126 260.8 166.721 261.333ZM169.34 299.754C170.143 299.798 170.897 300.131 171.677 300.325C172.376 300.499 172.586 301.494 172.197 302.099C171.807 302.704 171.055 302.967 170.342 303.067C169.598 303.172 168.797 303.132 168.157 302.738C167.517 302.344 167.102 301.522 167.358 300.815C167.631 300.06 168.538 299.711 169.34 299.754ZM288.121 297.669C288.871 297.824 289.515 298.289 290.133 298.742C290.468 298.988 290.825 299.264 290.934 299.665C291.074 300.177 290.737 300.729 290.271 300.984C289.806 301.239 289.248 301.257 288.719 301.215C287.967 301.155 287.19 300.969 286.623 300.472C286.055 299.975 285.767 299.102 286.12 298.436C286.48 297.759 287.371 297.514 288.121 297.669ZM109.609 273.814C109.403 274.18 109.445 274.629 109.492 275.045L110.607 284.862C111.212 290.189 112.004 295.93 115.728 299.788C116.349 299.493 115.998 298.56 115.607 297.995C112.591 293.643 112.01 288.108 111.521 282.835C111.234 279.745 110.947 276.654 110.661 273.563C110.372 273.259 109.814 273.448 109.609 273.814ZM308.161 293.923C318.391 294.175 328.62 294.428 338.85 294.68C340.416 294.719 341.986 294.758 343.535 294.99C343.212 296.109 341.741 296.32 340.577 296.309C330.318 296.212 320.026 295.577 309.822 296.643C308.95 296.735 308.008 296.824 307.251 296.381C306.494 295.938 306.155 294.723 306.851 294.189C307.212 293.912 307.706 293.911 308.161 293.923ZM280.055 291.913C280.28 291.986 280.51 292.065 280.694 292.214C281.305 292.712 281.078 293.775 280.452 294.256C279.827 294.736 278.984 294.791 278.196 294.811C277.375 294.831 276.418 294.766 275.951 294.091C275.364 293.244 276.062 291.992 277.033 291.648C278.004 291.305 279.075 291.592 280.055 291.913ZM287.534 289.845C288.488 289.949 289.416 290.283 290.217 290.812C290.829 291.216 290.706 292.232 290.15 292.709C289.593 293.186 288.798 293.253 288.066 293.227C287.325 293.2 286.551 293.087 285.952 292.651C285.352 292.214 284.995 291.371 285.316 290.703C285.683 289.94 286.693 289.755 287.534 289.845ZM184.48 266.5C183.923 274.529 183.673 282.579 183.732 290.627C183.734 290.967 183.966 291.45 184.256 291.274C184.872 284.509 185.174 277.715 185.162 270.922C185.159 269.418 185.129 267.858 184.48 266.5ZM173.544 287.097C174.422 287.163 175.196 287.674 175.911 288.186C176.132 288.344 176.358 288.513 176.482 288.754C176.737 289.254 176.431 289.898 175.952 290.19C175.473 290.483 174.879 290.506 174.319 290.48C173.043 290.42 171.439 289.726 171.582 288.457C171.68 287.582 172.666 287.031 173.544 287.097ZM289.659 281.689C290.513 282.039 291.392 282.955 290.951 283.766C290.652 284.315 289.924 284.434 289.299 284.44C288.573 284.447 287.847 284.388 287.132 284.263C286.126 284.088 285.972 282.506 286.753 281.848C287.534 281.191 288.715 281.301 289.659 281.689ZM389.204 265.979C389.556 266.568 389.562 267.293 389.557 267.98C389.528 272.838 389.498 277.697 389.468 282.555C389.464 283.145 389.385 283.86 388.849 284.108C388.387 284.322 387.816 284.021 387.559 283.581C387.301 283.141 387.278 282.607 387.269 282.097C387.194 277.76 387.678 273.319 386.449 269.158C386.084 267.922 385.647 266.378 386.602 265.512C387.348 264.835 388.687 265.114 389.204 265.979ZM264.295 265.416C260.612 267.701 256.738 270.051 252.415 270.362C251.629 270.419 251.275 271.358 251.119 272.131C250.421 275.609 250.036 279.15 249.97 282.696C249.966 282.913 249.968 283.146 250.093 283.323C250.292 283.605 250.699 283.617 251.043 283.598C254.416 283.422 257.834 283.07 260.966 281.807C264.098 280.544 266.948 278.257 268.224 275.131C269.5 272.004 268.887 268.016 266.28 265.869C265.72 265.407 264.912 265.033 264.295 265.416ZM236.1 279.091C237.284 279.402 238.467 279.713 239.65 280.024C240.092 280.14 240.584 280.294 240.795 280.699C241.044 281.177 240.754 281.792 240.304 282.087C239.853 282.382 239.293 282.438 238.756 282.486C237.906 282.561 237.03 282.635 236.214 282.383C235.398 282.132 234.646 281.474 234.553 280.625C234.459 279.776 235.275 278.875 236.1 279.091ZM71.9631 214.348C76.3915 216.141 79.7248 220.021 81.7922 224.328C83.8596 228.636 84.8009 233.385 85.6214 238.092C86.9792 245.882 88.0606 253.834 87.0705 261.679C86.0804 269.525 82.8008 277.348 76.7208 282.405C81.1496 282.641 86.4376 282.466 88.842 278.739C89.921 277.066 92.2433 276.326 94.0911 277.066C92.9294 276.061 93.8063 274.191 94.6685 272.921C98.2011 267.714 100.625 261.73 101.491 255.498C103.171 243.413 98.9481 231.166 92.6828 220.698C88.6177 213.905 79.1358 210.999 71.9631 214.348ZM176.964 276.945C177.878 277.305 177.665 278.815 176.811 279.3C175.957 279.785 174.892 279.567 173.941 279.325C173.497 279.212 173.026 279.08 172.724 278.735C172.021 277.93 172.828 276.569 173.87 276.329C174.912 276.089 175.969 276.554 176.964 276.945ZM209.817 218.796C205.907 218.865 201.802 219.342 198.61 221.601C197.555 222.348 196.596 223.326 196.211 224.561C195.825 225.795 196.15 227.312 197.22 228.037C199.927 229.87 201.03 233.299 201.537 236.528C202.044 239.757 202.166 243.138 203.638 246.057C204.397 247.562 205.485 248.876 206.626 250.116C212.813 256.843 220.883 261.819 229.671 264.327C231.217 264.768 233.182 265.723 232.856 267.296C220.212 264.644 208.682 257.014 201.299 246.412C199.055 253.302 194.63 259.464 188.817 263.791C200.155 273.44 214.828 279.093 229.709 279.546C230.383 279.566 231.146 279.541 231.601 279.043C231.899 278.717 231.992 278.258 232.073 277.824C234.179 266.497 235.664 255.055 236.517 243.565C236.809 239.635 237.023 235.639 236.174 231.791C235.324 227.942 233.274 224.201 229.923 222.127C227.858 220.848 225.44 220.275 223.05 219.848C218.687 219.07 214.248 218.717 209.817 218.796ZM287.508 273.919C288.533 273.92 289.826 274.219 290.006 275.229C290.185 276.234 289.039 276.984 288.026 277.113C287.284 277.208 286.479 277.118 285.891 276.657C285.302 276.195 285.029 275.292 285.437 274.666C285.856 274.024 286.741 273.918 287.508 273.919ZM363.257 253.721C361.375 261.01 360.277 268.475 359.182 275.924C359.128 276.294 359.096 276.733 359.376 276.982C362.309 273.338 365 269.498 367.425 265.498C367.664 265.103 367.899 264.587 367.631 264.211C367.023 263.362 366.416 262.512 365.808 261.663C365.357 261.033 364.892 260.202 365.289 259.536C365.611 258.994 366.333 258.88 366.961 258.823L372.114 258.348C372.058 258.029 371.864 257.754 371.675 257.49C370.295 255.57 368.79 253.551 366.581 252.709C365.356 252.242 363.585 252.452 363.257 253.721ZM124.59 178.314C120.823 178.946 116.742 180.035 114.556 183.168C113.333 184.921 112.882 187.086 112.523 189.193C111.109 197.483 110.668 205.938 111.21 214.329C127.45 206.774 146.452 205.338 163.642 210.369C165.1 210.796 166.905 212.089 166.139 213.401C153.244 208.631 138.88 207.92 125.577 211.392C121.272 212.516 117.089 214.061 112.808 215.274C106.448 217.078 99.8777 218.144 93.2728 218.445C105.302 234.778 106.859 258.164 97.1002 275.947C103.172 274.798 108.877 272.247 114.475 269.631C122.833 265.725 131.155 261.606 140.034 259.098C148.913 256.591 158.512 255.771 167.319 258.52C168.35 258.842 168.917 257.355 168.958 256.276L170.867 206.276C171.156 198.702 171.18 190.327 166.222 184.594C161.834 179.521 154.678 177.934 147.995 177.364C140.194 176.698 132.31 177.018 124.59 178.314ZM240.939 271.116C241.185 271.277 241.44 271.48 241.498 271.769C241.615 272.355 240.902 272.728 240.327 272.891C239.492 273.128 238.632 273.365 237.768 273.274C236.905 273.183 236.027 272.688 235.744 271.867C235.46 271.047 236.03 269.971 236.898 269.955C238.32 269.929 239.748 270.339 240.939 271.116ZM363.434 239.654C360.293 241.415 356.539 242.059 352.991 241.444C353.444 242.71 355.435 243.152 355.445 244.497C355.45 245.315 354.679 245.892 354.241 246.583C353.903 247.115 353.757 247.743 353.623 248.359C352.358 254.149 351.632 260.056 351.457 265.979C351.427 267 351.681 268.348 352.696 268.459C354.799 268.69 356.779 269.868 357.983 271.607C358.97 265.396 359.957 259.185 360.944 252.975C361.173 251.534 361.366 249.924 360.521 248.734C359.359 247.097 360.371 244.854 361.39 243.124L363.434 239.654ZM176.387 266.498C177.459 266.712 178.679 267.638 178.273 268.653C178.023 269.279 177.267 269.532 176.594 269.567C175.922 269.603 175.222 269.504 174.592 269.742C173.85 270.023 172.978 269.367 172.887 268.579C172.797 267.792 173.344 267.027 174.058 266.681C174.771 266.335 175.61 266.343 176.387 266.498ZM287.495 265.539C288.171 265.633 288.883 265.781 289.375 266.254C289.867 266.727 290.003 267.627 289.479 268.065C289.306 268.21 289.087 268.286 288.874 268.359C287.945 268.676 286.952 268.986 285.999 268.751C285.047 268.516 284.219 267.505 284.548 266.58C284.928 265.515 286.374 265.384 287.495 265.539ZM349.026 252.771C348.31 252.944 347.788 253.541 347.316 254.106L344.474 257.51C343.918 258.175 344.896 259.103 345.76 259.175C346.623 259.247 347.632 259.044 348.247 259.655C348.89 260.295 348.625 261.412 348.098 262.151C347.571 262.89 346.823 263.494 346.504 264.344C346.027 265.615 346.816 267.208 348.116 267.599C348.822 267.812 349.812 267.485 349.818 266.748C349.855 262.439 350.107 258.131 350.573 253.847C350.652 253.115 349.742 252.599 349.026 252.771ZM204.791 254.911C205.336 255.273 205.688 255.852 206.051 256.396C209.17 261.065 214.386 264.275 219.96 264.953C221.249 265.11 222.77 265.267 223.417 266.394C222.202 267.596 220.223 267.45 218.558 267.062C212.657 265.689 207.249 262.28 203.467 257.547C202.863 256.792 202.312 255.644 202.985 254.95C203.44 254.481 204.247 254.549 204.791 254.911ZM345.961 234.277C341.793 235.301 337.631 236.746 334.254 239.394C330.876 242.041 328.364 246.063 328.39 250.355C328.424 255.797 325.75 261.19 321.398 264.458L328.726 265.32C329.583 265.421 330.545 265.494 331.217 264.951C332.2 264.157 331.948 262.631 331.7 261.392C331.452 260.153 331.507 258.515 332.685 258.06C334.149 257.494 335.36 259.525 335.139 261.078C334.917 262.632 334.015 264.127 334.298 265.671C337.768 266.163 341.249 266.578 344.738 266.915C344.044 266.345 343.968 265.266 344.319 264.439C344.67 263.613 345.352 262.98 346.015 262.374C346.721 261.729 345.703 260.591 344.752 260.489C343.801 260.387 342.682 260.615 342.012 259.933C341.178 259.085 341.803 257.662 342.515 256.709C343.895 254.858 345.606 252.628 344.717 250.498C342.551 245.302 343.028 239.082 345.961 234.277ZM186.137 220.081C185.556 234.304 185.636 248.553 186.375 262.769C191.808 259.821 195.778 254.634 198.24 248.964C199.742 245.505 200.747 241.692 200.147 237.969C199.699 235.192 198.385 232.628 196.856 230.267C194.145 226.079 190.606 222.299 186.137 220.081ZM312.117 213.267C314.069 212.907 315.56 215.316 315.228 217.272C314.895 219.228 313.473 220.783 312.344 222.414C310.783 224.667 309.715 227.218 308.659 229.748C306.146 235.766 305.168 242.419 305.842 248.906C306.239 252.725 307.286 256.648 309.868 259.49C312.451 262.332 316.877 263.753 320.281 261.974C323.203 260.446 324.661 257.079 325.332 253.849C326.002 250.62 326.121 247.24 327.388 244.195C329.724 238.577 335.485 235.183 341.184 233.052C332.617 231.889 324.866 225.919 321.552 217.934C320.602 215.644 319.888 213.062 317.917 211.558C315.945 210.054 312.233 210.79 312.117 213.267ZM239.702 259.083C240.304 259.199 240.895 259.374 241.464 259.605C242.401 259.987 243.409 261.042 242.806 261.855C242.476 262.299 241.843 262.353 241.29 262.367C240.282 262.392 239.195 262.396 238.371 261.813C237.548 261.231 237.263 259.822 238.093 259.25C238.549 258.936 239.158 258.979 239.702 259.083ZM285.121 256.683C285.936 256.752 286.748 256.865 287.552 257.021C287.95 257.099 288.378 257.207 288.628 257.526C289.007 258.009 288.769 258.766 288.29 259.15C287.81 259.534 287.173 259.642 286.567 259.737C285.64 259.882 284.651 260.02 283.797 259.634C282.942 259.248 282.358 258.118 282.881 257.339C283.336 256.66 284.305 256.614 285.121 256.683ZM51.9506 252.295C51.2598 252.288 51.0208 253.21 51.0417 253.901C51.102 255.885 51.5037 257.859 52.2239 259.709C52.4244 259.914 52.6572 259.487 52.6292 259.202L51.9506 252.295ZM184.701 257.405C184.27 257.639 184.106 258.258 184.364 258.675L184.375 258.69L184.366 258.7C184.354 258.714 184.342 258.73 184.328 258.75C184.155 259.012 184.398 259.429 184.712 259.407C184.924 258.762 184.92 258.047 184.701 257.405ZM175.722 254.596C176.657 254.803 177.671 255.578 177.439 256.507C177.285 257.123 176.637 257.484 176.018 257.621C175.399 257.759 174.744 257.75 174.153 257.979C173.401 258.272 172.495 257.665 172.34 256.873C172.185 256.081 172.67 255.255 173.37 254.853C174.07 254.452 174.934 254.422 175.722 254.596ZM181.132 123.588C181.186 166.403 182.17 209.218 184.082 251.99L184.283 256.413L184.313 254.99C184.368 251.665 184.32 248.34 184.271 245.015C183.7 206.042 183.129 167.069 182.559 128.097C182.535 126.465 182.406 124.608 181.132 123.588ZM242.371 248.335C242.895 248.492 243.421 248.73 243.762 249.159C244.102 249.588 244.199 250.247 243.863 250.679C243.537 251.097 242.947 251.176 242.419 251.223L240.166 251.423C239.798 251.456 239.402 251.483 239.082 251.298C238.824 251.148 238.652 250.876 238.574 250.587C238.337 249.72 238.924 248.779 239.736 248.392C240.547 248.005 241.51 248.077 242.371 248.335ZM60.925 214.82C58.583 217.121 57.3649 220.302 56.2393 223.387C53.1032 231.981 50.1229 241.104 51.6703 250.121C52.1488 250.209 52.3768 249.558 52.4123 249.072C53.0485 240.373 54.7868 231.755 57.5727 223.49C58.6357 220.336 59.9142 217.133 62.2754 214.788C62.2431 214.217 61.333 214.419 60.925 214.82ZM348.842 233.621C348.434 233.722 348.169 234.107 347.956 234.469C345.94 237.889 344.991 241.927 345.273 245.887C345.389 247.522 345.915 249.405 347.442 250.001C348.683 248.809 349.925 247.617 351.166 246.425C351.363 246.236 351.565 246.04 351.674 245.79C351.946 245.163 351.557 244.463 351.199 243.88C349.43 241.002 348.101 237.353 349.575 234.313C349.758 233.935 349.25 233.521 348.842 233.621ZM374.635 229.932C374.437 230.035 374.284 230.206 374.136 230.373C370.472 234.518 366.933 238.773 363.526 243.131C362.814 244.041 362.072 245.067 362.141 246.22C362.204 247.246 362.925 248.139 363.799 248.678C364.673 249.217 365.691 249.463 366.69 249.701C366.957 249.764 367.248 249.826 367.499 249.715C367.73 249.613 367.877 249.386 368.01 249.171C370.097 245.807 372.212 242.377 373.197 238.544C373.407 237.727 374.116 237.156 374.682 236.53C375.795 235.301 376.447 233.664 376.485 232.007C376.497 231.445 376.431 230.853 376.107 230.395C375.782 229.937 375.133 229.672 374.635 229.932ZM285.391 246.336C285.896 246.462 286.453 246.653 286.679 247.121C287.079 247.947 286.142 248.807 285.266 249.078C284.587 249.288 283.831 249.361 283.18 249.076C282.528 248.792 282.034 248.074 282.182 247.378C282.444 246.144 284.167 246.033 285.391 246.336ZM176.558 244.535C176.796 244.748 177.017 244.999 177.107 245.306C177.289 245.924 176.858 246.605 176.266 246.859C175.674 247.113 174.983 247.015 174.387 246.772C173.759 246.516 173.148 246.026 173.068 245.353C172.977 244.583 173.674 243.874 174.442 243.763C175.209 243.652 175.98 244.017 176.558 244.535ZM244.47 237.765C245.082 238.014 245.146 238.941 244.723 239.449C244.301 239.958 243.597 240.127 242.938 240.183C242.279 240.239 241.597 240.214 240.982 240.455C240.036 240.826 239.007 239.683 239.232 238.692C239.457 237.702 240.521 237.086 241.536 237.039C242.551 236.991 243.529 237.381 244.47 237.765ZM284.342 236.275C285.21 236.317 286.069 236.545 286.843 236.939C287.18 237.11 287.527 237.346 287.623 237.711C287.82 238.462 286.877 238.978 286.115 239.124C285.439 239.254 284.753 239.331 284.065 239.355C283.216 239.384 282.191 239.221 281.853 238.441C281.59 237.836 281.91 237.093 282.448 236.711C282.986 236.328 283.682 236.243 284.342 236.275ZM340.314 180.824C335.248 181.641 330.161 182.319 325.058 182.855C321.362 183.244 317.881 185.341 315.809 188.426C315.384 189.06 315.09 190.072 315.748 190.461C317.608 188.315 320.132 186.754 322.883 186.048C323.866 185.796 324.942 185.659 325.869 186.072C326.796 186.485 327.458 187.622 327.039 188.546C326.395 189.965 324.34 189.568 322.785 189.473C318.459 189.21 314.718 194.161 316.153 198.25C317.16 194.346 322.733 192.651 325.857 195.2C328.981 197.748 328.599 203.346 325.258 205.602C324.154 206.348 322.736 206.867 322.232 208.101C321.8 209.158 322.216 210.352 322.63 211.417C323.281 213.087 323.931 214.758 324.582 216.428C325.945 219.931 327.394 223.561 330.154 226.112C332.277 228.074 335.029 229.241 337.837 229.925C347.961 232.393 359.358 228.466 365.813 220.286C366.33 219.63 367.511 220.252 367.603 221.082C367.695 221.912 367.128 222.658 366.567 223.277C363.676 226.458 360.033 228.951 356.021 230.493C354.124 231.221 351.87 232.01 351.287 233.956C350.804 235.568 351.82 237.349 353.279 238.188C354.737 239.026 356.515 239.097 358.188 238.914C361.523 238.549 364.751 237.244 367.402 235.187C368.206 234.564 368.984 233.835 369.341 232.882C369.679 231.98 369.602 230.983 369.52 230.023L369.449 229.198C369.136 225.62 368.731 221.999 367.272 218.727C366.57 217.153 365.631 215.678 365.115 214.034C364.477 212.006 364.516 209.831 364.088 207.749C363.659 205.667 362.575 203.505 360.593 202.737C361.116 201.407 362.423 200.57 363.269 199.418C364.114 198.265 364.239 196.252 362.907 195.732C362.27 195.483 361.545 195.697 360.939 196.012C358.382 197.34 357.002 200.59 357.823 203.352C358.358 205.155 355.511 206.364 353.978 205.275C352.444 204.187 352.067 202.113 351.764 200.257C350.592 193.063 348.24 185.306 342.095 181.384C341.558 181.042 340.943 180.723 340.314 180.824ZM176.021 231.86C176.828 232.122 177.634 232.847 177.466 233.68C177.307 234.467 176.401 234.835 175.61 234.971C174.487 235.163 173.023 234.943 172.708 233.848C172.407 232.807 173.498 231.809 174.575 231.695C175.061 231.644 175.556 231.709 176.021 231.86ZM305.579 216.874C304.826 217.588 304.459 218.607 304.117 219.586C303.345 221.796 302.563 224.071 302.652 226.41C302.709 227.916 301.835 229.273 301.212 230.645C300.588 232.017 300.25 233.774 301.227 234.921C303.562 232.957 304.123 229.652 304.636 226.645C305.25 223.05 306.085 219.323 308.41 216.513C307.596 215.869 306.332 216.16 305.579 216.874ZM244.05 226.894C244.652 227.087 245.332 227.473 245.339 228.104C245.348 228.872 244.403 229.226 243.648 229.364C243.269 229.433 242.89 229.502 242.512 229.572C241.547 229.748 240.513 229.917 239.616 229.52C238.719 229.123 238.121 227.912 238.707 227.125C239.085 226.616 239.782 226.477 240.415 226.438C241.641 226.362 242.881 226.518 244.05 226.894ZM156.302 215.804C157.358 216.309 158.539 217.304 158.148 218.407C147.27 216.035 135.649 217.208 125.465 221.706C120.882 223.729 116.581 226.405 111.838 228.018C110.215 228.57 108.444 228.994 106.805 228.493C105.166 227.993 103.799 226.254 104.278 224.608C104.728 223.064 106.448 222.33 107.972 221.814C115.482 219.271 123.124 217.115 130.855 215.356C139.291 213.437 148.497 212.071 156.302 215.804ZM312.49 215.674C311.714 215.67 311.06 216.24 310.55 216.825C309.311 218.245 308.43 219.947 307.775 221.714C306.962 223.908 306.48 226.226 306.353 228.563C308.602 224.694 311.007 220.915 313.56 217.239C314.003 216.601 313.267 215.677 312.49 215.674ZM298.707 222.566C298.494 222.568 298.269 222.576 298.09 222.69C297.685 222.947 297.741 223.546 297.861 224.011C298.242 225.483 298.77 226.918 299.433 228.287C299.832 226.358 300.471 224.479 301.333 222.708C300.461 222.609 299.584 222.561 298.707 222.566ZM128.257 217.594C121.819 219.573 115.38 221.552 108.941 223.531C108.172 223.767 107.28 224.132 107.116 224.92C107.64 225.684 108.637 226.008 109.562 225.963C110.486 225.919 111.364 225.564 112.222 225.213C118.754 222.544 125.286 219.876 131.818 217.207C130.651 216.881 129.415 217.239 128.257 217.594ZM196.201 221.206C195.856 221.806 195.136 222.061 194.596 222.495C194.057 222.929 193.74 223.863 194.31 224.257C195.182 223.384 196.054 222.511 196.926 221.638C196.746 221.414 196.484 221.258 196.201 221.206ZM264.135 220.742C268.815 221.229 273.538 221.478 278.226 221.074C279.439 220.97 280.889 220.921 281.609 221.903C280.701 222.828 279.272 222.94 277.976 222.995C273.11 223.204 268.244 223.412 263.378 223.62C262.429 223.661 261.227 223.54 260.919 222.641C260.676 221.934 261.227 221.153 261.919 220.869C262.611 220.585 263.391 220.664 264.135 220.742ZM336.491 215.628C337.623 217.006 338.037 218.943 337.565 220.663C337.449 221.088 337.279 221.504 337.007 221.85C336.295 222.759 334.981 223.028 333.859 222.759C332.736 222.49 331.774 221.775 330.917 221.001C330.034 220.204 329.206 219.295 328.782 218.183C328.358 217.071 328.408 215.719 329.159 214.797C329.779 214.036 330.78 213.672 331.759 213.6C333.537 213.47 335.358 214.251 336.491 215.628ZM178.721 218.83C179.168 219.192 179.093 219.942 178.711 220.372C178.329 220.802 177.747 220.985 177.189 221.124C176.531 221.289 175.838 221.417 175.177 221.26C174.517 221.103 173.898 220.591 173.816 219.917C173.699 218.939 174.722 218.174 175.695 218.021C176.757 217.853 177.884 218.155 178.721 218.83ZM331.309 215.953C330.813 216.594 331.139 217.753 331.943 217.862C332.871 217.989 333.593 218.965 333.444 219.89C333.326 220.616 334.212 221.223 334.914 221.005C335.617 220.787 336.023 219.999 336.008 219.264C335.992 218.528 335.641 217.843 335.243 217.224C334.804 216.542 334.268 215.879 333.528 215.547C332.788 215.215 331.805 215.311 331.309 215.953ZM328.837 150.022C322.09 151.258 315.406 154.205 311.054 159.507C306.702 164.809 305.197 172.744 308.599 178.7C309.802 180.805 311.637 182.641 313.945 183.381C316.253 184.122 319.044 183.577 320.584 181.705C322.331 179.582 325.857 181.618 328.486 180.812C332.122 179.697 335.901 179.05 339.701 178.892C340.603 178.855 341.531 178.849 342.372 179.175C343.285 179.529 344.006 180.239 344.7 180.93C347.105 183.326 349.56 185.792 350.984 188.874C353.242 193.762 352.683 199.722 355.536 204.289C355.869 201.425 356.203 198.561 356.536 195.698C356.66 194.635 356.797 193.532 357.372 192.629C357.946 191.727 359.094 191.093 360.1 191.459C361.873 192.103 363.72 192.795 364.993 194.188C366.266 195.581 366.737 197.903 365.514 199.339C364.331 200.728 365.673 202.734 366.301 204.446C367.389 207.412 366.109 210.801 366.965 213.843C367.673 216.362 369.72 218.243 371.675 219.983C372.247 220.491 372.914 221.033 373.676 220.964C374.314 220.906 374.827 220.43 375.263 219.961C377.861 217.159 379.641 213.607 380.33 209.849C380.607 208.333 380.08 206.123 378.552 206.33C378.97 202.692 382.314 200.213 384.279 197.122C386.397 193.789 386.897 189.689 386.994 185.741C387.092 181.772 386.704 177.459 384.059 174.499C380.882 170.942 374.708 170.676 371.237 173.947C370.371 174.762 369.231 175.839 368.199 175.249C369.008 173.798 369.817 172.347 370.626 170.895C371.944 168.53 373.291 166.079 373.559 163.384C374.088 158.068 370.04 153.034 365.035 151.164C360.03 149.294 354.38 150.07 349.359 151.898C348.101 152.357 346.614 153.341 346.956 154.636C347.153 155.386 347.913 155.839 348.303 156.509C348.546 156.927 348.521 157.061 348.247 157.399C348.081 157.604 347.782 158.195 347.513 158.08C344.667 154.783 341.588 151.332 337.415 150.085C334.649 149.259 331.676 149.502 328.837 150.022ZM296.51 218.008C296.154 217.797 295.473 217.659 295.54 218.067C295.732 219.066 296.631 219.808 297.601 220.113C298.571 220.419 299.612 220.367 300.628 220.313C301.025 220.291 301.449 220.261 301.765 220.019C302.03 219.817 302.175 219.499 302.31 219.194C302.541 218.672 302.772 218.149 303.003 217.627C301.116 216.399 298.447 219.156 296.51 218.008ZM242.015 214.597C242.808 214.657 243.596 214.795 244.363 215.01C245.027 215.196 245.79 215.585 245.823 216.274C245.866 217.181 244.686 217.551 243.782 217.629C242.861 217.709 241.941 217.788 241.02 217.868C240.349 217.926 239.591 217.956 239.098 217.497C238.435 216.882 238.703 215.688 239.42 215.137C240.137 214.587 241.113 214.53 242.015 214.597ZM263.543 214.4C267.945 214.99 272.408 215.132 276.839 214.824C277.359 214.787 277.925 214.757 278.354 215.054C278.782 215.351 278.888 216.118 278.421 216.348C278.279 216.418 278.116 216.426 277.958 216.432C272.601 216.634 267.243 216.836 261.886 217.038C261.398 217.056 260.86 217.059 260.484 216.746C259.812 216.186 260.198 214.989 260.969 214.575C261.74 214.162 262.675 214.284 263.543 214.4ZM306.29 210.037C304.58 210.129 302.84 210.287 301.26 210.951C299.681 211.614 298.264 212.862 297.793 214.509C297.697 214.843 297.662 215.254 297.918 215.489C298.117 215.672 298.418 215.675 298.688 215.664C301.53 215.552 304.359 215.129 307.108 214.405C308.475 214.044 310.123 213.175 309.938 211.774C309.841 211.036 309.204 210.459 308.501 210.215C307.798 209.971 307.034 209.997 306.29 210.037ZM108.972 209.831C108.699 211.274 108.633 212.756 108.775 214.218C109.128 214.6 109.593 213.855 109.563 213.336C109.495 212.15 109.296 210.973 108.972 209.831ZM200.458 208.065C210.307 208.51 220.155 208.955 230.004 209.4C230.923 209.442 232.144 209.794 232.09 210.713C230.914 211.467 229.398 211.311 228.01 211.15C219.231 210.127 210.35 209.985 201.543 210.728C200.783 210.793 199.975 210.855 199.297 210.506C198.618 210.157 198.181 209.227 198.621 208.604C199.006 208.059 199.791 208.035 200.458 208.065ZM176.577 207.032C177.011 207.098 177.462 207.211 177.777 207.516C178.496 208.213 178.052 209.539 177.186 210.044C176.321 210.549 175.249 210.478 174.251 210.392C173.155 210.297 172.8 208.654 173.519 207.822C174.239 206.991 175.49 206.868 176.577 207.032ZM211.215 203.39C227.266 204.222 243.316 205.055 259.367 205.888C260.227 205.932 261.364 206.263 261.319 207.122C258.672 207.599 255.931 207.546 253.305 206.967L255.637 208.974C254.525 209.675 253.341 210.399 252.027 210.428C250.713 210.457 249.282 209.488 249.319 208.175C249.984 207.868 250.649 207.561 251.314 207.254C238.348 206.143 225.322 205.738 212.312 206.041C211.561 206.058 210.76 206.065 210.126 205.662C209.492 205.26 209.171 204.281 209.696 203.744C210.071 203.36 210.679 203.362 211.215 203.39ZM315.145 205.536C314.566 205.568 314.076 205.952 313.627 206.318C313.096 206.753 312.565 207.188 312.033 207.623C311.477 208.078 310.873 208.622 310.841 209.341C310.823 209.731 311.12 210.193 311.5 210.106C311.607 210.081 311.699 210.017 311.788 209.954C313.054 209.061 314.32 208.168 315.585 207.276C315.844 207.093 316.119 206.887 316.203 206.583C316.356 206.024 315.723 205.504 315.145 205.536ZM334.834 200.859C334.884 202.161 334.238 203.381 334.008 204.664C333.778 205.946 334.216 207.579 335.484 207.88C335.858 207.968 335.966 208.503 335.755 208.824C335.544 209.146 335.145 209.284 334.767 209.353C333.592 209.566 332.201 209.189 331.661 208.124C331.391 207.591 331.37 206.971 331.355 206.373C331.314 204.774 331.273 203.174 331.231 201.574C331.203 200.481 331.326 199.134 332.327 198.692C333.519 198.167 334.784 199.557 334.834 200.859ZM317.375 208.116C317.143 208.224 316.985 208.474 316.988 208.73L316.93 208.745C317.059 209.03 317.521 209.074 317.701 208.819C317.882 208.563 317.686 208.143 317.375 208.116ZM315.16 199.755C314.629 199.769 314.035 199.865 313.721 200.294C313.386 200.752 313.521 201.424 313.866 201.875C314.211 202.327 314.719 202.617 315.194 202.93C317.191 204.247 318.785 206.166 319.714 208.371C320.346 207.539 320.978 206.707 321.61 205.875C322.082 205.254 322.58 204.543 322.48 203.769C322.408 203.21 322.033 202.74 321.635 202.342C319.946 200.652 317.548 199.694 315.16 199.755ZM111.594 186.885C110.852 186.946 110.467 187.78 110.234 188.487C109.878 189.565 109.523 190.642 109.167 191.72C108.779 192.897 108.387 194.088 108.281 195.323C108.21 196.142 108.266 196.965 108.322 197.785C108.497 200.345 108.671 202.905 108.846 205.465C108.88 205.96 109.256 206.643 109.666 206.363C109.496 199.824 110.145 193.264 111.594 186.885ZM321.55 196.299C320.876 196.555 320.16 197.006 320.062 197.721C319.965 198.435 321.017 199.098 321.425 198.504C321.945 197.745 323.247 198.141 323.677 198.954C324.108 199.768 323.981 200.746 323.975 201.666C323.968 202.586 324.18 203.642 324.982 204.093C325.117 202.862 325.251 201.631 325.386 200.4C325.552 198.88 325.542 196.996 324.206 196.252C323.407 195.807 322.405 195.973 321.55 196.299ZM343.187 195.603C344.28 195.652 345.448 196.033 346.046 196.95C346.644 197.867 346.327 199.369 345.273 199.664C343.769 200.085 342.362 197.966 340.892 198.492C339.972 198.821 339.404 200.114 338.445 199.929C337.85 199.814 337.521 199.101 337.639 198.507C337.758 197.913 338.201 197.438 338.676 197.062C339.941 196.059 341.574 195.531 343.187 195.603ZM175.71 194.52C176.765 194.691 177.797 195.845 177.241 196.757C177.085 197.013 176.831 197.195 176.566 197.335C175.909 197.681 175.098 197.798 174.419 197.496C173.74 197.195 173.262 196.411 173.446 195.692C173.677 194.787 174.789 194.371 175.71 194.52ZM344.901 188.518C345.627 189.208 346.192 190.507 345.38 191.093C344.521 191.712 343.491 190.667 342.669 189.999C341.751 189.253 340.506 188.924 339.339 189.118C338.592 189.242 337.889 189.566 337.14 189.675C336.391 189.784 335.519 189.612 335.111 188.975C334.682 188.307 334.955 187.361 335.544 186.829C336.134 186.298 336.953 186.103 337.744 186.031C340.337 185.794 343.014 186.724 344.901 188.518ZM175.674 186.404C176.321 186.784 176.67 187.678 176.31 188.337C175.834 189.207 174.586 189.195 173.624 188.956C173.277 188.87 172.912 188.756 172.683 188.482C172.135 187.829 172.749 186.804 173.514 186.427C174.187 186.095 175.027 186.024 175.674 186.404Z" fill="#2A323C"/>
<path fill-rule="evenodd" clip-rule="evenodd" d="M78.4352 229.763C78.5237 230.009 78.6054 230.284 78.5043 230.525C78.3228 230.957 77.7319 230.973 77.2635 230.97C73.9691 230.943 70.9064 233.773 70.6724 237.059C70.6477 237.406 70.1706 237.565 69.8619 237.404C69.5532 237.243 69.3943 236.896 69.2876 236.565C68.6857 234.698 69.0735 232.604 70.033 230.893C70.9924 229.182 72.4772 227.816 74.09 226.699C74.7157 226.266 75.4948 225.85 76.2027 226.13C76.6704 226.314 76.976 226.761 77.2307 227.194C77.7104 228.011 78.1142 228.872 78.4352 229.763ZM76.5217 229.39C76.2317 228.503 75.055 228.184 74.1759 228.498C73.2969 228.811 72.656 229.558 72.0578 230.275C71.4907 230.954 70.8974 231.695 70.8305 232.577C72.3464 230.971 74.3607 229.843 76.5217 229.39Z" fill="#FFB61D"/>
</svg>
