<svg width="127" height="128" viewBox="0 0 127 128" fill="none" xmlns="http://www.w3.org/2000/svg">
<path d="M83.6664 73.7794C89.156 74.7052 95.2066 73.7391 99.454 70.8814C105.104 67.0978 105.104 60.8993 99.454 57.1158C95.1665 54.258 89.0358 53.292 83.5462 54.258M43.7165 73.7794C38.2268 74.7052 32.1763 73.7391 27.9288 70.8814C22.2789 67.0978 22.2789 60.8993 27.9288 57.1158C32.2163 54.258 38.3471 53.292 43.8367 54.258M87.7936 44.4772C87.5414 44.4369 87.2844 44.4369 87.0323 44.4772C84.3581 44.38 81.8263 43.2423 79.9719 41.3045C78.1175 39.3666 77.0858 36.7805 77.0949 34.0926C77.0949 28.3368 81.7029 23.708 87.433 23.708C90.1748 23.708 92.8043 24.8021 94.7431 26.7496C96.6819 28.6971 97.771 31.3384 97.771 34.0926C97.7637 36.7824 96.7212 39.3652 94.8616 41.3007C93.002 43.2361 90.4694 44.3743 87.7936 44.4772V44.4772ZM39.5892 44.4772C39.8296 44.4369 40.1101 44.4369 40.3506 44.4772C43.0247 44.38 45.5565 43.2423 47.4109 41.3045C49.2653 39.3666 50.297 36.7805 50.288 34.0926C50.288 28.3368 45.6799 23.708 39.9499 23.708C37.208 23.708 34.5785 24.8021 32.6397 26.7496C30.701 28.6971 29.6118 31.3384 29.6118 34.0926C29.6518 39.7276 34.0595 44.2759 39.5892 44.4772ZM63.7515 74.5442C63.4993 74.5039 63.2424 74.5039 62.9902 74.5442C60.316 74.447 57.7842 73.3093 55.9299 71.3715C54.0755 69.4336 53.0438 66.8475 53.0528 64.1596C53.0528 58.4038 57.6609 53.775 63.3909 53.775C66.1327 53.775 68.7623 54.8691 70.701 56.8166C72.6398 58.764 73.729 61.4054 73.729 64.1596C73.6889 69.7946 69.2812 74.3831 63.7515 74.5442ZM52.0911 87.223C46.4412 91.0065 46.4412 97.2051 52.0911 100.989C58.5023 105.295 69.0007 105.295 75.4119 100.989C81.0618 97.2051 81.0618 91.0065 75.4119 87.223C69.0408 82.9565 58.5023 82.9565 52.0911 87.223Z" stroke="#F9FAFE" stroke-width="5" stroke-linecap="round" stroke-linejoin="round"/>
<path d="M45.4847 3H81.8985C112.243 3 124.381 15.1925 124.381 45.6738V82.2513C124.381 112.733 112.243 124.925 81.8985 124.925H45.4847C15.1399 124.925 3.00195 112.733 3.00195 82.2513V45.6738C3.00195 15.1925 15.1399 3 45.4847 3Z" stroke="#F9FAFE" stroke-width="5" stroke-linecap="round" stroke-linejoin="round"/>
</svg>
